%TF.GenerationSoftware,KiCad,Pcbnew,(5.1.10)-1*%
%TF.CreationDate,2022-06-08T22:38:54-05:00*%
%TF.ProjectId,GBOYBackController,47424f59-4261-4636-9b43-6f6e74726f6c,rev?*%
%TF.SameCoordinates,Original*%
%TF.FileFunction,Copper,L2,Bot*%
%TF.FilePolarity,Positive*%
%FSLAX46Y46*%
G04 Gerber Fmt 4.6, Leading zero omitted, Abs format (unit mm)*
G04 Created by KiCad (PCBNEW (5.1.10)-1) date 2022-06-08 22:38:54*
%MOMM*%
%LPD*%
G01*
G04 APERTURE LIST*
%TA.AperFunction,SMDPad,CuDef*%
%ADD10R,1.600000X1.400000*%
%TD*%
%TA.AperFunction,SMDPad,CuDef*%
%ADD11C,0.100000*%
%TD*%
%TA.AperFunction,ComponentPad*%
%ADD12C,1.500000*%
%TD*%
%TA.AperFunction,Conductor*%
%ADD13C,0.250000*%
%TD*%
%TA.AperFunction,Conductor*%
%ADD14C,0.254000*%
%TD*%
%TA.AperFunction,Conductor*%
%ADD15C,0.100000*%
%TD*%
G04 APERTURE END LIST*
D10*
%TO.P,SW4,2*%
%TO.N,Net-(SW4-Pad2)*%
X166000000Y-97500000D03*
%TO.P,SW4,1*%
%TO.N,Net-(SW4-Pad1)*%
X174800000Y-97500000D03*
%TO.P,SW4,C*%
%TO.N,GND*%
X166000000Y-102000000D03*
%TO.P,SW4,D*%
X174800000Y-102000000D03*
%TD*%
%TO.P,SW2,2*%
%TO.N,Net-(SW2-Pad2)*%
X123700000Y-97500000D03*
%TO.P,SW2,1*%
%TO.N,Net-(SW2-Pad1)*%
X132500000Y-97500000D03*
%TO.P,SW2,C*%
%TO.N,GND*%
X123700000Y-102000000D03*
%TO.P,SW2,D*%
X132500000Y-102000000D03*
%TD*%
%TA.AperFunction,SMDPad,CuDef*%
D11*
%TO.P,U1,4*%
%TO.N,Net-(TP5-Pad1)*%
G36*
X130624902Y-81900490D02*
G01*
X130624809Y-81900462D01*
X130624722Y-81900416D01*
X130624646Y-81900354D01*
X130624584Y-81900278D01*
X130624538Y-81900191D01*
X130624510Y-81900098D01*
X130624500Y-81900000D01*
X130624500Y-81700000D01*
X130125000Y-81700000D01*
X130125000Y-81000000D01*
X130624500Y-81000000D01*
X130624500Y-80800000D01*
X130624510Y-80799902D01*
X130624538Y-80799809D01*
X130624584Y-80799722D01*
X130624646Y-80799646D01*
X130624722Y-80799584D01*
X130624809Y-80799538D01*
X130624902Y-80799510D01*
X130625000Y-80799500D01*
X130825000Y-80799500D01*
X130825098Y-80799510D01*
X130825191Y-80799538D01*
X130825278Y-80799584D01*
X130825354Y-80799646D01*
X130825416Y-80799722D01*
X130825462Y-80799809D01*
X130825490Y-80799902D01*
X130825500Y-80800000D01*
X130825500Y-81900000D01*
X130825490Y-81900098D01*
X130825462Y-81900191D01*
X130825416Y-81900278D01*
X130825354Y-81900354D01*
X130825278Y-81900416D01*
X130825191Y-81900462D01*
X130825098Y-81900490D01*
X130825000Y-81900500D01*
X130625000Y-81900500D01*
X130624902Y-81900490D01*
G37*
%TD.AperFunction*%
%TA.AperFunction,SMDPad,CuDef*%
%TO.P,U1,2*%
%TO.N,GND*%
G36*
X130624902Y-85400490D02*
G01*
X130624809Y-85400462D01*
X130624722Y-85400416D01*
X130624646Y-85400354D01*
X130624584Y-85400278D01*
X130624538Y-85400191D01*
X130624510Y-85400098D01*
X130624500Y-85400000D01*
X130624500Y-85200000D01*
X130125000Y-85200000D01*
X130125000Y-84500000D01*
X130624500Y-84500000D01*
X130624500Y-84300000D01*
X130624510Y-84299902D01*
X130624538Y-84299809D01*
X130624584Y-84299722D01*
X130624646Y-84299646D01*
X130624722Y-84299584D01*
X130624809Y-84299538D01*
X130624902Y-84299510D01*
X130625000Y-84299500D01*
X130825000Y-84299500D01*
X130825098Y-84299510D01*
X130825191Y-84299538D01*
X130825278Y-84299584D01*
X130825354Y-84299646D01*
X130825416Y-84299722D01*
X130825462Y-84299809D01*
X130825490Y-84299902D01*
X130825500Y-84300000D01*
X130825500Y-85400000D01*
X130825490Y-85400098D01*
X130825462Y-85400191D01*
X130825416Y-85400278D01*
X130825354Y-85400354D01*
X130825278Y-85400416D01*
X130825191Y-85400462D01*
X130825098Y-85400490D01*
X130825000Y-85400500D01*
X130625000Y-85400500D01*
X130624902Y-85400490D01*
G37*
%TD.AperFunction*%
%TA.AperFunction,SMDPad,CuDef*%
%TO.P,U1,1*%
G36*
X125875098Y-84299510D02*
G01*
X125875191Y-84299538D01*
X125875278Y-84299584D01*
X125875354Y-84299646D01*
X125875416Y-84299722D01*
X125875462Y-84299809D01*
X125875490Y-84299902D01*
X125875500Y-84300000D01*
X125875500Y-84500000D01*
X126375000Y-84500000D01*
X126375000Y-85200000D01*
X125875500Y-85200000D01*
X125875500Y-85400000D01*
X125875490Y-85400098D01*
X125875462Y-85400191D01*
X125875416Y-85400278D01*
X125875354Y-85400354D01*
X125875278Y-85400416D01*
X125875191Y-85400462D01*
X125875098Y-85400490D01*
X125875000Y-85400500D01*
X125675000Y-85400500D01*
X125674902Y-85400490D01*
X125674809Y-85400462D01*
X125674722Y-85400416D01*
X125674646Y-85400354D01*
X125674584Y-85400278D01*
X125674538Y-85400191D01*
X125674510Y-85400098D01*
X125674500Y-85400000D01*
X125674500Y-84300000D01*
X125674510Y-84299902D01*
X125674538Y-84299809D01*
X125674584Y-84299722D01*
X125674646Y-84299646D01*
X125674722Y-84299584D01*
X125674809Y-84299538D01*
X125674902Y-84299510D01*
X125675000Y-84299500D01*
X125875000Y-84299500D01*
X125875098Y-84299510D01*
G37*
%TD.AperFunction*%
%TA.AperFunction,SMDPad,CuDef*%
%TO.P,U1,3*%
%TO.N,Net-(TP5-Pad1)*%
G36*
X125875098Y-80799510D02*
G01*
X125875191Y-80799538D01*
X125875278Y-80799584D01*
X125875354Y-80799646D01*
X125875416Y-80799722D01*
X125875462Y-80799809D01*
X125875490Y-80799902D01*
X125875500Y-80800000D01*
X125875500Y-81000000D01*
X126375000Y-81000000D01*
X126375000Y-81700000D01*
X125875500Y-81700000D01*
X125875500Y-81900000D01*
X125875490Y-81900098D01*
X125875462Y-81900191D01*
X125875416Y-81900278D01*
X125875354Y-81900354D01*
X125875278Y-81900416D01*
X125875191Y-81900462D01*
X125875098Y-81900490D01*
X125875000Y-81900500D01*
X125675000Y-81900500D01*
X125674902Y-81900490D01*
X125674809Y-81900462D01*
X125674722Y-81900416D01*
X125674646Y-81900354D01*
X125674584Y-81900278D01*
X125674538Y-81900191D01*
X125674510Y-81900098D01*
X125674500Y-81900000D01*
X125674500Y-80800000D01*
X125674510Y-80799902D01*
X125674538Y-80799809D01*
X125674584Y-80799722D01*
X125674646Y-80799646D01*
X125674722Y-80799584D01*
X125674809Y-80799538D01*
X125674902Y-80799510D01*
X125675000Y-80799500D01*
X125875000Y-80799500D01*
X125875098Y-80799510D01*
G37*
%TD.AperFunction*%
%TD*%
D12*
%TO.P,TP7,1*%
%TO.N,GND*%
X180000000Y-86500000D03*
%TD*%
%TO.P,TP6,1*%
%TO.N,Net-(TP6-Pad1)*%
X180000000Y-81500000D03*
%TD*%
%TO.P,TP5,1*%
%TO.N,Net-(TP5-Pad1)*%
X180000000Y-84000000D03*
%TD*%
%TO.P,TP4,1*%
%TO.N,Net-(SW2-Pad1)*%
X180000000Y-89000000D03*
%TD*%
%TO.P,TP3,1*%
%TO.N,Net-(SW2-Pad2)*%
X180000000Y-91500000D03*
%TD*%
%TO.P,TP2,1*%
%TO.N,Net-(SW4-Pad1)*%
X180000000Y-94000000D03*
%TD*%
%TO.P,TP1,1*%
%TO.N,Net-(SW4-Pad2)*%
X180000000Y-96500000D03*
%TD*%
%TA.AperFunction,SMDPad,CuDef*%
D11*
%TO.P,U2,4*%
%TO.N,Net-(TP6-Pad1)*%
G36*
X172624902Y-81900490D02*
G01*
X172624809Y-81900462D01*
X172624722Y-81900416D01*
X172624646Y-81900354D01*
X172624584Y-81900278D01*
X172624538Y-81900191D01*
X172624510Y-81900098D01*
X172624500Y-81900000D01*
X172624500Y-81700000D01*
X172125000Y-81700000D01*
X172125000Y-81000000D01*
X172624500Y-81000000D01*
X172624500Y-80800000D01*
X172624510Y-80799902D01*
X172624538Y-80799809D01*
X172624584Y-80799722D01*
X172624646Y-80799646D01*
X172624722Y-80799584D01*
X172624809Y-80799538D01*
X172624902Y-80799510D01*
X172625000Y-80799500D01*
X172825000Y-80799500D01*
X172825098Y-80799510D01*
X172825191Y-80799538D01*
X172825278Y-80799584D01*
X172825354Y-80799646D01*
X172825416Y-80799722D01*
X172825462Y-80799809D01*
X172825490Y-80799902D01*
X172825500Y-80800000D01*
X172825500Y-81900000D01*
X172825490Y-81900098D01*
X172825462Y-81900191D01*
X172825416Y-81900278D01*
X172825354Y-81900354D01*
X172825278Y-81900416D01*
X172825191Y-81900462D01*
X172825098Y-81900490D01*
X172825000Y-81900500D01*
X172625000Y-81900500D01*
X172624902Y-81900490D01*
G37*
%TD.AperFunction*%
%TA.AperFunction,SMDPad,CuDef*%
%TO.P,U2,2*%
%TO.N,GND*%
G36*
X172624902Y-85400490D02*
G01*
X172624809Y-85400462D01*
X172624722Y-85400416D01*
X172624646Y-85400354D01*
X172624584Y-85400278D01*
X172624538Y-85400191D01*
X172624510Y-85400098D01*
X172624500Y-85400000D01*
X172624500Y-85200000D01*
X172125000Y-85200000D01*
X172125000Y-84500000D01*
X172624500Y-84500000D01*
X172624500Y-84300000D01*
X172624510Y-84299902D01*
X172624538Y-84299809D01*
X172624584Y-84299722D01*
X172624646Y-84299646D01*
X172624722Y-84299584D01*
X172624809Y-84299538D01*
X172624902Y-84299510D01*
X172625000Y-84299500D01*
X172825000Y-84299500D01*
X172825098Y-84299510D01*
X172825191Y-84299538D01*
X172825278Y-84299584D01*
X172825354Y-84299646D01*
X172825416Y-84299722D01*
X172825462Y-84299809D01*
X172825490Y-84299902D01*
X172825500Y-84300000D01*
X172825500Y-85400000D01*
X172825490Y-85400098D01*
X172825462Y-85400191D01*
X172825416Y-85400278D01*
X172825354Y-85400354D01*
X172825278Y-85400416D01*
X172825191Y-85400462D01*
X172825098Y-85400490D01*
X172825000Y-85400500D01*
X172625000Y-85400500D01*
X172624902Y-85400490D01*
G37*
%TD.AperFunction*%
%TA.AperFunction,SMDPad,CuDef*%
%TO.P,U2,1*%
G36*
X167875098Y-84299510D02*
G01*
X167875191Y-84299538D01*
X167875278Y-84299584D01*
X167875354Y-84299646D01*
X167875416Y-84299722D01*
X167875462Y-84299809D01*
X167875490Y-84299902D01*
X167875500Y-84300000D01*
X167875500Y-84500000D01*
X168375000Y-84500000D01*
X168375000Y-85200000D01*
X167875500Y-85200000D01*
X167875500Y-85400000D01*
X167875490Y-85400098D01*
X167875462Y-85400191D01*
X167875416Y-85400278D01*
X167875354Y-85400354D01*
X167875278Y-85400416D01*
X167875191Y-85400462D01*
X167875098Y-85400490D01*
X167875000Y-85400500D01*
X167675000Y-85400500D01*
X167674902Y-85400490D01*
X167674809Y-85400462D01*
X167674722Y-85400416D01*
X167674646Y-85400354D01*
X167674584Y-85400278D01*
X167674538Y-85400191D01*
X167674510Y-85400098D01*
X167674500Y-85400000D01*
X167674500Y-84300000D01*
X167674510Y-84299902D01*
X167674538Y-84299809D01*
X167674584Y-84299722D01*
X167674646Y-84299646D01*
X167674722Y-84299584D01*
X167674809Y-84299538D01*
X167674902Y-84299510D01*
X167675000Y-84299500D01*
X167875000Y-84299500D01*
X167875098Y-84299510D01*
G37*
%TD.AperFunction*%
%TA.AperFunction,SMDPad,CuDef*%
%TO.P,U2,3*%
%TO.N,Net-(TP6-Pad1)*%
G36*
X167875098Y-80799510D02*
G01*
X167875191Y-80799538D01*
X167875278Y-80799584D01*
X167875354Y-80799646D01*
X167875416Y-80799722D01*
X167875462Y-80799809D01*
X167875490Y-80799902D01*
X167875500Y-80800000D01*
X167875500Y-81000000D01*
X168375000Y-81000000D01*
X168375000Y-81700000D01*
X167875500Y-81700000D01*
X167875500Y-81900000D01*
X167875490Y-81900098D01*
X167875462Y-81900191D01*
X167875416Y-81900278D01*
X167875354Y-81900354D01*
X167875278Y-81900416D01*
X167875191Y-81900462D01*
X167875098Y-81900490D01*
X167875000Y-81900500D01*
X167675000Y-81900500D01*
X167674902Y-81900490D01*
X167674809Y-81900462D01*
X167674722Y-81900416D01*
X167674646Y-81900354D01*
X167674584Y-81900278D01*
X167674538Y-81900191D01*
X167674510Y-81900098D01*
X167674500Y-81900000D01*
X167674500Y-80800000D01*
X167674510Y-80799902D01*
X167674538Y-80799809D01*
X167674584Y-80799722D01*
X167674646Y-80799646D01*
X167674722Y-80799584D01*
X167674809Y-80799538D01*
X167674902Y-80799510D01*
X167675000Y-80799500D01*
X167875000Y-80799500D01*
X167875098Y-80799510D01*
G37*
%TD.AperFunction*%
%TD*%
D13*
%TO.N,Net-(SW2-Pad2)*%
X126200000Y-100000000D02*
X123700000Y-97500000D01*
X136000000Y-100000000D02*
X126200000Y-100000000D01*
X144500000Y-91500000D02*
X136000000Y-100000000D01*
X180000000Y-91500000D02*
X144500000Y-91500000D01*
%TO.N,Net-(SW2-Pad1)*%
X180000000Y-89000000D02*
X178000000Y-89000000D01*
X178000000Y-89000000D02*
X176000000Y-91000000D01*
X176000000Y-91000000D02*
X144363590Y-91000000D01*
X137863590Y-97500000D02*
X132500000Y-97500000D01*
X144363590Y-91000000D02*
X137863590Y-97500000D01*
%TO.N,Net-(SW4-Pad2)*%
X180000000Y-96500000D02*
X176750000Y-99750000D01*
X168250000Y-99750000D02*
X166000000Y-97500000D01*
X176750000Y-99750000D02*
X168250000Y-99750000D01*
%TO.N,Net-(SW4-Pad1)*%
X178300000Y-94000000D02*
X174800000Y-97500000D01*
X180000000Y-94000000D02*
X178300000Y-94000000D01*
%TO.N,Net-(TP5-Pad1)*%
X130375000Y-81619988D02*
X130375000Y-81350000D01*
X139255012Y-90500000D02*
X130375000Y-81619988D01*
X173500000Y-90500000D02*
X139255012Y-90500000D01*
X180000000Y-84000000D02*
X173500000Y-90500000D01*
X126125000Y-81350000D02*
X130375000Y-81350000D01*
%TO.N,Net-(TP6-Pad1)*%
X172525000Y-81500000D02*
X172375000Y-81350000D01*
X180000000Y-81500000D02*
X172525000Y-81500000D01*
X172375000Y-81350000D02*
X168125000Y-81350000D01*
%TD*%
D14*
%TO.N,GND*%
X126902337Y-74894002D02*
X126712463Y-75178169D01*
X126581675Y-75493919D01*
X126515000Y-75829117D01*
X126515000Y-76170883D01*
X126581675Y-76506081D01*
X126712463Y-76821831D01*
X126902337Y-77105998D01*
X127144002Y-77347663D01*
X127428169Y-77537537D01*
X127743919Y-77668325D01*
X128079117Y-77735000D01*
X128420883Y-77735000D01*
X128756081Y-77668325D01*
X129071831Y-77537537D01*
X129355998Y-77347663D01*
X129597663Y-77105998D01*
X129787537Y-76821831D01*
X129918325Y-76506081D01*
X129985000Y-76170883D01*
X129985000Y-75829117D01*
X129918325Y-75493919D01*
X129787537Y-75178169D01*
X129597663Y-74894002D01*
X129363661Y-74660000D01*
X132090000Y-74660000D01*
X132090001Y-82260188D01*
X131463572Y-81633759D01*
X131463572Y-80800000D01*
X131460276Y-80735227D01*
X131460266Y-80735129D01*
X131436471Y-80615951D01*
X131436443Y-80615858D01*
X131389540Y-80501561D01*
X131389494Y-80501474D01*
X131319836Y-80396380D01*
X131319774Y-80396304D01*
X131228696Y-80305226D01*
X131228620Y-80305164D01*
X131123526Y-80235506D01*
X131123439Y-80235460D01*
X131009142Y-80188557D01*
X131009049Y-80188529D01*
X130889871Y-80164734D01*
X130889773Y-80164724D01*
X130825000Y-80161428D01*
X130625000Y-80161428D01*
X130560227Y-80164724D01*
X130560129Y-80164734D01*
X130440951Y-80188529D01*
X130440858Y-80188557D01*
X130326561Y-80235460D01*
X130326474Y-80235506D01*
X130221380Y-80305164D01*
X130221304Y-80305226D01*
X130164602Y-80361928D01*
X130125000Y-80361928D01*
X130000518Y-80374188D01*
X129880820Y-80410498D01*
X129770506Y-80469463D01*
X129673815Y-80548815D01*
X129640015Y-80590000D01*
X126859985Y-80590000D01*
X126826185Y-80548815D01*
X126729494Y-80469463D01*
X126619180Y-80410498D01*
X126499482Y-80374188D01*
X126375000Y-80361928D01*
X126335398Y-80361928D01*
X126278696Y-80305226D01*
X126278620Y-80305164D01*
X126173526Y-80235506D01*
X126173439Y-80235460D01*
X126059142Y-80188557D01*
X126059049Y-80188529D01*
X125939871Y-80164734D01*
X125939773Y-80164724D01*
X125875000Y-80161428D01*
X125675000Y-80161428D01*
X125610227Y-80164724D01*
X125610129Y-80164734D01*
X125490951Y-80188529D01*
X125490858Y-80188557D01*
X125376561Y-80235460D01*
X125376474Y-80235506D01*
X125271380Y-80305164D01*
X125271304Y-80305226D01*
X125180226Y-80396304D01*
X125180164Y-80396380D01*
X125110506Y-80501474D01*
X125110460Y-80501561D01*
X125063557Y-80615858D01*
X125063529Y-80615951D01*
X125039734Y-80735129D01*
X125039724Y-80735227D01*
X125036428Y-80800000D01*
X125036428Y-81900000D01*
X125039724Y-81964773D01*
X125039734Y-81964871D01*
X125063529Y-82084049D01*
X125063557Y-82084142D01*
X125110460Y-82198439D01*
X125110506Y-82198526D01*
X125180164Y-82303620D01*
X125180226Y-82303696D01*
X125271304Y-82394774D01*
X125271380Y-82394836D01*
X125376474Y-82464494D01*
X125376561Y-82464540D01*
X125490858Y-82511443D01*
X125490951Y-82511471D01*
X125610129Y-82535266D01*
X125610227Y-82535276D01*
X125675000Y-82538572D01*
X125875000Y-82538572D01*
X125939773Y-82535276D01*
X125939871Y-82535266D01*
X126059049Y-82511471D01*
X126059142Y-82511443D01*
X126173439Y-82464540D01*
X126173526Y-82464494D01*
X126278620Y-82394836D01*
X126278696Y-82394774D01*
X126335398Y-82338072D01*
X126375000Y-82338072D01*
X126499482Y-82325812D01*
X126619180Y-82289502D01*
X126729494Y-82230537D01*
X126826185Y-82151185D01*
X126859985Y-82110000D01*
X129640015Y-82110000D01*
X129673815Y-82151185D01*
X129770506Y-82230537D01*
X129880820Y-82289502D01*
X130000518Y-82325812D01*
X130006624Y-82326413D01*
X138691217Y-91011008D01*
X138715011Y-91040001D01*
X138744004Y-91063795D01*
X138744008Y-91063799D01*
X138783259Y-91096011D01*
X138830736Y-91134974D01*
X138962765Y-91205546D01*
X139106026Y-91249003D01*
X139217679Y-91260000D01*
X139217688Y-91260000D01*
X139255011Y-91263676D01*
X139292334Y-91260000D01*
X143028788Y-91260000D01*
X137548789Y-96740000D01*
X133932163Y-96740000D01*
X133925812Y-96675518D01*
X133889502Y-96555820D01*
X133830537Y-96445506D01*
X133751185Y-96348815D01*
X133654494Y-96269463D01*
X133544180Y-96210498D01*
X133424482Y-96174188D01*
X133300000Y-96161928D01*
X131700000Y-96161928D01*
X131575518Y-96174188D01*
X131455820Y-96210498D01*
X131345506Y-96269463D01*
X131248815Y-96348815D01*
X131169463Y-96445506D01*
X131110498Y-96555820D01*
X131074188Y-96675518D01*
X131061928Y-96800000D01*
X131061928Y-98200000D01*
X131074188Y-98324482D01*
X131110498Y-98444180D01*
X131169463Y-98554494D01*
X131248815Y-98651185D01*
X131345506Y-98730537D01*
X131455820Y-98789502D01*
X131575518Y-98825812D01*
X131700000Y-98838072D01*
X133300000Y-98838072D01*
X133424482Y-98825812D01*
X133544180Y-98789502D01*
X133654494Y-98730537D01*
X133751185Y-98651185D01*
X133830537Y-98554494D01*
X133889502Y-98444180D01*
X133925812Y-98324482D01*
X133932163Y-98260000D01*
X136665199Y-98260000D01*
X135685199Y-99240000D01*
X126514802Y-99240000D01*
X125163014Y-97888212D01*
X125965000Y-97888212D01*
X125965000Y-98111788D01*
X126008617Y-98331067D01*
X126094176Y-98537624D01*
X126218388Y-98723520D01*
X126376480Y-98881612D01*
X126562376Y-99005824D01*
X126768933Y-99091383D01*
X126988212Y-99135000D01*
X127211788Y-99135000D01*
X127431067Y-99091383D01*
X127637624Y-99005824D01*
X127823520Y-98881612D01*
X127981612Y-98723520D01*
X128105824Y-98537624D01*
X128191383Y-98331067D01*
X128235000Y-98111788D01*
X128235000Y-97888212D01*
X128191383Y-97668933D01*
X128105824Y-97462376D01*
X127981612Y-97276480D01*
X127823520Y-97118388D01*
X127637624Y-96994176D01*
X127431067Y-96908617D01*
X127211788Y-96865000D01*
X126988212Y-96865000D01*
X126768933Y-96908617D01*
X126562376Y-96994176D01*
X126376480Y-97118388D01*
X126218388Y-97276480D01*
X126094176Y-97462376D01*
X126008617Y-97668933D01*
X125965000Y-97888212D01*
X125163014Y-97888212D01*
X125138072Y-97863271D01*
X125138072Y-96800000D01*
X125125812Y-96675518D01*
X125089502Y-96555820D01*
X125030537Y-96445506D01*
X124951185Y-96348815D01*
X124854494Y-96269463D01*
X124744180Y-96210498D01*
X124624482Y-96174188D01*
X124500000Y-96161928D01*
X122900000Y-96161928D01*
X122775518Y-96174188D01*
X122655820Y-96210498D01*
X122545506Y-96269463D01*
X122448815Y-96348815D01*
X122369463Y-96445506D01*
X122310498Y-96555820D01*
X122274188Y-96675518D01*
X122261928Y-96800000D01*
X122261928Y-98200000D01*
X122274188Y-98324482D01*
X122310498Y-98444180D01*
X122369463Y-98554494D01*
X122448815Y-98651185D01*
X122545506Y-98730537D01*
X122655820Y-98789502D01*
X122775518Y-98825812D01*
X122900000Y-98838072D01*
X123963271Y-98838072D01*
X125636201Y-100511003D01*
X125659999Y-100540001D01*
X125688997Y-100563799D01*
X125775723Y-100634974D01*
X125808207Y-100652337D01*
X125907753Y-100705546D01*
X126051014Y-100749003D01*
X126162667Y-100760000D01*
X126162677Y-100760000D01*
X126200000Y-100763676D01*
X126234600Y-100760268D01*
X126218388Y-100776480D01*
X126094176Y-100962376D01*
X126008617Y-101168933D01*
X125965000Y-101388212D01*
X125965000Y-101611788D01*
X126008617Y-101831067D01*
X126094176Y-102037624D01*
X126218388Y-102223520D01*
X126376480Y-102381612D01*
X126562376Y-102505824D01*
X126768933Y-102591383D01*
X126988212Y-102635000D01*
X127211788Y-102635000D01*
X127431067Y-102591383D01*
X127637624Y-102505824D01*
X127823520Y-102381612D01*
X127981612Y-102223520D01*
X128105824Y-102037624D01*
X128191383Y-101831067D01*
X128235000Y-101611788D01*
X128235000Y-101388212D01*
X128191383Y-101168933D01*
X128105824Y-100962376D01*
X127981612Y-100776480D01*
X127965132Y-100760000D01*
X135962678Y-100760000D01*
X136000000Y-100763676D01*
X136037322Y-100760000D01*
X136037333Y-100760000D01*
X136148986Y-100749003D01*
X136292247Y-100705546D01*
X136424276Y-100634974D01*
X136540001Y-100540001D01*
X136563804Y-100510997D01*
X144814802Y-92260000D01*
X178842091Y-92260000D01*
X178924201Y-92382886D01*
X179117114Y-92575799D01*
X179343957Y-92727371D01*
X179398588Y-92750000D01*
X179343957Y-92772629D01*
X179117114Y-92924201D01*
X178924201Y-93117114D01*
X178842091Y-93240000D01*
X178337322Y-93240000D01*
X178299999Y-93236324D01*
X178262676Y-93240000D01*
X178262667Y-93240000D01*
X178151014Y-93250997D01*
X178007753Y-93294454D01*
X177875724Y-93365026D01*
X177875722Y-93365027D01*
X177875723Y-93365027D01*
X177788996Y-93436201D01*
X177788992Y-93436205D01*
X177759999Y-93459999D01*
X177736205Y-93488992D01*
X175063271Y-96161928D01*
X174000000Y-96161928D01*
X173875518Y-96174188D01*
X173755820Y-96210498D01*
X173645506Y-96269463D01*
X173548815Y-96348815D01*
X173469463Y-96445506D01*
X173410498Y-96555820D01*
X173374188Y-96675518D01*
X173361928Y-96800000D01*
X173361928Y-98200000D01*
X173374188Y-98324482D01*
X173410498Y-98444180D01*
X173469463Y-98554494D01*
X173548815Y-98651185D01*
X173645506Y-98730537D01*
X173755820Y-98789502D01*
X173875518Y-98825812D01*
X174000000Y-98838072D01*
X175600000Y-98838072D01*
X175724482Y-98825812D01*
X175844180Y-98789502D01*
X175954494Y-98730537D01*
X176051185Y-98651185D01*
X176130537Y-98554494D01*
X176189502Y-98444180D01*
X176225812Y-98324482D01*
X176238072Y-98200000D01*
X176238072Y-97136730D01*
X178614803Y-94760000D01*
X178842091Y-94760000D01*
X178924201Y-94882886D01*
X179117114Y-95075799D01*
X179343957Y-95227371D01*
X179398588Y-95250000D01*
X179343957Y-95272629D01*
X179117114Y-95424201D01*
X178924201Y-95617114D01*
X178772629Y-95843957D01*
X178668225Y-96096011D01*
X178615000Y-96363589D01*
X178615000Y-96636411D01*
X178643833Y-96781365D01*
X176435199Y-98990000D01*
X169961306Y-98990000D01*
X170123520Y-98881612D01*
X170281612Y-98723520D01*
X170405824Y-98537624D01*
X170491383Y-98331067D01*
X170535000Y-98111788D01*
X170535000Y-97888212D01*
X170491383Y-97668933D01*
X170405824Y-97462376D01*
X170281612Y-97276480D01*
X170123520Y-97118388D01*
X169937624Y-96994176D01*
X169731067Y-96908617D01*
X169511788Y-96865000D01*
X169288212Y-96865000D01*
X169068933Y-96908617D01*
X168862376Y-96994176D01*
X168676480Y-97118388D01*
X168518388Y-97276480D01*
X168394176Y-97462376D01*
X168308617Y-97668933D01*
X168265000Y-97888212D01*
X168265000Y-98111788D01*
X168308617Y-98331067D01*
X168394176Y-98537624D01*
X168518388Y-98723520D01*
X168676480Y-98881612D01*
X168838694Y-98990000D01*
X168564802Y-98990000D01*
X167438072Y-97863271D01*
X167438072Y-96800000D01*
X167425812Y-96675518D01*
X167389502Y-96555820D01*
X167330537Y-96445506D01*
X167251185Y-96348815D01*
X167154494Y-96269463D01*
X167044180Y-96210498D01*
X166924482Y-96174188D01*
X166800000Y-96161928D01*
X165200000Y-96161928D01*
X165075518Y-96174188D01*
X164955820Y-96210498D01*
X164845506Y-96269463D01*
X164748815Y-96348815D01*
X164669463Y-96445506D01*
X164610498Y-96555820D01*
X164574188Y-96675518D01*
X164561928Y-96800000D01*
X164561928Y-98200000D01*
X164574188Y-98324482D01*
X164610498Y-98444180D01*
X164669463Y-98554494D01*
X164748815Y-98651185D01*
X164845506Y-98730537D01*
X164955820Y-98789502D01*
X165075518Y-98825812D01*
X165200000Y-98838072D01*
X166263271Y-98838072D01*
X167686201Y-100261003D01*
X167709999Y-100290001D01*
X167738997Y-100313799D01*
X167825724Y-100384974D01*
X167957753Y-100455546D01*
X168101014Y-100499003D01*
X168250000Y-100513677D01*
X168287333Y-100510000D01*
X168838694Y-100510000D01*
X168676480Y-100618388D01*
X168518388Y-100776480D01*
X168394176Y-100962376D01*
X168308617Y-101168933D01*
X168265000Y-101388212D01*
X168265000Y-101611788D01*
X168308617Y-101831067D01*
X168394176Y-102037624D01*
X168518388Y-102223520D01*
X168676480Y-102381612D01*
X168862376Y-102505824D01*
X169068933Y-102591383D01*
X169288212Y-102635000D01*
X169511788Y-102635000D01*
X169731067Y-102591383D01*
X169937624Y-102505824D01*
X170123520Y-102381612D01*
X170281612Y-102223520D01*
X170405824Y-102037624D01*
X170491383Y-101831067D01*
X170535000Y-101611788D01*
X170535000Y-101388212D01*
X170491383Y-101168933D01*
X170405824Y-100962376D01*
X170281612Y-100776480D01*
X170123520Y-100618388D01*
X169961306Y-100510000D01*
X176712678Y-100510000D01*
X176750000Y-100513676D01*
X176787322Y-100510000D01*
X176787333Y-100510000D01*
X176898986Y-100499003D01*
X177042247Y-100455546D01*
X177174276Y-100384974D01*
X177290001Y-100290001D01*
X177313804Y-100260997D01*
X179718635Y-97856167D01*
X179863589Y-97885000D01*
X180136411Y-97885000D01*
X180403989Y-97831775D01*
X180656043Y-97727371D01*
X180882886Y-97575799D01*
X181075799Y-97382886D01*
X181227371Y-97156043D01*
X181331775Y-96903989D01*
X181385000Y-96636411D01*
X181385000Y-96363589D01*
X181331775Y-96096011D01*
X181227371Y-95843957D01*
X181075799Y-95617114D01*
X180882886Y-95424201D01*
X180656043Y-95272629D01*
X180601412Y-95250000D01*
X180656043Y-95227371D01*
X180882886Y-95075799D01*
X181075799Y-94882886D01*
X181227371Y-94656043D01*
X181331775Y-94403989D01*
X181385000Y-94136411D01*
X181385000Y-93863589D01*
X181331775Y-93596011D01*
X181227371Y-93343957D01*
X181075799Y-93117114D01*
X180882886Y-92924201D01*
X180656043Y-92772629D01*
X180601412Y-92750000D01*
X180656043Y-92727371D01*
X180882886Y-92575799D01*
X181075799Y-92382886D01*
X181227371Y-92156043D01*
X181331775Y-91903989D01*
X181385000Y-91636411D01*
X181385000Y-91363589D01*
X181331775Y-91096011D01*
X181227371Y-90843957D01*
X181075799Y-90617114D01*
X180882886Y-90424201D01*
X180656043Y-90272629D01*
X180601412Y-90250000D01*
X180656043Y-90227371D01*
X180882886Y-90075799D01*
X181075799Y-89882886D01*
X181227371Y-89656043D01*
X181331775Y-89403989D01*
X181385000Y-89136411D01*
X181385000Y-88863589D01*
X181331775Y-88596011D01*
X181227371Y-88343957D01*
X181075799Y-88117114D01*
X180882886Y-87924201D01*
X180656043Y-87772629D01*
X180403989Y-87668225D01*
X180136411Y-87615000D01*
X179863589Y-87615000D01*
X179596011Y-87668225D01*
X179343957Y-87772629D01*
X179117114Y-87924201D01*
X178924201Y-88117114D01*
X178842091Y-88240000D01*
X178037322Y-88240000D01*
X177999999Y-88236324D01*
X177962676Y-88240000D01*
X177962667Y-88240000D01*
X177851014Y-88250997D01*
X177707753Y-88294454D01*
X177575723Y-88365026D01*
X177492083Y-88433668D01*
X177459999Y-88459999D01*
X177436201Y-88488997D01*
X175685199Y-90240000D01*
X174834801Y-90240000D01*
X179718635Y-85356167D01*
X179863589Y-85385000D01*
X180136411Y-85385000D01*
X180403989Y-85331775D01*
X180656043Y-85227371D01*
X180882886Y-85075799D01*
X181075799Y-84882886D01*
X181227371Y-84656043D01*
X181331775Y-84403989D01*
X181385000Y-84136411D01*
X181385000Y-83863589D01*
X181331775Y-83596011D01*
X181227371Y-83343957D01*
X181075799Y-83117114D01*
X180882886Y-82924201D01*
X180656043Y-82772629D01*
X180601412Y-82750000D01*
X180656043Y-82727371D01*
X180882886Y-82575799D01*
X181075799Y-82382886D01*
X181227371Y-82156043D01*
X181331775Y-81903989D01*
X181385000Y-81636411D01*
X181385000Y-81363589D01*
X181331775Y-81096011D01*
X181227371Y-80843957D01*
X181075799Y-80617114D01*
X180882886Y-80424201D01*
X180656043Y-80272629D01*
X180403989Y-80168225D01*
X180136411Y-80115000D01*
X179863589Y-80115000D01*
X179596011Y-80168225D01*
X179343957Y-80272629D01*
X179117114Y-80424201D01*
X178924201Y-80617114D01*
X178842091Y-80740000D01*
X173460519Y-80740000D01*
X173460276Y-80735227D01*
X173460266Y-80735129D01*
X173436471Y-80615951D01*
X173436443Y-80615858D01*
X173389540Y-80501561D01*
X173389494Y-80501474D01*
X173319836Y-80396380D01*
X173319774Y-80396304D01*
X173228696Y-80305226D01*
X173228620Y-80305164D01*
X173123526Y-80235506D01*
X173123439Y-80235460D01*
X173009142Y-80188557D01*
X173009049Y-80188529D01*
X172889871Y-80164734D01*
X172889773Y-80164724D01*
X172825000Y-80161428D01*
X172625000Y-80161428D01*
X172560227Y-80164724D01*
X172560129Y-80164734D01*
X172440951Y-80188529D01*
X172440858Y-80188557D01*
X172326561Y-80235460D01*
X172326474Y-80235506D01*
X172221380Y-80305164D01*
X172221304Y-80305226D01*
X172164602Y-80361928D01*
X172125000Y-80361928D01*
X172000518Y-80374188D01*
X171880820Y-80410498D01*
X171770506Y-80469463D01*
X171673815Y-80548815D01*
X171640015Y-80590000D01*
X168859985Y-80590000D01*
X168826185Y-80548815D01*
X168729494Y-80469463D01*
X168619180Y-80410498D01*
X168499482Y-80374188D01*
X168375000Y-80361928D01*
X168335398Y-80361928D01*
X168278696Y-80305226D01*
X168278620Y-80305164D01*
X168173526Y-80235506D01*
X168173439Y-80235460D01*
X168059142Y-80188557D01*
X168059049Y-80188529D01*
X167939871Y-80164734D01*
X167939773Y-80164724D01*
X167875000Y-80161428D01*
X167675000Y-80161428D01*
X167610227Y-80164724D01*
X167610129Y-80164734D01*
X167490951Y-80188529D01*
X167490858Y-80188557D01*
X167376561Y-80235460D01*
X167376474Y-80235506D01*
X167271380Y-80305164D01*
X167271304Y-80305226D01*
X167180226Y-80396304D01*
X167180164Y-80396380D01*
X167110506Y-80501474D01*
X167110460Y-80501561D01*
X167063557Y-80615858D01*
X167063529Y-80615951D01*
X167039734Y-80735129D01*
X167039724Y-80735227D01*
X167036428Y-80800000D01*
X167036428Y-81900000D01*
X167039724Y-81964773D01*
X167039734Y-81964871D01*
X167063529Y-82084049D01*
X167063557Y-82084142D01*
X167110460Y-82198439D01*
X167110506Y-82198526D01*
X167180164Y-82303620D01*
X167180226Y-82303696D01*
X167271304Y-82394774D01*
X167271380Y-82394836D01*
X167376474Y-82464494D01*
X167376561Y-82464540D01*
X167490858Y-82511443D01*
X167490951Y-82511471D01*
X167610129Y-82535266D01*
X167610227Y-82535276D01*
X167675000Y-82538572D01*
X167875000Y-82538572D01*
X167939773Y-82535276D01*
X167939871Y-82535266D01*
X168059049Y-82511471D01*
X168059142Y-82511443D01*
X168173439Y-82464540D01*
X168173526Y-82464494D01*
X168278620Y-82394836D01*
X168278696Y-82394774D01*
X168335398Y-82338072D01*
X168375000Y-82338072D01*
X168499482Y-82325812D01*
X168619180Y-82289502D01*
X168729494Y-82230537D01*
X168826185Y-82151185D01*
X168859985Y-82110000D01*
X171640015Y-82110000D01*
X171673815Y-82151185D01*
X171770506Y-82230537D01*
X171880820Y-82289502D01*
X172000518Y-82325812D01*
X172125000Y-82338072D01*
X172164602Y-82338072D01*
X172221304Y-82394774D01*
X172221380Y-82394836D01*
X172326474Y-82464494D01*
X172326561Y-82464540D01*
X172440858Y-82511443D01*
X172440951Y-82511471D01*
X172560129Y-82535266D01*
X172560227Y-82535276D01*
X172625000Y-82538572D01*
X172825000Y-82538572D01*
X172889773Y-82535276D01*
X172889871Y-82535266D01*
X173009049Y-82511471D01*
X173009142Y-82511443D01*
X173123439Y-82464540D01*
X173123526Y-82464494D01*
X173228620Y-82394836D01*
X173228696Y-82394774D01*
X173319774Y-82303696D01*
X173319836Y-82303620D01*
X173348748Y-82260000D01*
X178842091Y-82260000D01*
X178924201Y-82382886D01*
X179117114Y-82575799D01*
X179343957Y-82727371D01*
X179398588Y-82750000D01*
X179343957Y-82772629D01*
X179117114Y-82924201D01*
X178924201Y-83117114D01*
X178772629Y-83343957D01*
X178668225Y-83596011D01*
X178615000Y-83863589D01*
X178615000Y-84136411D01*
X178643833Y-84281365D01*
X173185199Y-89740000D01*
X139569815Y-89740000D01*
X133989814Y-84160000D01*
X165717581Y-84160000D01*
X165750000Y-84163193D01*
X165782419Y-84160000D01*
X165879383Y-84150450D01*
X166003793Y-84112710D01*
X166118450Y-84051425D01*
X166218948Y-83968948D01*
X166301425Y-83868450D01*
X166362710Y-83753793D01*
X166400450Y-83629383D01*
X166413193Y-83500000D01*
X166410000Y-83467581D01*
X166410000Y-74660000D01*
X169136339Y-74660000D01*
X168902337Y-74894002D01*
X168712463Y-75178169D01*
X168581675Y-75493919D01*
X168515000Y-75829117D01*
X168515000Y-76170883D01*
X168581675Y-76506081D01*
X168712463Y-76821831D01*
X168902337Y-77105998D01*
X169144002Y-77347663D01*
X169428169Y-77537537D01*
X169743919Y-77668325D01*
X170079117Y-77735000D01*
X170420883Y-77735000D01*
X170756081Y-77668325D01*
X171071831Y-77537537D01*
X171355998Y-77347663D01*
X171597663Y-77105998D01*
X171787537Y-76821831D01*
X171918325Y-76506081D01*
X171985000Y-76170883D01*
X171985000Y-75829117D01*
X171918325Y-75493919D01*
X171787537Y-75178169D01*
X171597663Y-74894002D01*
X171363661Y-74660000D01*
X181840001Y-74660000D01*
X181840000Y-100886339D01*
X181605998Y-100652337D01*
X181321831Y-100462463D01*
X181006081Y-100331675D01*
X180670883Y-100265000D01*
X180329117Y-100265000D01*
X179993919Y-100331675D01*
X179678169Y-100462463D01*
X179394002Y-100652337D01*
X179152337Y-100894002D01*
X178962463Y-101178169D01*
X178831675Y-101493919D01*
X178765000Y-101829117D01*
X178765000Y-102170883D01*
X178831675Y-102506081D01*
X178962463Y-102821831D01*
X179152337Y-103105998D01*
X179386339Y-103340000D01*
X161113661Y-103340000D01*
X161347663Y-103105998D01*
X161537537Y-102821831D01*
X161668325Y-102506081D01*
X161735000Y-102170883D01*
X161735000Y-101829117D01*
X161668325Y-101493919D01*
X161537537Y-101178169D01*
X161347663Y-100894002D01*
X161105998Y-100652337D01*
X160821831Y-100462463D01*
X160506081Y-100331675D01*
X160170883Y-100265000D01*
X159829117Y-100265000D01*
X159493919Y-100331675D01*
X159178169Y-100462463D01*
X158894002Y-100652337D01*
X158652337Y-100894002D01*
X158462463Y-101178169D01*
X158331675Y-101493919D01*
X158265000Y-101829117D01*
X158265000Y-102170883D01*
X158331675Y-102506081D01*
X158462463Y-102821831D01*
X158652337Y-103105998D01*
X158886339Y-103340000D01*
X139613661Y-103340000D01*
X139847663Y-103105998D01*
X140037537Y-102821831D01*
X140168325Y-102506081D01*
X140235000Y-102170883D01*
X140235000Y-101829117D01*
X140168325Y-101493919D01*
X140037537Y-101178169D01*
X139847663Y-100894002D01*
X139605998Y-100652337D01*
X139321831Y-100462463D01*
X139006081Y-100331675D01*
X138670883Y-100265000D01*
X138329117Y-100265000D01*
X137993919Y-100331675D01*
X137678169Y-100462463D01*
X137394002Y-100652337D01*
X137152337Y-100894002D01*
X136962463Y-101178169D01*
X136831675Y-101493919D01*
X136765000Y-101829117D01*
X136765000Y-102170883D01*
X136831675Y-102506081D01*
X136962463Y-102821831D01*
X137152337Y-103105998D01*
X137386339Y-103340000D01*
X119113661Y-103340000D01*
X119347663Y-103105998D01*
X119537537Y-102821831D01*
X119668325Y-102506081D01*
X119735000Y-102170883D01*
X119735000Y-101829117D01*
X119668325Y-101493919D01*
X119537537Y-101178169D01*
X119347663Y-100894002D01*
X119105998Y-100652337D01*
X118821831Y-100462463D01*
X118506081Y-100331675D01*
X118170883Y-100265000D01*
X117829117Y-100265000D01*
X117493919Y-100331675D01*
X117178169Y-100462463D01*
X116894002Y-100652337D01*
X116660000Y-100886339D01*
X116660000Y-74660000D01*
X127136339Y-74660000D01*
X126902337Y-74894002D01*
%TA.AperFunction,Conductor*%
D15*
G36*
X126902337Y-74894002D02*
G01*
X126712463Y-75178169D01*
X126581675Y-75493919D01*
X126515000Y-75829117D01*
X126515000Y-76170883D01*
X126581675Y-76506081D01*
X126712463Y-76821831D01*
X126902337Y-77105998D01*
X127144002Y-77347663D01*
X127428169Y-77537537D01*
X127743919Y-77668325D01*
X128079117Y-77735000D01*
X128420883Y-77735000D01*
X128756081Y-77668325D01*
X129071831Y-77537537D01*
X129355998Y-77347663D01*
X129597663Y-77105998D01*
X129787537Y-76821831D01*
X129918325Y-76506081D01*
X129985000Y-76170883D01*
X129985000Y-75829117D01*
X129918325Y-75493919D01*
X129787537Y-75178169D01*
X129597663Y-74894002D01*
X129363661Y-74660000D01*
X132090000Y-74660000D01*
X132090001Y-82260188D01*
X131463572Y-81633759D01*
X131463572Y-80800000D01*
X131460276Y-80735227D01*
X131460266Y-80735129D01*
X131436471Y-80615951D01*
X131436443Y-80615858D01*
X131389540Y-80501561D01*
X131389494Y-80501474D01*
X131319836Y-80396380D01*
X131319774Y-80396304D01*
X131228696Y-80305226D01*
X131228620Y-80305164D01*
X131123526Y-80235506D01*
X131123439Y-80235460D01*
X131009142Y-80188557D01*
X131009049Y-80188529D01*
X130889871Y-80164734D01*
X130889773Y-80164724D01*
X130825000Y-80161428D01*
X130625000Y-80161428D01*
X130560227Y-80164724D01*
X130560129Y-80164734D01*
X130440951Y-80188529D01*
X130440858Y-80188557D01*
X130326561Y-80235460D01*
X130326474Y-80235506D01*
X130221380Y-80305164D01*
X130221304Y-80305226D01*
X130164602Y-80361928D01*
X130125000Y-80361928D01*
X130000518Y-80374188D01*
X129880820Y-80410498D01*
X129770506Y-80469463D01*
X129673815Y-80548815D01*
X129640015Y-80590000D01*
X126859985Y-80590000D01*
X126826185Y-80548815D01*
X126729494Y-80469463D01*
X126619180Y-80410498D01*
X126499482Y-80374188D01*
X126375000Y-80361928D01*
X126335398Y-80361928D01*
X126278696Y-80305226D01*
X126278620Y-80305164D01*
X126173526Y-80235506D01*
X126173439Y-80235460D01*
X126059142Y-80188557D01*
X126059049Y-80188529D01*
X125939871Y-80164734D01*
X125939773Y-80164724D01*
X125875000Y-80161428D01*
X125675000Y-80161428D01*
X125610227Y-80164724D01*
X125610129Y-80164734D01*
X125490951Y-80188529D01*
X125490858Y-80188557D01*
X125376561Y-80235460D01*
X125376474Y-80235506D01*
X125271380Y-80305164D01*
X125271304Y-80305226D01*
X125180226Y-80396304D01*
X125180164Y-80396380D01*
X125110506Y-80501474D01*
X125110460Y-80501561D01*
X125063557Y-80615858D01*
X125063529Y-80615951D01*
X125039734Y-80735129D01*
X125039724Y-80735227D01*
X125036428Y-80800000D01*
X125036428Y-81900000D01*
X125039724Y-81964773D01*
X125039734Y-81964871D01*
X125063529Y-82084049D01*
X125063557Y-82084142D01*
X125110460Y-82198439D01*
X125110506Y-82198526D01*
X125180164Y-82303620D01*
X125180226Y-82303696D01*
X125271304Y-82394774D01*
X125271380Y-82394836D01*
X125376474Y-82464494D01*
X125376561Y-82464540D01*
X125490858Y-82511443D01*
X125490951Y-82511471D01*
X125610129Y-82535266D01*
X125610227Y-82535276D01*
X125675000Y-82538572D01*
X125875000Y-82538572D01*
X125939773Y-82535276D01*
X125939871Y-82535266D01*
X126059049Y-82511471D01*
X126059142Y-82511443D01*
X126173439Y-82464540D01*
X126173526Y-82464494D01*
X126278620Y-82394836D01*
X126278696Y-82394774D01*
X126335398Y-82338072D01*
X126375000Y-82338072D01*
X126499482Y-82325812D01*
X126619180Y-82289502D01*
X126729494Y-82230537D01*
X126826185Y-82151185D01*
X126859985Y-82110000D01*
X129640015Y-82110000D01*
X129673815Y-82151185D01*
X129770506Y-82230537D01*
X129880820Y-82289502D01*
X130000518Y-82325812D01*
X130006624Y-82326413D01*
X138691217Y-91011008D01*
X138715011Y-91040001D01*
X138744004Y-91063795D01*
X138744008Y-91063799D01*
X138783259Y-91096011D01*
X138830736Y-91134974D01*
X138962765Y-91205546D01*
X139106026Y-91249003D01*
X139217679Y-91260000D01*
X139217688Y-91260000D01*
X139255011Y-91263676D01*
X139292334Y-91260000D01*
X143028788Y-91260000D01*
X137548789Y-96740000D01*
X133932163Y-96740000D01*
X133925812Y-96675518D01*
X133889502Y-96555820D01*
X133830537Y-96445506D01*
X133751185Y-96348815D01*
X133654494Y-96269463D01*
X133544180Y-96210498D01*
X133424482Y-96174188D01*
X133300000Y-96161928D01*
X131700000Y-96161928D01*
X131575518Y-96174188D01*
X131455820Y-96210498D01*
X131345506Y-96269463D01*
X131248815Y-96348815D01*
X131169463Y-96445506D01*
X131110498Y-96555820D01*
X131074188Y-96675518D01*
X131061928Y-96800000D01*
X131061928Y-98200000D01*
X131074188Y-98324482D01*
X131110498Y-98444180D01*
X131169463Y-98554494D01*
X131248815Y-98651185D01*
X131345506Y-98730537D01*
X131455820Y-98789502D01*
X131575518Y-98825812D01*
X131700000Y-98838072D01*
X133300000Y-98838072D01*
X133424482Y-98825812D01*
X133544180Y-98789502D01*
X133654494Y-98730537D01*
X133751185Y-98651185D01*
X133830537Y-98554494D01*
X133889502Y-98444180D01*
X133925812Y-98324482D01*
X133932163Y-98260000D01*
X136665199Y-98260000D01*
X135685199Y-99240000D01*
X126514802Y-99240000D01*
X125163014Y-97888212D01*
X125965000Y-97888212D01*
X125965000Y-98111788D01*
X126008617Y-98331067D01*
X126094176Y-98537624D01*
X126218388Y-98723520D01*
X126376480Y-98881612D01*
X126562376Y-99005824D01*
X126768933Y-99091383D01*
X126988212Y-99135000D01*
X127211788Y-99135000D01*
X127431067Y-99091383D01*
X127637624Y-99005824D01*
X127823520Y-98881612D01*
X127981612Y-98723520D01*
X128105824Y-98537624D01*
X128191383Y-98331067D01*
X128235000Y-98111788D01*
X128235000Y-97888212D01*
X128191383Y-97668933D01*
X128105824Y-97462376D01*
X127981612Y-97276480D01*
X127823520Y-97118388D01*
X127637624Y-96994176D01*
X127431067Y-96908617D01*
X127211788Y-96865000D01*
X126988212Y-96865000D01*
X126768933Y-96908617D01*
X126562376Y-96994176D01*
X126376480Y-97118388D01*
X126218388Y-97276480D01*
X126094176Y-97462376D01*
X126008617Y-97668933D01*
X125965000Y-97888212D01*
X125163014Y-97888212D01*
X125138072Y-97863271D01*
X125138072Y-96800000D01*
X125125812Y-96675518D01*
X125089502Y-96555820D01*
X125030537Y-96445506D01*
X124951185Y-96348815D01*
X124854494Y-96269463D01*
X124744180Y-96210498D01*
X124624482Y-96174188D01*
X124500000Y-96161928D01*
X122900000Y-96161928D01*
X122775518Y-96174188D01*
X122655820Y-96210498D01*
X122545506Y-96269463D01*
X122448815Y-96348815D01*
X122369463Y-96445506D01*
X122310498Y-96555820D01*
X122274188Y-96675518D01*
X122261928Y-96800000D01*
X122261928Y-98200000D01*
X122274188Y-98324482D01*
X122310498Y-98444180D01*
X122369463Y-98554494D01*
X122448815Y-98651185D01*
X122545506Y-98730537D01*
X122655820Y-98789502D01*
X122775518Y-98825812D01*
X122900000Y-98838072D01*
X123963271Y-98838072D01*
X125636201Y-100511003D01*
X125659999Y-100540001D01*
X125688997Y-100563799D01*
X125775723Y-100634974D01*
X125808207Y-100652337D01*
X125907753Y-100705546D01*
X126051014Y-100749003D01*
X126162667Y-100760000D01*
X126162677Y-100760000D01*
X126200000Y-100763676D01*
X126234600Y-100760268D01*
X126218388Y-100776480D01*
X126094176Y-100962376D01*
X126008617Y-101168933D01*
X125965000Y-101388212D01*
X125965000Y-101611788D01*
X126008617Y-101831067D01*
X126094176Y-102037624D01*
X126218388Y-102223520D01*
X126376480Y-102381612D01*
X126562376Y-102505824D01*
X126768933Y-102591383D01*
X126988212Y-102635000D01*
X127211788Y-102635000D01*
X127431067Y-102591383D01*
X127637624Y-102505824D01*
X127823520Y-102381612D01*
X127981612Y-102223520D01*
X128105824Y-102037624D01*
X128191383Y-101831067D01*
X128235000Y-101611788D01*
X128235000Y-101388212D01*
X128191383Y-101168933D01*
X128105824Y-100962376D01*
X127981612Y-100776480D01*
X127965132Y-100760000D01*
X135962678Y-100760000D01*
X136000000Y-100763676D01*
X136037322Y-100760000D01*
X136037333Y-100760000D01*
X136148986Y-100749003D01*
X136292247Y-100705546D01*
X136424276Y-100634974D01*
X136540001Y-100540001D01*
X136563804Y-100510997D01*
X144814802Y-92260000D01*
X178842091Y-92260000D01*
X178924201Y-92382886D01*
X179117114Y-92575799D01*
X179343957Y-92727371D01*
X179398588Y-92750000D01*
X179343957Y-92772629D01*
X179117114Y-92924201D01*
X178924201Y-93117114D01*
X178842091Y-93240000D01*
X178337322Y-93240000D01*
X178299999Y-93236324D01*
X178262676Y-93240000D01*
X178262667Y-93240000D01*
X178151014Y-93250997D01*
X178007753Y-93294454D01*
X177875724Y-93365026D01*
X177875722Y-93365027D01*
X177875723Y-93365027D01*
X177788996Y-93436201D01*
X177788992Y-93436205D01*
X177759999Y-93459999D01*
X177736205Y-93488992D01*
X175063271Y-96161928D01*
X174000000Y-96161928D01*
X173875518Y-96174188D01*
X173755820Y-96210498D01*
X173645506Y-96269463D01*
X173548815Y-96348815D01*
X173469463Y-96445506D01*
X173410498Y-96555820D01*
X173374188Y-96675518D01*
X173361928Y-96800000D01*
X173361928Y-98200000D01*
X173374188Y-98324482D01*
X173410498Y-98444180D01*
X173469463Y-98554494D01*
X173548815Y-98651185D01*
X173645506Y-98730537D01*
X173755820Y-98789502D01*
X173875518Y-98825812D01*
X174000000Y-98838072D01*
X175600000Y-98838072D01*
X175724482Y-98825812D01*
X175844180Y-98789502D01*
X175954494Y-98730537D01*
X176051185Y-98651185D01*
X176130537Y-98554494D01*
X176189502Y-98444180D01*
X176225812Y-98324482D01*
X176238072Y-98200000D01*
X176238072Y-97136730D01*
X178614803Y-94760000D01*
X178842091Y-94760000D01*
X178924201Y-94882886D01*
X179117114Y-95075799D01*
X179343957Y-95227371D01*
X179398588Y-95250000D01*
X179343957Y-95272629D01*
X179117114Y-95424201D01*
X178924201Y-95617114D01*
X178772629Y-95843957D01*
X178668225Y-96096011D01*
X178615000Y-96363589D01*
X178615000Y-96636411D01*
X178643833Y-96781365D01*
X176435199Y-98990000D01*
X169961306Y-98990000D01*
X170123520Y-98881612D01*
X170281612Y-98723520D01*
X170405824Y-98537624D01*
X170491383Y-98331067D01*
X170535000Y-98111788D01*
X170535000Y-97888212D01*
X170491383Y-97668933D01*
X170405824Y-97462376D01*
X170281612Y-97276480D01*
X170123520Y-97118388D01*
X169937624Y-96994176D01*
X169731067Y-96908617D01*
X169511788Y-96865000D01*
X169288212Y-96865000D01*
X169068933Y-96908617D01*
X168862376Y-96994176D01*
X168676480Y-97118388D01*
X168518388Y-97276480D01*
X168394176Y-97462376D01*
X168308617Y-97668933D01*
X168265000Y-97888212D01*
X168265000Y-98111788D01*
X168308617Y-98331067D01*
X168394176Y-98537624D01*
X168518388Y-98723520D01*
X168676480Y-98881612D01*
X168838694Y-98990000D01*
X168564802Y-98990000D01*
X167438072Y-97863271D01*
X167438072Y-96800000D01*
X167425812Y-96675518D01*
X167389502Y-96555820D01*
X167330537Y-96445506D01*
X167251185Y-96348815D01*
X167154494Y-96269463D01*
X167044180Y-96210498D01*
X166924482Y-96174188D01*
X166800000Y-96161928D01*
X165200000Y-96161928D01*
X165075518Y-96174188D01*
X164955820Y-96210498D01*
X164845506Y-96269463D01*
X164748815Y-96348815D01*
X164669463Y-96445506D01*
X164610498Y-96555820D01*
X164574188Y-96675518D01*
X164561928Y-96800000D01*
X164561928Y-98200000D01*
X164574188Y-98324482D01*
X164610498Y-98444180D01*
X164669463Y-98554494D01*
X164748815Y-98651185D01*
X164845506Y-98730537D01*
X164955820Y-98789502D01*
X165075518Y-98825812D01*
X165200000Y-98838072D01*
X166263271Y-98838072D01*
X167686201Y-100261003D01*
X167709999Y-100290001D01*
X167738997Y-100313799D01*
X167825724Y-100384974D01*
X167957753Y-100455546D01*
X168101014Y-100499003D01*
X168250000Y-100513677D01*
X168287333Y-100510000D01*
X168838694Y-100510000D01*
X168676480Y-100618388D01*
X168518388Y-100776480D01*
X168394176Y-100962376D01*
X168308617Y-101168933D01*
X168265000Y-101388212D01*
X168265000Y-101611788D01*
X168308617Y-101831067D01*
X168394176Y-102037624D01*
X168518388Y-102223520D01*
X168676480Y-102381612D01*
X168862376Y-102505824D01*
X169068933Y-102591383D01*
X169288212Y-102635000D01*
X169511788Y-102635000D01*
X169731067Y-102591383D01*
X169937624Y-102505824D01*
X170123520Y-102381612D01*
X170281612Y-102223520D01*
X170405824Y-102037624D01*
X170491383Y-101831067D01*
X170535000Y-101611788D01*
X170535000Y-101388212D01*
X170491383Y-101168933D01*
X170405824Y-100962376D01*
X170281612Y-100776480D01*
X170123520Y-100618388D01*
X169961306Y-100510000D01*
X176712678Y-100510000D01*
X176750000Y-100513676D01*
X176787322Y-100510000D01*
X176787333Y-100510000D01*
X176898986Y-100499003D01*
X177042247Y-100455546D01*
X177174276Y-100384974D01*
X177290001Y-100290001D01*
X177313804Y-100260997D01*
X179718635Y-97856167D01*
X179863589Y-97885000D01*
X180136411Y-97885000D01*
X180403989Y-97831775D01*
X180656043Y-97727371D01*
X180882886Y-97575799D01*
X181075799Y-97382886D01*
X181227371Y-97156043D01*
X181331775Y-96903989D01*
X181385000Y-96636411D01*
X181385000Y-96363589D01*
X181331775Y-96096011D01*
X181227371Y-95843957D01*
X181075799Y-95617114D01*
X180882886Y-95424201D01*
X180656043Y-95272629D01*
X180601412Y-95250000D01*
X180656043Y-95227371D01*
X180882886Y-95075799D01*
X181075799Y-94882886D01*
X181227371Y-94656043D01*
X181331775Y-94403989D01*
X181385000Y-94136411D01*
X181385000Y-93863589D01*
X181331775Y-93596011D01*
X181227371Y-93343957D01*
X181075799Y-93117114D01*
X180882886Y-92924201D01*
X180656043Y-92772629D01*
X180601412Y-92750000D01*
X180656043Y-92727371D01*
X180882886Y-92575799D01*
X181075799Y-92382886D01*
X181227371Y-92156043D01*
X181331775Y-91903989D01*
X181385000Y-91636411D01*
X181385000Y-91363589D01*
X181331775Y-91096011D01*
X181227371Y-90843957D01*
X181075799Y-90617114D01*
X180882886Y-90424201D01*
X180656043Y-90272629D01*
X180601412Y-90250000D01*
X180656043Y-90227371D01*
X180882886Y-90075799D01*
X181075799Y-89882886D01*
X181227371Y-89656043D01*
X181331775Y-89403989D01*
X181385000Y-89136411D01*
X181385000Y-88863589D01*
X181331775Y-88596011D01*
X181227371Y-88343957D01*
X181075799Y-88117114D01*
X180882886Y-87924201D01*
X180656043Y-87772629D01*
X180403989Y-87668225D01*
X180136411Y-87615000D01*
X179863589Y-87615000D01*
X179596011Y-87668225D01*
X179343957Y-87772629D01*
X179117114Y-87924201D01*
X178924201Y-88117114D01*
X178842091Y-88240000D01*
X178037322Y-88240000D01*
X177999999Y-88236324D01*
X177962676Y-88240000D01*
X177962667Y-88240000D01*
X177851014Y-88250997D01*
X177707753Y-88294454D01*
X177575723Y-88365026D01*
X177492083Y-88433668D01*
X177459999Y-88459999D01*
X177436201Y-88488997D01*
X175685199Y-90240000D01*
X174834801Y-90240000D01*
X179718635Y-85356167D01*
X179863589Y-85385000D01*
X180136411Y-85385000D01*
X180403989Y-85331775D01*
X180656043Y-85227371D01*
X180882886Y-85075799D01*
X181075799Y-84882886D01*
X181227371Y-84656043D01*
X181331775Y-84403989D01*
X181385000Y-84136411D01*
X181385000Y-83863589D01*
X181331775Y-83596011D01*
X181227371Y-83343957D01*
X181075799Y-83117114D01*
X180882886Y-82924201D01*
X180656043Y-82772629D01*
X180601412Y-82750000D01*
X180656043Y-82727371D01*
X180882886Y-82575799D01*
X181075799Y-82382886D01*
X181227371Y-82156043D01*
X181331775Y-81903989D01*
X181385000Y-81636411D01*
X181385000Y-81363589D01*
X181331775Y-81096011D01*
X181227371Y-80843957D01*
X181075799Y-80617114D01*
X180882886Y-80424201D01*
X180656043Y-80272629D01*
X180403989Y-80168225D01*
X180136411Y-80115000D01*
X179863589Y-80115000D01*
X179596011Y-80168225D01*
X179343957Y-80272629D01*
X179117114Y-80424201D01*
X178924201Y-80617114D01*
X178842091Y-80740000D01*
X173460519Y-80740000D01*
X173460276Y-80735227D01*
X173460266Y-80735129D01*
X173436471Y-80615951D01*
X173436443Y-80615858D01*
X173389540Y-80501561D01*
X173389494Y-80501474D01*
X173319836Y-80396380D01*
X173319774Y-80396304D01*
X173228696Y-80305226D01*
X173228620Y-80305164D01*
X173123526Y-80235506D01*
X173123439Y-80235460D01*
X173009142Y-80188557D01*
X173009049Y-80188529D01*
X172889871Y-80164734D01*
X172889773Y-80164724D01*
X172825000Y-80161428D01*
X172625000Y-80161428D01*
X172560227Y-80164724D01*
X172560129Y-80164734D01*
X172440951Y-80188529D01*
X172440858Y-80188557D01*
X172326561Y-80235460D01*
X172326474Y-80235506D01*
X172221380Y-80305164D01*
X172221304Y-80305226D01*
X172164602Y-80361928D01*
X172125000Y-80361928D01*
X172000518Y-80374188D01*
X171880820Y-80410498D01*
X171770506Y-80469463D01*
X171673815Y-80548815D01*
X171640015Y-80590000D01*
X168859985Y-80590000D01*
X168826185Y-80548815D01*
X168729494Y-80469463D01*
X168619180Y-80410498D01*
X168499482Y-80374188D01*
X168375000Y-80361928D01*
X168335398Y-80361928D01*
X168278696Y-80305226D01*
X168278620Y-80305164D01*
X168173526Y-80235506D01*
X168173439Y-80235460D01*
X168059142Y-80188557D01*
X168059049Y-80188529D01*
X167939871Y-80164734D01*
X167939773Y-80164724D01*
X167875000Y-80161428D01*
X167675000Y-80161428D01*
X167610227Y-80164724D01*
X167610129Y-80164734D01*
X167490951Y-80188529D01*
X167490858Y-80188557D01*
X167376561Y-80235460D01*
X167376474Y-80235506D01*
X167271380Y-80305164D01*
X167271304Y-80305226D01*
X167180226Y-80396304D01*
X167180164Y-80396380D01*
X167110506Y-80501474D01*
X167110460Y-80501561D01*
X167063557Y-80615858D01*
X167063529Y-80615951D01*
X167039734Y-80735129D01*
X167039724Y-80735227D01*
X167036428Y-80800000D01*
X167036428Y-81900000D01*
X167039724Y-81964773D01*
X167039734Y-81964871D01*
X167063529Y-82084049D01*
X167063557Y-82084142D01*
X167110460Y-82198439D01*
X167110506Y-82198526D01*
X167180164Y-82303620D01*
X167180226Y-82303696D01*
X167271304Y-82394774D01*
X167271380Y-82394836D01*
X167376474Y-82464494D01*
X167376561Y-82464540D01*
X167490858Y-82511443D01*
X167490951Y-82511471D01*
X167610129Y-82535266D01*
X167610227Y-82535276D01*
X167675000Y-82538572D01*
X167875000Y-82538572D01*
X167939773Y-82535276D01*
X167939871Y-82535266D01*
X168059049Y-82511471D01*
X168059142Y-82511443D01*
X168173439Y-82464540D01*
X168173526Y-82464494D01*
X168278620Y-82394836D01*
X168278696Y-82394774D01*
X168335398Y-82338072D01*
X168375000Y-82338072D01*
X168499482Y-82325812D01*
X168619180Y-82289502D01*
X168729494Y-82230537D01*
X168826185Y-82151185D01*
X168859985Y-82110000D01*
X171640015Y-82110000D01*
X171673815Y-82151185D01*
X171770506Y-82230537D01*
X171880820Y-82289502D01*
X172000518Y-82325812D01*
X172125000Y-82338072D01*
X172164602Y-82338072D01*
X172221304Y-82394774D01*
X172221380Y-82394836D01*
X172326474Y-82464494D01*
X172326561Y-82464540D01*
X172440858Y-82511443D01*
X172440951Y-82511471D01*
X172560129Y-82535266D01*
X172560227Y-82535276D01*
X172625000Y-82538572D01*
X172825000Y-82538572D01*
X172889773Y-82535276D01*
X172889871Y-82535266D01*
X173009049Y-82511471D01*
X173009142Y-82511443D01*
X173123439Y-82464540D01*
X173123526Y-82464494D01*
X173228620Y-82394836D01*
X173228696Y-82394774D01*
X173319774Y-82303696D01*
X173319836Y-82303620D01*
X173348748Y-82260000D01*
X178842091Y-82260000D01*
X178924201Y-82382886D01*
X179117114Y-82575799D01*
X179343957Y-82727371D01*
X179398588Y-82750000D01*
X179343957Y-82772629D01*
X179117114Y-82924201D01*
X178924201Y-83117114D01*
X178772629Y-83343957D01*
X178668225Y-83596011D01*
X178615000Y-83863589D01*
X178615000Y-84136411D01*
X178643833Y-84281365D01*
X173185199Y-89740000D01*
X139569815Y-89740000D01*
X133989814Y-84160000D01*
X165717581Y-84160000D01*
X165750000Y-84163193D01*
X165782419Y-84160000D01*
X165879383Y-84150450D01*
X166003793Y-84112710D01*
X166118450Y-84051425D01*
X166218948Y-83968948D01*
X166301425Y-83868450D01*
X166362710Y-83753793D01*
X166400450Y-83629383D01*
X166413193Y-83500000D01*
X166410000Y-83467581D01*
X166410000Y-74660000D01*
X169136339Y-74660000D01*
X168902337Y-74894002D01*
X168712463Y-75178169D01*
X168581675Y-75493919D01*
X168515000Y-75829117D01*
X168515000Y-76170883D01*
X168581675Y-76506081D01*
X168712463Y-76821831D01*
X168902337Y-77105998D01*
X169144002Y-77347663D01*
X169428169Y-77537537D01*
X169743919Y-77668325D01*
X170079117Y-77735000D01*
X170420883Y-77735000D01*
X170756081Y-77668325D01*
X171071831Y-77537537D01*
X171355998Y-77347663D01*
X171597663Y-77105998D01*
X171787537Y-76821831D01*
X171918325Y-76506081D01*
X171985000Y-76170883D01*
X171985000Y-75829117D01*
X171918325Y-75493919D01*
X171787537Y-75178169D01*
X171597663Y-74894002D01*
X171363661Y-74660000D01*
X181840001Y-74660000D01*
X181840000Y-100886339D01*
X181605998Y-100652337D01*
X181321831Y-100462463D01*
X181006081Y-100331675D01*
X180670883Y-100265000D01*
X180329117Y-100265000D01*
X179993919Y-100331675D01*
X179678169Y-100462463D01*
X179394002Y-100652337D01*
X179152337Y-100894002D01*
X178962463Y-101178169D01*
X178831675Y-101493919D01*
X178765000Y-101829117D01*
X178765000Y-102170883D01*
X178831675Y-102506081D01*
X178962463Y-102821831D01*
X179152337Y-103105998D01*
X179386339Y-103340000D01*
X161113661Y-103340000D01*
X161347663Y-103105998D01*
X161537537Y-102821831D01*
X161668325Y-102506081D01*
X161735000Y-102170883D01*
X161735000Y-101829117D01*
X161668325Y-101493919D01*
X161537537Y-101178169D01*
X161347663Y-100894002D01*
X161105998Y-100652337D01*
X160821831Y-100462463D01*
X160506081Y-100331675D01*
X160170883Y-100265000D01*
X159829117Y-100265000D01*
X159493919Y-100331675D01*
X159178169Y-100462463D01*
X158894002Y-100652337D01*
X158652337Y-100894002D01*
X158462463Y-101178169D01*
X158331675Y-101493919D01*
X158265000Y-101829117D01*
X158265000Y-102170883D01*
X158331675Y-102506081D01*
X158462463Y-102821831D01*
X158652337Y-103105998D01*
X158886339Y-103340000D01*
X139613661Y-103340000D01*
X139847663Y-103105998D01*
X140037537Y-102821831D01*
X140168325Y-102506081D01*
X140235000Y-102170883D01*
X140235000Y-101829117D01*
X140168325Y-101493919D01*
X140037537Y-101178169D01*
X139847663Y-100894002D01*
X139605998Y-100652337D01*
X139321831Y-100462463D01*
X139006081Y-100331675D01*
X138670883Y-100265000D01*
X138329117Y-100265000D01*
X137993919Y-100331675D01*
X137678169Y-100462463D01*
X137394002Y-100652337D01*
X137152337Y-100894002D01*
X136962463Y-101178169D01*
X136831675Y-101493919D01*
X136765000Y-101829117D01*
X136765000Y-102170883D01*
X136831675Y-102506081D01*
X136962463Y-102821831D01*
X137152337Y-103105998D01*
X137386339Y-103340000D01*
X119113661Y-103340000D01*
X119347663Y-103105998D01*
X119537537Y-102821831D01*
X119668325Y-102506081D01*
X119735000Y-102170883D01*
X119735000Y-101829117D01*
X119668325Y-101493919D01*
X119537537Y-101178169D01*
X119347663Y-100894002D01*
X119105998Y-100652337D01*
X118821831Y-100462463D01*
X118506081Y-100331675D01*
X118170883Y-100265000D01*
X117829117Y-100265000D01*
X117493919Y-100331675D01*
X117178169Y-100462463D01*
X116894002Y-100652337D01*
X116660000Y-100886339D01*
X116660000Y-74660000D01*
X127136339Y-74660000D01*
X126902337Y-74894002D01*
G37*
%TD.AperFunction*%
%TD*%
M02*
