%TF.GenerationSoftware,KiCad,Pcbnew,(6.0.5)*%
%TF.CreationDate,2022-06-15T00:03:33-05:00*%
%TF.ProjectId,GBOYFrontController,47424f59-4672-46f6-9e74-436f6e74726f,rev?*%
%TF.SameCoordinates,Original*%
%TF.FileFunction,Legend,Top*%
%TF.FilePolarity,Positive*%
%FSLAX46Y46*%
G04 Gerber Fmt 4.6, Leading zero omitted, Abs format (unit mm)*
G04 Created by KiCad (PCBNEW (6.0.5)) date 2022-06-15 00:03:33*
%MOMM*%
%LPD*%
G01*
G04 APERTURE LIST*
%ADD10C,0.100000*%
%ADD11C,0.150000*%
%ADD12C,0.120000*%
G04 APERTURE END LIST*
D10*
X17845952Y-99900000D02*
X17798333Y-99852380D01*
X17726904Y-99852380D01*
X17655476Y-99900000D01*
X17607857Y-99995238D01*
X17584047Y-100090476D01*
X17560238Y-100280952D01*
X17560238Y-100423809D01*
X17584047Y-100614285D01*
X17607857Y-100709523D01*
X17655476Y-100804761D01*
X17726904Y-100852380D01*
X17774523Y-100852380D01*
X17845952Y-100804761D01*
X17869761Y-100757142D01*
X17869761Y-100423809D01*
X17774523Y-100423809D01*
X18250714Y-100328571D02*
X18322142Y-100376190D01*
X18345952Y-100423809D01*
X18369761Y-100519047D01*
X18369761Y-100661904D01*
X18345952Y-100757142D01*
X18322142Y-100804761D01*
X18274523Y-100852380D01*
X18084047Y-100852380D01*
X18084047Y-99852380D01*
X18250714Y-99852380D01*
X18298333Y-99900000D01*
X18322142Y-99947619D01*
X18345952Y-100042857D01*
X18345952Y-100138095D01*
X18322142Y-100233333D01*
X18298333Y-100280952D01*
X18250714Y-100328571D01*
X18084047Y-100328571D01*
X18679285Y-99852380D02*
X18774523Y-99852380D01*
X18822142Y-99900000D01*
X18869761Y-99995238D01*
X18893571Y-100185714D01*
X18893571Y-100519047D01*
X18869761Y-100709523D01*
X18822142Y-100804761D01*
X18774523Y-100852380D01*
X18679285Y-100852380D01*
X18631666Y-100804761D01*
X18584047Y-100709523D01*
X18560238Y-100519047D01*
X18560238Y-100185714D01*
X18584047Y-99995238D01*
X18631666Y-99900000D01*
X18679285Y-99852380D01*
X19203095Y-100376190D02*
X19203095Y-100852380D01*
X19036428Y-99852380D02*
X19203095Y-100376190D01*
X19369761Y-99852380D01*
X20131666Y-100804761D02*
X20084047Y-100852380D01*
X19988809Y-100852380D01*
X19941190Y-100804761D01*
X19917380Y-100757142D01*
X19893571Y-100661904D01*
X19893571Y-100376190D01*
X19917380Y-100280952D01*
X19941190Y-100233333D01*
X19988809Y-100185714D01*
X20084047Y-100185714D01*
X20131666Y-100233333D01*
X20417380Y-100852380D02*
X20369761Y-100804761D01*
X20345952Y-100709523D01*
X20345952Y-99852380D01*
X20679285Y-100852380D02*
X20631666Y-100804761D01*
X20607857Y-100757142D01*
X20584047Y-100661904D01*
X20584047Y-100376190D01*
X20607857Y-100280952D01*
X20631666Y-100233333D01*
X20679285Y-100185714D01*
X20750714Y-100185714D01*
X20798333Y-100233333D01*
X20822142Y-100280952D01*
X20845952Y-100376190D01*
X20845952Y-100661904D01*
X20822142Y-100757142D01*
X20798333Y-100804761D01*
X20750714Y-100852380D01*
X20679285Y-100852380D01*
X21060238Y-100185714D02*
X21060238Y-100852380D01*
X21060238Y-100280952D02*
X21084047Y-100233333D01*
X21131666Y-100185714D01*
X21203095Y-100185714D01*
X21250714Y-100233333D01*
X21274523Y-100328571D01*
X21274523Y-100852380D01*
X21703095Y-100804761D02*
X21655476Y-100852380D01*
X21560238Y-100852380D01*
X21512619Y-100804761D01*
X21488809Y-100709523D01*
X21488809Y-100328571D01*
X21512619Y-100233333D01*
X21560238Y-100185714D01*
X21655476Y-100185714D01*
X21703095Y-100233333D01*
X21726904Y-100328571D01*
X21726904Y-100423809D01*
X21488809Y-100519047D01*
X22322142Y-100185714D02*
X22322142Y-101185714D01*
X22322142Y-100233333D02*
X22369761Y-100185714D01*
X22465000Y-100185714D01*
X22512619Y-100233333D01*
X22536428Y-100280952D01*
X22560238Y-100376190D01*
X22560238Y-100661904D01*
X22536428Y-100757142D01*
X22512619Y-100804761D01*
X22465000Y-100852380D01*
X22369761Y-100852380D01*
X22322142Y-100804761D01*
X22988809Y-100852380D02*
X22988809Y-100328571D01*
X22965000Y-100233333D01*
X22917380Y-100185714D01*
X22822142Y-100185714D01*
X22774523Y-100233333D01*
X22988809Y-100804761D02*
X22941190Y-100852380D01*
X22822142Y-100852380D01*
X22774523Y-100804761D01*
X22750714Y-100709523D01*
X22750714Y-100614285D01*
X22774523Y-100519047D01*
X22822142Y-100471428D01*
X22941190Y-100471428D01*
X22988809Y-100423809D01*
X23226904Y-100852380D02*
X23226904Y-100185714D01*
X23226904Y-100376190D02*
X23250714Y-100280952D01*
X23274523Y-100233333D01*
X23322142Y-100185714D01*
X23369761Y-100185714D01*
X23465000Y-100185714D02*
X23655476Y-100185714D01*
X23536428Y-99852380D02*
X23536428Y-100709523D01*
X23560238Y-100804761D01*
X23607857Y-100852380D01*
X23655476Y-100852380D01*
X23798333Y-100804761D02*
X23845952Y-100852380D01*
X23941190Y-100852380D01*
X23988809Y-100804761D01*
X24012619Y-100709523D01*
X24012619Y-100661904D01*
X23988809Y-100566666D01*
X23941190Y-100519047D01*
X23869761Y-100519047D01*
X23822142Y-100471428D01*
X23798333Y-100376190D01*
X23798333Y-100328571D01*
X23822142Y-100233333D01*
X23869761Y-100185714D01*
X23941190Y-100185714D01*
X23988809Y-100233333D01*
X24607857Y-100471428D02*
X24988809Y-100471428D01*
X25774523Y-100328571D02*
X25607857Y-100328571D01*
X25607857Y-100852380D02*
X25607857Y-99852380D01*
X25845952Y-99852380D01*
X26036428Y-100852380D02*
X26036428Y-100185714D01*
X26036428Y-100376190D02*
X26060238Y-100280952D01*
X26084047Y-100233333D01*
X26131666Y-100185714D01*
X26179285Y-100185714D01*
X26417380Y-100852380D02*
X26369761Y-100804761D01*
X26345952Y-100757142D01*
X26322142Y-100661904D01*
X26322142Y-100376190D01*
X26345952Y-100280952D01*
X26369761Y-100233333D01*
X26417380Y-100185714D01*
X26488809Y-100185714D01*
X26536428Y-100233333D01*
X26560238Y-100280952D01*
X26584047Y-100376190D01*
X26584047Y-100661904D01*
X26560238Y-100757142D01*
X26536428Y-100804761D01*
X26488809Y-100852380D01*
X26417380Y-100852380D01*
X26798333Y-100185714D02*
X26798333Y-100852380D01*
X26798333Y-100280952D02*
X26822142Y-100233333D01*
X26869761Y-100185714D01*
X26941190Y-100185714D01*
X26988809Y-100233333D01*
X27012619Y-100328571D01*
X27012619Y-100852380D01*
X27179285Y-100185714D02*
X27369761Y-100185714D01*
X27250714Y-99852380D02*
X27250714Y-100709523D01*
X27274523Y-100804761D01*
X27322142Y-100852380D01*
X27369761Y-100852380D01*
X28131666Y-100804761D02*
X28084047Y-100852380D01*
X27988809Y-100852380D01*
X27941190Y-100804761D01*
X27917380Y-100757142D01*
X27893571Y-100661904D01*
X27893571Y-100376190D01*
X27917380Y-100280952D01*
X27941190Y-100233333D01*
X27988809Y-100185714D01*
X28084047Y-100185714D01*
X28131666Y-100233333D01*
X28417380Y-100852380D02*
X28369761Y-100804761D01*
X28345952Y-100757142D01*
X28322142Y-100661904D01*
X28322142Y-100376190D01*
X28345952Y-100280952D01*
X28369761Y-100233333D01*
X28417380Y-100185714D01*
X28488809Y-100185714D01*
X28536428Y-100233333D01*
X28560238Y-100280952D01*
X28584047Y-100376190D01*
X28584047Y-100661904D01*
X28560238Y-100757142D01*
X28536428Y-100804761D01*
X28488809Y-100852380D01*
X28417380Y-100852380D01*
X28798333Y-100185714D02*
X28798333Y-100852380D01*
X28798333Y-100280952D02*
X28822142Y-100233333D01*
X28869761Y-100185714D01*
X28941190Y-100185714D01*
X28988809Y-100233333D01*
X29012619Y-100328571D01*
X29012619Y-100852380D01*
X29179285Y-100185714D02*
X29369761Y-100185714D01*
X29250714Y-99852380D02*
X29250714Y-100709523D01*
X29274523Y-100804761D01*
X29322142Y-100852380D01*
X29369761Y-100852380D01*
X29536428Y-100852380D02*
X29536428Y-100185714D01*
X29536428Y-100376190D02*
X29560238Y-100280952D01*
X29584047Y-100233333D01*
X29631666Y-100185714D01*
X29679285Y-100185714D01*
X29917380Y-100852380D02*
X29869761Y-100804761D01*
X29845952Y-100757142D01*
X29822142Y-100661904D01*
X29822142Y-100376190D01*
X29845952Y-100280952D01*
X29869761Y-100233333D01*
X29917380Y-100185714D01*
X29988809Y-100185714D01*
X30036428Y-100233333D01*
X30060238Y-100280952D01*
X30084047Y-100376190D01*
X30084047Y-100661904D01*
X30060238Y-100757142D01*
X30036428Y-100804761D01*
X29988809Y-100852380D01*
X29917380Y-100852380D01*
X30369761Y-100852380D02*
X30322142Y-100804761D01*
X30298333Y-100709523D01*
X30298333Y-99852380D01*
X30631666Y-100852380D02*
X30584047Y-100804761D01*
X30560238Y-100709523D01*
X30560238Y-99852380D01*
X31012619Y-100804761D02*
X30964999Y-100852380D01*
X30869761Y-100852380D01*
X30822142Y-100804761D01*
X30798333Y-100709523D01*
X30798333Y-100328571D01*
X30822142Y-100233333D01*
X30869761Y-100185714D01*
X30964999Y-100185714D01*
X31012619Y-100233333D01*
X31036428Y-100328571D01*
X31036428Y-100423809D01*
X30798333Y-100519047D01*
X31250714Y-100852380D02*
X31250714Y-100185714D01*
X31250714Y-100376190D02*
X31274523Y-100280952D01*
X31298333Y-100233333D01*
X31345952Y-100185714D01*
X31393571Y-100185714D01*
X31941190Y-100471428D02*
X32322142Y-100471428D01*
X33179285Y-100852380D02*
X32941190Y-100852380D01*
X32941190Y-99852380D01*
X33345952Y-100852380D02*
X33345952Y-100185714D01*
X33345952Y-99852380D02*
X33322142Y-99900000D01*
X33345952Y-99947619D01*
X33369761Y-99900000D01*
X33345952Y-99852380D01*
X33345952Y-99947619D01*
X33512619Y-100185714D02*
X33703095Y-100185714D01*
X33584047Y-99852380D02*
X33584047Y-100709523D01*
X33607857Y-100804761D01*
X33655476Y-100852380D01*
X33703095Y-100852380D01*
X33798333Y-100185714D02*
X33988809Y-100185714D01*
X33869761Y-99852380D02*
X33869761Y-100709523D01*
X33893571Y-100804761D01*
X33941190Y-100852380D01*
X33988809Y-100852380D01*
X34226904Y-100852380D02*
X34179285Y-100804761D01*
X34155476Y-100709523D01*
X34155476Y-99852380D01*
X34607857Y-100804761D02*
X34560238Y-100852380D01*
X34465000Y-100852380D01*
X34417380Y-100804761D01*
X34393571Y-100709523D01*
X34393571Y-100328571D01*
X34417380Y-100233333D01*
X34465000Y-100185714D01*
X34560238Y-100185714D01*
X34607857Y-100233333D01*
X34631666Y-100328571D01*
X34631666Y-100423809D01*
X34393571Y-100519047D01*
X34845952Y-100852380D02*
X34845952Y-99852380D01*
X35060238Y-100852380D02*
X35060238Y-100328571D01*
X35036428Y-100233333D01*
X34988809Y-100185714D01*
X34917380Y-100185714D01*
X34869761Y-100233333D01*
X34845952Y-100280952D01*
X35512619Y-100852380D02*
X35512619Y-100328571D01*
X35488809Y-100233333D01*
X35441190Y-100185714D01*
X35345952Y-100185714D01*
X35298333Y-100233333D01*
X35512619Y-100804761D02*
X35465000Y-100852380D01*
X35345952Y-100852380D01*
X35298333Y-100804761D01*
X35274523Y-100709523D01*
X35274523Y-100614285D01*
X35298333Y-100519047D01*
X35345952Y-100471428D01*
X35465000Y-100471428D01*
X35512619Y-100423809D01*
X35679285Y-100185714D02*
X35869761Y-100185714D01*
X35750714Y-99852380D02*
X35750714Y-100709523D01*
X35774523Y-100804761D01*
X35822142Y-100852380D01*
X35869761Y-100852380D01*
X36012619Y-99947619D02*
X36036428Y-99900000D01*
X36084047Y-99852380D01*
X36203095Y-99852380D01*
X36250714Y-99900000D01*
X36274523Y-99947619D01*
X36298333Y-100042857D01*
X36298333Y-100138095D01*
X36274523Y-100280952D01*
X35988809Y-100852380D01*
X36298333Y-100852380D01*
X36488809Y-99947619D02*
X36512619Y-99900000D01*
X36560238Y-99852380D01*
X36679285Y-99852380D01*
X36726904Y-99900000D01*
X36750714Y-99947619D01*
X36774523Y-100042857D01*
X36774523Y-100138095D01*
X36750714Y-100280952D01*
X36465000Y-100852380D01*
X36774523Y-100852380D01*
X37250714Y-100852380D02*
X36965000Y-100852380D01*
X37107857Y-100852380D02*
X37107857Y-99852380D01*
X37060238Y-99995238D01*
X37012619Y-100090476D01*
X36965000Y-100138095D01*
D11*
%TO.C,TP1*%
X17514166Y-116952380D02*
X17514166Y-115952380D01*
X17514166Y-116904761D02*
X17418928Y-116952380D01*
X17228452Y-116952380D01*
X17133214Y-116904761D01*
X17085595Y-116857142D01*
X17037976Y-116761904D01*
X17037976Y-116476190D01*
X17085595Y-116380952D01*
X17133214Y-116333333D01*
X17228452Y-116285714D01*
X17418928Y-116285714D01*
X17514166Y-116333333D01*
X18418928Y-116952380D02*
X18418928Y-116428571D01*
X18371309Y-116333333D01*
X18276071Y-116285714D01*
X18085595Y-116285714D01*
X17990357Y-116333333D01*
X18418928Y-116904761D02*
X18323690Y-116952380D01*
X18085595Y-116952380D01*
X17990357Y-116904761D01*
X17942738Y-116809523D01*
X17942738Y-116714285D01*
X17990357Y-116619047D01*
X18085595Y-116571428D01*
X18323690Y-116571428D01*
X18418928Y-116523809D01*
X18752261Y-116285714D02*
X19133214Y-116285714D01*
X18895119Y-115952380D02*
X18895119Y-116809523D01*
X18942738Y-116904761D01*
X19037976Y-116952380D01*
X19133214Y-116952380D01*
X19895119Y-116952380D02*
X19895119Y-116428571D01*
X19847500Y-116333333D01*
X19752261Y-116285714D01*
X19561785Y-116285714D01*
X19466547Y-116333333D01*
X19895119Y-116904761D02*
X19799880Y-116952380D01*
X19561785Y-116952380D01*
X19466547Y-116904761D01*
X19418928Y-116809523D01*
X19418928Y-116714285D01*
X19466547Y-116619047D01*
X19561785Y-116571428D01*
X19799880Y-116571428D01*
X19895119Y-116523809D01*
%TO.C,TP2*%
X58176309Y-144952380D02*
X57842976Y-144476190D01*
X57604880Y-144952380D02*
X57604880Y-143952380D01*
X57985833Y-143952380D01*
X58081071Y-144000000D01*
X58128690Y-144047619D01*
X58176309Y-144142857D01*
X58176309Y-144285714D01*
X58128690Y-144380952D01*
X58081071Y-144428571D01*
X57985833Y-144476190D01*
X57604880Y-144476190D01*
X58604880Y-144571428D02*
X59366785Y-144571428D01*
X60271547Y-144952380D02*
X60271547Y-144428571D01*
X60223928Y-144333333D01*
X60128690Y-144285714D01*
X59938214Y-144285714D01*
X59842976Y-144333333D01*
X60271547Y-144904761D02*
X60176309Y-144952380D01*
X59938214Y-144952380D01*
X59842976Y-144904761D01*
X59795357Y-144809523D01*
X59795357Y-144714285D01*
X59842976Y-144619047D01*
X59938214Y-144571428D01*
X60176309Y-144571428D01*
X60271547Y-144523809D01*
X60747738Y-144285714D02*
X60747738Y-144952380D01*
X60747738Y-144380952D02*
X60795357Y-144333333D01*
X60890595Y-144285714D01*
X61033452Y-144285714D01*
X61128690Y-144333333D01*
X61176309Y-144428571D01*
X61176309Y-144952380D01*
X62081071Y-144952380D02*
X62081071Y-144428571D01*
X62033452Y-144333333D01*
X61938214Y-144285714D01*
X61747738Y-144285714D01*
X61652500Y-144333333D01*
X62081071Y-144904761D02*
X61985833Y-144952380D01*
X61747738Y-144952380D01*
X61652500Y-144904761D01*
X61604880Y-144809523D01*
X61604880Y-144714285D01*
X61652500Y-144619047D01*
X61747738Y-144571428D01*
X61985833Y-144571428D01*
X62081071Y-144523809D01*
X62700119Y-144952380D02*
X62604880Y-144904761D01*
X62557261Y-144809523D01*
X62557261Y-143952380D01*
X63223928Y-144952380D02*
X63128690Y-144904761D01*
X63081071Y-144857142D01*
X63033452Y-144761904D01*
X63033452Y-144476190D01*
X63081071Y-144380952D01*
X63128690Y-144333333D01*
X63223928Y-144285714D01*
X63366785Y-144285714D01*
X63462023Y-144333333D01*
X63509642Y-144380952D01*
X63557261Y-144476190D01*
X63557261Y-144761904D01*
X63509642Y-144857142D01*
X63462023Y-144904761D01*
X63366785Y-144952380D01*
X63223928Y-144952380D01*
X64414404Y-144285714D02*
X64414404Y-145095238D01*
X64366785Y-145190476D01*
X64319166Y-145238095D01*
X64223928Y-145285714D01*
X64081071Y-145285714D01*
X63985833Y-145238095D01*
X64414404Y-144904761D02*
X64319166Y-144952380D01*
X64128690Y-144952380D01*
X64033452Y-144904761D01*
X63985833Y-144857142D01*
X63938214Y-144761904D01*
X63938214Y-144476190D01*
X63985833Y-144380952D01*
X64033452Y-144333333D01*
X64128690Y-144285714D01*
X64319166Y-144285714D01*
X64414404Y-144333333D01*
%TO.C,TP3*%
X58462023Y-142452380D02*
X58128690Y-141976190D01*
X57890595Y-142452380D02*
X57890595Y-141452380D01*
X58271547Y-141452380D01*
X58366785Y-141500000D01*
X58414404Y-141547619D01*
X58462023Y-141642857D01*
X58462023Y-141785714D01*
X58414404Y-141880952D01*
X58366785Y-141928571D01*
X58271547Y-141976190D01*
X57890595Y-141976190D01*
X58890595Y-142071428D02*
X59652500Y-142071428D01*
X60557261Y-142452380D02*
X60557261Y-141452380D01*
X60557261Y-142404761D02*
X60462023Y-142452380D01*
X60271547Y-142452380D01*
X60176309Y-142404761D01*
X60128690Y-142357142D01*
X60081071Y-142261904D01*
X60081071Y-141976190D01*
X60128690Y-141880952D01*
X60176309Y-141833333D01*
X60271547Y-141785714D01*
X60462023Y-141785714D01*
X60557261Y-141833333D01*
X61033452Y-142452380D02*
X61033452Y-141785714D01*
X61033452Y-141452380D02*
X60985833Y-141500000D01*
X61033452Y-141547619D01*
X61081071Y-141500000D01*
X61033452Y-141452380D01*
X61033452Y-141547619D01*
X61938214Y-141785714D02*
X61938214Y-142595238D01*
X61890595Y-142690476D01*
X61842976Y-142738095D01*
X61747738Y-142785714D01*
X61604880Y-142785714D01*
X61509642Y-142738095D01*
X61938214Y-142404761D02*
X61842976Y-142452380D01*
X61652500Y-142452380D01*
X61557261Y-142404761D01*
X61509642Y-142357142D01*
X61462023Y-142261904D01*
X61462023Y-141976190D01*
X61509642Y-141880952D01*
X61557261Y-141833333D01*
X61652500Y-141785714D01*
X61842976Y-141785714D01*
X61938214Y-141833333D01*
X62414404Y-142452380D02*
X62414404Y-141785714D01*
X62414404Y-141452380D02*
X62366785Y-141500000D01*
X62414404Y-141547619D01*
X62462023Y-141500000D01*
X62414404Y-141452380D01*
X62414404Y-141547619D01*
X62747738Y-141785714D02*
X63128690Y-141785714D01*
X62890595Y-141452380D02*
X62890595Y-142309523D01*
X62938214Y-142404761D01*
X63033452Y-142452380D01*
X63128690Y-142452380D01*
X63890595Y-142452380D02*
X63890595Y-141928571D01*
X63842976Y-141833333D01*
X63747738Y-141785714D01*
X63557261Y-141785714D01*
X63462023Y-141833333D01*
X63890595Y-142404761D02*
X63795357Y-142452380D01*
X63557261Y-142452380D01*
X63462023Y-142404761D01*
X63414404Y-142309523D01*
X63414404Y-142214285D01*
X63462023Y-142119047D01*
X63557261Y-142071428D01*
X63795357Y-142071428D01*
X63890595Y-142023809D01*
X64509642Y-142452380D02*
X64414404Y-142404761D01*
X64366785Y-142309523D01*
X64366785Y-141452380D01*
%TO.C,TP5*%
X58557261Y-137452380D02*
X58081071Y-137452380D01*
X58081071Y-136452380D01*
X58890595Y-137071428D02*
X59652500Y-137071428D01*
X60557261Y-137452380D02*
X60557261Y-136452380D01*
X60557261Y-137404761D02*
X60462023Y-137452380D01*
X60271547Y-137452380D01*
X60176309Y-137404761D01*
X60128690Y-137357142D01*
X60081071Y-137261904D01*
X60081071Y-136976190D01*
X60128690Y-136880952D01*
X60176309Y-136833333D01*
X60271547Y-136785714D01*
X60462023Y-136785714D01*
X60557261Y-136833333D01*
X61033452Y-137452380D02*
X61033452Y-136785714D01*
X61033452Y-136452380D02*
X60985833Y-136500000D01*
X61033452Y-136547619D01*
X61081071Y-136500000D01*
X61033452Y-136452380D01*
X61033452Y-136547619D01*
X61938214Y-136785714D02*
X61938214Y-137595238D01*
X61890595Y-137690476D01*
X61842976Y-137738095D01*
X61747738Y-137785714D01*
X61604880Y-137785714D01*
X61509642Y-137738095D01*
X61938214Y-137404761D02*
X61842976Y-137452380D01*
X61652500Y-137452380D01*
X61557261Y-137404761D01*
X61509642Y-137357142D01*
X61462023Y-137261904D01*
X61462023Y-136976190D01*
X61509642Y-136880952D01*
X61557261Y-136833333D01*
X61652500Y-136785714D01*
X61842976Y-136785714D01*
X61938214Y-136833333D01*
X62414404Y-137452380D02*
X62414404Y-136785714D01*
X62414404Y-136452380D02*
X62366785Y-136500000D01*
X62414404Y-136547619D01*
X62462023Y-136500000D01*
X62414404Y-136452380D01*
X62414404Y-136547619D01*
X62747738Y-136785714D02*
X63128690Y-136785714D01*
X62890595Y-136452380D02*
X62890595Y-137309523D01*
X62938214Y-137404761D01*
X63033452Y-137452380D01*
X63128690Y-137452380D01*
X63890595Y-137452380D02*
X63890595Y-136928571D01*
X63842976Y-136833333D01*
X63747738Y-136785714D01*
X63557261Y-136785714D01*
X63462023Y-136833333D01*
X63890595Y-137404761D02*
X63795357Y-137452380D01*
X63557261Y-137452380D01*
X63462023Y-137404761D01*
X63414404Y-137309523D01*
X63414404Y-137214285D01*
X63462023Y-137119047D01*
X63557261Y-137071428D01*
X63795357Y-137071428D01*
X63890595Y-137023809D01*
X64509642Y-137452380D02*
X64414404Y-137404761D01*
X64366785Y-137309523D01*
X64366785Y-136452380D01*
%TO.C,TP6*%
X61795357Y-131452380D02*
X62462023Y-131452380D01*
X61795357Y-132452380D01*
X62462023Y-132452380D01*
X62842976Y-132071428D02*
X63604880Y-132071428D01*
X64557261Y-132452380D02*
X64081071Y-132452380D01*
X64081071Y-131452380D01*
%TO.C,TP8*%
X62366785Y-134000000D02*
X62271547Y-133952380D01*
X62128690Y-133952380D01*
X61985833Y-134000000D01*
X61890595Y-134095238D01*
X61842976Y-134190476D01*
X61795357Y-134380952D01*
X61795357Y-134523809D01*
X61842976Y-134714285D01*
X61890595Y-134809523D01*
X61985833Y-134904761D01*
X62128690Y-134952380D01*
X62223928Y-134952380D01*
X62366785Y-134904761D01*
X62414404Y-134857142D01*
X62414404Y-134523809D01*
X62223928Y-134523809D01*
X62842976Y-134952380D02*
X62842976Y-133952380D01*
X63414404Y-134952380D01*
X63414404Y-133952380D01*
X63890595Y-134952380D02*
X63890595Y-133952380D01*
X64128690Y-133952380D01*
X64271547Y-134000000D01*
X64366785Y-134095238D01*
X64414404Y-134190476D01*
X64462023Y-134380952D01*
X64462023Y-134523809D01*
X64414404Y-134714285D01*
X64366785Y-134809523D01*
X64271547Y-134904761D01*
X64128690Y-134952380D01*
X63890595Y-134952380D01*
%TO.C,U1*%
X38452380Y-111000000D02*
X38357142Y-110952380D01*
X38214285Y-110952380D01*
X38071428Y-111000000D01*
X37976190Y-111095238D01*
X37928571Y-111190476D01*
X37880952Y-111380952D01*
X37880952Y-111523809D01*
X37928571Y-111714285D01*
X37976190Y-111809523D01*
X38071428Y-111904761D01*
X38214285Y-111952380D01*
X38309523Y-111952380D01*
X38452380Y-111904761D01*
X38500000Y-111857142D01*
X38500000Y-111523809D01*
X38309523Y-111523809D01*
X39500000Y-111857142D02*
X39452380Y-111904761D01*
X39309523Y-111952380D01*
X39214285Y-111952380D01*
X39071428Y-111904761D01*
X38976190Y-111809523D01*
X38928571Y-111714285D01*
X38880952Y-111523809D01*
X38880952Y-111380952D01*
X38928571Y-111190476D01*
X38976190Y-111095238D01*
X39071428Y-111000000D01*
X39214285Y-110952380D01*
X39309523Y-110952380D01*
X39452380Y-111000000D01*
X39500000Y-111047619D01*
X39928571Y-111571428D02*
X40690476Y-111571428D01*
X40309523Y-111952380D02*
X40309523Y-111190476D01*
X41119047Y-111047619D02*
X41166666Y-111000000D01*
X41261904Y-110952380D01*
X41500000Y-110952380D01*
X41595238Y-111000000D01*
X41642857Y-111047619D01*
X41690476Y-111142857D01*
X41690476Y-111238095D01*
X41642857Y-111380952D01*
X41071428Y-111952380D01*
X41690476Y-111952380D01*
X42119047Y-111857142D02*
X42166666Y-111904761D01*
X42119047Y-111952380D01*
X42071428Y-111904761D01*
X42119047Y-111857142D01*
X42119047Y-111952380D01*
X42785714Y-110952380D02*
X42880952Y-110952380D01*
X42976190Y-111000000D01*
X43023809Y-111047619D01*
X43071428Y-111142857D01*
X43119047Y-111333333D01*
X43119047Y-111571428D01*
X43071428Y-111761904D01*
X43023809Y-111857142D01*
X42976190Y-111904761D01*
X42880952Y-111952380D01*
X42785714Y-111952380D01*
X42690476Y-111904761D01*
X42642857Y-111857142D01*
X42595238Y-111761904D01*
X42547619Y-111571428D01*
X42547619Y-111333333D01*
X42595238Y-111142857D01*
X42642857Y-111047619D01*
X42690476Y-111000000D01*
X42785714Y-110952380D01*
%TO.C,TP7*%
X61604880Y-128952380D02*
X62271547Y-128952380D01*
X61604880Y-129952380D01*
X62271547Y-129952380D01*
X62652500Y-129571428D02*
X63414404Y-129571428D01*
X64462023Y-129952380D02*
X64128690Y-129476190D01*
X63890595Y-129952380D02*
X63890595Y-128952380D01*
X64271547Y-128952380D01*
X64366785Y-129000000D01*
X64414404Y-129047619D01*
X64462023Y-129142857D01*
X64462023Y-129285714D01*
X64414404Y-129380952D01*
X64366785Y-129428571D01*
X64271547Y-129476190D01*
X63890595Y-129476190D01*
%TO.C,TP10*%
X53440357Y-138952380D02*
X54059404Y-138952380D01*
X53726071Y-139333333D01*
X53868928Y-139333333D01*
X53964166Y-139380952D01*
X54011785Y-139428571D01*
X54059404Y-139523809D01*
X54059404Y-139761904D01*
X54011785Y-139857142D01*
X53964166Y-139904761D01*
X53868928Y-139952380D01*
X53583214Y-139952380D01*
X53487976Y-139904761D01*
X53440357Y-139857142D01*
X54487976Y-139857142D02*
X54535595Y-139904761D01*
X54487976Y-139952380D01*
X54440357Y-139904761D01*
X54487976Y-139857142D01*
X54487976Y-139952380D01*
X54868928Y-138952380D02*
X55487976Y-138952380D01*
X55154642Y-139333333D01*
X55297500Y-139333333D01*
X55392738Y-139380952D01*
X55440357Y-139428571D01*
X55487976Y-139523809D01*
X55487976Y-139761904D01*
X55440357Y-139857142D01*
X55392738Y-139904761D01*
X55297500Y-139952380D01*
X55011785Y-139952380D01*
X54916547Y-139904761D01*
X54868928Y-139857142D01*
X55773690Y-138952380D02*
X56107023Y-139952380D01*
X56440357Y-138952380D01*
%TO.C,TP4*%
X58271547Y-139952380D02*
X57795357Y-139952380D01*
X57795357Y-138952380D01*
X58604880Y-139571428D02*
X59366785Y-139571428D01*
X60271547Y-139952380D02*
X60271547Y-139428571D01*
X60223928Y-139333333D01*
X60128690Y-139285714D01*
X59938214Y-139285714D01*
X59842976Y-139333333D01*
X60271547Y-139904761D02*
X60176309Y-139952380D01*
X59938214Y-139952380D01*
X59842976Y-139904761D01*
X59795357Y-139809523D01*
X59795357Y-139714285D01*
X59842976Y-139619047D01*
X59938214Y-139571428D01*
X60176309Y-139571428D01*
X60271547Y-139523809D01*
X60747738Y-139285714D02*
X60747738Y-139952380D01*
X60747738Y-139380952D02*
X60795357Y-139333333D01*
X60890595Y-139285714D01*
X61033452Y-139285714D01*
X61128690Y-139333333D01*
X61176309Y-139428571D01*
X61176309Y-139952380D01*
X62081071Y-139952380D02*
X62081071Y-139428571D01*
X62033452Y-139333333D01*
X61938214Y-139285714D01*
X61747738Y-139285714D01*
X61652500Y-139333333D01*
X62081071Y-139904761D02*
X61985833Y-139952380D01*
X61747738Y-139952380D01*
X61652500Y-139904761D01*
X61604880Y-139809523D01*
X61604880Y-139714285D01*
X61652500Y-139619047D01*
X61747738Y-139571428D01*
X61985833Y-139571428D01*
X62081071Y-139523809D01*
X62700119Y-139952380D02*
X62604880Y-139904761D01*
X62557261Y-139809523D01*
X62557261Y-138952380D01*
X63223928Y-139952380D02*
X63128690Y-139904761D01*
X63081071Y-139857142D01*
X63033452Y-139761904D01*
X63033452Y-139476190D01*
X63081071Y-139380952D01*
X63128690Y-139333333D01*
X63223928Y-139285714D01*
X63366785Y-139285714D01*
X63462023Y-139333333D01*
X63509642Y-139380952D01*
X63557261Y-139476190D01*
X63557261Y-139761904D01*
X63509642Y-139857142D01*
X63462023Y-139904761D01*
X63366785Y-139952380D01*
X63223928Y-139952380D01*
X64414404Y-139285714D02*
X64414404Y-140095238D01*
X64366785Y-140190476D01*
X64319166Y-140238095D01*
X64223928Y-140285714D01*
X64081071Y-140285714D01*
X63985833Y-140238095D01*
X64414404Y-139904761D02*
X64319166Y-139952380D01*
X64128690Y-139952380D01*
X64033452Y-139904761D01*
X63985833Y-139857142D01*
X63938214Y-139761904D01*
X63938214Y-139476190D01*
X63985833Y-139380952D01*
X64033452Y-139333333D01*
X64128690Y-139285714D01*
X64319166Y-139285714D01*
X64414404Y-139333333D01*
%TO.C,TP9*%
X54059404Y-141500000D02*
X53964166Y-141452380D01*
X53821309Y-141452380D01*
X53678452Y-141500000D01*
X53583214Y-141595238D01*
X53535595Y-141690476D01*
X53487976Y-141880952D01*
X53487976Y-142023809D01*
X53535595Y-142214285D01*
X53583214Y-142309523D01*
X53678452Y-142404761D01*
X53821309Y-142452380D01*
X53916547Y-142452380D01*
X54059404Y-142404761D01*
X54107023Y-142357142D01*
X54107023Y-142023809D01*
X53916547Y-142023809D01*
X54535595Y-142452380D02*
X54535595Y-141452380D01*
X55107023Y-142452380D01*
X55107023Y-141452380D01*
X55583214Y-142452380D02*
X55583214Y-141452380D01*
X55821309Y-141452380D01*
X55964166Y-141500000D01*
X56059404Y-141595238D01*
X56107023Y-141690476D01*
X56154642Y-141880952D01*
X56154642Y-142023809D01*
X56107023Y-142214285D01*
X56059404Y-142309523D01*
X55964166Y-142404761D01*
X55821309Y-142452380D01*
X55583214Y-142452380D01*
D12*
%TO.C,TP1*%
X16450000Y-116500000D02*
G75*
G03*
X16450000Y-116500000I-950000J0D01*
G01*
%TO.C,TP2*%
X68200000Y-144500000D02*
G75*
G03*
X68200000Y-144500000I-950000J0D01*
G01*
%TO.C,TP3*%
X68200000Y-142000000D02*
G75*
G03*
X68200000Y-142000000I-950000J0D01*
G01*
%TO.C,TP5*%
X68200000Y-137000000D02*
G75*
G03*
X68200000Y-137000000I-950000J0D01*
G01*
%TO.C,TP6*%
X68200000Y-132000000D02*
G75*
G03*
X68200000Y-132000000I-950000J0D01*
G01*
%TO.C,TP8*%
X68200000Y-134500000D02*
G75*
G03*
X68200000Y-134500000I-950000J0D01*
G01*
%TO.C,U1*%
X52390000Y-123610000D02*
X52390000Y-99610000D01*
X52390000Y-99610000D02*
X28390000Y-99610000D01*
X28390000Y-99610000D02*
X28390000Y-123610000D01*
X28390000Y-123610000D02*
X52390000Y-123610000D01*
%TO.C,TP7*%
X68200000Y-129500000D02*
G75*
G03*
X68200000Y-129500000I-950000J0D01*
G01*
%TO.C,TP10*%
X53200000Y-139500000D02*
G75*
G03*
X53200000Y-139500000I-950000J0D01*
G01*
%TO.C,TP4*%
X68200000Y-139500000D02*
G75*
G03*
X68200000Y-139500000I-950000J0D01*
G01*
%TO.C,TP9*%
X53200000Y-142000000D02*
G75*
G03*
X53200000Y-142000000I-950000J0D01*
G01*
%TD*%
M02*
