%TF.GenerationSoftware,KiCad,Pcbnew,(6.0.5)*%
%TF.CreationDate,2022-06-15T00:03:33-05:00*%
%TF.ProjectId,GBOYFrontController,47424f59-4672-46f6-9e74-436f6e74726f,rev?*%
%TF.SameCoordinates,Original*%
%TF.FileFunction,Copper,L2,Bot*%
%TF.FilePolarity,Positive*%
%FSLAX46Y46*%
G04 Gerber Fmt 4.6, Leading zero omitted, Abs format (unit mm)*
G04 Created by KiCad (PCBNEW (6.0.5)) date 2022-06-15 00:03:33*
%MOMM*%
%LPD*%
G01*
G04 APERTURE LIST*
G04 Aperture macros list*
%AMFreePoly0*
4,1,17,-0.249646,0.550354,-0.249500,0.550000,-0.249500,0.350000,0.250000,0.350000,0.250000,-0.350000,-0.249500,-0.350000,-0.249500,-0.550000,-0.249646,-0.550354,-0.250000,-0.550500,-0.450000,-0.550500,-0.450354,-0.550354,-0.450500,-0.550000,-0.450500,0.550000,-0.450354,0.550354,-0.450000,0.550500,-0.250000,0.550500,-0.249646,0.550354,-0.249646,0.550354,$1*%
G04 Aperture macros list end*
%TA.AperFunction,WasherPad*%
%ADD10C,2.520000*%
%TD*%
%TA.AperFunction,SMDPad,CuDef*%
%ADD11R,2.500000X2.500000*%
%TD*%
%TA.AperFunction,SMDPad,CuDef*%
%ADD12FreePoly0,0.000000*%
%TD*%
%TA.AperFunction,SMDPad,CuDef*%
%ADD13FreePoly0,180.000000*%
%TD*%
%TA.AperFunction,ViaPad*%
%ADD14C,0.800000*%
%TD*%
%TA.AperFunction,Conductor*%
%ADD15C,0.250000*%
%TD*%
G04 APERTURE END LIST*
D10*
%TO.P,U1,*%
%TO.N,*%
X50390000Y-101610000D03*
X50390000Y-121610000D03*
%TD*%
D11*
%TO.P,U2,1*%
%TO.N,L*%
X67140000Y-140000000D03*
%TO.P,U2,2*%
%TO.N,GND*%
X69890000Y-140000000D03*
%TO.P,U2,3*%
X67140000Y-137250000D03*
%TO.P,U2,4*%
%TO.N,L*%
X69890000Y-137250000D03*
%TD*%
%TO.P,U3,1*%
%TO.N,U*%
X60140000Y-133000000D03*
%TO.P,U3,2*%
%TO.N,GND*%
X62890000Y-133000000D03*
%TO.P,U3,3*%
X60140000Y-130250000D03*
%TO.P,U3,4*%
%TO.N,U*%
X62890000Y-130250000D03*
%TD*%
%TO.P,U4,1*%
%TO.N,D*%
X60140000Y-147000000D03*
%TO.P,U4,2*%
%TO.N,GND*%
X62890000Y-147000000D03*
%TO.P,U4,3*%
X60140000Y-144250000D03*
%TO.P,U4,4*%
%TO.N,D*%
X62890000Y-144250000D03*
%TD*%
%TO.P,U5,1*%
%TO.N,R*%
X53140000Y-140000000D03*
%TO.P,U5,2*%
%TO.N,GND*%
X55890000Y-140000000D03*
%TO.P,U5,3*%
X53140000Y-137250000D03*
%TO.P,U5,4*%
%TO.N,R*%
X55890000Y-137250000D03*
%TD*%
%TO.P,U6,1*%
%TO.N,Y*%
X30640000Y-113749000D03*
%TO.P,U6,2*%
%TO.N,GND*%
X33390000Y-113749000D03*
%TO.P,U6,3*%
X30640000Y-110999000D03*
%TO.P,U6,4*%
%TO.N,Y*%
X33390000Y-110999000D03*
%TD*%
%TO.P,U7,1*%
%TO.N,X*%
X23140000Y-106360000D03*
%TO.P,U7,2*%
%TO.N,GND*%
X25890000Y-106360000D03*
%TO.P,U7,3*%
X23140000Y-103610000D03*
%TO.P,U7,4*%
%TO.N,X*%
X25890000Y-103610000D03*
%TD*%
D12*
%TO.P,U10,1*%
%TO.N,S*%
X46340000Y-113800000D03*
D13*
%TO.P,U10,2*%
X50590000Y-113800000D03*
D12*
%TO.P,U10,3*%
%TO.N,GND*%
X46340000Y-110300000D03*
D13*
%TO.P,U10,4*%
X50590000Y-110300000D03*
%TD*%
D11*
%TO.P,U9,1*%
%TO.N,A*%
X15640000Y-113749000D03*
%TO.P,U9,2*%
%TO.N,GND*%
X18390000Y-113749000D03*
%TO.P,U9,3*%
X15640000Y-110999000D03*
%TO.P,U9,4*%
%TO.N,A*%
X18390000Y-110999000D03*
%TD*%
%TO.P,U8,1*%
%TO.N,B*%
X23140000Y-121360000D03*
%TO.P,U8,2*%
%TO.N,GND*%
X25890000Y-121360000D03*
%TO.P,U8,3*%
X23140000Y-118610000D03*
%TO.P,U8,4*%
%TO.N,B*%
X25890000Y-118610000D03*
%TD*%
D14*
%TO.N,GND*%
X62700000Y-136400000D03*
X60100000Y-141700000D03*
X20600000Y-113000000D03*
X72250000Y-140000000D03*
X21700000Y-115300000D03*
X53000000Y-125250000D03*
X41200000Y-122600000D03*
X42400000Y-108200000D03*
X24400000Y-109400000D03*
X60500000Y-128500000D03*
X35500000Y-113250000D03*
X28100000Y-121600000D03*
X21300000Y-117600000D03*
X64750000Y-146500000D03*
X55900000Y-132400000D03*
X69750000Y-134500000D03*
X58000000Y-139500000D03*
X21250000Y-103750000D03*
%TO.N,Net-(J2-Pad4)*%
X43900000Y-121300000D03*
X23843590Y-124400000D03*
%TO.N,Net-(J2-Pad1)*%
X39250000Y-121500000D03*
X42000000Y-122000000D03*
%TO.N,Net-(TP2-Pad1)*%
X55100000Y-106400000D03*
X55100000Y-117500000D03*
%TO.N,Net-(TP3-Pad1)*%
X50100000Y-108000000D03*
X53100000Y-133000000D03*
%TO.N,Net-(TP4-Pad1)*%
X54900000Y-126700000D03*
X44100000Y-106500000D03*
%TO.N,Net-(TP5-Pad1)*%
X42400000Y-106500000D03*
X57200000Y-124900000D03*
%TO.N,S*%
X38000000Y-115000000D03*
%TO.N,L*%
X35750000Y-107250000D03*
%TO.N,R*%
X35750000Y-109750000D03*
%TO.N,D*%
X35750000Y-108500000D03*
%TO.N,U*%
X35750000Y-106000000D03*
%TO.N,Y*%
X51000000Y-112250000D03*
%TO.N,X*%
X51000000Y-115250000D03*
%TO.N,B*%
X50573002Y-117000000D03*
%TO.N,A*%
X50875000Y-118375000D03*
%TD*%
D15*
%TO.N,GND*%
X55900000Y-129900000D02*
X55900000Y-132400000D01*
X53000000Y-125250000D02*
X53000000Y-127000000D01*
X53000000Y-127000000D02*
X55900000Y-129900000D01*
%TO.N,Net-(J2-Pad4)*%
X43900000Y-120400000D02*
X43900000Y-121300000D01*
X32361390Y-119275020D02*
X42775020Y-119275020D01*
X42775020Y-119275020D02*
X43900000Y-120400000D01*
X27236410Y-124400000D02*
X32361390Y-119275020D01*
X23843590Y-124400000D02*
X27236410Y-124400000D01*
%TO.N,Net-(J2-Pad1)*%
X41500000Y-121500000D02*
X42000000Y-122000000D01*
X39250000Y-121500000D02*
X41500000Y-121500000D01*
%TO.N,Net-(TP2-Pad1)*%
X55100000Y-117500000D02*
X55100000Y-106400000D01*
%TO.N,Net-(TP3-Pad1)*%
X49200000Y-128309002D02*
X49200000Y-125070000D01*
X52200010Y-112377008D02*
X50998512Y-111175510D01*
X48900000Y-109200000D02*
X50100000Y-108000000D01*
X53100000Y-132209002D02*
X49200000Y-128309002D01*
X52200010Y-122069990D02*
X52200010Y-112377008D01*
X53100000Y-133000000D02*
X53100000Y-132209002D01*
X48900000Y-110700000D02*
X48900000Y-109200000D01*
X49375510Y-111175510D02*
X48900000Y-110700000D01*
X49200000Y-125070000D02*
X52200010Y-122069990D01*
X50998512Y-111175510D02*
X49375510Y-111175510D01*
%TO.N,Net-(TP4-Pad1)*%
X55950050Y-105450050D02*
X56289940Y-105789940D01*
X55300000Y-125744970D02*
X55300000Y-126300000D01*
X44100000Y-106500000D02*
X45149950Y-105450050D01*
X56289940Y-124755030D02*
X55300000Y-125744970D01*
X55300000Y-126300000D02*
X54900000Y-126700000D01*
X56289940Y-105789940D02*
X56289940Y-124755030D01*
X45149950Y-105450050D02*
X55950050Y-105450050D01*
%TO.N,Net-(TP5-Pad1)*%
X56739950Y-105585590D02*
X56154400Y-105000040D01*
X57200000Y-124900000D02*
X56739950Y-124439950D01*
X43899960Y-105000040D02*
X42400000Y-106500000D01*
X56739950Y-124439950D02*
X56739950Y-105585590D01*
X56154400Y-105000040D02*
X43899960Y-105000040D01*
%TO.N,S*%
X46340000Y-113800000D02*
X46340000Y-115934970D01*
X46340000Y-113800000D02*
X50590000Y-113800000D01*
X40024970Y-117024970D02*
X38000000Y-115000000D01*
X45250000Y-117024970D02*
X40024970Y-117024970D01*
X46340000Y-115934970D02*
X45250000Y-117024970D01*
%TO.N,L*%
X67215001Y-141575001D02*
X73174999Y-141575001D01*
X36113590Y-107250000D02*
X35750000Y-107250000D01*
X59354988Y-123206386D02*
X58089980Y-121941378D01*
X56713600Y-103650010D02*
X39713580Y-103650010D01*
X71390000Y-137250000D02*
X69890000Y-137250000D01*
X58114989Y-128553599D02*
X59354988Y-127313600D01*
X59354988Y-127313600D02*
X59354988Y-123206386D01*
X58089980Y-121941378D02*
X58089980Y-105026390D01*
X73174999Y-141575001D02*
X73174999Y-139034999D01*
X67140000Y-140000000D02*
X67140000Y-141500000D01*
X58089980Y-105026390D02*
X56713600Y-103650010D01*
X67140000Y-141500000D02*
X67215001Y-141575001D01*
X64054998Y-140000000D02*
X58114989Y-134059991D01*
X58114989Y-134059991D02*
X58114989Y-128553599D01*
X73174999Y-139034999D02*
X71390000Y-137250000D01*
X39713580Y-103650010D02*
X36113590Y-107250000D01*
X67140000Y-140000000D02*
X64054998Y-140000000D01*
%TO.N,R*%
X57214971Y-128180797D02*
X58454968Y-126940800D01*
X57500000Y-137250000D02*
X59250000Y-139000000D01*
X41699970Y-104550030D02*
X36500000Y-109750000D01*
X36500000Y-109750000D02*
X35750000Y-109750000D01*
X57400001Y-141575001D02*
X53215001Y-141575001D01*
X53215001Y-141575001D02*
X53140000Y-141500000D01*
X55890000Y-137250000D02*
X55890000Y-135750000D01*
X59250000Y-139000000D02*
X59250000Y-139725002D01*
X56340800Y-104550030D02*
X41699970Y-104550030D01*
X57214970Y-134425030D02*
X57214971Y-128180797D01*
X59250000Y-139725002D02*
X57400001Y-141575001D01*
X57189960Y-122314178D02*
X57189960Y-105399190D01*
X57189960Y-105399190D02*
X56340800Y-104550030D01*
X58454968Y-123579186D02*
X57189960Y-122314178D01*
X55890000Y-135750000D02*
X57214970Y-134425030D01*
X55890000Y-137250000D02*
X57500000Y-137250000D01*
X58454968Y-126940800D02*
X58454968Y-123579186D01*
X53140000Y-141500000D02*
X53140000Y-140000000D01*
%TO.N,D*%
X65750000Y-145610000D02*
X65750000Y-147225002D01*
X36363590Y-108500000D02*
X35750000Y-108500000D01*
X57639970Y-105212790D02*
X56527200Y-104100020D01*
X65750000Y-147225002D02*
X64400001Y-148575001D01*
X62890000Y-139471412D02*
X57664979Y-134246391D01*
X56527200Y-104100020D02*
X40763570Y-104100020D01*
X60140000Y-147335002D02*
X60140000Y-147000000D01*
X57639970Y-122127778D02*
X57639970Y-105212790D01*
X40763570Y-104100020D02*
X36363590Y-108500000D01*
X64390000Y-144250000D02*
X65750000Y-145610000D01*
X62890000Y-144250000D02*
X62890000Y-139471412D01*
X58904978Y-123392786D02*
X57639970Y-122127778D01*
X58904978Y-127127200D02*
X58904978Y-123392786D01*
X64400001Y-148575001D02*
X61379999Y-148575001D01*
X57664979Y-134246391D02*
X57664980Y-128367198D01*
X61379999Y-148575001D02*
X60140000Y-147335002D01*
X57664980Y-128367198D02*
X58904978Y-127127200D01*
X62890000Y-144250000D02*
X64390000Y-144250000D01*
%TO.N,U*%
X58640000Y-133000000D02*
X60140000Y-133000000D01*
X58539990Y-104839990D02*
X56900000Y-103200000D01*
X62890000Y-128750000D02*
X61640000Y-127500000D01*
X62890000Y-130250000D02*
X62890000Y-128750000D01*
X61640000Y-127500000D02*
X59804998Y-127500000D01*
X58564999Y-132924999D02*
X58640000Y-133000000D01*
X58564999Y-128739999D02*
X58564999Y-132924999D01*
X38550000Y-103200000D02*
X35750000Y-106000000D01*
X59804998Y-127500000D02*
X58564999Y-128739999D01*
X59804998Y-123019986D02*
X58539990Y-121754978D01*
X58539990Y-121754978D02*
X58539990Y-104839990D01*
X59804998Y-127500000D02*
X59804998Y-123019986D01*
X56900000Y-103200000D02*
X38550000Y-103200000D01*
%TO.N,Y*%
X51323002Y-116000000D02*
X51750000Y-115573002D01*
X50000000Y-116000000D02*
X51323002Y-116000000D01*
X51000000Y-112250000D02*
X51750000Y-113000000D01*
X48075010Y-117924990D02*
X50000000Y-116000000D01*
X51750000Y-115573002D02*
X51750000Y-113000000D01*
X30715001Y-115324001D02*
X30640000Y-115249000D01*
X38674990Y-117924990D02*
X48075010Y-117924990D01*
X30640000Y-115249000D02*
X30640000Y-113749000D01*
X33390000Y-110999000D02*
X34890000Y-110999000D01*
X35487001Y-114737001D02*
X38674990Y-117924990D01*
X34890000Y-110999000D02*
X36250000Y-112359000D01*
X36250000Y-113974002D02*
X35487001Y-114737001D01*
X36250000Y-112359000D02*
X36250000Y-113974002D01*
X35487001Y-114737001D02*
X34900001Y-115324001D01*
X34900001Y-115324001D02*
X30715001Y-115324001D01*
%TO.N,X*%
X35076401Y-110548991D02*
X36700010Y-112172600D01*
X34965001Y-109488999D02*
X34965001Y-110548990D01*
X47888610Y-117474980D02*
X50113590Y-115250000D01*
X36700010Y-115313600D02*
X38861390Y-117474980D01*
X20250000Y-104970000D02*
X21640000Y-106360000D01*
X25890000Y-102110000D02*
X27586002Y-102110000D01*
X25890000Y-102110000D02*
X25814999Y-102034999D01*
X20965001Y-102034999D02*
X20250000Y-102750000D01*
X27586002Y-102110000D02*
X34965001Y-109488999D01*
X21640000Y-106360000D02*
X23140000Y-106360000D01*
X20250000Y-102750000D02*
X20250000Y-104970000D01*
X34965001Y-110548990D02*
X35076401Y-110548991D01*
X25814999Y-102034999D02*
X20965001Y-102034999D01*
X38861390Y-117474980D02*
X47888610Y-117474980D01*
X50113590Y-115250000D02*
X51000000Y-115250000D01*
X36700010Y-112172600D02*
X36700010Y-115313600D01*
X25890000Y-103610000D02*
X25890000Y-102110000D01*
%TO.N,B*%
X51600001Y-118026999D02*
X50573002Y-117000000D01*
X51600001Y-118723001D02*
X51600001Y-118026999D01*
X20375489Y-118930491D02*
X22804998Y-121360000D01*
X23140000Y-122860000D02*
X23215001Y-122935001D01*
X25890000Y-118610000D02*
X25890000Y-117110000D01*
X22804998Y-121360000D02*
X23140000Y-121360000D01*
X23215001Y-122935001D02*
X28064999Y-122935001D01*
X20375489Y-117499897D02*
X20375489Y-118930491D01*
X28064999Y-122935001D02*
X32174990Y-118825010D01*
X24804999Y-116024999D02*
X21850387Y-116024999D01*
X32174990Y-118825010D02*
X50279206Y-118825010D01*
X50279206Y-118825010D02*
X50554197Y-119100001D01*
X25890000Y-117110000D02*
X24804999Y-116024999D01*
X50554197Y-119100001D02*
X51223001Y-119100001D01*
X51223001Y-119100001D02*
X51600001Y-118723001D01*
X21850387Y-116024999D02*
X20375489Y-117499897D01*
X23140000Y-121360000D02*
X23140000Y-122860000D01*
%TO.N,A*%
X22000000Y-113109000D02*
X22000000Y-113573002D01*
X20249001Y-115324001D02*
X15715001Y-115324001D01*
X18390000Y-110999000D02*
X19890000Y-110999000D01*
X22000000Y-114500000D02*
X28305998Y-114500000D01*
X15715001Y-115324001D02*
X15640000Y-115249000D01*
X15640000Y-115249000D02*
X15640000Y-113749000D01*
X22000000Y-113109000D02*
X22000000Y-114500000D01*
X32180998Y-118375000D02*
X50875000Y-118375000D01*
X28305998Y-114500000D02*
X32180998Y-118375000D01*
X22000000Y-113573002D02*
X20249001Y-115324001D01*
X19890000Y-110999000D02*
X22000000Y-113109000D01*
%TD*%
%TA.AperFunction,Conductor*%
%TO.N,GND*%
G36*
X42584495Y-105203532D02*
G01*
X42630988Y-105257188D01*
X42641092Y-105327462D01*
X42611598Y-105392042D01*
X42605469Y-105398625D01*
X42449499Y-105554595D01*
X42387187Y-105588621D01*
X42360404Y-105591500D01*
X42304513Y-105591500D01*
X42298061Y-105592872D01*
X42298056Y-105592872D01*
X42211112Y-105611353D01*
X42117712Y-105631206D01*
X42111682Y-105633891D01*
X42111681Y-105633891D01*
X41949278Y-105706197D01*
X41949276Y-105706198D01*
X41943248Y-105708882D01*
X41788747Y-105821134D01*
X41660960Y-105963056D01*
X41565473Y-106128444D01*
X41506458Y-106310072D01*
X41486496Y-106500000D01*
X41487186Y-106506565D01*
X41504905Y-106675149D01*
X41506458Y-106689928D01*
X41565473Y-106871556D01*
X41660960Y-107036944D01*
X41665378Y-107041851D01*
X41665379Y-107041852D01*
X41710082Y-107091500D01*
X41788747Y-107178866D01*
X41943248Y-107291118D01*
X41949276Y-107293802D01*
X41949278Y-107293803D01*
X42111681Y-107366109D01*
X42117712Y-107368794D01*
X42211113Y-107388647D01*
X42298056Y-107407128D01*
X42298061Y-107407128D01*
X42304513Y-107408500D01*
X42495487Y-107408500D01*
X42501939Y-107407128D01*
X42501944Y-107407128D01*
X42588887Y-107388647D01*
X42682288Y-107368794D01*
X42688319Y-107366109D01*
X42850722Y-107293803D01*
X42850724Y-107293802D01*
X42856752Y-107291118D01*
X43011253Y-107178866D01*
X43089918Y-107091500D01*
X43134621Y-107041852D01*
X43134622Y-107041851D01*
X43139040Y-107036944D01*
X43142341Y-107031226D01*
X43146224Y-107025882D01*
X43147878Y-107027084D01*
X43192259Y-106984764D01*
X43261972Y-106971325D01*
X43327884Y-106997709D01*
X43352868Y-107026542D01*
X43353776Y-107025882D01*
X43357659Y-107031226D01*
X43360960Y-107036944D01*
X43365378Y-107041851D01*
X43365379Y-107041852D01*
X43410082Y-107091500D01*
X43488747Y-107178866D01*
X43643248Y-107291118D01*
X43649276Y-107293802D01*
X43649278Y-107293803D01*
X43811681Y-107366109D01*
X43817712Y-107368794D01*
X43911113Y-107388647D01*
X43998056Y-107407128D01*
X43998061Y-107407128D01*
X44004513Y-107408500D01*
X44195487Y-107408500D01*
X44201939Y-107407128D01*
X44201944Y-107407128D01*
X44288887Y-107388647D01*
X44382288Y-107368794D01*
X44388319Y-107366109D01*
X44550722Y-107293803D01*
X44550724Y-107293802D01*
X44556752Y-107291118D01*
X44711253Y-107178866D01*
X44789918Y-107091500D01*
X44834621Y-107041852D01*
X44834622Y-107041851D01*
X44839040Y-107036944D01*
X44934527Y-106871556D01*
X44993542Y-106689928D01*
X44995096Y-106675149D01*
X45010907Y-106524707D01*
X45037920Y-106459050D01*
X45047122Y-106448782D01*
X45375449Y-106120455D01*
X45437761Y-106086429D01*
X45464544Y-106083550D01*
X54079819Y-106083550D01*
X54147940Y-106103552D01*
X54194433Y-106157208D01*
X54205129Y-106222719D01*
X54186496Y-106400000D01*
X54187186Y-106406565D01*
X54202069Y-106548165D01*
X54206458Y-106589928D01*
X54265473Y-106771556D01*
X54360960Y-106936944D01*
X54434137Y-107018215D01*
X54464853Y-107082221D01*
X54466500Y-107102524D01*
X54466500Y-116797476D01*
X54446498Y-116865597D01*
X54434142Y-116881779D01*
X54360960Y-116963056D01*
X54306405Y-117057548D01*
X54283279Y-117097604D01*
X54265473Y-117128444D01*
X54206458Y-117310072D01*
X54205768Y-117316633D01*
X54205768Y-117316635D01*
X54194918Y-117419867D01*
X54186496Y-117500000D01*
X54206458Y-117689928D01*
X54265473Y-117871556D01*
X54360960Y-118036944D01*
X54488747Y-118178866D01*
X54643248Y-118291118D01*
X54649276Y-118293802D01*
X54649278Y-118293803D01*
X54811681Y-118366109D01*
X54817712Y-118368794D01*
X54911113Y-118388647D01*
X54998056Y-118407128D01*
X54998061Y-118407128D01*
X55004513Y-118408500D01*
X55195487Y-118408500D01*
X55201939Y-118407128D01*
X55201944Y-118407128D01*
X55288887Y-118388647D01*
X55382288Y-118368794D01*
X55479192Y-118325650D01*
X55549558Y-118316216D01*
X55613855Y-118346322D01*
X55651669Y-118406411D01*
X55656440Y-118440757D01*
X55656440Y-124440435D01*
X55636438Y-124508556D01*
X55619535Y-124529531D01*
X55257210Y-124891855D01*
X54907742Y-125241323D01*
X54899463Y-125248857D01*
X54892982Y-125252970D01*
X54853045Y-125295499D01*
X54846357Y-125302621D01*
X54843602Y-125305463D01*
X54823865Y-125325200D01*
X54821385Y-125328397D01*
X54813682Y-125337417D01*
X54783414Y-125369649D01*
X54779595Y-125376595D01*
X54779593Y-125376598D01*
X54773652Y-125387404D01*
X54762801Y-125403923D01*
X54750386Y-125419929D01*
X54747241Y-125427198D01*
X54747238Y-125427202D01*
X54732826Y-125460507D01*
X54727609Y-125471157D01*
X54706305Y-125509910D01*
X54704334Y-125517585D01*
X54704334Y-125517586D01*
X54701267Y-125529532D01*
X54694863Y-125548236D01*
X54690541Y-125558225D01*
X54686819Y-125566825D01*
X54685580Y-125574648D01*
X54685577Y-125574658D01*
X54679901Y-125610494D01*
X54677495Y-125622114D01*
X54666500Y-125664940D01*
X54666500Y-125685194D01*
X54664949Y-125704904D01*
X54661780Y-125724913D01*
X54662526Y-125732802D01*
X54662508Y-125733367D01*
X54640375Y-125800826D01*
X54587819Y-125844515D01*
X54449278Y-125906197D01*
X54449276Y-125906198D01*
X54443248Y-125908882D01*
X54288747Y-126021134D01*
X54284326Y-126026044D01*
X54284325Y-126026045D01*
X54239029Y-126076352D01*
X54160960Y-126163056D01*
X54137428Y-126203814D01*
X54099140Y-126270132D01*
X54065473Y-126328444D01*
X54006458Y-126510072D01*
X54005768Y-126516633D01*
X54005768Y-126516635D01*
X53994374Y-126625041D01*
X53986496Y-126700000D01*
X53987186Y-126706565D01*
X54005307Y-126878973D01*
X54006458Y-126889928D01*
X54065473Y-127071556D01*
X54068776Y-127077278D01*
X54068777Y-127077279D01*
X54074711Y-127087557D01*
X54160960Y-127236944D01*
X54288747Y-127378866D01*
X54443248Y-127491118D01*
X54449276Y-127493802D01*
X54449278Y-127493803D01*
X54611681Y-127566109D01*
X54617712Y-127568794D01*
X54711113Y-127588647D01*
X54798056Y-127607128D01*
X54798061Y-127607128D01*
X54804513Y-127608500D01*
X54995487Y-127608500D01*
X55001939Y-127607128D01*
X55001944Y-127607128D01*
X55088887Y-127588647D01*
X55182288Y-127568794D01*
X55188319Y-127566109D01*
X55350722Y-127493803D01*
X55350724Y-127493802D01*
X55356752Y-127491118D01*
X55511253Y-127378866D01*
X55639040Y-127236944D01*
X55725289Y-127087557D01*
X55731223Y-127077279D01*
X55731224Y-127077278D01*
X55734527Y-127071556D01*
X55793542Y-126889928D01*
X55794694Y-126878973D01*
X55813206Y-126702836D01*
X55838955Y-126638781D01*
X55844753Y-126631306D01*
X55849613Y-126625041D01*
X55867176Y-126584457D01*
X55872383Y-126573827D01*
X55893695Y-126535060D01*
X55895666Y-126527383D01*
X55895668Y-126527378D01*
X55898732Y-126515442D01*
X55905138Y-126496730D01*
X55910034Y-126485417D01*
X55913181Y-126478145D01*
X55915135Y-126465813D01*
X55920097Y-126434481D01*
X55922504Y-126422860D01*
X55931528Y-126387711D01*
X55931528Y-126387710D01*
X55933500Y-126380030D01*
X55933500Y-126359769D01*
X55935051Y-126340058D01*
X55936135Y-126333218D01*
X55938219Y-126320057D01*
X55934059Y-126276046D01*
X55933500Y-126264189D01*
X55933500Y-126059564D01*
X55953502Y-125991443D01*
X55970405Y-125970469D01*
X56387432Y-125553442D01*
X56449744Y-125519416D01*
X56520559Y-125524481D01*
X56570161Y-125558225D01*
X56588747Y-125578866D01*
X56648273Y-125622114D01*
X56718131Y-125672869D01*
X56743248Y-125691118D01*
X56749276Y-125693802D01*
X56749278Y-125693803D01*
X56801571Y-125717085D01*
X56917712Y-125768794D01*
X57011112Y-125788647D01*
X57098056Y-125807128D01*
X57098061Y-125807128D01*
X57104513Y-125808500D01*
X57295487Y-125808500D01*
X57301939Y-125807128D01*
X57301944Y-125807128D01*
X57388888Y-125788647D01*
X57482288Y-125768794D01*
X57644219Y-125696698D01*
X57714586Y-125687264D01*
X57778883Y-125717371D01*
X57816697Y-125777459D01*
X57821468Y-125811805D01*
X57821468Y-126626206D01*
X57801466Y-126694327D01*
X57784567Y-126715297D01*
X56822707Y-127677156D01*
X56814433Y-127684685D01*
X56807953Y-127688797D01*
X56802528Y-127694574D01*
X56761328Y-127738448D01*
X56758573Y-127741290D01*
X56738836Y-127761027D01*
X56736356Y-127764224D01*
X56728653Y-127773244D01*
X56698385Y-127805476D01*
X56694566Y-127812422D01*
X56694564Y-127812425D01*
X56688623Y-127823231D01*
X56677772Y-127839750D01*
X56665357Y-127855756D01*
X56662212Y-127863025D01*
X56662209Y-127863029D01*
X56647797Y-127896334D01*
X56642580Y-127906984D01*
X56621276Y-127945737D01*
X56619305Y-127953412D01*
X56619305Y-127953413D01*
X56616238Y-127965359D01*
X56609834Y-127984063D01*
X56601790Y-128002652D01*
X56600551Y-128010475D01*
X56600548Y-128010485D01*
X56594872Y-128046321D01*
X56592466Y-128057941D01*
X56585904Y-128083502D01*
X56581471Y-128100767D01*
X56581471Y-128121021D01*
X56579920Y-128140732D01*
X56576751Y-128160740D01*
X56577497Y-128168632D01*
X56580912Y-128204758D01*
X56581471Y-128216616D01*
X56581470Y-134110436D01*
X56561468Y-134178557D01*
X56544565Y-134199531D01*
X55497747Y-135246348D01*
X55489461Y-135253888D01*
X55482982Y-135258000D01*
X55477557Y-135263777D01*
X55436357Y-135307651D01*
X55433602Y-135310493D01*
X55413865Y-135330230D01*
X55411385Y-135333427D01*
X55403682Y-135342447D01*
X55373414Y-135374679D01*
X55369595Y-135381625D01*
X55369593Y-135381628D01*
X55363652Y-135392434D01*
X55352801Y-135408953D01*
X55340386Y-135424959D01*
X55338082Y-135430283D01*
X55286881Y-135478091D01*
X55230319Y-135491500D01*
X54591866Y-135491500D01*
X54529684Y-135498255D01*
X54393295Y-135549385D01*
X54276739Y-135636739D01*
X54189385Y-135753295D01*
X54138255Y-135889684D01*
X54131500Y-135951866D01*
X54131500Y-138115500D01*
X54111498Y-138183621D01*
X54057842Y-138230114D01*
X54005500Y-138241500D01*
X51841866Y-138241500D01*
X51779684Y-138248255D01*
X51643295Y-138299385D01*
X51526739Y-138386739D01*
X51439385Y-138503295D01*
X51388255Y-138639684D01*
X51381500Y-138701866D01*
X51381500Y-141298134D01*
X51388255Y-141360316D01*
X51439385Y-141496705D01*
X51526739Y-141613261D01*
X51643295Y-141700615D01*
X51779684Y-141751745D01*
X51841866Y-141758500D01*
X52480562Y-141758500D01*
X52548683Y-141778502D01*
X52582499Y-141810440D01*
X52606436Y-141843387D01*
X52612952Y-141853307D01*
X52635458Y-141891362D01*
X52649779Y-141905683D01*
X52662619Y-141920716D01*
X52674528Y-141937107D01*
X52680632Y-141942157D01*
X52680638Y-141942163D01*
X52705300Y-141962565D01*
X52719956Y-141977221D01*
X52723001Y-141982019D01*
X52728778Y-141987444D01*
X52772668Y-142028659D01*
X52775510Y-142031414D01*
X52795231Y-142051135D01*
X52798426Y-142053613D01*
X52807448Y-142061319D01*
X52839680Y-142091587D01*
X52850859Y-142097733D01*
X52857433Y-142101347D01*
X52873957Y-142112200D01*
X52889960Y-142124614D01*
X52930544Y-142142177D01*
X52941174Y-142147384D01*
X52979941Y-142168696D01*
X52987618Y-142170667D01*
X52987623Y-142170669D01*
X52999559Y-142173733D01*
X53018267Y-142180138D01*
X53036856Y-142188182D01*
X53044681Y-142189421D01*
X53044683Y-142189422D01*
X53080520Y-142195098D01*
X53092141Y-142197505D01*
X53127290Y-142206529D01*
X53134971Y-142208501D01*
X53155232Y-142208501D01*
X53174941Y-142210052D01*
X53194944Y-142213220D01*
X53202836Y-142212474D01*
X53208063Y-142211980D01*
X53238955Y-142209060D01*
X53250812Y-142208501D01*
X57321234Y-142208501D01*
X57332417Y-142209028D01*
X57339910Y-142210703D01*
X57347836Y-142210454D01*
X57347837Y-142210454D01*
X57407987Y-142208563D01*
X57411946Y-142208501D01*
X57439857Y-142208501D01*
X57443792Y-142208004D01*
X57443857Y-142207996D01*
X57455694Y-142207063D01*
X57489489Y-142206001D01*
X57491971Y-142205923D01*
X57499890Y-142205674D01*
X57519344Y-142200022D01*
X57538701Y-142196014D01*
X57550931Y-142194469D01*
X57550932Y-142194469D01*
X57558798Y-142193475D01*
X57566169Y-142190556D01*
X57566171Y-142190556D01*
X57599913Y-142177197D01*
X57611143Y-142173352D01*
X57645984Y-142163230D01*
X57645985Y-142163230D01*
X57653594Y-142161019D01*
X57660413Y-142156986D01*
X57660418Y-142156984D01*
X57671029Y-142150708D01*
X57688777Y-142142013D01*
X57707618Y-142134553D01*
X57727988Y-142119754D01*
X57743388Y-142108565D01*
X57753308Y-142102049D01*
X57784536Y-142083581D01*
X57784539Y-142083579D01*
X57791363Y-142079543D01*
X57805684Y-142065222D01*
X57820718Y-142052381D01*
X57822433Y-142051135D01*
X57837108Y-142040473D01*
X57865299Y-142006396D01*
X57873289Y-141997617D01*
X59642247Y-140228659D01*
X59650537Y-140221115D01*
X59657018Y-140217002D01*
X59703659Y-140167334D01*
X59706413Y-140164493D01*
X59726135Y-140144771D01*
X59728612Y-140141578D01*
X59736317Y-140132557D01*
X59761159Y-140106102D01*
X59766586Y-140100323D01*
X59770407Y-140093373D01*
X59776346Y-140082570D01*
X59787202Y-140066043D01*
X59794757Y-140056304D01*
X59794758Y-140056302D01*
X59799614Y-140050042D01*
X59817174Y-140009462D01*
X59822391Y-139998814D01*
X59839875Y-139967011D01*
X59839876Y-139967009D01*
X59843695Y-139960062D01*
X59848733Y-139940439D01*
X59855137Y-139921736D01*
X59860033Y-139910422D01*
X59860033Y-139910421D01*
X59863181Y-139903147D01*
X59864420Y-139895324D01*
X59864423Y-139895314D01*
X59870099Y-139859478D01*
X59872505Y-139847858D01*
X59881528Y-139812713D01*
X59881528Y-139812712D01*
X59883500Y-139805032D01*
X59883500Y-139784778D01*
X59885051Y-139765067D01*
X59886980Y-139752888D01*
X59888220Y-139745059D01*
X59884059Y-139701040D01*
X59883500Y-139689183D01*
X59883500Y-139078768D01*
X59884027Y-139067585D01*
X59885702Y-139060092D01*
X59883562Y-138992001D01*
X59883500Y-138988044D01*
X59883500Y-138960144D01*
X59882996Y-138956153D01*
X59882063Y-138944311D01*
X59881535Y-138927491D01*
X59880674Y-138900111D01*
X59878462Y-138892497D01*
X59878461Y-138892492D01*
X59875023Y-138880659D01*
X59871012Y-138861295D01*
X59869467Y-138849064D01*
X59868474Y-138841203D01*
X59865557Y-138833836D01*
X59865556Y-138833831D01*
X59852198Y-138800092D01*
X59848354Y-138788865D01*
X59838230Y-138754022D01*
X59836018Y-138746407D01*
X59825707Y-138728972D01*
X59817012Y-138711224D01*
X59809552Y-138692383D01*
X59783564Y-138656613D01*
X59777048Y-138646693D01*
X59758580Y-138615465D01*
X59758578Y-138615462D01*
X59754542Y-138608638D01*
X59740221Y-138594317D01*
X59727380Y-138579283D01*
X59720131Y-138569306D01*
X59715472Y-138562893D01*
X59681395Y-138534702D01*
X59672616Y-138526712D01*
X58003652Y-136857747D01*
X57996112Y-136849461D01*
X57992000Y-136842982D01*
X57942348Y-136796356D01*
X57939507Y-136793602D01*
X57919770Y-136773865D01*
X57916573Y-136771385D01*
X57907551Y-136763680D01*
X57881100Y-136738841D01*
X57875321Y-136733414D01*
X57868375Y-136729595D01*
X57868372Y-136729593D01*
X57857566Y-136723652D01*
X57841047Y-136712801D01*
X57831304Y-136705244D01*
X57825041Y-136700386D01*
X57817772Y-136697241D01*
X57817768Y-136697238D01*
X57784463Y-136682826D01*
X57773813Y-136677609D01*
X57735060Y-136656305D01*
X57727920Y-136654472D01*
X57672144Y-136610952D01*
X57648500Y-136537473D01*
X57648500Y-135951866D01*
X57641745Y-135889684D01*
X57590615Y-135753295D01*
X57503261Y-135636739D01*
X57386705Y-135549385D01*
X57378296Y-135546233D01*
X57378295Y-135546232D01*
X57278883Y-135508964D01*
X57222118Y-135466323D01*
X57197418Y-135399761D01*
X57212625Y-135330412D01*
X57234017Y-135301887D01*
X57440199Y-135095705D01*
X57502511Y-135061679D01*
X57573326Y-135066744D01*
X57618389Y-135095705D01*
X62219595Y-139696911D01*
X62253621Y-139759223D01*
X62256500Y-139786006D01*
X62256500Y-142365500D01*
X62236498Y-142433621D01*
X62182842Y-142480114D01*
X62130500Y-142491500D01*
X61591866Y-142491500D01*
X61529684Y-142498255D01*
X61393295Y-142549385D01*
X61276739Y-142636739D01*
X61189385Y-142753295D01*
X61138255Y-142889684D01*
X61131500Y-142951866D01*
X61131500Y-145115500D01*
X61111498Y-145183621D01*
X61057842Y-145230114D01*
X61005500Y-145241500D01*
X58841866Y-145241500D01*
X58779684Y-145248255D01*
X58643295Y-145299385D01*
X58526739Y-145386739D01*
X58439385Y-145503295D01*
X58388255Y-145639684D01*
X58381500Y-145701866D01*
X58381500Y-148298134D01*
X58388255Y-148360316D01*
X58439385Y-148496705D01*
X58526739Y-148613261D01*
X58643295Y-148700615D01*
X58779684Y-148751745D01*
X58841866Y-148758500D01*
X60615404Y-148758500D01*
X60683525Y-148778502D01*
X60704499Y-148795405D01*
X60876342Y-148967248D01*
X60883886Y-148975538D01*
X60887999Y-148982019D01*
X60893776Y-148987444D01*
X60937666Y-149028659D01*
X60940508Y-149031414D01*
X60960229Y-149051135D01*
X60963424Y-149053613D01*
X60972446Y-149061319D01*
X61004678Y-149091587D01*
X61011627Y-149095407D01*
X61022431Y-149101347D01*
X61038955Y-149112200D01*
X61054958Y-149124614D01*
X61095542Y-149142177D01*
X61106172Y-149147384D01*
X61144939Y-149168696D01*
X61152616Y-149170667D01*
X61152621Y-149170669D01*
X61164557Y-149173733D01*
X61183265Y-149180138D01*
X61201854Y-149188182D01*
X61209679Y-149189421D01*
X61209681Y-149189422D01*
X61245518Y-149195098D01*
X61257139Y-149197505D01*
X61288958Y-149205674D01*
X61299969Y-149208501D01*
X61320230Y-149208501D01*
X61339939Y-149210052D01*
X61359942Y-149213220D01*
X61367834Y-149212474D01*
X61373061Y-149211980D01*
X61403953Y-149209060D01*
X61415810Y-149208501D01*
X64321234Y-149208501D01*
X64332417Y-149209028D01*
X64339910Y-149210703D01*
X64347836Y-149210454D01*
X64347837Y-149210454D01*
X64407987Y-149208563D01*
X64411946Y-149208501D01*
X64439857Y-149208501D01*
X64443792Y-149208004D01*
X64443857Y-149207996D01*
X64455694Y-149207063D01*
X64487952Y-149206049D01*
X64491971Y-149205923D01*
X64499890Y-149205674D01*
X64519344Y-149200022D01*
X64538701Y-149196014D01*
X64550931Y-149194469D01*
X64550932Y-149194469D01*
X64558798Y-149193475D01*
X64566169Y-149190556D01*
X64566171Y-149190556D01*
X64599913Y-149177197D01*
X64611143Y-149173352D01*
X64645984Y-149163230D01*
X64645985Y-149163230D01*
X64653594Y-149161019D01*
X64660413Y-149156986D01*
X64660418Y-149156984D01*
X64671029Y-149150708D01*
X64688777Y-149142013D01*
X64707618Y-149134553D01*
X64727988Y-149119754D01*
X64743388Y-149108565D01*
X64753308Y-149102049D01*
X64784536Y-149083581D01*
X64784539Y-149083579D01*
X64791363Y-149079543D01*
X64805684Y-149065222D01*
X64820718Y-149052381D01*
X64822433Y-149051135D01*
X64837108Y-149040473D01*
X64865299Y-149006396D01*
X64873289Y-148997617D01*
X66142253Y-147728654D01*
X66150539Y-147721114D01*
X66157018Y-147717002D01*
X66203644Y-147667350D01*
X66206398Y-147664509D01*
X66226135Y-147644772D01*
X66228615Y-147641575D01*
X66236320Y-147632553D01*
X66261159Y-147606102D01*
X66266586Y-147600323D01*
X66270405Y-147593377D01*
X66270407Y-147593374D01*
X66276348Y-147582568D01*
X66287199Y-147566049D01*
X66294758Y-147556303D01*
X66299614Y-147550043D01*
X66302759Y-147542774D01*
X66302762Y-147542770D01*
X66317174Y-147509465D01*
X66321811Y-147500000D01*
X68886526Y-147500000D01*
X68906391Y-147752403D01*
X68965495Y-147998591D01*
X69062384Y-148232502D01*
X69194672Y-148448376D01*
X69329365Y-148606081D01*
X69340094Y-148618642D01*
X69359102Y-148640898D01*
X69551624Y-148805328D01*
X69767498Y-148937616D01*
X69772068Y-148939509D01*
X69772072Y-148939511D01*
X69996836Y-149032611D01*
X70001409Y-149034505D01*
X70070679Y-149051135D01*
X70242784Y-149092454D01*
X70242790Y-149092455D01*
X70247597Y-149093609D01*
X70347416Y-149101465D01*
X70434345Y-149108307D01*
X70434352Y-149108307D01*
X70436801Y-149108500D01*
X70563199Y-149108500D01*
X70565648Y-149108307D01*
X70565655Y-149108307D01*
X70652584Y-149101465D01*
X70752403Y-149093609D01*
X70757210Y-149092455D01*
X70757216Y-149092454D01*
X70929321Y-149051135D01*
X70998591Y-149034505D01*
X71003164Y-149032611D01*
X71227928Y-148939511D01*
X71227932Y-148939509D01*
X71232502Y-148937616D01*
X71448376Y-148805328D01*
X71640898Y-148640898D01*
X71659907Y-148618642D01*
X71670635Y-148606081D01*
X71805328Y-148448376D01*
X71937616Y-148232502D01*
X72034505Y-147998591D01*
X72093609Y-147752403D01*
X72113474Y-147500000D01*
X72093609Y-147247597D01*
X72081013Y-147195127D01*
X72035660Y-147006221D01*
X72034505Y-147001409D01*
X71937616Y-146767498D01*
X71805328Y-146551624D01*
X71640898Y-146359102D01*
X71448376Y-146194672D01*
X71232502Y-146062384D01*
X71227932Y-146060491D01*
X71227928Y-146060489D01*
X71003164Y-145967389D01*
X71003162Y-145967388D01*
X70998591Y-145965495D01*
X70913968Y-145945179D01*
X70757216Y-145907546D01*
X70757210Y-145907545D01*
X70752403Y-145906391D01*
X70652584Y-145898535D01*
X70565655Y-145891693D01*
X70565648Y-145891693D01*
X70563199Y-145891500D01*
X70436801Y-145891500D01*
X70434352Y-145891693D01*
X70434345Y-145891693D01*
X70347416Y-145898535D01*
X70247597Y-145906391D01*
X70242790Y-145907545D01*
X70242784Y-145907546D01*
X70086032Y-145945179D01*
X70001409Y-145965495D01*
X69996838Y-145967388D01*
X69996836Y-145967389D01*
X69772072Y-146060489D01*
X69772068Y-146060491D01*
X69767498Y-146062384D01*
X69551624Y-146194672D01*
X69359102Y-146359102D01*
X69194672Y-146551624D01*
X69062384Y-146767498D01*
X68965495Y-147001409D01*
X68964340Y-147006221D01*
X68918988Y-147195127D01*
X68906391Y-147247597D01*
X68886526Y-147500000D01*
X66321811Y-147500000D01*
X66322391Y-147498815D01*
X66343695Y-147460062D01*
X66348733Y-147440439D01*
X66355137Y-147421736D01*
X66360033Y-147410422D01*
X66360033Y-147410421D01*
X66363181Y-147403147D01*
X66364420Y-147395324D01*
X66364423Y-147395314D01*
X66370099Y-147359478D01*
X66372505Y-147347858D01*
X66381528Y-147312713D01*
X66381528Y-147312712D01*
X66383500Y-147305032D01*
X66383500Y-147284778D01*
X66385051Y-147265067D01*
X66386980Y-147252888D01*
X66388220Y-147245059D01*
X66384059Y-147201040D01*
X66383500Y-147189183D01*
X66383500Y-145688763D01*
X66384027Y-145677579D01*
X66385701Y-145670091D01*
X66383562Y-145602032D01*
X66383500Y-145598075D01*
X66383500Y-145570144D01*
X66382994Y-145566138D01*
X66382061Y-145554292D01*
X66380922Y-145518037D01*
X66380673Y-145510110D01*
X66375022Y-145490658D01*
X66371014Y-145471306D01*
X66369467Y-145459065D01*
X66368474Y-145451203D01*
X66352194Y-145410086D01*
X66348359Y-145398885D01*
X66336018Y-145356406D01*
X66331985Y-145349587D01*
X66331983Y-145349582D01*
X66325707Y-145338971D01*
X66317010Y-145321221D01*
X66309552Y-145302383D01*
X66283571Y-145266623D01*
X66277053Y-145256701D01*
X66258578Y-145225460D01*
X66258574Y-145225455D01*
X66254542Y-145218637D01*
X66240218Y-145204313D01*
X66227376Y-145189278D01*
X66223266Y-145183621D01*
X66215472Y-145172893D01*
X66181406Y-145144711D01*
X66172627Y-145136722D01*
X64893652Y-143857747D01*
X64886112Y-143849461D01*
X64882000Y-143842982D01*
X64832348Y-143796356D01*
X64829507Y-143793602D01*
X64809770Y-143773865D01*
X64806573Y-143771385D01*
X64797551Y-143763680D01*
X64771100Y-143738841D01*
X64765321Y-143733414D01*
X64758375Y-143729595D01*
X64758372Y-143729593D01*
X64747566Y-143723652D01*
X64731047Y-143712801D01*
X64721304Y-143705244D01*
X64721305Y-143705244D01*
X64715041Y-143700386D01*
X64709717Y-143698082D01*
X64661909Y-143646881D01*
X64648500Y-143590319D01*
X64648500Y-142951866D01*
X64641745Y-142889684D01*
X64590615Y-142753295D01*
X64503261Y-142636739D01*
X64386705Y-142549385D01*
X64250316Y-142498255D01*
X64188134Y-142491500D01*
X63649500Y-142491500D01*
X63581379Y-142471498D01*
X63534886Y-142417842D01*
X63523500Y-142365500D01*
X63523500Y-140646667D01*
X63543502Y-140578546D01*
X63597158Y-140532053D01*
X63667432Y-140521949D01*
X63715827Y-140542480D01*
X63716869Y-140540718D01*
X63723690Y-140544752D01*
X63729957Y-140549613D01*
X63770541Y-140567176D01*
X63781171Y-140572383D01*
X63819938Y-140593695D01*
X63827615Y-140595666D01*
X63827620Y-140595668D01*
X63839556Y-140598732D01*
X63858264Y-140605137D01*
X63876853Y-140613181D01*
X63884681Y-140614421D01*
X63884688Y-140614423D01*
X63920522Y-140620099D01*
X63932142Y-140622505D01*
X63967287Y-140631528D01*
X63974968Y-140633500D01*
X63995222Y-140633500D01*
X64014932Y-140635051D01*
X64034941Y-140638220D01*
X64042833Y-140637474D01*
X64078959Y-140634059D01*
X64090817Y-140633500D01*
X65255500Y-140633500D01*
X65323621Y-140653502D01*
X65370114Y-140707158D01*
X65381500Y-140759500D01*
X65381500Y-141298134D01*
X65388255Y-141360316D01*
X65439385Y-141496705D01*
X65526739Y-141613261D01*
X65643295Y-141700615D01*
X65779684Y-141751745D01*
X65841866Y-141758500D01*
X66480562Y-141758500D01*
X66548683Y-141778502D01*
X66582499Y-141810440D01*
X66606436Y-141843387D01*
X66612952Y-141853307D01*
X66635458Y-141891362D01*
X66649779Y-141905683D01*
X66662619Y-141920716D01*
X66674528Y-141937107D01*
X66680632Y-141942157D01*
X66680638Y-141942163D01*
X66705300Y-141962565D01*
X66719956Y-141977221D01*
X66723001Y-141982019D01*
X66728778Y-141987444D01*
X66772668Y-142028659D01*
X66775510Y-142031414D01*
X66795231Y-142051135D01*
X66798426Y-142053613D01*
X66807448Y-142061319D01*
X66839680Y-142091587D01*
X66850859Y-142097733D01*
X66857433Y-142101347D01*
X66873957Y-142112200D01*
X66889960Y-142124614D01*
X66930544Y-142142177D01*
X66941174Y-142147384D01*
X66979941Y-142168696D01*
X66987618Y-142170667D01*
X66987623Y-142170669D01*
X66999559Y-142173733D01*
X67018267Y-142180138D01*
X67036856Y-142188182D01*
X67044681Y-142189421D01*
X67044683Y-142189422D01*
X67080520Y-142195098D01*
X67092141Y-142197505D01*
X67127290Y-142206529D01*
X67134971Y-142208501D01*
X67155232Y-142208501D01*
X67174941Y-142210052D01*
X67194944Y-142213220D01*
X67202836Y-142212474D01*
X67208063Y-142211980D01*
X67238955Y-142209060D01*
X67250812Y-142208501D01*
X73103206Y-142208501D01*
X73126815Y-142210733D01*
X73127118Y-142210791D01*
X73127122Y-142210791D01*
X73134905Y-142212276D01*
X73190950Y-142208750D01*
X73198861Y-142208501D01*
X73214855Y-142208501D01*
X73230729Y-142206495D01*
X73238589Y-142205753D01*
X73266048Y-142204025D01*
X73286736Y-142202724D01*
X73286737Y-142202724D01*
X73294649Y-142202226D01*
X73302190Y-142199776D01*
X73302486Y-142199680D01*
X73325630Y-142194507D01*
X73325934Y-142194469D01*
X73325939Y-142194468D01*
X73333796Y-142193475D01*
X73341161Y-142190559D01*
X73341165Y-142190558D01*
X73386010Y-142172802D01*
X73393429Y-142170130D01*
X73446874Y-142152765D01*
X73453571Y-142148515D01*
X73453830Y-142148351D01*
X73474957Y-142137586D01*
X73475245Y-142137472D01*
X73475250Y-142137469D01*
X73482616Y-142134553D01*
X73489024Y-142129897D01*
X73489030Y-142129894D01*
X73528051Y-142101543D01*
X73534588Y-142097100D01*
X73582017Y-142067001D01*
X73587658Y-142060994D01*
X73605445Y-142045313D01*
X73605690Y-142045135D01*
X73605692Y-142045133D01*
X73612106Y-142040473D01*
X73617161Y-142034363D01*
X73647902Y-141997205D01*
X73653133Y-141991271D01*
X73686157Y-141956103D01*
X73686159Y-141956100D01*
X73691585Y-141950322D01*
X73695557Y-141943098D01*
X73708880Y-141923495D01*
X73709079Y-141923255D01*
X73709083Y-141923248D01*
X73714132Y-141917145D01*
X73738046Y-141866325D01*
X73741628Y-141859293D01*
X73768694Y-141810061D01*
X73770664Y-141802386D01*
X73770667Y-141802380D01*
X73770743Y-141802082D01*
X73778775Y-141779773D01*
X73778905Y-141779498D01*
X73778908Y-141779490D01*
X73782282Y-141772319D01*
X73792805Y-141717152D01*
X73794531Y-141709430D01*
X73796795Y-141700615D01*
X73808499Y-141655031D01*
X73808499Y-141646794D01*
X73810731Y-141623185D01*
X73810789Y-141622882D01*
X73810789Y-141622878D01*
X73812274Y-141615095D01*
X73808748Y-141559050D01*
X73808499Y-141551139D01*
X73808499Y-139113766D01*
X73809026Y-139102583D01*
X73810701Y-139095090D01*
X73808561Y-139026999D01*
X73808499Y-139023042D01*
X73808499Y-138995143D01*
X73807995Y-138991152D01*
X73807062Y-138979310D01*
X73806585Y-138964110D01*
X73805673Y-138935110D01*
X73803461Y-138927496D01*
X73803460Y-138927491D01*
X73800022Y-138915658D01*
X73796011Y-138896294D01*
X73794466Y-138884063D01*
X73793473Y-138876202D01*
X73790556Y-138868835D01*
X73790555Y-138868830D01*
X73777197Y-138835091D01*
X73773353Y-138823864D01*
X73763229Y-138789021D01*
X73761017Y-138781406D01*
X73750706Y-138763971D01*
X73742011Y-138746223D01*
X73734551Y-138727382D01*
X73708563Y-138691612D01*
X73702047Y-138681692D01*
X73683579Y-138650464D01*
X73683577Y-138650461D01*
X73679541Y-138643637D01*
X73665220Y-138629316D01*
X73652379Y-138614282D01*
X73640471Y-138597892D01*
X73606394Y-138569701D01*
X73597615Y-138561711D01*
X71893652Y-136857747D01*
X71886112Y-136849461D01*
X71882000Y-136842982D01*
X71832348Y-136796356D01*
X71829507Y-136793602D01*
X71809770Y-136773865D01*
X71806573Y-136771385D01*
X71797551Y-136763680D01*
X71771100Y-136738841D01*
X71765321Y-136733414D01*
X71758375Y-136729595D01*
X71758372Y-136729593D01*
X71747566Y-136723652D01*
X71731047Y-136712801D01*
X71721304Y-136705244D01*
X71721305Y-136705244D01*
X71715041Y-136700386D01*
X71709717Y-136698082D01*
X71661909Y-136646881D01*
X71648500Y-136590319D01*
X71648500Y-135951866D01*
X71641745Y-135889684D01*
X71590615Y-135753295D01*
X71503261Y-135636739D01*
X71386705Y-135549385D01*
X71250316Y-135498255D01*
X71188134Y-135491500D01*
X68591866Y-135491500D01*
X68529684Y-135498255D01*
X68393295Y-135549385D01*
X68276739Y-135636739D01*
X68189385Y-135753295D01*
X68138255Y-135889684D01*
X68131500Y-135951866D01*
X68131500Y-138115500D01*
X68111498Y-138183621D01*
X68057842Y-138230114D01*
X68005500Y-138241500D01*
X65841866Y-138241500D01*
X65779684Y-138248255D01*
X65643295Y-138299385D01*
X65526739Y-138386739D01*
X65439385Y-138503295D01*
X65388255Y-138639684D01*
X65381500Y-138701866D01*
X65381500Y-139240500D01*
X65361498Y-139308621D01*
X65307842Y-139355114D01*
X65255500Y-139366500D01*
X64369593Y-139366500D01*
X64301472Y-139346498D01*
X64280498Y-139329595D01*
X59924498Y-134973595D01*
X59890472Y-134911283D01*
X59895537Y-134840468D01*
X59938084Y-134783632D01*
X60004604Y-134758821D01*
X60013593Y-134758500D01*
X61438134Y-134758500D01*
X61500316Y-134751745D01*
X61636705Y-134700615D01*
X61753261Y-134613261D01*
X61840615Y-134496705D01*
X61891745Y-134360316D01*
X61898500Y-134298134D01*
X61898500Y-132134500D01*
X61918502Y-132066379D01*
X61972158Y-132019886D01*
X62024500Y-132008500D01*
X64188134Y-132008500D01*
X64250316Y-132001745D01*
X64386705Y-131950615D01*
X64503261Y-131863261D01*
X64590615Y-131746705D01*
X64641745Y-131610316D01*
X64648500Y-131548134D01*
X64648500Y-129500000D01*
X68886526Y-129500000D01*
X68906391Y-129752403D01*
X68965495Y-129998591D01*
X69062384Y-130232502D01*
X69194672Y-130448376D01*
X69359102Y-130640898D01*
X69551624Y-130805328D01*
X69767498Y-130937616D01*
X69772068Y-130939509D01*
X69772072Y-130939511D01*
X69953793Y-131014782D01*
X70001409Y-131034505D01*
X70078747Y-131053072D01*
X70242784Y-131092454D01*
X70242790Y-131092455D01*
X70247597Y-131093609D01*
X70347416Y-131101465D01*
X70434345Y-131108307D01*
X70434352Y-131108307D01*
X70436801Y-131108500D01*
X70563199Y-131108500D01*
X70565648Y-131108307D01*
X70565655Y-131108307D01*
X70652584Y-131101465D01*
X70752403Y-131093609D01*
X70757210Y-131092455D01*
X70757216Y-131092454D01*
X70921253Y-131053072D01*
X70998591Y-131034505D01*
X71046207Y-131014782D01*
X71227928Y-130939511D01*
X71227932Y-130939509D01*
X71232502Y-130937616D01*
X71448376Y-130805328D01*
X71640898Y-130640898D01*
X71805328Y-130448376D01*
X71937616Y-130232502D01*
X72034505Y-129998591D01*
X72093609Y-129752403D01*
X72113474Y-129500000D01*
X72093609Y-129247597D01*
X72068808Y-129144290D01*
X72037197Y-129012623D01*
X72034505Y-129001409D01*
X72032611Y-128996836D01*
X71939511Y-128772072D01*
X71939509Y-128772068D01*
X71937616Y-128767498D01*
X71805328Y-128551624D01*
X71640898Y-128359102D01*
X71448376Y-128194672D01*
X71232502Y-128062384D01*
X71227932Y-128060491D01*
X71227928Y-128060489D01*
X71003164Y-127967389D01*
X71003162Y-127967388D01*
X70998591Y-127965495D01*
X70887381Y-127938796D01*
X70757216Y-127907546D01*
X70757210Y-127907545D01*
X70752403Y-127906391D01*
X70652584Y-127898535D01*
X70565655Y-127891693D01*
X70565648Y-127891693D01*
X70563199Y-127891500D01*
X70436801Y-127891500D01*
X70434352Y-127891693D01*
X70434345Y-127891693D01*
X70347416Y-127898535D01*
X70247597Y-127906391D01*
X70242790Y-127907545D01*
X70242784Y-127907546D01*
X70112619Y-127938796D01*
X70001409Y-127965495D01*
X69996838Y-127967388D01*
X69996836Y-127967389D01*
X69772072Y-128060489D01*
X69772068Y-128060491D01*
X69767498Y-128062384D01*
X69551624Y-128194672D01*
X69359102Y-128359102D01*
X69194672Y-128551624D01*
X69062384Y-128767498D01*
X69060491Y-128772068D01*
X69060489Y-128772072D01*
X68967389Y-128996836D01*
X68965495Y-129001409D01*
X68962803Y-129012623D01*
X68931193Y-129144290D01*
X68906391Y-129247597D01*
X68886526Y-129500000D01*
X64648500Y-129500000D01*
X64648500Y-128951866D01*
X64641745Y-128889684D01*
X64590615Y-128753295D01*
X64503261Y-128636739D01*
X64386705Y-128549385D01*
X64250316Y-128498255D01*
X64188134Y-128491500D01*
X63549438Y-128491500D01*
X63481317Y-128471498D01*
X63447501Y-128439560D01*
X63423564Y-128406613D01*
X63417048Y-128396693D01*
X63398580Y-128365465D01*
X63398578Y-128365462D01*
X63394542Y-128358638D01*
X63380221Y-128344317D01*
X63367380Y-128329283D01*
X63355472Y-128312893D01*
X63321395Y-128284702D01*
X63312616Y-128276712D01*
X62143652Y-127107747D01*
X62136112Y-127099461D01*
X62132000Y-127092982D01*
X62082348Y-127046356D01*
X62079507Y-127043602D01*
X62059770Y-127023865D01*
X62056573Y-127021385D01*
X62047551Y-127013680D01*
X62034751Y-127001660D01*
X62015321Y-126983414D01*
X62008375Y-126979595D01*
X62008372Y-126979593D01*
X61997566Y-126973652D01*
X61981047Y-126962801D01*
X61980583Y-126962441D01*
X61965041Y-126950386D01*
X61957772Y-126947241D01*
X61957768Y-126947238D01*
X61924463Y-126932826D01*
X61913813Y-126927609D01*
X61875060Y-126906305D01*
X61855437Y-126901267D01*
X61836734Y-126894863D01*
X61825420Y-126889967D01*
X61825419Y-126889967D01*
X61818145Y-126886819D01*
X61810322Y-126885580D01*
X61810312Y-126885577D01*
X61774476Y-126879901D01*
X61762856Y-126877495D01*
X61727711Y-126868472D01*
X61727710Y-126868472D01*
X61720030Y-126866500D01*
X61699776Y-126866500D01*
X61680065Y-126864949D01*
X61667886Y-126863020D01*
X61660057Y-126861780D01*
X61652165Y-126862526D01*
X61616039Y-126865941D01*
X61604181Y-126866500D01*
X60564498Y-126866500D01*
X60496377Y-126846498D01*
X60449884Y-126792842D01*
X60438498Y-126740500D01*
X60438498Y-124181815D01*
X60458500Y-124113694D01*
X60512156Y-124067201D01*
X60582430Y-124057097D01*
X60647010Y-124086591D01*
X60653592Y-124092719D01*
X62070782Y-125509910D01*
X63480180Y-126919308D01*
X63487800Y-126928845D01*
X63488169Y-126928531D01*
X63493984Y-126935364D01*
X63498776Y-126942958D01*
X63539116Y-126978585D01*
X63544803Y-126983931D01*
X63556255Y-126995383D01*
X63559846Y-126998074D01*
X63559848Y-126998076D01*
X63564630Y-127001660D01*
X63572473Y-127008045D01*
X63583456Y-127017745D01*
X63607951Y-127039378D01*
X63616078Y-127043194D01*
X63618534Y-127044807D01*
X63633547Y-127053829D01*
X63636118Y-127055237D01*
X63643296Y-127060616D01*
X63651696Y-127063765D01*
X63651698Y-127063766D01*
X63687640Y-127077239D01*
X63696943Y-127081159D01*
X63739800Y-127101281D01*
X63748669Y-127102662D01*
X63751495Y-127103526D01*
X63768399Y-127107960D01*
X63771275Y-127108592D01*
X63779684Y-127111745D01*
X63788634Y-127112410D01*
X63826906Y-127115254D01*
X63836952Y-127116408D01*
X63845575Y-127117751D01*
X63845578Y-127117751D01*
X63850386Y-127118500D01*
X63865906Y-127118500D01*
X63875243Y-127118846D01*
X63924941Y-127122539D01*
X63933720Y-127120665D01*
X63941978Y-127120102D01*
X63957161Y-127118500D01*
X74755500Y-127118500D01*
X74823621Y-127138502D01*
X74870114Y-127192158D01*
X74881500Y-127244500D01*
X74881500Y-145847183D01*
X74861498Y-145915304D01*
X74844595Y-145936278D01*
X71326278Y-149454595D01*
X71263966Y-149488621D01*
X71237183Y-149491500D01*
X50634500Y-149491500D01*
X50566379Y-149471498D01*
X50519886Y-149417842D01*
X50508500Y-149365500D01*
X50508500Y-147500000D01*
X50886526Y-147500000D01*
X50906391Y-147752403D01*
X50965495Y-147998591D01*
X51062384Y-148232502D01*
X51194672Y-148448376D01*
X51329365Y-148606081D01*
X51340094Y-148618642D01*
X51359102Y-148640898D01*
X51551624Y-148805328D01*
X51767498Y-148937616D01*
X51772068Y-148939509D01*
X51772072Y-148939511D01*
X51996836Y-149032611D01*
X52001409Y-149034505D01*
X52070679Y-149051135D01*
X52242784Y-149092454D01*
X52242790Y-149092455D01*
X52247597Y-149093609D01*
X52347416Y-149101465D01*
X52434345Y-149108307D01*
X52434352Y-149108307D01*
X52436801Y-149108500D01*
X52563199Y-149108500D01*
X52565648Y-149108307D01*
X52565655Y-149108307D01*
X52652584Y-149101465D01*
X52752403Y-149093609D01*
X52757210Y-149092455D01*
X52757216Y-149092454D01*
X52929321Y-149051135D01*
X52998591Y-149034505D01*
X53003164Y-149032611D01*
X53227928Y-148939511D01*
X53227932Y-148939509D01*
X53232502Y-148937616D01*
X53448376Y-148805328D01*
X53640898Y-148640898D01*
X53659907Y-148618642D01*
X53670635Y-148606081D01*
X53805328Y-148448376D01*
X53937616Y-148232502D01*
X54034505Y-147998591D01*
X54093609Y-147752403D01*
X54113474Y-147500000D01*
X54093609Y-147247597D01*
X54081013Y-147195127D01*
X54035660Y-147006221D01*
X54034505Y-147001409D01*
X53937616Y-146767498D01*
X53805328Y-146551624D01*
X53640898Y-146359102D01*
X53448376Y-146194672D01*
X53232502Y-146062384D01*
X53227932Y-146060491D01*
X53227928Y-146060489D01*
X53003164Y-145967389D01*
X53003162Y-145967388D01*
X52998591Y-145965495D01*
X52913968Y-145945179D01*
X52757216Y-145907546D01*
X52757210Y-145907545D01*
X52752403Y-145906391D01*
X52652584Y-145898535D01*
X52565655Y-145891693D01*
X52565648Y-145891693D01*
X52563199Y-145891500D01*
X52436801Y-145891500D01*
X52434352Y-145891693D01*
X52434345Y-145891693D01*
X52347416Y-145898535D01*
X52247597Y-145906391D01*
X52242790Y-145907545D01*
X52242784Y-145907546D01*
X52086032Y-145945179D01*
X52001409Y-145965495D01*
X51996838Y-145967388D01*
X51996836Y-145967389D01*
X51772072Y-146060489D01*
X51772068Y-146060491D01*
X51767498Y-146062384D01*
X51551624Y-146194672D01*
X51359102Y-146359102D01*
X51194672Y-146551624D01*
X51062384Y-146767498D01*
X50965495Y-147001409D01*
X50964340Y-147006221D01*
X50918988Y-147195127D01*
X50906391Y-147247597D01*
X50886526Y-147500000D01*
X50508500Y-147500000D01*
X50508500Y-131181073D01*
X50509855Y-131168943D01*
X50509373Y-131168904D01*
X50510093Y-131159957D01*
X50512074Y-131151201D01*
X50508742Y-131097492D01*
X50508500Y-131089690D01*
X50508500Y-131073487D01*
X50507016Y-131063122D01*
X50505987Y-131053072D01*
X50503611Y-131014782D01*
X50503611Y-131014781D01*
X50503055Y-131005823D01*
X50500007Y-130997382D01*
X50499404Y-130994468D01*
X50495182Y-130977534D01*
X50494352Y-130974695D01*
X50493080Y-130965813D01*
X50473477Y-130922700D01*
X50469671Y-130913349D01*
X50456644Y-130877262D01*
X50456643Y-130877260D01*
X50453596Y-130868820D01*
X50448304Y-130861576D01*
X50446925Y-130858982D01*
X50438078Y-130843843D01*
X50436505Y-130841383D01*
X50432792Y-130833218D01*
X50426938Y-130826424D01*
X50426936Y-130826421D01*
X50413939Y-130811338D01*
X50401881Y-130797343D01*
X50395597Y-130789428D01*
X50390450Y-130782382D01*
X50390444Y-130782375D01*
X50387575Y-130778448D01*
X50376600Y-130767473D01*
X50370242Y-130760625D01*
X50343576Y-130729677D01*
X50343575Y-130729676D01*
X50337713Y-130722873D01*
X50330178Y-130717989D01*
X50323934Y-130712542D01*
X50312069Y-130702942D01*
X44909823Y-125300696D01*
X44902200Y-125291156D01*
X44901832Y-125291470D01*
X44896014Y-125284634D01*
X44891224Y-125277042D01*
X44850875Y-125241407D01*
X44845188Y-125236061D01*
X44833745Y-125224618D01*
X44825370Y-125218341D01*
X44817541Y-125211967D01*
X44782049Y-125180622D01*
X44773926Y-125176808D01*
X44771438Y-125175174D01*
X44756477Y-125166186D01*
X44753892Y-125164771D01*
X44746705Y-125159384D01*
X44702357Y-125142759D01*
X44693040Y-125138832D01*
X44658326Y-125122534D01*
X44650200Y-125118719D01*
X44641331Y-125117338D01*
X44638498Y-125116472D01*
X44621611Y-125112042D01*
X44618726Y-125111408D01*
X44610316Y-125108255D01*
X44581158Y-125106088D01*
X44563094Y-125104746D01*
X44553048Y-125103592D01*
X44544425Y-125102249D01*
X44544422Y-125102249D01*
X44539614Y-125101500D01*
X44524094Y-125101500D01*
X44514757Y-125101154D01*
X44497545Y-125099875D01*
X44465059Y-125097461D01*
X44456280Y-125099335D01*
X44448022Y-125099898D01*
X44432839Y-125101500D01*
X27736440Y-125101500D01*
X27668319Y-125081498D01*
X27621826Y-125027842D01*
X27611722Y-124957568D01*
X27641216Y-124892988D01*
X27662377Y-124873566D01*
X27673517Y-124865472D01*
X27701708Y-124831395D01*
X27709698Y-124822616D01*
X32586889Y-119945425D01*
X32649201Y-119911399D01*
X32675984Y-119908520D01*
X42460426Y-119908520D01*
X42528547Y-119928522D01*
X42549521Y-119945425D01*
X43174105Y-120570009D01*
X43208131Y-120632321D01*
X43203066Y-120703136D01*
X43178648Y-120743411D01*
X43160960Y-120763056D01*
X43065473Y-120928444D01*
X43006458Y-121110072D01*
X43005768Y-121116633D01*
X43005768Y-121116635D01*
X43003866Y-121134729D01*
X42986496Y-121300000D01*
X42996941Y-121399373D01*
X43000560Y-121433807D01*
X42987788Y-121503646D01*
X42939286Y-121555492D01*
X42870453Y-121572887D01*
X42803143Y-121550306D01*
X42766131Y-121509979D01*
X42762475Y-121503646D01*
X42739040Y-121463056D01*
X42611253Y-121321134D01*
X42456752Y-121208882D01*
X42450724Y-121206198D01*
X42450722Y-121206197D01*
X42288319Y-121133891D01*
X42288318Y-121133891D01*
X42282288Y-121131206D01*
X42182861Y-121110072D01*
X42101944Y-121092872D01*
X42101939Y-121092872D01*
X42095487Y-121091500D01*
X42040309Y-121091500D01*
X41972188Y-121071498D01*
X41954058Y-121057352D01*
X41942349Y-121046357D01*
X41939505Y-121043600D01*
X41919770Y-121023865D01*
X41916573Y-121021385D01*
X41907551Y-121013680D01*
X41881100Y-120988841D01*
X41875321Y-120983414D01*
X41868375Y-120979595D01*
X41868372Y-120979593D01*
X41857566Y-120973652D01*
X41841047Y-120962801D01*
X41835048Y-120958148D01*
X41825041Y-120950386D01*
X41817772Y-120947241D01*
X41817768Y-120947238D01*
X41784463Y-120932826D01*
X41773813Y-120927609D01*
X41735060Y-120906305D01*
X41715437Y-120901267D01*
X41696734Y-120894863D01*
X41685420Y-120889967D01*
X41685419Y-120889967D01*
X41678145Y-120886819D01*
X41670322Y-120885580D01*
X41670312Y-120885577D01*
X41634476Y-120879901D01*
X41622856Y-120877495D01*
X41587711Y-120868472D01*
X41587710Y-120868472D01*
X41580030Y-120866500D01*
X41559776Y-120866500D01*
X41540065Y-120864949D01*
X41527886Y-120863020D01*
X41520057Y-120861780D01*
X41512165Y-120862526D01*
X41476039Y-120865941D01*
X41464181Y-120866500D01*
X39958200Y-120866500D01*
X39890079Y-120846498D01*
X39870853Y-120830157D01*
X39870580Y-120830460D01*
X39865668Y-120826037D01*
X39861253Y-120821134D01*
X39774569Y-120758154D01*
X39712094Y-120712763D01*
X39712093Y-120712762D01*
X39706752Y-120708882D01*
X39700724Y-120706198D01*
X39700722Y-120706197D01*
X39538319Y-120633891D01*
X39538318Y-120633891D01*
X39532288Y-120631206D01*
X39438887Y-120611353D01*
X39351944Y-120592872D01*
X39351939Y-120592872D01*
X39345487Y-120591500D01*
X39154513Y-120591500D01*
X39148061Y-120592872D01*
X39148056Y-120592872D01*
X39061113Y-120611353D01*
X38967712Y-120631206D01*
X38961682Y-120633891D01*
X38961681Y-120633891D01*
X38799278Y-120706197D01*
X38799276Y-120706198D01*
X38793248Y-120708882D01*
X38787907Y-120712762D01*
X38787906Y-120712763D01*
X38745718Y-120743415D01*
X38638747Y-120821134D01*
X38634326Y-120826044D01*
X38634325Y-120826045D01*
X38525203Y-120947238D01*
X38510960Y-120963056D01*
X38496073Y-120988841D01*
X38436011Y-121092872D01*
X38415473Y-121128444D01*
X38356458Y-121310072D01*
X38336496Y-121500000D01*
X38337186Y-121506565D01*
X38355129Y-121677279D01*
X38356458Y-121689928D01*
X38415473Y-121871556D01*
X38510960Y-122036944D01*
X38515378Y-122041851D01*
X38515379Y-122041852D01*
X38629678Y-122168794D01*
X38638747Y-122178866D01*
X38679535Y-122208500D01*
X38780009Y-122281499D01*
X38793248Y-122291118D01*
X38799276Y-122293802D01*
X38799278Y-122293803D01*
X38911556Y-122343792D01*
X38967712Y-122368794D01*
X39056930Y-122387758D01*
X39148056Y-122407128D01*
X39148061Y-122407128D01*
X39154513Y-122408500D01*
X39345487Y-122408500D01*
X39351939Y-122407128D01*
X39351944Y-122407128D01*
X39443070Y-122387758D01*
X39532288Y-122368794D01*
X39588444Y-122343792D01*
X39700722Y-122293803D01*
X39700724Y-122293802D01*
X39706752Y-122291118D01*
X39719992Y-122281499D01*
X39855061Y-122183365D01*
X39861253Y-122178866D01*
X39865668Y-122173963D01*
X39870580Y-122169540D01*
X39871705Y-122170789D01*
X39925014Y-122137949D01*
X39958200Y-122133500D01*
X40996579Y-122133500D01*
X41064700Y-122153502D01*
X41111193Y-122207158D01*
X41116412Y-122220563D01*
X41165473Y-122371556D01*
X41168776Y-122377278D01*
X41168777Y-122377279D01*
X41197805Y-122427556D01*
X41260960Y-122536944D01*
X41265378Y-122541851D01*
X41265379Y-122541852D01*
X41384325Y-122673955D01*
X41388747Y-122678866D01*
X41434985Y-122712460D01*
X41523514Y-122776780D01*
X41543248Y-122791118D01*
X41549276Y-122793802D01*
X41549278Y-122793803D01*
X41711681Y-122866109D01*
X41717712Y-122868794D01*
X41811112Y-122888647D01*
X41898056Y-122907128D01*
X41898061Y-122907128D01*
X41904513Y-122908500D01*
X42095487Y-122908500D01*
X42101939Y-122907128D01*
X42101944Y-122907128D01*
X42188888Y-122888647D01*
X42282288Y-122868794D01*
X42288319Y-122866109D01*
X42450722Y-122793803D01*
X42450724Y-122793802D01*
X42456752Y-122791118D01*
X42476487Y-122776780D01*
X42565015Y-122712460D01*
X42611253Y-122678866D01*
X42615675Y-122673955D01*
X42734621Y-122541852D01*
X42734622Y-122541851D01*
X42739040Y-122536944D01*
X42802195Y-122427556D01*
X42831223Y-122377279D01*
X42831224Y-122377278D01*
X42834527Y-122371556D01*
X42893542Y-122189928D01*
X42895059Y-122175501D01*
X42912814Y-122006565D01*
X42913504Y-122000000D01*
X42899440Y-121866191D01*
X42912212Y-121796354D01*
X42960714Y-121744508D01*
X43029547Y-121727113D01*
X43096857Y-121749694D01*
X43133869Y-121790021D01*
X43160960Y-121836944D01*
X43288747Y-121978866D01*
X43381189Y-122046029D01*
X43430912Y-122082155D01*
X43443248Y-122091118D01*
X43449276Y-122093802D01*
X43449278Y-122093803D01*
X43611681Y-122166109D01*
X43617712Y-122168794D01*
X43683365Y-122182749D01*
X43798056Y-122207128D01*
X43798061Y-122207128D01*
X43804513Y-122208500D01*
X43995487Y-122208500D01*
X44001939Y-122207128D01*
X44001944Y-122207128D01*
X44116635Y-122182749D01*
X44182288Y-122168794D01*
X44188319Y-122166109D01*
X44350722Y-122093803D01*
X44350724Y-122093802D01*
X44356752Y-122091118D01*
X44369089Y-122082155D01*
X44418811Y-122046029D01*
X44511253Y-121978866D01*
X44639040Y-121836944D01*
X44734527Y-121671556D01*
X44793542Y-121489928D01*
X44796367Y-121463056D01*
X44812814Y-121306565D01*
X44812814Y-121306564D01*
X44813504Y-121300000D01*
X44796134Y-121134729D01*
X44794232Y-121116635D01*
X44794232Y-121116633D01*
X44793542Y-121110072D01*
X44734527Y-120928444D01*
X44639040Y-120763056D01*
X44565863Y-120681785D01*
X44535147Y-120617779D01*
X44533500Y-120597476D01*
X44533500Y-120478767D01*
X44534027Y-120467584D01*
X44535702Y-120460091D01*
X44534643Y-120426379D01*
X44533562Y-120392001D01*
X44533500Y-120388043D01*
X44533500Y-120360144D01*
X44532996Y-120356153D01*
X44532063Y-120344311D01*
X44530923Y-120308036D01*
X44530674Y-120300111D01*
X44528462Y-120292497D01*
X44528461Y-120292492D01*
X44525023Y-120280659D01*
X44521012Y-120261295D01*
X44519467Y-120249064D01*
X44518474Y-120241203D01*
X44515557Y-120233836D01*
X44515556Y-120233831D01*
X44502198Y-120200092D01*
X44498354Y-120188865D01*
X44488230Y-120154022D01*
X44486018Y-120146407D01*
X44475707Y-120128972D01*
X44467012Y-120111224D01*
X44459552Y-120092383D01*
X44433564Y-120056613D01*
X44427048Y-120046693D01*
X44408580Y-120015465D01*
X44408578Y-120015462D01*
X44404542Y-120008638D01*
X44390221Y-119994317D01*
X44377380Y-119979283D01*
X44370131Y-119969306D01*
X44365472Y-119962893D01*
X44331395Y-119934702D01*
X44322616Y-119926712D01*
X44069509Y-119673605D01*
X44035483Y-119611293D01*
X44040548Y-119540478D01*
X44083095Y-119483642D01*
X44149615Y-119458831D01*
X44158604Y-119458510D01*
X49964065Y-119458510D01*
X50032186Y-119478512D01*
X50059446Y-119502684D01*
X50062197Y-119507019D01*
X50067974Y-119512444D01*
X50111849Y-119553645D01*
X50114691Y-119556400D01*
X50134427Y-119576136D01*
X50137624Y-119578616D01*
X50146644Y-119586319D01*
X50178876Y-119616587D01*
X50185822Y-119620406D01*
X50185825Y-119620408D01*
X50190460Y-119622956D01*
X50240518Y-119673301D01*
X50255411Y-119742718D01*
X50230410Y-119809167D01*
X50173452Y-119851551D01*
X50146749Y-119858219D01*
X50025917Y-119874663D01*
X50025910Y-119874664D01*
X50021277Y-119875295D01*
X50016787Y-119876604D01*
X50016781Y-119876605D01*
X49920335Y-119904717D01*
X49768922Y-119948850D01*
X49764675Y-119950808D01*
X49764672Y-119950809D01*
X49717606Y-119972507D01*
X49530210Y-120058898D01*
X49526301Y-120061461D01*
X49314300Y-120200454D01*
X49314295Y-120200458D01*
X49310387Y-120203020D01*
X49287709Y-120223261D01*
X49125396Y-120368131D01*
X49114280Y-120378052D01*
X49111287Y-120381651D01*
X48966418Y-120555838D01*
X48946200Y-120580147D01*
X48809836Y-120804866D01*
X48808027Y-120809180D01*
X48808025Y-120809184D01*
X48745560Y-120958148D01*
X48708187Y-121047273D01*
X48643484Y-121302042D01*
X48617149Y-121563576D01*
X48629760Y-121826130D01*
X48681041Y-122083936D01*
X48769865Y-122331331D01*
X48772081Y-122335455D01*
X48880345Y-122536944D01*
X48894280Y-122562879D01*
X48897075Y-122566622D01*
X48897077Y-122566625D01*
X49048762Y-122769756D01*
X49048767Y-122769762D01*
X49051554Y-122773494D01*
X49054863Y-122776774D01*
X49054868Y-122776780D01*
X49219026Y-122939511D01*
X49238231Y-122958549D01*
X49241993Y-122961307D01*
X49241996Y-122961310D01*
X49443380Y-123108971D01*
X49450210Y-123113979D01*
X49454341Y-123116153D01*
X49454342Y-123116153D01*
X49678700Y-123234193D01*
X49678706Y-123234195D01*
X49682835Y-123236368D01*
X49687243Y-123237907D01*
X49687249Y-123237910D01*
X49830542Y-123287950D01*
X49888260Y-123329293D01*
X49914463Y-123395277D01*
X49900833Y-123464953D01*
X49878096Y-123496000D01*
X49342889Y-124031206D01*
X48807747Y-124566348D01*
X48799461Y-124573888D01*
X48792982Y-124578000D01*
X48787557Y-124583777D01*
X48746357Y-124627651D01*
X48743602Y-124630493D01*
X48723865Y-124650230D01*
X48721385Y-124653427D01*
X48713682Y-124662447D01*
X48683414Y-124694679D01*
X48679595Y-124701625D01*
X48679593Y-124701628D01*
X48673652Y-124712434D01*
X48662801Y-124728953D01*
X48650386Y-124744959D01*
X48647241Y-124752228D01*
X48647238Y-124752232D01*
X48632826Y-124785537D01*
X48627609Y-124796187D01*
X48606305Y-124834940D01*
X48604334Y-124842615D01*
X48604334Y-124842616D01*
X48601267Y-124854562D01*
X48594863Y-124873266D01*
X48594735Y-124873563D01*
X48586819Y-124891855D01*
X48585580Y-124899678D01*
X48585577Y-124899688D01*
X48579901Y-124935524D01*
X48577495Y-124947144D01*
X48571458Y-124970659D01*
X48566500Y-124989970D01*
X48566500Y-125010224D01*
X48564949Y-125029934D01*
X48561780Y-125049943D01*
X48562526Y-125057835D01*
X48565941Y-125093961D01*
X48566500Y-125105819D01*
X48566500Y-128230235D01*
X48565973Y-128241418D01*
X48564298Y-128248911D01*
X48564547Y-128256837D01*
X48564547Y-128256838D01*
X48566438Y-128316988D01*
X48566500Y-128320947D01*
X48566500Y-128348858D01*
X48566997Y-128352792D01*
X48566997Y-128352793D01*
X48567005Y-128352858D01*
X48567938Y-128364695D01*
X48569327Y-128408891D01*
X48574978Y-128428341D01*
X48578987Y-128447702D01*
X48581526Y-128467799D01*
X48584445Y-128475170D01*
X48584445Y-128475172D01*
X48597804Y-128508914D01*
X48601649Y-128520144D01*
X48610144Y-128549385D01*
X48613982Y-128562595D01*
X48618015Y-128569414D01*
X48618017Y-128569419D01*
X48624293Y-128580030D01*
X48632988Y-128597778D01*
X48640448Y-128616619D01*
X48645110Y-128623035D01*
X48645110Y-128623036D01*
X48666436Y-128652389D01*
X48672952Y-128662309D01*
X48695458Y-128700364D01*
X48709779Y-128714685D01*
X48722619Y-128729718D01*
X48734528Y-128746109D01*
X48753378Y-128761703D01*
X48768605Y-128774300D01*
X48777384Y-128782290D01*
X52328168Y-132333075D01*
X52362194Y-132395387D01*
X52357129Y-132466203D01*
X52348192Y-132485170D01*
X52265473Y-132628444D01*
X52206458Y-132810072D01*
X52186496Y-133000000D01*
X52206458Y-133189928D01*
X52265473Y-133371556D01*
X52360960Y-133536944D01*
X52488747Y-133678866D01*
X52643248Y-133791118D01*
X52649276Y-133793802D01*
X52649278Y-133793803D01*
X52811681Y-133866109D01*
X52817712Y-133868794D01*
X52911112Y-133888647D01*
X52998056Y-133907128D01*
X52998061Y-133907128D01*
X53004513Y-133908500D01*
X53195487Y-133908500D01*
X53201939Y-133907128D01*
X53201944Y-133907128D01*
X53288888Y-133888647D01*
X53382288Y-133868794D01*
X53388319Y-133866109D01*
X53550722Y-133793803D01*
X53550724Y-133793802D01*
X53556752Y-133791118D01*
X53711253Y-133678866D01*
X53839040Y-133536944D01*
X53934527Y-133371556D01*
X53993542Y-133189928D01*
X54013504Y-133000000D01*
X53993542Y-132810072D01*
X53934527Y-132628444D01*
X53839040Y-132463056D01*
X53765863Y-132381785D01*
X53735147Y-132317779D01*
X53733500Y-132297476D01*
X53733500Y-132287769D01*
X53734027Y-132276586D01*
X53735702Y-132269093D01*
X53733562Y-132201002D01*
X53733500Y-132197045D01*
X53733500Y-132169146D01*
X53732996Y-132165155D01*
X53732063Y-132153313D01*
X53730923Y-132117038D01*
X53730674Y-132109113D01*
X53728462Y-132101499D01*
X53728461Y-132101494D01*
X53725023Y-132089661D01*
X53721012Y-132070297D01*
X53719467Y-132058066D01*
X53718474Y-132050205D01*
X53715557Y-132042838D01*
X53715556Y-132042833D01*
X53702198Y-132009094D01*
X53698354Y-131997867D01*
X53688230Y-131963024D01*
X53686018Y-131955409D01*
X53675707Y-131937974D01*
X53667012Y-131920226D01*
X53659552Y-131901385D01*
X53633564Y-131865615D01*
X53627048Y-131855695D01*
X53608580Y-131824467D01*
X53608578Y-131824464D01*
X53604542Y-131817640D01*
X53590221Y-131803319D01*
X53577380Y-131788285D01*
X53570131Y-131778308D01*
X53565472Y-131771895D01*
X53559368Y-131766845D01*
X53559363Y-131766840D01*
X53531402Y-131743709D01*
X53522621Y-131735719D01*
X53006644Y-131219741D01*
X52972619Y-131157429D01*
X52977684Y-131086613D01*
X53020231Y-131029778D01*
X53047522Y-131014237D01*
X53067836Y-131005823D01*
X53114891Y-130986332D01*
X53227928Y-130939511D01*
X53227932Y-130939509D01*
X53232502Y-130937616D01*
X53448376Y-130805328D01*
X53640898Y-130640898D01*
X53805328Y-130448376D01*
X53937616Y-130232502D01*
X54034505Y-129998591D01*
X54093609Y-129752403D01*
X54113474Y-129500000D01*
X54093609Y-129247597D01*
X54068808Y-129144290D01*
X54037197Y-129012623D01*
X54034505Y-129001409D01*
X54032611Y-128996836D01*
X53939511Y-128772072D01*
X53939509Y-128772068D01*
X53937616Y-128767498D01*
X53805328Y-128551624D01*
X53640898Y-128359102D01*
X53448376Y-128194672D01*
X53232502Y-128062384D01*
X53227932Y-128060491D01*
X53227928Y-128060489D01*
X53003164Y-127967389D01*
X53003162Y-127967388D01*
X52998591Y-127965495D01*
X52887381Y-127938796D01*
X52757216Y-127907546D01*
X52757210Y-127907545D01*
X52752403Y-127906391D01*
X52652584Y-127898535D01*
X52565655Y-127891693D01*
X52565648Y-127891693D01*
X52563199Y-127891500D01*
X52436801Y-127891500D01*
X52434352Y-127891693D01*
X52434345Y-127891693D01*
X52347416Y-127898535D01*
X52247597Y-127906391D01*
X52242790Y-127907545D01*
X52242784Y-127907546D01*
X52112619Y-127938796D01*
X52001409Y-127965495D01*
X51996838Y-127967388D01*
X51996836Y-127967389D01*
X51772072Y-128060489D01*
X51772068Y-128060491D01*
X51767498Y-128062384D01*
X51551624Y-128194672D01*
X51359102Y-128359102D01*
X51194672Y-128551624D01*
X51062384Y-128767498D01*
X51060491Y-128772068D01*
X51060489Y-128772072D01*
X51058001Y-128778079D01*
X50985762Y-128952480D01*
X50941215Y-129007760D01*
X50873852Y-129030181D01*
X50805060Y-129012623D01*
X50780259Y-128993356D01*
X49870405Y-128083502D01*
X49836379Y-128021190D01*
X49833500Y-127994407D01*
X49833500Y-125384594D01*
X49853502Y-125316473D01*
X49870405Y-125295499D01*
X52592263Y-122573642D01*
X52600549Y-122566102D01*
X52607028Y-122561990D01*
X52653654Y-122512338D01*
X52656408Y-122509497D01*
X52676145Y-122489760D01*
X52678625Y-122486563D01*
X52686330Y-122477541D01*
X52711169Y-122451090D01*
X52716596Y-122445311D01*
X52720415Y-122438365D01*
X52720417Y-122438362D01*
X52726358Y-122427556D01*
X52737209Y-122411037D01*
X52744768Y-122401291D01*
X52749624Y-122395031D01*
X52752769Y-122387762D01*
X52752772Y-122387758D01*
X52767184Y-122354453D01*
X52772401Y-122343803D01*
X52793705Y-122305050D01*
X52795717Y-122297216D01*
X52798743Y-122285428D01*
X52805147Y-122266724D01*
X52810043Y-122255410D01*
X52810043Y-122255409D01*
X52813191Y-122248135D01*
X52814430Y-122240312D01*
X52814433Y-122240302D01*
X52820109Y-122204466D01*
X52822515Y-122192846D01*
X52831538Y-122157701D01*
X52831538Y-122157700D01*
X52833510Y-122150020D01*
X52833510Y-122129766D01*
X52835061Y-122110055D01*
X52836990Y-122097876D01*
X52838230Y-122090047D01*
X52834069Y-122046028D01*
X52833510Y-122034171D01*
X52833510Y-112455776D01*
X52834037Y-112444593D01*
X52835712Y-112437100D01*
X52833572Y-112369009D01*
X52833510Y-112365052D01*
X52833510Y-112337152D01*
X52833006Y-112333161D01*
X52832073Y-112321319D01*
X52830933Y-112285044D01*
X52830684Y-112277119D01*
X52828472Y-112269505D01*
X52828471Y-112269500D01*
X52825033Y-112257667D01*
X52821022Y-112238303D01*
X52819477Y-112226072D01*
X52818484Y-112218211D01*
X52815567Y-112210844D01*
X52815566Y-112210839D01*
X52802208Y-112177100D01*
X52798364Y-112165873D01*
X52794741Y-112153404D01*
X52786028Y-112123415D01*
X52775717Y-112105980D01*
X52767022Y-112088232D01*
X52759562Y-112069391D01*
X52752792Y-112060072D01*
X52733574Y-112033621D01*
X52727058Y-112023701D01*
X52708590Y-111992473D01*
X52708588Y-111992470D01*
X52704552Y-111985646D01*
X52690231Y-111971325D01*
X52677390Y-111956291D01*
X52670141Y-111946314D01*
X52665482Y-111939901D01*
X52631405Y-111911710D01*
X52622626Y-111903720D01*
X51502164Y-110783257D01*
X51494624Y-110774971D01*
X51490512Y-110768492D01*
X51440860Y-110721866D01*
X51438019Y-110719112D01*
X51418282Y-110699375D01*
X51415085Y-110696895D01*
X51406063Y-110689190D01*
X51379612Y-110664351D01*
X51373833Y-110658924D01*
X51366887Y-110655105D01*
X51366884Y-110655103D01*
X51356078Y-110649162D01*
X51339559Y-110638311D01*
X51339095Y-110637951D01*
X51323553Y-110625896D01*
X51316284Y-110622751D01*
X51316280Y-110622748D01*
X51282975Y-110608336D01*
X51272325Y-110603119D01*
X51233572Y-110581815D01*
X51213949Y-110576777D01*
X51195246Y-110570373D01*
X51183932Y-110565477D01*
X51183931Y-110565477D01*
X51176657Y-110562329D01*
X51168834Y-110561090D01*
X51168824Y-110561087D01*
X51132988Y-110555411D01*
X51121368Y-110553005D01*
X51086223Y-110543982D01*
X51086222Y-110543982D01*
X51078542Y-110542010D01*
X51058288Y-110542010D01*
X51038577Y-110540459D01*
X51026398Y-110538530D01*
X51018569Y-110537290D01*
X50978074Y-110541118D01*
X50974551Y-110541451D01*
X50962693Y-110542010D01*
X49690105Y-110542010D01*
X49621984Y-110522008D01*
X49601008Y-110505104D01*
X49570403Y-110474498D01*
X49536379Y-110412185D01*
X49533500Y-110385404D01*
X49533500Y-109514594D01*
X49553502Y-109446473D01*
X49570405Y-109425499D01*
X50050499Y-108945405D01*
X50112811Y-108911379D01*
X50139594Y-108908500D01*
X50195487Y-108908500D01*
X50201939Y-108907128D01*
X50201944Y-108907128D01*
X50288887Y-108888647D01*
X50382288Y-108868794D01*
X50388319Y-108866109D01*
X50550722Y-108793803D01*
X50550724Y-108793802D01*
X50556752Y-108791118D01*
X50567436Y-108783356D01*
X50663202Y-108713777D01*
X50711253Y-108678866D01*
X50839040Y-108536944D01*
X50934527Y-108371556D01*
X50993542Y-108189928D01*
X51013504Y-108000000D01*
X50993542Y-107810072D01*
X50934527Y-107628444D01*
X50839040Y-107463056D01*
X50818216Y-107439928D01*
X50715675Y-107326045D01*
X50715674Y-107326044D01*
X50711253Y-107321134D01*
X50556752Y-107208882D01*
X50550724Y-107206198D01*
X50550722Y-107206197D01*
X50388319Y-107133891D01*
X50388318Y-107133891D01*
X50382288Y-107131206D01*
X50288888Y-107111353D01*
X50201944Y-107092872D01*
X50201939Y-107092872D01*
X50195487Y-107091500D01*
X50004513Y-107091500D01*
X49998061Y-107092872D01*
X49998056Y-107092872D01*
X49911112Y-107111353D01*
X49817712Y-107131206D01*
X49811682Y-107133891D01*
X49811681Y-107133891D01*
X49649278Y-107206197D01*
X49649276Y-107206198D01*
X49643248Y-107208882D01*
X49488747Y-107321134D01*
X49484326Y-107326044D01*
X49484325Y-107326045D01*
X49381785Y-107439928D01*
X49360960Y-107463056D01*
X49265473Y-107628444D01*
X49206458Y-107810072D01*
X49205768Y-107816633D01*
X49205768Y-107816635D01*
X49189093Y-107975292D01*
X49162080Y-108040949D01*
X49152878Y-108051217D01*
X48507747Y-108696348D01*
X48499461Y-108703888D01*
X48492982Y-108708000D01*
X48487557Y-108713777D01*
X48446357Y-108757651D01*
X48443602Y-108760493D01*
X48423865Y-108780230D01*
X48421385Y-108783427D01*
X48413682Y-108792447D01*
X48383414Y-108824679D01*
X48379595Y-108831625D01*
X48379593Y-108831628D01*
X48373652Y-108842434D01*
X48362801Y-108858953D01*
X48350386Y-108874959D01*
X48347241Y-108882228D01*
X48347238Y-108882232D01*
X48332826Y-108915537D01*
X48327609Y-108926187D01*
X48306305Y-108964940D01*
X48304334Y-108972615D01*
X48304334Y-108972616D01*
X48301267Y-108984562D01*
X48294863Y-109003266D01*
X48286819Y-109021855D01*
X48285580Y-109029678D01*
X48285577Y-109029688D01*
X48279901Y-109065524D01*
X48277495Y-109077144D01*
X48266500Y-109119970D01*
X48266500Y-109140224D01*
X48264949Y-109159934D01*
X48261780Y-109179943D01*
X48262526Y-109187835D01*
X48265941Y-109223961D01*
X48266500Y-109235819D01*
X48266500Y-110621233D01*
X48265973Y-110632416D01*
X48264298Y-110639909D01*
X48264547Y-110647835D01*
X48264547Y-110647836D01*
X48266438Y-110707986D01*
X48266500Y-110711945D01*
X48266500Y-110739856D01*
X48266997Y-110743790D01*
X48266997Y-110743791D01*
X48267005Y-110743856D01*
X48267938Y-110755693D01*
X48269327Y-110799889D01*
X48274978Y-110819339D01*
X48278987Y-110838700D01*
X48281526Y-110858797D01*
X48284445Y-110866168D01*
X48284445Y-110866170D01*
X48297804Y-110899912D01*
X48301649Y-110911142D01*
X48313982Y-110953593D01*
X48318015Y-110960412D01*
X48318017Y-110960417D01*
X48324293Y-110971028D01*
X48332988Y-110988776D01*
X48340448Y-111007617D01*
X48345110Y-111014033D01*
X48345110Y-111014034D01*
X48366436Y-111043387D01*
X48372952Y-111053307D01*
X48395458Y-111091362D01*
X48409779Y-111105683D01*
X48422619Y-111120716D01*
X48434528Y-111137107D01*
X48440634Y-111142158D01*
X48468605Y-111165298D01*
X48477384Y-111173288D01*
X48871853Y-111567757D01*
X48879397Y-111576047D01*
X48883510Y-111582528D01*
X48889287Y-111587953D01*
X48933177Y-111629168D01*
X48936019Y-111631923D01*
X48955741Y-111651645D01*
X48958883Y-111654082D01*
X48958943Y-111654129D01*
X48967955Y-111661827D01*
X48993546Y-111685857D01*
X49000189Y-111692096D01*
X49007132Y-111695913D01*
X49017941Y-111701855D01*
X49034463Y-111712708D01*
X49050469Y-111725124D01*
X49057747Y-111728274D01*
X49057748Y-111728274D01*
X49091047Y-111742684D01*
X49101697Y-111747901D01*
X49140450Y-111769205D01*
X49148125Y-111771176D01*
X49148126Y-111771176D01*
X49160072Y-111774243D01*
X49178777Y-111780647D01*
X49197365Y-111788691D01*
X49205188Y-111789930D01*
X49205198Y-111789933D01*
X49241034Y-111795609D01*
X49252654Y-111798015D01*
X49287799Y-111807038D01*
X49295480Y-111809010D01*
X49315734Y-111809010D01*
X49335444Y-111810561D01*
X49355453Y-111813730D01*
X49363345Y-111812984D01*
X49399471Y-111809569D01*
X49411329Y-111809010D01*
X50014609Y-111809010D01*
X50082730Y-111829012D01*
X50129223Y-111882668D01*
X50139327Y-111952942D01*
X50134442Y-111973946D01*
X50128422Y-111992473D01*
X50106458Y-112060072D01*
X50105768Y-112066633D01*
X50105768Y-112066635D01*
X50095888Y-112160643D01*
X50086496Y-112250000D01*
X50087186Y-112256565D01*
X50105328Y-112429173D01*
X50106458Y-112439928D01*
X50165473Y-112621556D01*
X50255108Y-112776807D01*
X50258007Y-112781829D01*
X50274745Y-112850824D01*
X50251525Y-112917916D01*
X50195718Y-112961803D01*
X50184389Y-112965724D01*
X50126589Y-112982696D01*
X50087270Y-113007965D01*
X50011159Y-113056878D01*
X50011156Y-113056880D01*
X50003579Y-113061750D01*
X49997678Y-113068560D01*
X49950494Y-113123013D01*
X49890768Y-113161396D01*
X49855270Y-113166500D01*
X47079951Y-113166500D01*
X47011830Y-113146498D01*
X46984725Y-113123011D01*
X46983124Y-113121163D01*
X46978250Y-113113579D01*
X46971438Y-113107676D01*
X46874555Y-113023726D01*
X46874552Y-113023724D01*
X46867743Y-113017824D01*
X46734734Y-112957081D01*
X46590000Y-112936271D01*
X46548243Y-112936271D01*
X46480122Y-112916269D01*
X46456190Y-112896307D01*
X46418119Y-112855574D01*
X46418117Y-112855573D01*
X46411965Y-112848990D01*
X46320518Y-112794968D01*
X46289776Y-112776807D01*
X46289771Y-112776804D01*
X46286630Y-112774949D01*
X46286665Y-112774864D01*
X46286566Y-112774823D01*
X46286268Y-112774735D01*
X46286069Y-112774618D01*
X46285785Y-112774501D01*
X46285751Y-112774584D01*
X46181245Y-112743898D01*
X46173371Y-112743616D01*
X46173369Y-112743616D01*
X46111688Y-112741409D01*
X46089901Y-112738672D01*
X46089901Y-112735771D01*
X45890099Y-112735771D01*
X45890099Y-112737566D01*
X45871065Y-112739956D01*
X45844125Y-112738992D01*
X45844123Y-112738992D01*
X45835116Y-112738670D01*
X45826386Y-112740898D01*
X45826383Y-112740898D01*
X45762768Y-112757131D01*
X45694261Y-112774612D01*
X45694215Y-112774501D01*
X45693931Y-112774618D01*
X45693662Y-112774765D01*
X45693434Y-112774823D01*
X45693335Y-112774864D01*
X45693362Y-112774929D01*
X45596020Y-112828050D01*
X45489144Y-112927843D01*
X45484558Y-112935598D01*
X45484557Y-112935599D01*
X45472612Y-112955798D01*
X45414712Y-113053703D01*
X45414554Y-113054086D01*
X45413612Y-113057302D01*
X45413611Y-113057305D01*
X45410315Y-113068560D01*
X45383898Y-113158755D01*
X45383617Y-113166613D01*
X45381409Y-113228312D01*
X45378672Y-113250099D01*
X45375771Y-113250099D01*
X45375771Y-114349901D01*
X45377566Y-114349901D01*
X45379956Y-114368935D01*
X45378670Y-114404884D01*
X45414612Y-114545739D01*
X45414501Y-114545785D01*
X45414618Y-114546069D01*
X45414765Y-114546338D01*
X45414823Y-114546566D01*
X45414864Y-114546665D01*
X45414929Y-114546638D01*
X45468050Y-114643980D01*
X45567843Y-114750856D01*
X45644639Y-114796272D01*
X45693091Y-114848165D01*
X45706500Y-114904726D01*
X45706500Y-115620375D01*
X45686498Y-115688496D01*
X45669595Y-115709471D01*
X45024499Y-116354566D01*
X44962187Y-116388591D01*
X44935404Y-116391470D01*
X40339564Y-116391470D01*
X40271443Y-116371468D01*
X40250469Y-116354565D01*
X38947122Y-115051217D01*
X38913096Y-114988905D01*
X38910907Y-114975292D01*
X38894232Y-114816635D01*
X38894232Y-114816633D01*
X38893542Y-114810072D01*
X38834527Y-114628444D01*
X38739040Y-114463056D01*
X38611253Y-114321134D01*
X38456752Y-114208882D01*
X38450724Y-114206198D01*
X38450722Y-114206197D01*
X38288319Y-114133891D01*
X38288318Y-114133891D01*
X38282288Y-114131206D01*
X38188888Y-114111353D01*
X38101944Y-114092872D01*
X38101939Y-114092872D01*
X38095487Y-114091500D01*
X37904513Y-114091500D01*
X37898061Y-114092872D01*
X37898056Y-114092872D01*
X37811112Y-114111353D01*
X37717712Y-114131206D01*
X37711682Y-114133891D01*
X37711681Y-114133891D01*
X37549278Y-114206197D01*
X37549276Y-114206198D01*
X37543248Y-114208882D01*
X37533571Y-114215913D01*
X37466705Y-114239771D01*
X37397553Y-114223692D01*
X37348072Y-114172779D01*
X37333510Y-114113977D01*
X37333510Y-112251367D01*
X37334037Y-112240184D01*
X37335712Y-112232691D01*
X37333572Y-112164600D01*
X37333510Y-112160643D01*
X37333510Y-112132744D01*
X37333006Y-112128753D01*
X37332073Y-112116911D01*
X37331730Y-112105980D01*
X37330684Y-112072711D01*
X37328472Y-112065097D01*
X37328471Y-112065092D01*
X37325033Y-112053259D01*
X37321022Y-112033895D01*
X37320381Y-112028816D01*
X37318484Y-112013803D01*
X37315567Y-112006436D01*
X37315566Y-112006431D01*
X37302208Y-111972692D01*
X37298364Y-111961465D01*
X37293962Y-111946314D01*
X37286028Y-111919007D01*
X37275717Y-111901572D01*
X37267022Y-111883824D01*
X37259562Y-111864983D01*
X37233574Y-111829213D01*
X37227058Y-111819293D01*
X37208590Y-111788065D01*
X37208588Y-111788062D01*
X37204552Y-111781238D01*
X37190231Y-111766917D01*
X37177390Y-111751883D01*
X37165482Y-111735493D01*
X37131405Y-111707302D01*
X37122626Y-111699312D01*
X36168718Y-110745404D01*
X36134692Y-110683092D01*
X36139757Y-110612277D01*
X36182304Y-110555441D01*
X36195375Y-110547758D01*
X36194999Y-110547107D01*
X36200722Y-110543803D01*
X36206752Y-110541118D01*
X36235212Y-110520441D01*
X36355914Y-110432745D01*
X36361253Y-110428866D01*
X36365668Y-110423963D01*
X36370580Y-110419540D01*
X36372153Y-110421288D01*
X36423444Y-110389689D01*
X36452674Y-110385301D01*
X36503894Y-110383691D01*
X36507986Y-110383562D01*
X36511945Y-110383500D01*
X36539856Y-110383500D01*
X36543791Y-110383003D01*
X36543856Y-110382995D01*
X36555693Y-110382062D01*
X36587951Y-110381048D01*
X36591970Y-110380922D01*
X36599889Y-110380673D01*
X36619343Y-110375021D01*
X36638700Y-110371013D01*
X36650930Y-110369468D01*
X36650931Y-110369468D01*
X36658797Y-110368474D01*
X36666168Y-110365555D01*
X36666170Y-110365555D01*
X36699912Y-110352196D01*
X36711142Y-110348351D01*
X36745983Y-110338229D01*
X36745984Y-110338229D01*
X36753593Y-110336018D01*
X36760412Y-110331985D01*
X36760417Y-110331983D01*
X36771028Y-110325707D01*
X36788776Y-110317012D01*
X36807617Y-110309552D01*
X36843387Y-110283564D01*
X36853307Y-110277048D01*
X36884535Y-110258580D01*
X36884538Y-110258578D01*
X36891362Y-110254542D01*
X36905683Y-110240221D01*
X36920717Y-110227380D01*
X36930694Y-110220131D01*
X36937107Y-110215472D01*
X36965298Y-110181395D01*
X36973288Y-110172616D01*
X41925470Y-105220435D01*
X41987782Y-105186409D01*
X42014565Y-105183530D01*
X42516374Y-105183530D01*
X42584495Y-105203532D01*
G37*
%TD.AperFunction*%
%TA.AperFunction,Conductor*%
G36*
X64809588Y-145572625D02*
G01*
X64838113Y-145594017D01*
X65079595Y-145835499D01*
X65113621Y-145897811D01*
X65116500Y-145924594D01*
X65116500Y-146910408D01*
X65096498Y-146978529D01*
X65079599Y-146999499D01*
X64174499Y-147904598D01*
X64112189Y-147938622D01*
X64085406Y-147941501D01*
X62024500Y-147941501D01*
X61956379Y-147921499D01*
X61909886Y-147867843D01*
X61898500Y-147815501D01*
X61898500Y-146134500D01*
X61918502Y-146066379D01*
X61972158Y-146019886D01*
X62024500Y-146008500D01*
X64188134Y-146008500D01*
X64250316Y-146001745D01*
X64386705Y-145950615D01*
X64503261Y-145863261D01*
X64590615Y-145746705D01*
X64593768Y-145738295D01*
X64631036Y-145638883D01*
X64673677Y-145582118D01*
X64740239Y-145557418D01*
X64809588Y-145572625D01*
G37*
%TD.AperFunction*%
%TA.AperFunction,Conductor*%
G36*
X57859319Y-138505224D02*
G01*
X58579596Y-139225501D01*
X58613621Y-139287813D01*
X58616500Y-139314596D01*
X58616500Y-139410408D01*
X58596498Y-139478529D01*
X58579595Y-139499503D01*
X57174501Y-140904596D01*
X57112189Y-140938622D01*
X57085406Y-140941501D01*
X55024500Y-140941501D01*
X54956379Y-140921499D01*
X54909886Y-140867843D01*
X54898500Y-140815501D01*
X54898500Y-139134500D01*
X54918502Y-139066379D01*
X54972158Y-139019886D01*
X55024500Y-139008500D01*
X57188134Y-139008500D01*
X57250316Y-139001745D01*
X57386705Y-138950615D01*
X57503261Y-138863261D01*
X57590615Y-138746705D01*
X57641745Y-138610316D01*
X57642598Y-138602464D01*
X57642599Y-138602460D01*
X57644961Y-138580712D01*
X57672203Y-138515149D01*
X57730566Y-138474723D01*
X57801520Y-138472267D01*
X57859319Y-138505224D01*
G37*
%TD.AperFunction*%
%TA.AperFunction,Conductor*%
G36*
X71809588Y-138572627D02*
G01*
X71838113Y-138594017D01*
X72171586Y-138927491D01*
X72504595Y-139260500D01*
X72538620Y-139322812D01*
X72541499Y-139349595D01*
X72541499Y-140815501D01*
X72521497Y-140883622D01*
X72467841Y-140930115D01*
X72415499Y-140941501D01*
X69024500Y-140941501D01*
X68956379Y-140921499D01*
X68909886Y-140867843D01*
X68898500Y-140815501D01*
X68898500Y-139134500D01*
X68918502Y-139066379D01*
X68972158Y-139019886D01*
X69024500Y-139008500D01*
X71188134Y-139008500D01*
X71250316Y-139001745D01*
X71386705Y-138950615D01*
X71503261Y-138863261D01*
X71590615Y-138746705D01*
X71603920Y-138711213D01*
X71631036Y-138638883D01*
X71673678Y-138582119D01*
X71740239Y-138557419D01*
X71809588Y-138572627D01*
G37*
%TD.AperFunction*%
%TA.AperFunction,Conductor*%
G36*
X61393527Y-128153502D02*
G01*
X61414501Y-128170405D01*
X61545983Y-128301887D01*
X61580009Y-128364199D01*
X61574944Y-128435014D01*
X61532397Y-128491850D01*
X61501117Y-128508964D01*
X61401705Y-128546232D01*
X61401704Y-128546233D01*
X61393295Y-128549385D01*
X61276739Y-128636739D01*
X61189385Y-128753295D01*
X61138255Y-128889684D01*
X61131500Y-128951866D01*
X61131500Y-131115500D01*
X61111498Y-131183621D01*
X61057842Y-131230114D01*
X61005500Y-131241500D01*
X59324499Y-131241500D01*
X59256378Y-131221498D01*
X59209885Y-131167842D01*
X59198499Y-131115500D01*
X59198499Y-129054593D01*
X59218501Y-128986472D01*
X59235404Y-128965498D01*
X60030497Y-128170405D01*
X60092809Y-128136379D01*
X60119592Y-128133500D01*
X61325406Y-128133500D01*
X61393527Y-128153502D01*
G37*
%TD.AperFunction*%
%TA.AperFunction,Conductor*%
G36*
X21582593Y-114990479D02*
G01*
X21612621Y-115006598D01*
X21618903Y-115011162D01*
X21624679Y-115016586D01*
X21631903Y-115020558D01*
X21651506Y-115033881D01*
X21651746Y-115034080D01*
X21651753Y-115034084D01*
X21657856Y-115039133D01*
X21683536Y-115051217D01*
X21708676Y-115063047D01*
X21715708Y-115066629D01*
X21764940Y-115093695D01*
X21772615Y-115095665D01*
X21772621Y-115095668D01*
X21772919Y-115095744D01*
X21795228Y-115103776D01*
X21795503Y-115103906D01*
X21795511Y-115103909D01*
X21802682Y-115107283D01*
X21857849Y-115117806D01*
X21865558Y-115119529D01*
X21899551Y-115128257D01*
X21912293Y-115131529D01*
X21912294Y-115131529D01*
X21919970Y-115133500D01*
X21928207Y-115133500D01*
X21951816Y-115135732D01*
X21952119Y-115135790D01*
X21952123Y-115135790D01*
X21959906Y-115137275D01*
X22015951Y-115133749D01*
X22023862Y-115133500D01*
X27991404Y-115133500D01*
X28059525Y-115153502D01*
X28080499Y-115170405D01*
X31418000Y-118507906D01*
X31452026Y-118570218D01*
X31446961Y-118641033D01*
X31418000Y-118686096D01*
X29625328Y-120478767D01*
X27839499Y-122264596D01*
X27777187Y-122298622D01*
X27750404Y-122301501D01*
X25024500Y-122301501D01*
X24956379Y-122281499D01*
X24909886Y-122227843D01*
X24898500Y-122175501D01*
X24898500Y-120494500D01*
X24918502Y-120426379D01*
X24972158Y-120379886D01*
X25024500Y-120368500D01*
X27188134Y-120368500D01*
X27250316Y-120361745D01*
X27386705Y-120310615D01*
X27503261Y-120223261D01*
X27590615Y-120106705D01*
X27641745Y-119970316D01*
X27648500Y-119908134D01*
X27648500Y-117311866D01*
X27641745Y-117249684D01*
X27590615Y-117113295D01*
X27503261Y-116996739D01*
X27386705Y-116909385D01*
X27250316Y-116858255D01*
X27188134Y-116851500D01*
X26549438Y-116851500D01*
X26481317Y-116831498D01*
X26447501Y-116799560D01*
X26423564Y-116766613D01*
X26417048Y-116756693D01*
X26398580Y-116725465D01*
X26398578Y-116725462D01*
X26394542Y-116718638D01*
X26380221Y-116704317D01*
X26367380Y-116689283D01*
X26360131Y-116679306D01*
X26355472Y-116672893D01*
X26321395Y-116644702D01*
X26312616Y-116636712D01*
X25308651Y-115632746D01*
X25301111Y-115624460D01*
X25296999Y-115617981D01*
X25247347Y-115571355D01*
X25244506Y-115568601D01*
X25224769Y-115548864D01*
X25221572Y-115546384D01*
X25212550Y-115538679D01*
X25208396Y-115534778D01*
X25180320Y-115508413D01*
X25173374Y-115504594D01*
X25173371Y-115504592D01*
X25162565Y-115498651D01*
X25146046Y-115487800D01*
X25145582Y-115487440D01*
X25130040Y-115475385D01*
X25122771Y-115472240D01*
X25122767Y-115472237D01*
X25089462Y-115457825D01*
X25078812Y-115452608D01*
X25040059Y-115431304D01*
X25020436Y-115426266D01*
X25001733Y-115419862D01*
X24990419Y-115414966D01*
X24990418Y-115414966D01*
X24983144Y-115411818D01*
X24975321Y-115410579D01*
X24975311Y-115410576D01*
X24939475Y-115404900D01*
X24927855Y-115402494D01*
X24892710Y-115393471D01*
X24892709Y-115393471D01*
X24885029Y-115391499D01*
X24864775Y-115391499D01*
X24845064Y-115389948D01*
X24832885Y-115388019D01*
X24825056Y-115386779D01*
X24795785Y-115389546D01*
X24781038Y-115390940D01*
X24769180Y-115391499D01*
X21929155Y-115391499D01*
X21917972Y-115390972D01*
X21910479Y-115389297D01*
X21902553Y-115389546D01*
X21902552Y-115389546D01*
X21842389Y-115391437D01*
X21838431Y-115391499D01*
X21810531Y-115391499D01*
X21806541Y-115392003D01*
X21794707Y-115392935D01*
X21750498Y-115394325D01*
X21742884Y-115396537D01*
X21742879Y-115396538D01*
X21731046Y-115399976D01*
X21711683Y-115403987D01*
X21691590Y-115406525D01*
X21684223Y-115409442D01*
X21684218Y-115409443D01*
X21650479Y-115422801D01*
X21639252Y-115426645D01*
X21596794Y-115438981D01*
X21589968Y-115443018D01*
X21579359Y-115449292D01*
X21561611Y-115457987D01*
X21542770Y-115465447D01*
X21536354Y-115470109D01*
X21536353Y-115470109D01*
X21507000Y-115491435D01*
X21497080Y-115497951D01*
X21465852Y-115516419D01*
X21465849Y-115516421D01*
X21459025Y-115520457D01*
X21444704Y-115534778D01*
X21429671Y-115547618D01*
X21413280Y-115559527D01*
X21404604Y-115570015D01*
X21385089Y-115593604D01*
X21377099Y-115602383D01*
X19983236Y-116996245D01*
X19974950Y-117003785D01*
X19968471Y-117007897D01*
X19963046Y-117013674D01*
X19921846Y-117057548D01*
X19919091Y-117060390D01*
X19899354Y-117080127D01*
X19896874Y-117083324D01*
X19889171Y-117092344D01*
X19858903Y-117124576D01*
X19855084Y-117131522D01*
X19855082Y-117131525D01*
X19849141Y-117142331D01*
X19838290Y-117158850D01*
X19825875Y-117174856D01*
X19822730Y-117182125D01*
X19822727Y-117182129D01*
X19808315Y-117215434D01*
X19803098Y-117226084D01*
X19781794Y-117264837D01*
X19779823Y-117272512D01*
X19779823Y-117272513D01*
X19776756Y-117284459D01*
X19770352Y-117303163D01*
X19762308Y-117321752D01*
X19761069Y-117329575D01*
X19761066Y-117329585D01*
X19755390Y-117365421D01*
X19752984Y-117377041D01*
X19741989Y-117419867D01*
X19741989Y-117440121D01*
X19740438Y-117459831D01*
X19737269Y-117479840D01*
X19738015Y-117487732D01*
X19741430Y-117523858D01*
X19741989Y-117535716D01*
X19741989Y-118851724D01*
X19741462Y-118862907D01*
X19739787Y-118870400D01*
X19740036Y-118878326D01*
X19740036Y-118878327D01*
X19741927Y-118938477D01*
X19741989Y-118942436D01*
X19741989Y-118970347D01*
X19742486Y-118974281D01*
X19742486Y-118974282D01*
X19742494Y-118974347D01*
X19743427Y-118986184D01*
X19744816Y-119030380D01*
X19750467Y-119049830D01*
X19754476Y-119069191D01*
X19757015Y-119089288D01*
X19759934Y-119096659D01*
X19759934Y-119096661D01*
X19773293Y-119130403D01*
X19777138Y-119141633D01*
X19789471Y-119184084D01*
X19793504Y-119190903D01*
X19793506Y-119190908D01*
X19799782Y-119201519D01*
X19808477Y-119219267D01*
X19815937Y-119238108D01*
X19820599Y-119244524D01*
X19820599Y-119244525D01*
X19841925Y-119273878D01*
X19848441Y-119283798D01*
X19870947Y-119321853D01*
X19885268Y-119336174D01*
X19898108Y-119351207D01*
X19910017Y-119367598D01*
X19916123Y-119372649D01*
X19944094Y-119395789D01*
X19952873Y-119403779D01*
X21344595Y-120795501D01*
X21378621Y-120857813D01*
X21381500Y-120884596D01*
X21381500Y-122658134D01*
X21388255Y-122720316D01*
X21439385Y-122856705D01*
X21526739Y-122973261D01*
X21643295Y-123060615D01*
X21779684Y-123111745D01*
X21841866Y-123118500D01*
X22480562Y-123118500D01*
X22548683Y-123138502D01*
X22582499Y-123170440D01*
X22606436Y-123203387D01*
X22612952Y-123213307D01*
X22635458Y-123251362D01*
X22649779Y-123265683D01*
X22662619Y-123280716D01*
X22674528Y-123297107D01*
X22680632Y-123302157D01*
X22680638Y-123302163D01*
X22705300Y-123322565D01*
X22719956Y-123337221D01*
X22723001Y-123342019D01*
X22728778Y-123347444D01*
X22772668Y-123388659D01*
X22775510Y-123391414D01*
X22795231Y-123411135D01*
X22798426Y-123413613D01*
X22807448Y-123421319D01*
X22839680Y-123451587D01*
X22846629Y-123455407D01*
X22857433Y-123461347D01*
X22873957Y-123472200D01*
X22889960Y-123484614D01*
X22930544Y-123502177D01*
X22941174Y-123507384D01*
X22979941Y-123528696D01*
X22987618Y-123530667D01*
X22987623Y-123530669D01*
X22999559Y-123533733D01*
X23018267Y-123540138D01*
X23036856Y-123548182D01*
X23044681Y-123549421D01*
X23044683Y-123549422D01*
X23080520Y-123555098D01*
X23092140Y-123557505D01*
X23124162Y-123565726D01*
X23185169Y-123602039D01*
X23216859Y-123665570D01*
X23209171Y-123736149D01*
X23186467Y-123772078D01*
X23104550Y-123863056D01*
X23009063Y-124028444D01*
X22950048Y-124210072D01*
X22930086Y-124400000D01*
X22930776Y-124406565D01*
X22947570Y-124566348D01*
X22950048Y-124589928D01*
X23009063Y-124771556D01*
X23012366Y-124777278D01*
X23012367Y-124777279D01*
X23090437Y-124912500D01*
X23107175Y-124981495D01*
X23083955Y-125048587D01*
X23028147Y-125092474D01*
X22981318Y-125101500D01*
X14024500Y-125101500D01*
X13956379Y-125081498D01*
X13909886Y-125027842D01*
X13898500Y-124975500D01*
X13898500Y-122411830D01*
X13918502Y-122343709D01*
X13972158Y-122297216D01*
X14042432Y-122287112D01*
X14107012Y-122316606D01*
X14131932Y-122345994D01*
X14194672Y-122448376D01*
X14359102Y-122640898D01*
X14551624Y-122805328D01*
X14767498Y-122937616D01*
X14772068Y-122939509D01*
X14772072Y-122939511D01*
X14996836Y-123032611D01*
X15001409Y-123034505D01*
X15086032Y-123054821D01*
X15242784Y-123092454D01*
X15242790Y-123092455D01*
X15247597Y-123093609D01*
X15347416Y-123101465D01*
X15434345Y-123108307D01*
X15434352Y-123108307D01*
X15436801Y-123108500D01*
X15563199Y-123108500D01*
X15565648Y-123108307D01*
X15565655Y-123108307D01*
X15652584Y-123101465D01*
X15752403Y-123093609D01*
X15757210Y-123092455D01*
X15757216Y-123092454D01*
X15913968Y-123054821D01*
X15998591Y-123034505D01*
X16003164Y-123032611D01*
X16227928Y-122939511D01*
X16227932Y-122939509D01*
X16232502Y-122937616D01*
X16448376Y-122805328D01*
X16640898Y-122640898D01*
X16805328Y-122448376D01*
X16937616Y-122232502D01*
X16942562Y-122220563D01*
X17032611Y-122003164D01*
X17032612Y-122003162D01*
X17034505Y-121998591D01*
X17066512Y-121865271D01*
X17092454Y-121757216D01*
X17092455Y-121757210D01*
X17093609Y-121752403D01*
X17113474Y-121500000D01*
X17093609Y-121247597D01*
X17085247Y-121212763D01*
X17035660Y-121006221D01*
X17034505Y-121001409D01*
X17012067Y-120947238D01*
X16939511Y-120772072D01*
X16939509Y-120772068D01*
X16937616Y-120767498D01*
X16805328Y-120551624D01*
X16640898Y-120359102D01*
X16448376Y-120194672D01*
X16232502Y-120062384D01*
X16227932Y-120060491D01*
X16227928Y-120060489D01*
X16003164Y-119967389D01*
X16003162Y-119967388D01*
X15998591Y-119965495D01*
X15870328Y-119934702D01*
X15757216Y-119907546D01*
X15757210Y-119907545D01*
X15752403Y-119906391D01*
X15652584Y-119898535D01*
X15565655Y-119891693D01*
X15565648Y-119891693D01*
X15563199Y-119891500D01*
X15436801Y-119891500D01*
X15434352Y-119891693D01*
X15434345Y-119891693D01*
X15347416Y-119898535D01*
X15247597Y-119906391D01*
X15242790Y-119907545D01*
X15242784Y-119907546D01*
X15129672Y-119934702D01*
X15001409Y-119965495D01*
X14996838Y-119967388D01*
X14996836Y-119967389D01*
X14772072Y-120060489D01*
X14772068Y-120060491D01*
X14767498Y-120062384D01*
X14551624Y-120194672D01*
X14359102Y-120359102D01*
X14194672Y-120551624D01*
X14177193Y-120580147D01*
X14131933Y-120654005D01*
X14079285Y-120701636D01*
X14009244Y-120713243D01*
X13944046Y-120685140D01*
X13904392Y-120626250D01*
X13898500Y-120588170D01*
X13898500Y-115518042D01*
X13918502Y-115449921D01*
X13972158Y-115403428D01*
X14042432Y-115393324D01*
X14100065Y-115417216D01*
X14134493Y-115443018D01*
X14143295Y-115449615D01*
X14279684Y-115500745D01*
X14341866Y-115507500D01*
X14980562Y-115507500D01*
X15048683Y-115527502D01*
X15082499Y-115559440D01*
X15106436Y-115592387D01*
X15112952Y-115602307D01*
X15131048Y-115632905D01*
X15135458Y-115640362D01*
X15149779Y-115654683D01*
X15162619Y-115669716D01*
X15174528Y-115686107D01*
X15180632Y-115691157D01*
X15180638Y-115691163D01*
X15205300Y-115711565D01*
X15219956Y-115726221D01*
X15223001Y-115731019D01*
X15228778Y-115736444D01*
X15272668Y-115777659D01*
X15275510Y-115780414D01*
X15295231Y-115800135D01*
X15298426Y-115802613D01*
X15307448Y-115810319D01*
X15339680Y-115840587D01*
X15346629Y-115844407D01*
X15357433Y-115850347D01*
X15373957Y-115861200D01*
X15389960Y-115873614D01*
X15430544Y-115891177D01*
X15441174Y-115896384D01*
X15479941Y-115917696D01*
X15487618Y-115919667D01*
X15487623Y-115919669D01*
X15499559Y-115922733D01*
X15518267Y-115929138D01*
X15536856Y-115937182D01*
X15544681Y-115938421D01*
X15544683Y-115938422D01*
X15580520Y-115944098D01*
X15592141Y-115946505D01*
X15623960Y-115954674D01*
X15634971Y-115957501D01*
X15655232Y-115957501D01*
X15674941Y-115959052D01*
X15694944Y-115962220D01*
X15702836Y-115961474D01*
X15708063Y-115960980D01*
X15738955Y-115958060D01*
X15750812Y-115957501D01*
X20170234Y-115957501D01*
X20181417Y-115958028D01*
X20188910Y-115959703D01*
X20196836Y-115959454D01*
X20196837Y-115959454D01*
X20256987Y-115957563D01*
X20260946Y-115957501D01*
X20288857Y-115957501D01*
X20292792Y-115957004D01*
X20292857Y-115956996D01*
X20304694Y-115956063D01*
X20337662Y-115955027D01*
X20340971Y-115954923D01*
X20348890Y-115954674D01*
X20368344Y-115949022D01*
X20387701Y-115945014D01*
X20399931Y-115943469D01*
X20399932Y-115943469D01*
X20407798Y-115942475D01*
X20415169Y-115939556D01*
X20415171Y-115939556D01*
X20448913Y-115926197D01*
X20460143Y-115922352D01*
X20494984Y-115912230D01*
X20494985Y-115912230D01*
X20502594Y-115910019D01*
X20509413Y-115905986D01*
X20509418Y-115905984D01*
X20520029Y-115899708D01*
X20537777Y-115891013D01*
X20556618Y-115883553D01*
X20576988Y-115868754D01*
X20592388Y-115857565D01*
X20602308Y-115851049D01*
X20633536Y-115832581D01*
X20633539Y-115832579D01*
X20640363Y-115828543D01*
X20654684Y-115814222D01*
X20669718Y-115801381D01*
X20671433Y-115800135D01*
X20686108Y-115789473D01*
X20714299Y-115755396D01*
X20722289Y-115746617D01*
X21449466Y-115019440D01*
X21511778Y-114985414D01*
X21582593Y-114990479D01*
G37*
%TD.AperFunction*%
%TA.AperFunction,Conductor*%
G36*
X24435602Y-116678501D02*
G01*
X24482095Y-116732157D01*
X24492199Y-116802431D01*
X24462705Y-116867011D01*
X24411711Y-116902481D01*
X24393295Y-116909385D01*
X24276739Y-116996739D01*
X24189385Y-117113295D01*
X24138255Y-117249684D01*
X24131500Y-117311866D01*
X24131500Y-119475500D01*
X24111498Y-119543621D01*
X24057842Y-119590114D01*
X24005500Y-119601500D01*
X21994593Y-119601500D01*
X21926472Y-119581498D01*
X21905498Y-119564595D01*
X21045894Y-118704991D01*
X21011868Y-118642679D01*
X21008989Y-118615896D01*
X21008989Y-117814491D01*
X21028991Y-117746370D01*
X21045894Y-117725396D01*
X22075887Y-116695404D01*
X22138199Y-116661378D01*
X22164982Y-116658499D01*
X24367481Y-116658499D01*
X24435602Y-116678501D01*
G37*
%TD.AperFunction*%
%TA.AperFunction,Conductor*%
G36*
X35309588Y-112321625D02*
G01*
X35338113Y-112343017D01*
X35579595Y-112584499D01*
X35613621Y-112646811D01*
X35616500Y-112673594D01*
X35616500Y-113659407D01*
X35596498Y-113727528D01*
X35579595Y-113748503D01*
X35330690Y-113997407D01*
X35089812Y-114238285D01*
X35071542Y-114253399D01*
X35064730Y-114258029D01*
X35059486Y-114263977D01*
X35059485Y-114263978D01*
X35027590Y-114300156D01*
X35022171Y-114305926D01*
X34674501Y-114653596D01*
X34612189Y-114687622D01*
X34585406Y-114690501D01*
X32524500Y-114690501D01*
X32456379Y-114670499D01*
X32409886Y-114616843D01*
X32398500Y-114564501D01*
X32398500Y-112883500D01*
X32418502Y-112815379D01*
X32472158Y-112768886D01*
X32524500Y-112757500D01*
X34688134Y-112757500D01*
X34750316Y-112750745D01*
X34886705Y-112699615D01*
X35003261Y-112612261D01*
X35090615Y-112495705D01*
X35105584Y-112455776D01*
X35131036Y-112387883D01*
X35173677Y-112331118D01*
X35240239Y-112306418D01*
X35309588Y-112321625D01*
G37*
%TD.AperFunction*%
%TA.AperFunction,Conductor*%
G36*
X20309588Y-112321625D02*
G01*
X20338113Y-112343017D01*
X21247002Y-113251906D01*
X21281028Y-113314218D01*
X21275963Y-113385033D01*
X21247002Y-113430096D01*
X20632081Y-114045016D01*
X20023501Y-114653596D01*
X19961189Y-114687622D01*
X19934406Y-114690501D01*
X17524500Y-114690501D01*
X17456379Y-114670499D01*
X17409886Y-114616843D01*
X17398500Y-114564501D01*
X17398500Y-112883500D01*
X17418502Y-112815379D01*
X17472158Y-112768886D01*
X17524500Y-112757500D01*
X19688134Y-112757500D01*
X19750316Y-112750745D01*
X19886705Y-112699615D01*
X20003261Y-112612261D01*
X20090615Y-112495705D01*
X20105584Y-112455776D01*
X20131036Y-112387883D01*
X20173677Y-112331118D01*
X20240239Y-112306418D01*
X20309588Y-112321625D01*
G37*
%TD.AperFunction*%
%TA.AperFunction,Conductor*%
G36*
X50116098Y-99638502D02*
G01*
X50162591Y-99692158D01*
X50172695Y-99762432D01*
X50143201Y-99827012D01*
X50083475Y-99865396D01*
X50064968Y-99869349D01*
X50021277Y-99875295D01*
X50016787Y-99876604D01*
X50016781Y-99876605D01*
X49909479Y-99907881D01*
X49768922Y-99948850D01*
X49764675Y-99950808D01*
X49764672Y-99950809D01*
X49727944Y-99967741D01*
X49530210Y-100058898D01*
X49526301Y-100061461D01*
X49314300Y-100200454D01*
X49314295Y-100200458D01*
X49310387Y-100203020D01*
X49114280Y-100378052D01*
X48946200Y-100580147D01*
X48809836Y-100804866D01*
X48808027Y-100809180D01*
X48808025Y-100809184D01*
X48710587Y-101041551D01*
X48708187Y-101047273D01*
X48643484Y-101302042D01*
X48617149Y-101563576D01*
X48617373Y-101568243D01*
X48617373Y-101568248D01*
X48620525Y-101633865D01*
X48629760Y-101826130D01*
X48681041Y-102083936D01*
X48769865Y-102331331D01*
X48772081Y-102335455D01*
X48796479Y-102380862D01*
X48811103Y-102450336D01*
X48785844Y-102516687D01*
X48728722Y-102558850D01*
X48685487Y-102566500D01*
X38628767Y-102566500D01*
X38617584Y-102565973D01*
X38610091Y-102564298D01*
X38602165Y-102564547D01*
X38602164Y-102564547D01*
X38542001Y-102566438D01*
X38538043Y-102566500D01*
X38510144Y-102566500D01*
X38506154Y-102567004D01*
X38494320Y-102567936D01*
X38450111Y-102569326D01*
X38442497Y-102571538D01*
X38442492Y-102571539D01*
X38430659Y-102574977D01*
X38411296Y-102578988D01*
X38391203Y-102581526D01*
X38383836Y-102584443D01*
X38383831Y-102584444D01*
X38350092Y-102597802D01*
X38338865Y-102601646D01*
X38296407Y-102613982D01*
X38289581Y-102618019D01*
X38278972Y-102624293D01*
X38261224Y-102632988D01*
X38242383Y-102640448D01*
X38235967Y-102645110D01*
X38235966Y-102645110D01*
X38206613Y-102666436D01*
X38196693Y-102672952D01*
X38165465Y-102691420D01*
X38165462Y-102691422D01*
X38158638Y-102695458D01*
X38144317Y-102709779D01*
X38129284Y-102722619D01*
X38112893Y-102734528D01*
X38104217Y-102745016D01*
X38084702Y-102768605D01*
X38076712Y-102777384D01*
X35799500Y-105054595D01*
X35737188Y-105088621D01*
X35710405Y-105091500D01*
X35654513Y-105091500D01*
X35648061Y-105092872D01*
X35648056Y-105092872D01*
X35561112Y-105111353D01*
X35467712Y-105131206D01*
X35461682Y-105133891D01*
X35461681Y-105133891D01*
X35299278Y-105206197D01*
X35299276Y-105206198D01*
X35293248Y-105208882D01*
X35138747Y-105321134D01*
X35134326Y-105326044D01*
X35134325Y-105326045D01*
X35061337Y-105407107D01*
X35010960Y-105463056D01*
X35007659Y-105468774D01*
X34936011Y-105592872D01*
X34915473Y-105628444D01*
X34856458Y-105810072D01*
X34836496Y-106000000D01*
X34856458Y-106189928D01*
X34915473Y-106371556D01*
X35010960Y-106536944D01*
X35015380Y-106541852D01*
X35019259Y-106547192D01*
X35017920Y-106548165D01*
X35045050Y-106604696D01*
X35036287Y-106675149D01*
X35018750Y-106702438D01*
X35019259Y-106702808D01*
X35015380Y-106708148D01*
X35010960Y-106713056D01*
X34915473Y-106878444D01*
X34856458Y-107060072D01*
X34855768Y-107066633D01*
X34855768Y-107066635D01*
X34843972Y-107178866D01*
X34836496Y-107250000D01*
X34837186Y-107256565D01*
X34853011Y-107407128D01*
X34856458Y-107439928D01*
X34915473Y-107621556D01*
X34918776Y-107627278D01*
X34918777Y-107627279D01*
X34936591Y-107658134D01*
X35010960Y-107786944D01*
X35015380Y-107791852D01*
X35019259Y-107797192D01*
X35017920Y-107798165D01*
X35045050Y-107854696D01*
X35036287Y-107925149D01*
X35018750Y-107952438D01*
X35019259Y-107952808D01*
X35015380Y-107958148D01*
X35010960Y-107963056D01*
X34915473Y-108128444D01*
X34893456Y-108196206D01*
X34877207Y-108246214D01*
X34837133Y-108304819D01*
X34771736Y-108332456D01*
X34701780Y-108320349D01*
X34668279Y-108296372D01*
X28089654Y-101717747D01*
X28082114Y-101709461D01*
X28078002Y-101702982D01*
X28028350Y-101656356D01*
X28025509Y-101653602D01*
X28005772Y-101633865D01*
X28002575Y-101631385D01*
X27993553Y-101623680D01*
X27978985Y-101610000D01*
X27961323Y-101593414D01*
X27954377Y-101589595D01*
X27954374Y-101589593D01*
X27943568Y-101583652D01*
X27927049Y-101572801D01*
X27921179Y-101568248D01*
X27911043Y-101560386D01*
X27903774Y-101557241D01*
X27903770Y-101557238D01*
X27870465Y-101542826D01*
X27859815Y-101537609D01*
X27821062Y-101516305D01*
X27801439Y-101511267D01*
X27782736Y-101504863D01*
X27771422Y-101499967D01*
X27771421Y-101499967D01*
X27764147Y-101496819D01*
X27756324Y-101495580D01*
X27756314Y-101495577D01*
X27720478Y-101489901D01*
X27708858Y-101487495D01*
X27673713Y-101478472D01*
X27673712Y-101478472D01*
X27666032Y-101476500D01*
X27645778Y-101476500D01*
X27626067Y-101474949D01*
X27613888Y-101473020D01*
X27606059Y-101471780D01*
X27567267Y-101475447D01*
X27562041Y-101475941D01*
X27550183Y-101476500D01*
X26146432Y-101476500D01*
X26085732Y-101460915D01*
X26057004Y-101445122D01*
X26050059Y-101441304D01*
X26030436Y-101436266D01*
X26011733Y-101429862D01*
X26000419Y-101424966D01*
X26000418Y-101424966D01*
X25993144Y-101421818D01*
X25985321Y-101420579D01*
X25985311Y-101420576D01*
X25949475Y-101414900D01*
X25937855Y-101412494D01*
X25902710Y-101403471D01*
X25902709Y-101403471D01*
X25895029Y-101401499D01*
X25874775Y-101401499D01*
X25855064Y-101399948D01*
X25842885Y-101398019D01*
X25835056Y-101396779D01*
X25805785Y-101399546D01*
X25791038Y-101400940D01*
X25779180Y-101401499D01*
X21043768Y-101401499D01*
X21032585Y-101400972D01*
X21025092Y-101399297D01*
X21017166Y-101399546D01*
X21017165Y-101399546D01*
X20957015Y-101401437D01*
X20953056Y-101401499D01*
X20925145Y-101401499D01*
X20921211Y-101401996D01*
X20921210Y-101401996D01*
X20921145Y-101402004D01*
X20909308Y-101402937D01*
X20877491Y-101403937D01*
X20873030Y-101404077D01*
X20865111Y-101404326D01*
X20847455Y-101409455D01*
X20845659Y-101409977D01*
X20826307Y-101413985D01*
X20819236Y-101414879D01*
X20806204Y-101416525D01*
X20798835Y-101419442D01*
X20798833Y-101419443D01*
X20765098Y-101432799D01*
X20753870Y-101436644D01*
X20711408Y-101448981D01*
X20704585Y-101453016D01*
X20704583Y-101453017D01*
X20693973Y-101459292D01*
X20676225Y-101467987D01*
X20657384Y-101475447D01*
X20650968Y-101480109D01*
X20650967Y-101480109D01*
X20621614Y-101501435D01*
X20611694Y-101507951D01*
X20580466Y-101526419D01*
X20580463Y-101526421D01*
X20573639Y-101530457D01*
X20559318Y-101544778D01*
X20544285Y-101557618D01*
X20527894Y-101569527D01*
X20501517Y-101601412D01*
X20499713Y-101603592D01*
X20491723Y-101612373D01*
X19857742Y-102246353D01*
X19849463Y-102253887D01*
X19842982Y-102258000D01*
X19796357Y-102307651D01*
X19793602Y-102310493D01*
X19773865Y-102330230D01*
X19771385Y-102333427D01*
X19763682Y-102342447D01*
X19733414Y-102374679D01*
X19729595Y-102381625D01*
X19729593Y-102381628D01*
X19723652Y-102392434D01*
X19712801Y-102408953D01*
X19700386Y-102424959D01*
X19697241Y-102432228D01*
X19697238Y-102432232D01*
X19682826Y-102465537D01*
X19677609Y-102476187D01*
X19656305Y-102514940D01*
X19654334Y-102522615D01*
X19654334Y-102522616D01*
X19651267Y-102534562D01*
X19644863Y-102553266D01*
X19636819Y-102571855D01*
X19635580Y-102579678D01*
X19635577Y-102579688D01*
X19629901Y-102615524D01*
X19627495Y-102627144D01*
X19622336Y-102647238D01*
X19616500Y-102669970D01*
X19616500Y-102690224D01*
X19614949Y-102709934D01*
X19611780Y-102729943D01*
X19615867Y-102773173D01*
X19615941Y-102773961D01*
X19616500Y-102785819D01*
X19616500Y-104891233D01*
X19615973Y-104902416D01*
X19614298Y-104909909D01*
X19614547Y-104917835D01*
X19614547Y-104917836D01*
X19616438Y-104977986D01*
X19616500Y-104981945D01*
X19616500Y-105009856D01*
X19616997Y-105013790D01*
X19616997Y-105013791D01*
X19617005Y-105013856D01*
X19617938Y-105025693D01*
X19619327Y-105069889D01*
X19624769Y-105088621D01*
X19624978Y-105089339D01*
X19628987Y-105108700D01*
X19631526Y-105128797D01*
X19634445Y-105136168D01*
X19634445Y-105136170D01*
X19647804Y-105169912D01*
X19651649Y-105181142D01*
X19663982Y-105223593D01*
X19668015Y-105230412D01*
X19668017Y-105230417D01*
X19674293Y-105241028D01*
X19682988Y-105258776D01*
X19690448Y-105277617D01*
X19695110Y-105284033D01*
X19695110Y-105284034D01*
X19716436Y-105313387D01*
X19722952Y-105323307D01*
X19745458Y-105361362D01*
X19759779Y-105375683D01*
X19772619Y-105390716D01*
X19784528Y-105407107D01*
X19790634Y-105412158D01*
X19818605Y-105435298D01*
X19827384Y-105443288D01*
X21136348Y-106752253D01*
X21143888Y-106760539D01*
X21148000Y-106767018D01*
X21153777Y-106772443D01*
X21197651Y-106813643D01*
X21200493Y-106816398D01*
X21220230Y-106836135D01*
X21223427Y-106838615D01*
X21232447Y-106846318D01*
X21264679Y-106876586D01*
X21271625Y-106880405D01*
X21271628Y-106880407D01*
X21282434Y-106886348D01*
X21298953Y-106897199D01*
X21314959Y-106909614D01*
X21320283Y-106911918D01*
X21368091Y-106963119D01*
X21381500Y-107019681D01*
X21381500Y-107658134D01*
X21388255Y-107720316D01*
X21439385Y-107856705D01*
X21526739Y-107973261D01*
X21643295Y-108060615D01*
X21779684Y-108111745D01*
X21841866Y-108118500D01*
X24438134Y-108118500D01*
X24500316Y-108111745D01*
X24636705Y-108060615D01*
X24753261Y-107973261D01*
X24840615Y-107856705D01*
X24891745Y-107720316D01*
X24898500Y-107658134D01*
X24898500Y-105494500D01*
X24918502Y-105426379D01*
X24972158Y-105379886D01*
X25024500Y-105368500D01*
X27188134Y-105368500D01*
X27250316Y-105361745D01*
X27386705Y-105310615D01*
X27503261Y-105223261D01*
X27590615Y-105106705D01*
X27641745Y-104970316D01*
X27648500Y-104908134D01*
X27648500Y-103372592D01*
X27668502Y-103304471D01*
X27722158Y-103257978D01*
X27792432Y-103247874D01*
X27857012Y-103277368D01*
X27863595Y-103283497D01*
X33605503Y-109025405D01*
X33639529Y-109087717D01*
X33634464Y-109158532D01*
X33591917Y-109215368D01*
X33525397Y-109240179D01*
X33516408Y-109240500D01*
X32091866Y-109240500D01*
X32029684Y-109247255D01*
X31893295Y-109298385D01*
X31776739Y-109385739D01*
X31689385Y-109502295D01*
X31638255Y-109638684D01*
X31631500Y-109700866D01*
X31631500Y-111864500D01*
X31611498Y-111932621D01*
X31557842Y-111979114D01*
X31505500Y-111990500D01*
X29341866Y-111990500D01*
X29279684Y-111997255D01*
X29143295Y-112048385D01*
X29026739Y-112135739D01*
X28939385Y-112252295D01*
X28888255Y-112388684D01*
X28881500Y-112450866D01*
X28881500Y-113882793D01*
X28861498Y-113950914D01*
X28807842Y-113997407D01*
X28737568Y-114007511D01*
X28683693Y-113985643D01*
X28681319Y-113983414D01*
X28674378Y-113979598D01*
X28674371Y-113979593D01*
X28663564Y-113973652D01*
X28647045Y-113962801D01*
X28646581Y-113962441D01*
X28631039Y-113950386D01*
X28623770Y-113947241D01*
X28623766Y-113947238D01*
X28590461Y-113932826D01*
X28579811Y-113927609D01*
X28541058Y-113906305D01*
X28521435Y-113901267D01*
X28502732Y-113894863D01*
X28491418Y-113889967D01*
X28491417Y-113889967D01*
X28484143Y-113886819D01*
X28476320Y-113885580D01*
X28476310Y-113885577D01*
X28440474Y-113879901D01*
X28428854Y-113877495D01*
X28393709Y-113868472D01*
X28393708Y-113868472D01*
X28386028Y-113866500D01*
X28365774Y-113866500D01*
X28346063Y-113864949D01*
X28333884Y-113863020D01*
X28326055Y-113861780D01*
X28318163Y-113862526D01*
X28282037Y-113865941D01*
X28270179Y-113866500D01*
X22759500Y-113866500D01*
X22691379Y-113846498D01*
X22644886Y-113792842D01*
X22633500Y-113740500D01*
X22633500Y-113632778D01*
X22635051Y-113613067D01*
X22636980Y-113600888D01*
X22638220Y-113593059D01*
X22634059Y-113549040D01*
X22633500Y-113537183D01*
X22633500Y-113187768D01*
X22634027Y-113176585D01*
X22635702Y-113169092D01*
X22633562Y-113101001D01*
X22633500Y-113097044D01*
X22633500Y-113069144D01*
X22632996Y-113065153D01*
X22632063Y-113053311D01*
X22630923Y-113017036D01*
X22630674Y-113009111D01*
X22625021Y-112989652D01*
X22621012Y-112970293D01*
X22619939Y-112961803D01*
X22618474Y-112950203D01*
X22615558Y-112942837D01*
X22615556Y-112942831D01*
X22602200Y-112909098D01*
X22598355Y-112897868D01*
X22588230Y-112863017D01*
X22588230Y-112863016D01*
X22586019Y-112855407D01*
X22575705Y-112837966D01*
X22567008Y-112820213D01*
X22562472Y-112808758D01*
X22559552Y-112801383D01*
X22533563Y-112765612D01*
X22527047Y-112755692D01*
X22524626Y-112751598D01*
X22504542Y-112717638D01*
X22490221Y-112703317D01*
X22477380Y-112688283D01*
X22470131Y-112678306D01*
X22465472Y-112671893D01*
X22431395Y-112643702D01*
X22422616Y-112635712D01*
X20393652Y-110606747D01*
X20386112Y-110598461D01*
X20382000Y-110591982D01*
X20332348Y-110545356D01*
X20329507Y-110542602D01*
X20309770Y-110522865D01*
X20306573Y-110520385D01*
X20297551Y-110512680D01*
X20265321Y-110482414D01*
X20258375Y-110478595D01*
X20258372Y-110478593D01*
X20247566Y-110472652D01*
X20231047Y-110461801D01*
X20221304Y-110454244D01*
X20221305Y-110454244D01*
X20215041Y-110449386D01*
X20209717Y-110447082D01*
X20161909Y-110395881D01*
X20148500Y-110339319D01*
X20148500Y-109700866D01*
X20141745Y-109638684D01*
X20090615Y-109502295D01*
X20003261Y-109385739D01*
X19886705Y-109298385D01*
X19750316Y-109247255D01*
X19688134Y-109240500D01*
X17091866Y-109240500D01*
X17029684Y-109247255D01*
X16893295Y-109298385D01*
X16776739Y-109385739D01*
X16689385Y-109502295D01*
X16638255Y-109638684D01*
X16631500Y-109700866D01*
X16631500Y-111864500D01*
X16611498Y-111932621D01*
X16557842Y-111979114D01*
X16505500Y-111990500D01*
X14341866Y-111990500D01*
X14279684Y-111997255D01*
X14143295Y-112048385D01*
X14136110Y-112053770D01*
X14136108Y-112053771D01*
X14100065Y-112080784D01*
X14033558Y-112105632D01*
X13964176Y-112090579D01*
X13913946Y-112040405D01*
X13898500Y-111979958D01*
X13898500Y-104411830D01*
X13918502Y-104343709D01*
X13972158Y-104297216D01*
X14042432Y-104287112D01*
X14107012Y-104316606D01*
X14131932Y-104345994D01*
X14194672Y-104448376D01*
X14359102Y-104640898D01*
X14551624Y-104805328D01*
X14767498Y-104937616D01*
X14772068Y-104939509D01*
X14772072Y-104939511D01*
X14956690Y-105015982D01*
X15001409Y-105034505D01*
X15076702Y-105052581D01*
X15242784Y-105092454D01*
X15242790Y-105092455D01*
X15247597Y-105093609D01*
X15347416Y-105101465D01*
X15434345Y-105108307D01*
X15434352Y-105108307D01*
X15436801Y-105108500D01*
X15563199Y-105108500D01*
X15565648Y-105108307D01*
X15565655Y-105108307D01*
X15652584Y-105101465D01*
X15752403Y-105093609D01*
X15757210Y-105092455D01*
X15757216Y-105092454D01*
X15923298Y-105052581D01*
X15998591Y-105034505D01*
X16043310Y-105015982D01*
X16227928Y-104939511D01*
X16227932Y-104939509D01*
X16232502Y-104937616D01*
X16448376Y-104805328D01*
X16640898Y-104640898D01*
X16805328Y-104448376D01*
X16937616Y-104232502D01*
X17034505Y-103998591D01*
X17054821Y-103913968D01*
X17092454Y-103757216D01*
X17092455Y-103757210D01*
X17093609Y-103752403D01*
X17113474Y-103500000D01*
X17093609Y-103247597D01*
X17034505Y-103001409D01*
X16951701Y-102801502D01*
X16939511Y-102772072D01*
X16939509Y-102772068D01*
X16937616Y-102767498D01*
X16805328Y-102551624D01*
X16640898Y-102359102D01*
X16448376Y-102194672D01*
X16232502Y-102062384D01*
X16227932Y-102060491D01*
X16227928Y-102060489D01*
X16003164Y-101967389D01*
X16003162Y-101967388D01*
X15998591Y-101965495D01*
X15913968Y-101945179D01*
X15757216Y-101907546D01*
X15757210Y-101907545D01*
X15752403Y-101906391D01*
X15652584Y-101898535D01*
X15565655Y-101891693D01*
X15565648Y-101891693D01*
X15563199Y-101891500D01*
X15436801Y-101891500D01*
X15434352Y-101891693D01*
X15434345Y-101891693D01*
X15347416Y-101898535D01*
X15247597Y-101906391D01*
X15242790Y-101907545D01*
X15242784Y-101907546D01*
X15086032Y-101945179D01*
X15001409Y-101965495D01*
X14996838Y-101967388D01*
X14996836Y-101967389D01*
X14772072Y-102060489D01*
X14772068Y-102060491D01*
X14767498Y-102062384D01*
X14551624Y-102194672D01*
X14359102Y-102359102D01*
X14194672Y-102551624D01*
X14131933Y-102654005D01*
X14079285Y-102701636D01*
X14009244Y-102713243D01*
X13944046Y-102685140D01*
X13904392Y-102626250D01*
X13898500Y-102588170D01*
X13898500Y-99744500D01*
X13918502Y-99676379D01*
X13972158Y-99629886D01*
X14024500Y-99618500D01*
X50047977Y-99618500D01*
X50116098Y-99638502D01*
G37*
%TD.AperFunction*%
%TA.AperFunction,Conductor*%
G36*
X24073621Y-102688501D02*
G01*
X24120114Y-102742157D01*
X24131500Y-102794499D01*
X24131500Y-104475500D01*
X24111498Y-104543621D01*
X24057842Y-104590114D01*
X24005500Y-104601500D01*
X21841866Y-104601500D01*
X21779684Y-104608255D01*
X21643295Y-104659385D01*
X21526739Y-104746739D01*
X21439385Y-104863295D01*
X21436233Y-104871703D01*
X21398964Y-104971117D01*
X21356322Y-105027881D01*
X21289761Y-105052581D01*
X21220412Y-105037373D01*
X21191887Y-105015982D01*
X20920405Y-104744500D01*
X20886379Y-104682188D01*
X20883500Y-104655405D01*
X20883500Y-103064595D01*
X20903502Y-102996474D01*
X20920405Y-102975499D01*
X21190502Y-102705403D01*
X21252814Y-102671378D01*
X21279597Y-102668499D01*
X24005500Y-102668499D01*
X24073621Y-102688501D01*
G37*
%TD.AperFunction*%
%TD*%
M02*
