M48
; DRILL file {KiCad (6.0.5)} date Wed Jun 15 00:03:35 2022
; FORMAT={-:-/ absolute / inch / decimal}
; #@! TF.CreationDate,2022-06-15T00:03:35-05:00
; #@! TF.GenerationSoftware,Kicad,Pcbnew,(6.0.5)
; #@! TF.FileFunction,MixedPlating,1,2
FMAT,2
INCH
; #@! TA.AperFunction,Plated,PTH,ViaDrill
T1C0.0157
; #@! TA.AperFunction,NonPlated,NPTH,ComponentDrill
T2C0.0866
%
G90
G05
T1
X0.811Y-4.4488
X0.8366Y-4.0846
X0.8386Y-4.6299
X0.8543Y-4.5394
X0.9387Y-4.8976
X0.9606Y-4.3071
X1.1063Y-4.7874
X1.3976Y-4.4587
X1.4075Y-4.1732
X1.4075Y-4.2224
X1.4075Y-4.2717
X1.4075Y-4.3209
X1.4961Y-4.5276
X1.5453Y-4.7835
X1.622Y-4.8268
X1.6535Y-4.8031
X1.6693Y-4.1929
X1.6693Y-4.2598
X1.7283Y-4.7756
X1.7362Y-4.1929
X1.9724Y-4.252
X1.9911Y-4.6063
X2.003Y-4.6604
X2.0079Y-4.4193
X2.0079Y-4.5374
X2.0866Y-4.9311
X2.0906Y-5.2362
X2.1614Y-4.9882
X2.1693Y-4.189
X2.1693Y-4.626
X2.2008Y-5.2126
X2.252Y-4.9173
X2.2835Y-5.4921
X2.3661Y-5.5787
X2.3819Y-5.0591
X2.4685Y-5.3701
X2.5492Y-5.7677
X2.7461Y-5.2953
X2.8445Y-5.5118
T2
X0.6102Y-4.0748
X0.6102Y-4.7835
X1.9839Y-4.0004
X1.9839Y-4.7878
X2.0669Y-5.0984
X2.0669Y-5.8071
X2.7756Y-5.0984
X2.7756Y-5.8071
T0
M30
