%TF.GenerationSoftware,KiCad,Pcbnew,(6.0.5)*%
%TF.CreationDate,2022-06-15T00:03:33-05:00*%
%TF.ProjectId,GBOYFrontController,47424f59-4672-46f6-9e74-436f6e74726f,rev?*%
%TF.SameCoordinates,Original*%
%TF.FileFunction,Soldermask,Bot*%
%TF.FilePolarity,Negative*%
%FSLAX46Y46*%
G04 Gerber Fmt 4.6, Leading zero omitted, Abs format (unit mm)*
G04 Created by KiCad (PCBNEW (6.0.5)) date 2022-06-15 00:03:33*
%MOMM*%
%LPD*%
G01*
G04 APERTURE LIST*
G04 Aperture macros list*
%AMFreePoly0*
4,1,17,-0.249646,0.550354,-0.249500,0.550000,-0.249500,0.350000,0.250000,0.350000,0.250000,-0.350000,-0.249500,-0.350000,-0.249500,-0.550000,-0.249646,-0.550354,-0.250000,-0.550500,-0.450000,-0.550500,-0.450354,-0.550354,-0.450500,-0.550000,-0.450500,0.550000,-0.450354,0.550354,-0.450000,0.550500,-0.250000,0.550500,-0.249646,0.550354,-0.249646,0.550354,$1*%
G04 Aperture macros list end*
%ADD10C,2.200000*%
%ADD11C,2.520000*%
%ADD12R,2.500000X2.500000*%
%ADD13FreePoly0,0.000000*%
%ADD14FreePoly0,180.000000*%
G04 APERTURE END LIST*
D10*
%TO.C,H1*%
X52500000Y-129500000D03*
%TD*%
%TO.C,H3*%
X52500000Y-147500000D03*
%TD*%
%TO.C,H6*%
X15500000Y-121500000D03*
%TD*%
%TO.C,H2*%
X70500000Y-129500000D03*
%TD*%
%TO.C,H4*%
X70500000Y-147500000D03*
%TD*%
D11*
%TO.C,U1*%
X50390000Y-101610000D03*
X50390000Y-121610000D03*
%TD*%
D10*
%TO.C,H5*%
X15500000Y-103500000D03*
%TD*%
D12*
%TO.C,U2*%
X67140000Y-140000000D03*
X69890000Y-140000000D03*
X67140000Y-137250000D03*
X69890000Y-137250000D03*
%TD*%
%TO.C,U3*%
X60140000Y-133000000D03*
X62890000Y-133000000D03*
X60140000Y-130250000D03*
X62890000Y-130250000D03*
%TD*%
%TO.C,U4*%
X60140000Y-147000000D03*
X62890000Y-147000000D03*
X60140000Y-144250000D03*
X62890000Y-144250000D03*
%TD*%
%TO.C,U5*%
X53140000Y-140000000D03*
X55890000Y-140000000D03*
X53140000Y-137250000D03*
X55890000Y-137250000D03*
%TD*%
%TO.C,U6*%
X30640000Y-113749000D03*
X33390000Y-113749000D03*
X30640000Y-110999000D03*
X33390000Y-110999000D03*
%TD*%
%TO.C,U7*%
X23140000Y-106360000D03*
X25890000Y-106360000D03*
X23140000Y-103610000D03*
X25890000Y-103610000D03*
%TD*%
D13*
%TO.C,U10*%
X46340000Y-113800000D03*
D14*
X50590000Y-113800000D03*
D13*
X46340000Y-110300000D03*
D14*
X50590000Y-110300000D03*
%TD*%
D12*
%TO.C,U9*%
X15640000Y-113749000D03*
X18390000Y-113749000D03*
X15640000Y-110999000D03*
X18390000Y-110999000D03*
%TD*%
%TO.C,U8*%
X23140000Y-121360000D03*
X25890000Y-121360000D03*
X23140000Y-118610000D03*
X25890000Y-118610000D03*
%TD*%
M02*
