  0
SECTION
  2
HEADER
  9
$ANGBASE
  50
0.0
  9
$ANGDIR
  70
1
  9
$MEASUREMENT
  70
0
  0
ENDSEC
  0
SECTION
  2
TABLES
  0
TABLE
  2
LTYPE
  70
4
  0
LTYPE
  5
40F
  2
CONTINUOUS
  70
0
  3
Solid line
  72
65
  73
0
  40
0.0
  0
LTYPE
  5
410
  2
DASHDOT
 70
0
  3
Dash Dot ____ _ ____ _
 72
65
 73
4
 40
2.0
 49
1.25
 49
-0.25
 49
0.25
 49
-0.25
  0
LTYPE
  5
411
  2
DASHED
 70
0
  3
Dashed __ __ __ __ __
 72
65
 73
2
 40
0.75
 49
0.5
 49
-0.25
  0
LTYPE
  5
43B
  2
DOTTED
 70
0
  3
Dotted .  .  .  .
 72
65
 73
2
 40
0.2
 49
0.0
 49
-0.2
  0
ENDTAB
  0
TABLE
  2
STYLE
  70
4
  0
STYLE
  2
KICAD
  70
0
  40
0
  41
1
  42
1
  50
0
  71
0
  3
isocp.shx
  0
STYLE
  2
KICADB
  70
0
  40
0
  41
1
  42
1
  50
0
  71
0
  3
isocp.shx
  0
STYLE
  2
KICADI
  70
0
  40
0
  41
1
  42
1
  50
15
  71
0
  3
isocp.shx
  0
STYLE
  2
KICADBI
  70
0
  40
0
  41
1
  42
1
  50
15
  71
0
  3
isocp.shx
  0
ENDTAB
  0
TABLE
  2
LAYER
  70
1
  0
LAYER
  2
BLACK
  70
0
  62
7
  6
CONTINUOUS
  0
ENDTAB
  0
ENDSEC
  0
SECTION
  2
ENTITIES
0
LINE
8
BLACK
6
CONTINUOUS
10
3.91731
20
-2.25774
11
3.91744
21
-2.25772
0
LINE
8
BLACK
6
CONTINUOUS
10
3.91744
20
-2.25772
11
3.91756
21
-2.25779
0
LINE
8
BLACK
6
CONTINUOUS
10
3.91756
20
-2.25779
11
3.91794
21
-2.25786
0
LINE
8
BLACK
6
CONTINUOUS
10
3.91794
20
-2.25786
11
3.91853
21
-2.25835
0
LINE
8
BLACK
6
CONTINUOUS
10
3.91853
20
-2.25835
11
3.91919
21
-2.25873
0
LINE
8
BLACK
6
CONTINUOUS
10
3.91919
20
-2.25873
11
3.91928
21
-2.25898
0
LINE
8
BLACK
6
CONTINUOUS
10
3.91928
20
-2.25898
11
3.91949
21
-2.25915
0
LINE
8
BLACK
6
CONTINUOUS
10
3.91949
20
-2.25915
11
3.91962
21
-2.25991
0
LINE
8
BLACK
6
CONTINUOUS
10
3.91962
20
-2.25991
11
3.91988
21
-2.26063
0
LINE
8
BLACK
6
CONTINUOUS
10
3.91988
20
-2.26063
11
3.91988
21
-2.50866
0
LINE
8
BLACK
6
CONTINUOUS
10
3.91988
20
-2.50866
11
3.91981
21
-2.50904
0
LINE
8
BLACK
6
CONTINUOUS
10
3.91981
20
-2.50904
11
3.91984
21
-2.50917
0
LINE
8
BLACK
6
CONTINUOUS
10
3.91984
20
-2.50917
11
3.91977
21
-2.50929
0
LINE
8
BLACK
6
CONTINUOUS
10
3.91977
20
-2.50929
11
3.9197
21
-2.50967
0
LINE
8
BLACK
6
CONTINUOUS
10
3.9197
20
-2.50967
11
3.91921
21
-2.51026
0
LINE
8
BLACK
6
CONTINUOUS
10
3.91921
20
-2.51026
11
3.91883
21
-2.51092
0
LINE
8
BLACK
6
CONTINUOUS
10
3.91883
20
-2.51092
11
3.91858
21
-2.51101
0
LINE
8
BLACK
6
CONTINUOUS
10
3.91858
20
-2.51101
11
3.91841
21
-2.51122
0
LINE
8
BLACK
6
CONTINUOUS
10
3.91841
20
-2.51122
11
3.91765
21
-2.51135
0
LINE
8
BLACK
6
CONTINUOUS
10
3.91765
20
-2.51135
11
3.91693
21
-2.51161
0
LINE
8
BLACK
6
CONTINUOUS
10
3.91693
20
-2.51161
11
3.53465
21
-2.51161
0
LINE
8
BLACK
6
CONTINUOUS
10
3.53465
20
-2.51161
11
3.53426
21
-2.51155
0
LINE
8
BLACK
6
CONTINUOUS
10
3.53426
20
-2.51155
11
3.53413
21
-2.51157
0
LINE
8
BLACK
6
CONTINUOUS
10
3.53413
20
-2.51157
11
3.53402
21
-2.5115
0
LINE
8
BLACK
6
CONTINUOUS
10
3.53402
20
-2.5115
11
3.53364
21
-2.51144
0
LINE
8
BLACK
6
CONTINUOUS
10
3.53364
20
-2.51144
11
3.53305
21
-2.51094
0
LINE
8
BLACK
6
CONTINUOUS
10
3.53305
20
-2.51094
11
3.53238
21
-2.51056
0
LINE
8
BLACK
6
CONTINUOUS
10
3.53238
20
-2.51056
11
3.53229
21
-2.51031
0
LINE
8
BLACK
6
CONTINUOUS
10
3.53229
20
-2.51031
11
3.53209
21
-2.51014
0
LINE
8
BLACK
6
CONTINUOUS
10
3.53209
20
-2.51014
11
3.53196
21
-2.50938
0
LINE
8
BLACK
6
CONTINUOUS
10
3.53196
20
-2.50938
11
3.53169
21
-2.50866
0
LINE
8
BLACK
6
CONTINUOUS
10
3.53169
20
-2.50866
11
3.53169
21
-2.26063
0
LINE
8
BLACK
6
CONTINUOUS
10
3.53169
20
-2.26063
11
3.53176
21
-2.26025
0
LINE
8
BLACK
6
CONTINUOUS
10
3.53176
20
-2.26025
11
3.53174
21
-2.26012
0
LINE
8
BLACK
6
CONTINUOUS
10
3.53174
20
-2.26012
11
3.5318
21
-2.26
0
LINE
8
BLACK
6
CONTINUOUS
10
3.5318
20
-2.26
11
3.53187
21
-2.25962
0
LINE
8
BLACK
6
CONTINUOUS
10
3.53187
20
-2.25962
11
3.53236
21
-2.25903
0
LINE
8
BLACK
6
CONTINUOUS
10
3.53236
20
-2.25903
11
3.53275
21
-2.25837
0
LINE
8
BLACK
6
CONTINUOUS
10
3.53275
20
-2.25837
11
3.533
21
-2.25828
0
LINE
8
BLACK
6
CONTINUOUS
10
3.533
20
-2.25828
11
3.53317
21
-2.25807
0
LINE
8
BLACK
6
CONTINUOUS
10
3.53317
20
-2.25807
11
3.53392
21
-2.25794
0
LINE
8
BLACK
6
CONTINUOUS
10
3.53392
20
-2.25794
11
3.53465
21
-2.25768
0
LINE
8
BLACK
6
CONTINUOUS
10
3.53465
20
-2.25768
11
3.91693
21
-2.25768
0
LINE
8
BLACK
6
CONTINUOUS
10
3.91693
20
-2.25768
11
3.91731
21
-2.25774
0
LINE
8
BLACK
6
CONTINUOUS
10
3.5376
20
-2.26358
11
3.5376
21
-2.50571
0
LINE
8
BLACK
6
CONTINUOUS
10
3.5376
20
-2.50571
11
3.91398
21
-2.50571
0
LINE
8
BLACK
6
CONTINUOUS
10
3.91398
20
-2.50571
11
3.91398
21
-2.26358
0
LINE
8
BLACK
6
CONTINUOUS
10
3.91398
20
-2.26358
11
3.5376
21
-2.26358
  0
ENDSEC
  0
EOF
