  0
SECTION
  2
HEADER
  9
$ANGBASE
  50
0.0
  9
$ANGDIR
  70
1
  9
$MEASUREMENT
  70
0
  0
ENDSEC
  0
SECTION
  2
TABLES
  0
TABLE
  2
LTYPE
  70
4
  0
LTYPE
  5
40F
  2
CONTINUOUS
  70
0
  3
Solid line
  72
65
  73
0
  40
0.0
  0
LTYPE
  5
410
  2
DASHDOT
 70
0
  3
Dash Dot ____ _ ____ _
 72
65
 73
4
 40
2.0
 49
1.25
 49
-0.25
 49
0.25
 49
-0.25
  0
LTYPE
  5
411
  2
DASHED
 70
0
  3
Dashed __ __ __ __ __
 72
65
 73
2
 40
0.75
 49
0.5
 49
-0.25
  0
LTYPE
  5
43B
  2
DOTTED
 70
0
  3
Dotted .  .  .  .
 72
65
 73
2
 40
0.2
 49
0.0
 49
-0.2
  0
ENDTAB
  0
TABLE
  2
STYLE
  70
4
  0
STYLE
  2
KICAD
  70
0
  40
0
  41
1
  42
1
  50
0
  71
0
  3
isocp.shx
  0
STYLE
  2
KICADB
  70
0
  40
0
  41
1
  42
1
  50
0
  71
0
  3
isocp.shx
  0
STYLE
  2
KICADI
  70
0
  40
0
  41
1
  42
1
  50
15
  71
0
  3
isocp.shx
  0
STYLE
  2
KICADBI
  70
0
  40
0
  41
1
  42
1
  50
15
  71
0
  3
isocp.shx
  0
ENDTAB
  0
TABLE
  2
LAYER
  70
1
  0
LAYER
  2
BLACK
  70
0
  62
7
  6
CONTINUOUS
  0
ENDTAB
  0
ENDSEC
  0
SECTION
  2
ENTITIES
0
CIRCLE
8
BLACK
10
3.61339
20
-2.38465
40
0.045315
0
LINE
8
BLACK
6
CONTINUOUS
10
3.84197
20
-2.37264
11
3.84182
21
-2.37341
0
LINE
8
BLACK
6
CONTINUOUS
10
3.84182
20
-2.37341
11
3.84138
21
-2.37406
0
LINE
8
BLACK
6
CONTINUOUS
10
3.84138
20
-2.37406
11
3.84073
21
-2.37449
0
LINE
8
BLACK
6
CONTINUOUS
10
3.84073
20
-2.37449
11
3.83996
21
-2.37465
0
LINE
8
BLACK
6
CONTINUOUS
10
3.83996
20
-2.37465
11
3.81437
21
-2.37465
0
LINE
8
BLACK
6
CONTINUOUS
10
3.81437
20
-2.37465
11
3.8136
21
-2.37449
0
LINE
8
BLACK
6
CONTINUOUS
10
3.8136
20
-2.37449
11
3.81295
21
-2.37406
0
LINE
8
BLACK
6
CONTINUOUS
10
3.81295
20
-2.37406
11
3.81252
21
-2.37341
0
LINE
8
BLACK
6
CONTINUOUS
10
3.81252
20
-2.37341
11
3.81236
21
-2.37264
0
LINE
8
BLACK
6
CONTINUOUS
10
3.81236
20
-2.37264
11
3.81236
21
-2.33917
0
LINE
8
BLACK
6
CONTINUOUS
10
3.81236
20
-2.33917
11
3.81252
21
-2.3384
0
LINE
8
BLACK
6
CONTINUOUS
10
3.81252
20
-2.3384
11
3.81295
21
-2.33775
0
LINE
8
BLACK
6
CONTINUOUS
10
3.81295
20
-2.33775
11
3.8136
21
-2.33732
0
LINE
8
BLACK
6
CONTINUOUS
10
3.8136
20
-2.33732
11
3.81437
21
-2.33717
0
LINE
8
BLACK
6
CONTINUOUS
10
3.81437
20
-2.33717
11
3.83996
21
-2.33717
0
LINE
8
BLACK
6
CONTINUOUS
10
3.83996
20
-2.33717
11
3.84073
21
-2.33732
0
LINE
8
BLACK
6
CONTINUOUS
10
3.84073
20
-2.33732
11
3.84138
21
-2.33775
0
LINE
8
BLACK
6
CONTINUOUS
10
3.84138
20
-2.33775
11
3.84182
21
-2.3384
0
LINE
8
BLACK
6
CONTINUOUS
10
3.84182
20
-2.3384
11
3.84197
21
-2.33917
0
LINE
8
BLACK
6
CONTINUOUS
10
3.84197
20
-2.33917
11
3.84197
21
-2.37264
0
LINE
8
BLACK
6
CONTINUOUS
10
3.80811
20
-2.37264
11
3.80796
21
-2.37341
0
LINE
8
BLACK
6
CONTINUOUS
10
3.80796
20
-2.37341
11
3.80752
21
-2.37406
0
LINE
8
BLACK
6
CONTINUOUS
10
3.80752
20
-2.37406
11
3.80687
21
-2.37449
0
LINE
8
BLACK
6
CONTINUOUS
10
3.80687
20
-2.37449
11
3.8061
21
-2.37465
0
LINE
8
BLACK
6
CONTINUOUS
10
3.8061
20
-2.37465
11
3.78051
21
-2.37465
0
LINE
8
BLACK
6
CONTINUOUS
10
3.78051
20
-2.37465
11
3.77974
21
-2.37449
0
LINE
8
BLACK
6
CONTINUOUS
10
3.77974
20
-2.37449
11
3.77909
21
-2.37406
0
LINE
8
BLACK
6
CONTINUOUS
10
3.77909
20
-2.37406
11
3.77866
21
-2.37341
0
LINE
8
BLACK
6
CONTINUOUS
10
3.77866
20
-2.37341
11
3.7785
21
-2.37264
0
LINE
8
BLACK
6
CONTINUOUS
10
3.7785
20
-2.37264
11
3.7785
21
-2.33917
0
LINE
8
BLACK
6
CONTINUOUS
10
3.7785
20
-2.33917
11
3.77866
21
-2.3384
0
LINE
8
BLACK
6
CONTINUOUS
10
3.77866
20
-2.3384
11
3.77909
21
-2.33775
0
LINE
8
BLACK
6
CONTINUOUS
10
3.77909
20
-2.33775
11
3.77974
21
-2.33732
0
LINE
8
BLACK
6
CONTINUOUS
10
3.77974
20
-2.33732
11
3.78051
21
-2.33717
0
LINE
8
BLACK
6
CONTINUOUS
10
3.78051
20
-2.33717
11
3.8061
21
-2.33717
0
LINE
8
BLACK
6
CONTINUOUS
10
3.8061
20
-2.33717
11
3.80687
21
-2.33732
0
LINE
8
BLACK
6
CONTINUOUS
10
3.80687
20
-2.33732
11
3.80752
21
-2.33775
0
LINE
8
BLACK
6
CONTINUOUS
10
3.80752
20
-2.33775
11
3.80796
21
-2.3384
0
LINE
8
BLACK
6
CONTINUOUS
10
3.80796
20
-2.3384
11
3.80811
21
-2.33917
0
LINE
8
BLACK
6
CONTINUOUS
10
3.80811
20
-2.33917
11
3.80811
21
-2.37264
0
LINE
8
BLACK
6
CONTINUOUS
10
3.80811
20
-2.43012
11
3.80796
21
-2.43089
0
LINE
8
BLACK
6
CONTINUOUS
10
3.80796
20
-2.43089
11
3.80752
21
-2.43154
0
LINE
8
BLACK
6
CONTINUOUS
10
3.80752
20
-2.43154
11
3.80687
21
-2.43197
0
LINE
8
BLACK
6
CONTINUOUS
10
3.80687
20
-2.43197
11
3.8061
21
-2.43213
0
LINE
8
BLACK
6
CONTINUOUS
10
3.8061
20
-2.43213
11
3.78051
21
-2.43213
0
LINE
8
BLACK
6
CONTINUOUS
10
3.78051
20
-2.43213
11
3.77974
21
-2.43197
0
LINE
8
BLACK
6
CONTINUOUS
10
3.77974
20
-2.43197
11
3.77909
21
-2.43154
0
LINE
8
BLACK
6
CONTINUOUS
10
3.77909
20
-2.43154
11
3.77866
21
-2.43089
0
LINE
8
BLACK
6
CONTINUOUS
10
3.77866
20
-2.43089
11
3.7785
21
-2.43012
0
LINE
8
BLACK
6
CONTINUOUS
10
3.7785
20
-2.43012
11
3.7785
21
-2.39665
0
LINE
8
BLACK
6
CONTINUOUS
10
3.7785
20
-2.39665
11
3.77866
21
-2.39589
0
LINE
8
BLACK
6
CONTINUOUS
10
3.77866
20
-2.39589
11
3.77909
21
-2.39523
0
LINE
8
BLACK
6
CONTINUOUS
10
3.77909
20
-2.39523
11
3.77974
21
-2.3948
0
LINE
8
BLACK
6
CONTINUOUS
10
3.77974
20
-2.3948
11
3.78051
21
-2.39465
0
LINE
8
BLACK
6
CONTINUOUS
10
3.78051
20
-2.39465
11
3.8061
21
-2.39465
0
LINE
8
BLACK
6
CONTINUOUS
10
3.8061
20
-2.39465
11
3.80687
21
-2.3948
0
LINE
8
BLACK
6
CONTINUOUS
10
3.80687
20
-2.3948
11
3.80752
21
-2.39523
0
LINE
8
BLACK
6
CONTINUOUS
10
3.80752
20
-2.39523
11
3.80796
21
-2.39589
0
LINE
8
BLACK
6
CONTINUOUS
10
3.80796
20
-2.39589
11
3.80811
21
-2.39665
0
LINE
8
BLACK
6
CONTINUOUS
10
3.80811
20
-2.39665
11
3.80811
21
-2.43012
0
LINE
8
BLACK
6
CONTINUOUS
10
3.84197
20
-2.43012
11
3.84182
21
-2.43089
0
LINE
8
BLACK
6
CONTINUOUS
10
3.84182
20
-2.43089
11
3.84138
21
-2.43154
0
LINE
8
BLACK
6
CONTINUOUS
10
3.84138
20
-2.43154
11
3.84073
21
-2.43197
0
LINE
8
BLACK
6
CONTINUOUS
10
3.84073
20
-2.43197
11
3.83996
21
-2.43213
0
LINE
8
BLACK
6
CONTINUOUS
10
3.83996
20
-2.43213
11
3.81437
21
-2.43213
0
LINE
8
BLACK
6
CONTINUOUS
10
3.81437
20
-2.43213
11
3.8136
21
-2.43197
0
LINE
8
BLACK
6
CONTINUOUS
10
3.8136
20
-2.43197
11
3.81295
21
-2.43154
0
LINE
8
BLACK
6
CONTINUOUS
10
3.81295
20
-2.43154
11
3.81252
21
-2.43089
0
LINE
8
BLACK
6
CONTINUOUS
10
3.81252
20
-2.43089
11
3.81236
21
-2.43012
0
LINE
8
BLACK
6
CONTINUOUS
10
3.81236
20
-2.43012
11
3.81236
21
-2.39665
0
LINE
8
BLACK
6
CONTINUOUS
10
3.81236
20
-2.39665
11
3.81252
21
-2.39589
0
LINE
8
BLACK
6
CONTINUOUS
10
3.81252
20
-2.39589
11
3.81295
21
-2.39523
0
LINE
8
BLACK
6
CONTINUOUS
10
3.81295
20
-2.39523
11
3.8136
21
-2.3948
0
LINE
8
BLACK
6
CONTINUOUS
10
3.8136
20
-2.3948
11
3.81437
21
-2.39465
0
LINE
8
BLACK
6
CONTINUOUS
10
3.81437
20
-2.39465
11
3.83996
21
-2.39465
0
LINE
8
BLACK
6
CONTINUOUS
10
3.83996
20
-2.39465
11
3.84073
21
-2.3948
0
LINE
8
BLACK
6
CONTINUOUS
10
3.84073
20
-2.3948
11
3.84138
21
-2.39523
0
LINE
8
BLACK
6
CONTINUOUS
10
3.84138
20
-2.39523
11
3.84182
21
-2.39589
0
LINE
8
BLACK
6
CONTINUOUS
10
3.84182
20
-2.39589
11
3.84197
21
-2.39665
0
LINE
8
BLACK
6
CONTINUOUS
10
3.84197
20
-2.39665
11
3.84197
21
-2.43012
0
LINE
8
BLACK
6
CONTINUOUS
10
3.80764
20
-2.39529
11
3.81015
21
-2.39608
0
LINE
8
BLACK
6
CONTINUOUS
10
3.81015
20
-2.39608
11
3.81284
21
-2.39529
0
LINE
8
BLACK
6
CONTINUOUS
10
3.81284
20
-2.39529
11
3.81292
21
-2.39531
0
LINE
8
BLACK
6
CONTINUOUS
10
3.81292
20
-2.39531
11
3.81294
21
-2.39538
0
LINE
8
BLACK
6
CONTINUOUS
10
3.81294
20
-2.39538
11
3.81293
21
-2.39541
0
LINE
8
BLACK
6
CONTINUOUS
10
3.81293
20
-2.39541
11
3.81259
21
-2.39592
0
LINE
8
BLACK
6
CONTINUOUS
10
3.81259
20
-2.39592
11
3.81244
21
-2.39666
0
LINE
8
BLACK
6
CONTINUOUS
10
3.81244
20
-2.39666
11
3.81244
21
-2.43011
0
LINE
8
BLACK
6
CONTINUOUS
10
3.81244
20
-2.43011
11
3.81259
21
-2.43086
0
LINE
8
BLACK
6
CONTINUOUS
10
3.81259
20
-2.43086
11
3.81293
21
-2.43136
0
LINE
8
BLACK
6
CONTINUOUS
10
3.81293
20
-2.43136
11
3.81293
21
-2.43144
0
LINE
8
BLACK
6
CONTINUOUS
10
3.81293
20
-2.43144
11
3.81287
21
-2.43148
0
LINE
8
BLACK
6
CONTINUOUS
10
3.81287
20
-2.43148
11
3.81284
21
-2.43148
0
LINE
8
BLACK
6
CONTINUOUS
10
3.81284
20
-2.43148
11
3.81032
21
-2.43069
0
LINE
8
BLACK
6
CONTINUOUS
10
3.81032
20
-2.43069
11
3.80763
21
-2.43148
0
LINE
8
BLACK
6
CONTINUOUS
10
3.80763
20
-2.43148
11
3.80756
21
-2.43146
0
LINE
8
BLACK
6
CONTINUOUS
10
3.80756
20
-2.43146
11
3.80753
21
-2.43139
0
LINE
8
BLACK
6
CONTINUOUS
10
3.80753
20
-2.43139
11
3.80754
21
-2.43136
0
LINE
8
BLACK
6
CONTINUOUS
10
3.80754
20
-2.43136
11
3.80788
21
-2.43086
0
LINE
8
BLACK
6
CONTINUOUS
10
3.80788
20
-2.43086
11
3.80803
21
-2.43011
0
LINE
8
BLACK
6
CONTINUOUS
10
3.80803
20
-2.43011
11
3.80803
21
-2.39666
0
LINE
8
BLACK
6
CONTINUOUS
10
3.80803
20
-2.39666
11
3.80788
21
-2.39592
0
LINE
8
BLACK
6
CONTINUOUS
10
3.80788
20
-2.39592
11
3.80755
21
-2.39541
0
LINE
8
BLACK
6
CONTINUOUS
10
3.80755
20
-2.39541
11
3.80754
21
-2.39533
0
LINE
8
BLACK
6
CONTINUOUS
10
3.80754
20
-2.39533
11
3.80761
21
-2.39529
0
LINE
8
BLACK
6
CONTINUOUS
10
3.80761
20
-2.39529
11
3.80764
21
-2.39529
0
LINE
8
BLACK
6
CONTINUOUS
10
3.80764
20
-2.33781
11
3.81015
21
-2.3386
0
LINE
8
BLACK
6
CONTINUOUS
10
3.81015
20
-2.3386
11
3.81284
21
-2.33781
0
LINE
8
BLACK
6
CONTINUOUS
10
3.81284
20
-2.33781
11
3.81292
21
-2.33783
0
LINE
8
BLACK
6
CONTINUOUS
10
3.81292
20
-2.33783
11
3.81294
21
-2.3379
0
LINE
8
BLACK
6
CONTINUOUS
10
3.81294
20
-2.3379
11
3.81293
21
-2.33793
0
LINE
8
BLACK
6
CONTINUOUS
10
3.81293
20
-2.33793
11
3.81259
21
-2.33844
0
LINE
8
BLACK
6
CONTINUOUS
10
3.81259
20
-2.33844
11
3.81244
21
-2.33918
0
LINE
8
BLACK
6
CONTINUOUS
10
3.81244
20
-2.33918
11
3.81244
21
-2.37263
0
LINE
8
BLACK
6
CONTINUOUS
10
3.81244
20
-2.37263
11
3.81259
21
-2.37338
0
LINE
8
BLACK
6
CONTINUOUS
10
3.81259
20
-2.37338
11
3.81293
21
-2.37388
0
LINE
8
BLACK
6
CONTINUOUS
10
3.81293
20
-2.37388
11
3.81293
21
-2.37396
0
LINE
8
BLACK
6
CONTINUOUS
10
3.81293
20
-2.37396
11
3.81287
21
-2.374
0
LINE
8
BLACK
6
CONTINUOUS
10
3.81287
20
-2.374
11
3.81284
21
-2.374
0
LINE
8
BLACK
6
CONTINUOUS
10
3.81284
20
-2.374
11
3.81032
21
-2.37321
0
LINE
8
BLACK
6
CONTINUOUS
10
3.81032
20
-2.37321
11
3.80763
21
-2.374
0
LINE
8
BLACK
6
CONTINUOUS
10
3.80763
20
-2.374
11
3.80756
21
-2.37398
0
LINE
8
BLACK
6
CONTINUOUS
10
3.80756
20
-2.37398
11
3.80753
21
-2.37391
0
LINE
8
BLACK
6
CONTINUOUS
10
3.80753
20
-2.37391
11
3.80754
21
-2.37388
0
LINE
8
BLACK
6
CONTINUOUS
10
3.80754
20
-2.37388
11
3.80788
21
-2.37338
0
LINE
8
BLACK
6
CONTINUOUS
10
3.80788
20
-2.37338
11
3.80803
21
-2.37263
0
LINE
8
BLACK
6
CONTINUOUS
10
3.80803
20
-2.37263
11
3.80803
21
-2.33918
0
LINE
8
BLACK
6
CONTINUOUS
10
3.80803
20
-2.33918
11
3.80788
21
-2.33844
0
LINE
8
BLACK
6
CONTINUOUS
10
3.80788
20
-2.33844
11
3.80755
21
-2.33793
0
LINE
8
BLACK
6
CONTINUOUS
10
3.80755
20
-2.33793
11
3.80754
21
-2.33785
0
LINE
8
BLACK
6
CONTINUOUS
10
3.80754
20
-2.33785
11
3.80761
21
-2.33781
0
LINE
8
BLACK
6
CONTINUOUS
10
3.80761
20
-2.33781
11
3.80764
21
-2.33781
  0
ENDSEC
  0
EOF
