G04 #@! TF.GenerationSoftware,KiCad,Pcbnew,(6.0.5)*
G04 #@! TF.CreationDate,2022-06-19T19:15:49-05:00*
G04 #@! TF.ProjectId,RGB LED pcb,52474220-4c45-4442-9070-63622e6b6963,rev?*
G04 #@! TF.SameCoordinates,Original*
G04 #@! TF.FileFunction,Soldermask,Bot*
G04 #@! TF.FilePolarity,Negative*
%FSLAX46Y46*%
G04 Gerber Fmt 4.6, Leading zero omitted, Abs format (unit mm)*
G04 Created by KiCad (PCBNEW (6.0.5)) date 2022-06-19 19:15:49*
%MOMM*%
%LPD*%
G01*
G04 APERTURE LIST*
G04 Aperture macros list*
%AMRoundRect*
0 Rectangle with rounded corners*
0 $1 Rounding radius*
0 $2 $3 $4 $5 $6 $7 $8 $9 X,Y pos of 4 corners*
0 Add a 4 corners polygon primitive as box body*
4,1,4,$2,$3,$4,$5,$6,$7,$8,$9,$2,$3,0*
0 Add four circle primitives for the rounded corners*
1,1,$1+$1,$2,$3*
1,1,$1+$1,$4,$5*
1,1,$1+$1,$6,$7*
1,1,$1+$1,$8,$9*
0 Add four rect primitives between the rounded corners*
20,1,$1+$1,$2,$3,$4,$5,0*
20,1,$1+$1,$4,$5,$6,$7,0*
20,1,$1+$1,$6,$7,$8,$9,0*
20,1,$1+$1,$8,$9,$2,$3,0*%
G04 Aperture macros list end*
%ADD10C,2.302000*%
%ADD11RoundRect,0.051000X0.325000X0.425000X-0.325000X0.425000X-0.325000X-0.425000X0.325000X-0.425000X0*%
G04 APERTURE END LIST*
D10*
X91780000Y-60570000D03*
D11*
X97210000Y-59840000D03*
X96350000Y-59840000D03*
X96350000Y-61300000D03*
X97210000Y-61300000D03*
G36*
X96713948Y-60840453D02*
G01*
X96777788Y-60860443D01*
X96846132Y-60840375D01*
X96848075Y-60840847D01*
X96848639Y-60842766D01*
X96848358Y-60843405D01*
X96839767Y-60856262D01*
X96836000Y-60875199D01*
X96836000Y-61724801D01*
X96839767Y-61743738D01*
X96848313Y-61756527D01*
X96848444Y-61758522D01*
X96846781Y-61759634D01*
X96846052Y-61759547D01*
X96782212Y-61739557D01*
X96713868Y-61759625D01*
X96711925Y-61759153D01*
X96711361Y-61757234D01*
X96711642Y-61756595D01*
X96720233Y-61743738D01*
X96724000Y-61724801D01*
X96724000Y-60875199D01*
X96720233Y-60856262D01*
X96711687Y-60843473D01*
X96711556Y-60841478D01*
X96713219Y-60840366D01*
X96713948Y-60840453D01*
G37*
G36*
X96713948Y-59380453D02*
G01*
X96777788Y-59400443D01*
X96846132Y-59380375D01*
X96848075Y-59380847D01*
X96848639Y-59382766D01*
X96848358Y-59383405D01*
X96839767Y-59396262D01*
X96836000Y-59415199D01*
X96836000Y-60264801D01*
X96839767Y-60283738D01*
X96848313Y-60296527D01*
X96848444Y-60298522D01*
X96846781Y-60299634D01*
X96846052Y-60299547D01*
X96782212Y-60279557D01*
X96713868Y-60299625D01*
X96711925Y-60299153D01*
X96711361Y-60297234D01*
X96711642Y-60296595D01*
X96720233Y-60283738D01*
X96724000Y-60264801D01*
X96724000Y-59415199D01*
X96720233Y-59396262D01*
X96711687Y-59383473D01*
X96711556Y-59381478D01*
X96713219Y-59380366D01*
X96713948Y-59380453D01*
G37*
M02*
