  0
SECTION
  2
HEADER
  9
$ANGBASE
  50
0.0
  9
$ANGDIR
  70
1
  9
$MEASUREMENT
  70
0
  0
ENDSEC
  0
SECTION
  2
TABLES
  0
TABLE
  2
LTYPE
  70
4
  0
LTYPE
  5
40F
  2
CONTINUOUS
  70
0
  3
Solid line
  72
65
  73
0
  40
0.0
  0
LTYPE
  5
410
  2
DASHDOT
 70
0
  3
Dash Dot ____ _ ____ _
 72
65
 73
4
 40
2.0
 49
1.25
 49
-0.25
 49
0.25
 49
-0.25
  0
LTYPE
  5
411
  2
DASHED
 70
0
  3
Dashed __ __ __ __ __
 72
65
 73
2
 40
0.75
 49
0.5
 49
-0.25
  0
LTYPE
  5
43B
  2
DOTTED
 70
0
  3
Dotted .  .  .  .
 72
65
 73
2
 40
0.2
 49
0.0
 49
-0.2
  0
ENDTAB
  0
TABLE
  2
STYLE
  70
4
  0
STYLE
  2
KICAD
  70
0
  40
0
  41
1
  42
1
  50
0
  71
0
  3
isocp.shx
  0
STYLE
  2
KICADB
  70
0
  40
0
  41
1
  42
1
  50
0
  71
0
  3
isocp.shx
  0
STYLE
  2
KICADI
  70
0
  40
0
  41
1
  42
1
  50
15
  71
0
  3
isocp.shx
  0
STYLE
  2
KICADBI
  70
0
  40
0
  41
1
  42
1
  50
15
  71
0
  3
isocp.shx
  0
ENDTAB
  0
TABLE
  2
LAYER
  70
1
  0
LAYER
  2
BLACK
  70
0
  62
7
  6
CONTINUOUS
  0
ENDTAB
  0
ENDSEC
  0
SECTION
  2
ENTITIES
0
LINE
8
BLACK
6
CONTINUOUS
10
3.69307
20
-2.44317
11
3.6983
21
-2.44594
0
LINE
8
BLACK
6
CONTINUOUS
10
3.6983
20
-2.44594
11
3.70271
21
-2.44987
0
LINE
8
BLACK
6
CONTINUOUS
10
3.70271
20
-2.44987
11
3.70606
21
-2.45474
0
LINE
8
BLACK
6
CONTINUOUS
10
3.70606
20
-2.45474
11
3.70815
21
-2.46027
0
LINE
8
BLACK
6
CONTINUOUS
10
3.70815
20
-2.46027
11
3.70886
21
-2.46614
0
LINE
8
BLACK
6
CONTINUOUS
10
3.70886
20
-2.46614
11
3.70885
21
-2.46666
0
LINE
8
BLACK
6
CONTINUOUS
10
3.70885
20
-2.46666
11
3.70802
21
-2.47251
0
LINE
8
BLACK
6
CONTINUOUS
10
3.70802
20
-2.47251
11
3.70581
21
-2.478
0
LINE
8
BLACK
6
CONTINUOUS
10
3.70581
20
-2.478
11
3.70236
21
-2.4828
0
LINE
8
BLACK
6
CONTINUOUS
10
3.70236
20
-2.4828
11
3.69787
21
-2.48664
0
LINE
8
BLACK
6
CONTINUOUS
10
3.69787
20
-2.48664
11
3.69259
21
-2.48929
0
LINE
8
BLACK
6
CONTINUOUS
10
3.69259
20
-2.48929
11
3.68682
21
-2.49061
0
LINE
8
BLACK
6
CONTINUOUS
10
3.68682
20
-2.49061
11
3.68091
21
-2.49052
0
LINE
8
BLACK
6
CONTINUOUS
10
3.68091
20
-2.49052
11
3.67519
21
-2.48902
0
LINE
8
BLACK
6
CONTINUOUS
10
3.67519
20
-2.48902
11
3.67
21
-2.4862
0
LINE
8
BLACK
6
CONTINUOUS
10
3.67
20
-2.4862
11
3.66563
21
-2.48222
0
LINE
8
BLACK
6
CONTINUOUS
10
3.66563
20
-2.48222
11
3.66233
21
-2.47731
0
LINE
8
BLACK
6
CONTINUOUS
10
3.66233
20
-2.47731
11
3.6603
21
-2.47176
0
LINE
8
BLACK
6
CONTINUOUS
10
3.6603
20
-2.47176
11
3.65965
21
-2.46588
0
LINE
8
BLACK
6
CONTINUOUS
10
3.65965
20
-2.46588
11
3.66042
21
-2.46002
0
LINE
8
BLACK
6
CONTINUOUS
10
3.66042
20
-2.46002
11
3.66257
21
-2.45451
0
LINE
8
BLACK
6
CONTINUOUS
10
3.66257
20
-2.45451
11
3.66597
21
-2.44968
0
LINE
8
BLACK
6
CONTINUOUS
10
3.66597
20
-2.44968
11
3.67042
21
-2.44579
0
LINE
8
BLACK
6
CONTINUOUS
10
3.67042
20
-2.44579
11
3.67567
21
-2.44308
0
LINE
8
BLACK
6
CONTINUOUS
10
3.67567
20
-2.44308
11
3.67933
21
-2.4422
0
LINE
8
BLACK
6
CONTINUOUS
10
3.67933
20
-2.4422
11
3.67933
21
-2.37497
0
LINE
8
BLACK
6
CONTINUOUS
10
3.67933
20
-2.37497
11
3.67946
21
-2.37411
0
LINE
8
BLACK
6
CONTINUOUS
10
3.67946
20
-2.37411
11
3.67944
21
-2.37392
0
LINE
8
BLACK
6
CONTINUOUS
10
3.67944
20
-2.37392
11
3.6795
21
-2.37383
0
LINE
8
BLACK
6
CONTINUOUS
10
3.6795
20
-2.37383
11
3.67953
21
-2.37358
0
LINE
8
BLACK
6
CONTINUOUS
10
3.67953
20
-2.37358
11
3.68019
21
-2.37256
0
LINE
8
BLACK
6
CONTINUOUS
10
3.68019
20
-2.37256
11
3.68077
21
-2.37149
0
LINE
8
BLACK
6
CONTINUOUS
10
3.68077
20
-2.37149
11
3.71716
21
-2.3351
0
LINE
8
BLACK
6
CONTINUOUS
10
3.71716
20
-2.3351
11
3.71786
21
-2.33458
0
LINE
8
BLACK
6
CONTINUOUS
10
3.71786
20
-2.33458
11
3.71798
21
-2.33444
0
LINE
8
BLACK
6
CONTINUOUS
10
3.71798
20
-2.33444
11
3.71809
21
-2.33441
0
LINE
8
BLACK
6
CONTINUOUS
10
3.71809
20
-2.33441
11
3.71829
21
-2.33426
0
LINE
8
BLACK
6
CONTINUOUS
10
3.71829
20
-2.33426
11
3.71948
21
-2.334
0
LINE
8
BLACK
6
CONTINUOUS
10
3.71948
20
-2.334
11
3.72064
21
-2.33366
0
LINE
8
BLACK
6
CONTINUOUS
10
3.72064
20
-2.33366
11
3.72796
21
-2.33366
0
LINE
8
BLACK
6
CONTINUOUS
10
3.72796
20
-2.33366
11
3.73017
21
-2.32933
0
LINE
8
BLACK
6
CONTINUOUS
10
3.73017
20
-2.32933
11
3.73366
21
-2.32584
0
LINE
8
BLACK
6
CONTINUOUS
10
3.73366
20
-2.32584
11
3.73805
21
-2.32361
0
LINE
8
BLACK
6
CONTINUOUS
10
3.73805
20
-2.32361
11
3.74291
21
-2.32283
0
LINE
8
BLACK
6
CONTINUOUS
10
3.74291
20
-2.32283
11
3.74778
21
-2.32361
0
LINE
8
BLACK
6
CONTINUOUS
10
3.74778
20
-2.32361
11
3.75217
21
-2.32584
0
LINE
8
BLACK
6
CONTINUOUS
10
3.75217
20
-2.32584
11
3.75565
21
-2.32933
0
LINE
8
BLACK
6
CONTINUOUS
10
3.75565
20
-2.32933
11
3.75789
21
-2.33372
0
LINE
8
BLACK
6
CONTINUOUS
10
3.75789
20
-2.33372
11
3.75866
21
-2.33858
0
LINE
8
BLACK
6
CONTINUOUS
10
3.75866
20
-2.33858
11
3.75789
21
-2.34345
0
LINE
8
BLACK
6
CONTINUOUS
10
3.75789
20
-2.34345
11
3.75565
21
-2.34784
0
LINE
8
BLACK
6
CONTINUOUS
10
3.75565
20
-2.34784
11
3.75217
21
-2.35132
0
LINE
8
BLACK
6
CONTINUOUS
10
3.75217
20
-2.35132
11
3.74778
21
-2.35356
0
LINE
8
BLACK
6
CONTINUOUS
10
3.74778
20
-2.35356
11
3.74291
21
-2.35433
0
LINE
8
BLACK
6
CONTINUOUS
10
3.74291
20
-2.35433
11
3.73805
21
-2.35356
0
LINE
8
BLACK
6
CONTINUOUS
10
3.73805
20
-2.35356
11
3.73366
21
-2.35132
0
LINE
8
BLACK
6
CONTINUOUS
10
3.73366
20
-2.35132
11
3.73017
21
-2.34784
0
LINE
8
BLACK
6
CONTINUOUS
10
3.73017
20
-2.34784
11
3.72796
21
-2.3435
0
LINE
8
BLACK
6
CONTINUOUS
10
3.72796
20
-2.3435
11
3.72268
21
-2.3435
0
LINE
8
BLACK
6
CONTINUOUS
10
3.72268
20
-2.3435
11
3.68917
21
-2.37701
0
LINE
8
BLACK
6
CONTINUOUS
10
3.68917
20
-2.37701
11
3.68917
21
-2.44219
0
LINE
8
BLACK
6
CONTINUOUS
10
3.68917
20
-2.44219
11
3.69307
21
-2.44317
0
LINE
8
BLACK
6
CONTINUOUS
10
3.74502
20
-2.36613
11
3.74941
21
-2.36836
0
LINE
8
BLACK
6
CONTINUOUS
10
3.74941
20
-2.36836
11
3.7529
21
-2.37185
0
LINE
8
BLACK
6
CONTINUOUS
10
3.7529
20
-2.37185
11
3.75513
21
-2.37624
0
LINE
8
BLACK
6
CONTINUOUS
10
3.75513
20
-2.37624
11
3.75591
21
-2.3811
0
LINE
8
BLACK
6
CONTINUOUS
10
3.75591
20
-2.3811
11
3.75513
21
-2.38597
0
LINE
8
BLACK
6
CONTINUOUS
10
3.75513
20
-2.38597
11
3.7529
21
-2.39036
0
LINE
8
BLACK
6
CONTINUOUS
10
3.7529
20
-2.39036
11
3.74941
21
-2.39384
0
LINE
8
BLACK
6
CONTINUOUS
10
3.74941
20
-2.39384
11
3.74508
21
-2.39605
0
LINE
8
BLACK
6
CONTINUOUS
10
3.74508
20
-2.39605
11
3.74508
21
-2.44201
0
LINE
8
BLACK
6
CONTINUOUS
10
3.74508
20
-2.44201
11
3.74638
21
-2.4417
0
LINE
8
BLACK
6
CONTINUOUS
10
3.74638
20
-2.4417
11
3.7523
21
-2.44173
0
LINE
8
BLACK
6
CONTINUOUS
10
3.7523
20
-2.44173
11
3.75803
21
-2.44317
0
LINE
8
BLACK
6
CONTINUOUS
10
3.75803
20
-2.44317
11
3.76326
21
-2.44594
0
LINE
8
BLACK
6
CONTINUOUS
10
3.76326
20
-2.44594
11
3.76767
21
-2.44987
0
LINE
8
BLACK
6
CONTINUOUS
10
3.76767
20
-2.44987
11
3.77102
21
-2.45474
0
LINE
8
BLACK
6
CONTINUOUS
10
3.77102
20
-2.45474
11
3.77311
21
-2.46027
0
LINE
8
BLACK
6
CONTINUOUS
10
3.77311
20
-2.46027
11
3.77382
21
-2.46614
0
LINE
8
BLACK
6
CONTINUOUS
10
3.77382
20
-2.46614
11
3.77381
21
-2.46666
0
LINE
8
BLACK
6
CONTINUOUS
10
3.77381
20
-2.46666
11
3.77298
21
-2.47251
0
LINE
8
BLACK
6
CONTINUOUS
10
3.77298
20
-2.47251
11
3.77078
21
-2.478
0
LINE
8
BLACK
6
CONTINUOUS
10
3.77078
20
-2.478
11
3.76733
21
-2.4828
0
LINE
8
BLACK
6
CONTINUOUS
10
3.76733
20
-2.4828
11
3.76283
21
-2.48664
0
LINE
8
BLACK
6
CONTINUOUS
10
3.76283
20
-2.48664
11
3.75755
21
-2.48929
0
LINE
8
BLACK
6
CONTINUOUS
10
3.75755
20
-2.48929
11
3.75178
21
-2.49061
0
LINE
8
BLACK
6
CONTINUOUS
10
3.75178
20
-2.49061
11
3.74587
21
-2.49052
0
LINE
8
BLACK
6
CONTINUOUS
10
3.74587
20
-2.49052
11
3.74015
21
-2.48902
0
LINE
8
BLACK
6
CONTINUOUS
10
3.74015
20
-2.48902
11
3.73496
21
-2.4862
0
LINE
8
BLACK
6
CONTINUOUS
10
3.73496
20
-2.4862
11
3.73059
21
-2.48222
0
LINE
8
BLACK
6
CONTINUOUS
10
3.73059
20
-2.48222
11
3.72729
21
-2.47731
0
LINE
8
BLACK
6
CONTINUOUS
10
3.72729
20
-2.47731
11
3.72526
21
-2.47176
0
LINE
8
BLACK
6
CONTINUOUS
10
3.72526
20
-2.47176
11
3.72461
21
-2.46588
0
LINE
8
BLACK
6
CONTINUOUS
10
3.72461
20
-2.46588
11
3.72538
21
-2.46002
0
LINE
8
BLACK
6
CONTINUOUS
10
3.72538
20
-2.46002
11
3.72753
21
-2.45451
0
LINE
8
BLACK
6
CONTINUOUS
10
3.72753
20
-2.45451
11
3.73093
21
-2.44968
0
LINE
8
BLACK
6
CONTINUOUS
10
3.73093
20
-2.44968
11
3.73524
21
-2.44592
0
LINE
8
BLACK
6
CONTINUOUS
10
3.73524
20
-2.44592
11
3.73524
21
-2.39605
0
LINE
8
BLACK
6
CONTINUOUS
10
3.73524
20
-2.39605
11
3.7309
21
-2.39384
0
LINE
8
BLACK
6
CONTINUOUS
10
3.7309
20
-2.39384
11
3.72742
21
-2.39036
0
LINE
8
BLACK
6
CONTINUOUS
10
3.72742
20
-2.39036
11
3.72518
21
-2.38597
0
LINE
8
BLACK
6
CONTINUOUS
10
3.72518
20
-2.38597
11
3.72441
21
-2.3811
0
LINE
8
BLACK
6
CONTINUOUS
10
3.72441
20
-2.3811
11
3.72518
21
-2.37624
0
LINE
8
BLACK
6
CONTINUOUS
10
3.72518
20
-2.37624
11
3.72742
21
-2.37185
0
LINE
8
BLACK
6
CONTINUOUS
10
3.72742
20
-2.37185
11
3.7309
21
-2.36836
0
LINE
8
BLACK
6
CONTINUOUS
10
3.7309
20
-2.36836
11
3.73529
21
-2.36613
0
LINE
8
BLACK
6
CONTINUOUS
10
3.73529
20
-2.36613
11
3.74016
21
-2.36535
0
LINE
8
BLACK
6
CONTINUOUS
10
3.74016
20
-2.36535
11
3.74502
21
-2.36613
0
LINE
8
BLACK
6
CONTINUOUS
10
3.88558
20
-2.36573
11
3.88997
21
-2.36797
0
LINE
8
BLACK
6
CONTINUOUS
10
3.88997
20
-2.36797
11
3.89345
21
-2.37145
0
LINE
8
BLACK
6
CONTINUOUS
10
3.89345
20
-2.37145
11
3.89569
21
-2.37584
0
LINE
8
BLACK
6
CONTINUOUS
10
3.89569
20
-2.37584
11
3.89646
21
-2.38071
0
LINE
8
BLACK
6
CONTINUOUS
10
3.89646
20
-2.38071
11
3.89569
21
-2.38558
0
LINE
8
BLACK
6
CONTINUOUS
10
3.89569
20
-2.38558
11
3.89345
21
-2.38997
0
LINE
8
BLACK
6
CONTINUOUS
10
3.89345
20
-2.38997
11
3.88997
21
-2.39345
0
LINE
8
BLACK
6
CONTINUOUS
10
3.88997
20
-2.39345
11
3.88563
21
-2.39566
0
LINE
8
BLACK
6
CONTINUOUS
10
3.88563
20
-2.39566
11
3.88563
21
-2.44259
0
LINE
8
BLACK
6
CONTINUOUS
10
3.88563
20
-2.44259
11
3.88795
21
-2.44317
0
LINE
8
BLACK
6
CONTINUOUS
10
3.88795
20
-2.44317
11
3.89318
21
-2.44594
0
LINE
8
BLACK
6
CONTINUOUS
10
3.89318
20
-2.44594
11
3.89759
21
-2.44987
0
LINE
8
BLACK
6
CONTINUOUS
10
3.89759
20
-2.44987
11
3.90094
21
-2.45474
0
LINE
8
BLACK
6
CONTINUOUS
10
3.90094
20
-2.45474
11
3.90303
21
-2.46027
0
LINE
8
BLACK
6
CONTINUOUS
10
3.90303
20
-2.46027
11
3.90374
21
-2.46614
0
LINE
8
BLACK
6
CONTINUOUS
10
3.90374
20
-2.46614
11
3.90373
21
-2.46666
0
LINE
8
BLACK
6
CONTINUOUS
10
3.90373
20
-2.46666
11
3.9029
21
-2.47251
0
LINE
8
BLACK
6
CONTINUOUS
10
3.9029
20
-2.47251
11
3.9007
21
-2.478
0
LINE
8
BLACK
6
CONTINUOUS
10
3.9007
20
-2.478
11
3.89725
21
-2.4828
0
LINE
8
BLACK
6
CONTINUOUS
10
3.89725
20
-2.4828
11
3.89275
21
-2.48664
0
LINE
8
BLACK
6
CONTINUOUS
10
3.89275
20
-2.48664
11
3.88747
21
-2.48929
0
LINE
8
BLACK
6
CONTINUOUS
10
3.88747
20
-2.48929
11
3.88171
21
-2.49061
0
LINE
8
BLACK
6
CONTINUOUS
10
3.88171
20
-2.49061
11
3.87579
21
-2.49052
0
LINE
8
BLACK
6
CONTINUOUS
10
3.87579
20
-2.49052
11
3.87008
21
-2.48902
0
LINE
8
BLACK
6
CONTINUOUS
10
3.87008
20
-2.48902
11
3.86488
21
-2.4862
0
LINE
8
BLACK
6
CONTINUOUS
10
3.86488
20
-2.4862
11
3.86051
21
-2.48222
0
LINE
8
BLACK
6
CONTINUOUS
10
3.86051
20
-2.48222
11
3.85721
21
-2.47731
0
LINE
8
BLACK
6
CONTINUOUS
10
3.85721
20
-2.47731
11
3.85518
21
-2.47176
0
LINE
8
BLACK
6
CONTINUOUS
10
3.85518
20
-2.47176
11
3.85453
21
-2.46588
0
LINE
8
BLACK
6
CONTINUOUS
10
3.85453
20
-2.46588
11
3.8553
21
-2.46002
0
LINE
8
BLACK
6
CONTINUOUS
10
3.8553
20
-2.46002
11
3.85745
21
-2.45451
0
LINE
8
BLACK
6
CONTINUOUS
10
3.85745
20
-2.45451
11
3.86085
21
-2.44968
0
LINE
8
BLACK
6
CONTINUOUS
10
3.86085
20
-2.44968
11
3.8653
21
-2.44579
0
LINE
8
BLACK
6
CONTINUOUS
10
3.8653
20
-2.44579
11
3.87056
21
-2.44308
0
LINE
8
BLACK
6
CONTINUOUS
10
3.87056
20
-2.44308
11
3.87579
21
-2.44182
0
LINE
8
BLACK
6
CONTINUOUS
10
3.87579
20
-2.44182
11
3.87579
21
-2.39566
0
LINE
8
BLACK
6
CONTINUOUS
10
3.87579
20
-2.39566
11
3.87145
21
-2.39345
0
LINE
8
BLACK
6
CONTINUOUS
10
3.87145
20
-2.39345
11
3.86797
21
-2.38997
0
LINE
8
BLACK
6
CONTINUOUS
10
3.86797
20
-2.38997
11
3.86573
21
-2.38558
0
LINE
8
BLACK
6
CONTINUOUS
10
3.86573
20
-2.38558
11
3.86496
21
-2.38071
0
LINE
8
BLACK
6
CONTINUOUS
10
3.86496
20
-2.38071
11
3.86573
21
-2.37584
0
LINE
8
BLACK
6
CONTINUOUS
10
3.86573
20
-2.37584
11
3.86797
21
-2.37145
0
LINE
8
BLACK
6
CONTINUOUS
10
3.86797
20
-2.37145
11
3.87145
21
-2.36797
0
LINE
8
BLACK
6
CONTINUOUS
10
3.87145
20
-2.36797
11
3.87584
21
-2.36573
0
LINE
8
BLACK
6
CONTINUOUS
10
3.87584
20
-2.36573
11
3.88071
21
-2.36496
0
LINE
8
BLACK
6
CONTINUOUS
10
3.88071
20
-2.36496
11
3.88558
21
-2.36573
0
LINE
8
BLACK
6
CONTINUOUS
10
3.82299
20
-2.44278
11
3.82822
21
-2.44554
0
LINE
8
BLACK
6
CONTINUOUS
10
3.82822
20
-2.44554
11
3.83263
21
-2.44948
0
LINE
8
BLACK
6
CONTINUOUS
10
3.83263
20
-2.44948
11
3.83598
21
-2.45435
0
LINE
8
BLACK
6
CONTINUOUS
10
3.83598
20
-2.45435
11
3.83807
21
-2.45988
0
LINE
8
BLACK
6
CONTINUOUS
10
3.83807
20
-2.45988
11
3.83878
21
-2.46575
0
LINE
8
BLACK
6
CONTINUOUS
10
3.83878
20
-2.46575
11
3.83877
21
-2.46626
0
LINE
8
BLACK
6
CONTINUOUS
10
3.83877
20
-2.46626
11
3.83794
21
-2.47212
0
LINE
8
BLACK
6
CONTINUOUS
10
3.83794
20
-2.47212
11
3.83574
21
-2.4776
0
LINE
8
BLACK
6
CONTINUOUS
10
3.83574
20
-2.4776
11
3.83229
21
-2.4824
0
LINE
8
BLACK
6
CONTINUOUS
10
3.83229
20
-2.4824
11
3.82779
21
-2.48624
0
LINE
8
BLACK
6
CONTINUOUS
10
3.82779
20
-2.48624
11
3.82251
21
-2.4889
0
LINE
8
BLACK
6
CONTINUOUS
10
3.82251
20
-2.4889
11
3.81675
21
-2.49022
0
LINE
8
BLACK
6
CONTINUOUS
10
3.81675
20
-2.49022
11
3.81083
21
-2.49013
0
LINE
8
BLACK
6
CONTINUOUS
10
3.81083
20
-2.49013
11
3.80512
21
-2.48863
0
LINE
8
BLACK
6
CONTINUOUS
10
3.80512
20
-2.48863
11
3.79992
21
-2.48581
0
LINE
8
BLACK
6
CONTINUOUS
10
3.79992
20
-2.48581
11
3.79555
21
-2.48183
0
LINE
8
BLACK
6
CONTINUOUS
10
3.79555
20
-2.48183
11
3.79225
21
-2.47692
0
LINE
8
BLACK
6
CONTINUOUS
10
3.79225
20
-2.47692
11
3.79022
21
-2.47137
0
LINE
8
BLACK
6
CONTINUOUS
10
3.79022
20
-2.47137
11
3.78957
21
-2.46549
0
LINE
8
BLACK
6
CONTINUOUS
10
3.78957
20
-2.46549
11
3.79034
21
-2.45963
0
LINE
8
BLACK
6
CONTINUOUS
10
3.79034
20
-2.45963
11
3.79249
21
-2.45412
0
LINE
8
BLACK
6
CONTINUOUS
10
3.79249
20
-2.45412
11
3.79589
21
-2.44928
0
LINE
8
BLACK
6
CONTINUOUS
10
3.79589
20
-2.44928
11
3.80034
21
-2.4454
0
LINE
8
BLACK
6
CONTINUOUS
10
3.80034
20
-2.4454
11
3.8056
21
-2.44268
0
LINE
8
BLACK
6
CONTINUOUS
10
3.8056
20
-2.44268
11
3.80925
21
-2.44181
0
LINE
8
BLACK
6
CONTINUOUS
10
3.80925
20
-2.44181
11
3.80925
21
-2.37891
0
LINE
8
BLACK
6
CONTINUOUS
10
3.80925
20
-2.37891
11
3.80938
21
-2.37804
0
LINE
8
BLACK
6
CONTINUOUS
10
3.80938
20
-2.37804
11
3.80936
21
-2.37786
0
LINE
8
BLACK
6
CONTINUOUS
10
3.80936
20
-2.37786
11
3.80942
21
-2.37776
0
LINE
8
BLACK
6
CONTINUOUS
10
3.80942
20
-2.37776
11
3.80945
21
-2.37751
0
LINE
8
BLACK
6
CONTINUOUS
10
3.80945
20
-2.37751
11
3.81011
21
-2.37649
0
LINE
8
BLACK
6
CONTINUOUS
10
3.81011
20
-2.37649
11
3.81069
21
-2.37543
0
LINE
8
BLACK
6
CONTINUOUS
10
3.81069
20
-2.37543
11
3.85378
21
-2.33235
0
LINE
8
BLACK
6
CONTINUOUS
10
3.85378
20
-2.33235
11
3.85448
21
-2.33182
0
LINE
8
BLACK
6
CONTINUOUS
10
3.85448
20
-2.33182
11
3.8546
21
-2.33169
0
LINE
8
BLACK
6
CONTINUOUS
10
3.8546
20
-2.33169
11
3.8547
21
-2.33165
0
LINE
8
BLACK
6
CONTINUOUS
10
3.8547
20
-2.33165
11
3.85491
21
-2.3315
0
LINE
8
BLACK
6
CONTINUOUS
10
3.85491
20
-2.3315
11
3.85609
21
-2.33125
0
LINE
8
BLACK
6
CONTINUOUS
10
3.85609
20
-2.33125
11
3.85726
21
-2.33091
0
LINE
8
BLACK
6
CONTINUOUS
10
3.85726
20
-2.33091
11
3.86458
21
-2.33091
0
LINE
8
BLACK
6
CONTINUOUS
10
3.86458
20
-2.33091
11
3.86679
21
-2.32657
0
LINE
8
BLACK
6
CONTINUOUS
10
3.86679
20
-2.32657
11
3.87027
21
-2.32309
0
LINE
8
BLACK
6
CONTINUOUS
10
3.87027
20
-2.32309
11
3.87466
21
-2.32085
0
LINE
8
BLACK
6
CONTINUOUS
10
3.87466
20
-2.32085
11
3.87953
21
-2.32008
0
LINE
8
BLACK
6
CONTINUOUS
10
3.87953
20
-2.32008
11
3.88439
21
-2.32085
0
LINE
8
BLACK
6
CONTINUOUS
10
3.88439
20
-2.32085
11
3.88878
21
-2.32309
0
LINE
8
BLACK
6
CONTINUOUS
10
3.88878
20
-2.32309
11
3.89227
21
-2.32657
0
LINE
8
BLACK
6
CONTINUOUS
10
3.89227
20
-2.32657
11
3.8945
21
-2.33096
0
LINE
8
BLACK
6
CONTINUOUS
10
3.8945
20
-2.33096
11
3.89528
21
-2.33583
0
LINE
8
BLACK
6
CONTINUOUS
10
3.89528
20
-2.33583
11
3.8945
21
-2.34069
0
LINE
8
BLACK
6
CONTINUOUS
10
3.8945
20
-2.34069
11
3.89227
21
-2.34508
0
LINE
8
BLACK
6
CONTINUOUS
10
3.89227
20
-2.34508
11
3.88878
21
-2.34857
0
LINE
8
BLACK
6
CONTINUOUS
10
3.88878
20
-2.34857
11
3.88439
21
-2.3508
0
LINE
8
BLACK
6
CONTINUOUS
10
3.88439
20
-2.3508
11
3.87953
21
-2.35157
0
LINE
8
BLACK
6
CONTINUOUS
10
3.87953
20
-2.35157
11
3.87466
21
-2.3508
0
LINE
8
BLACK
6
CONTINUOUS
10
3.87466
20
-2.3508
11
3.87027
21
-2.34857
0
LINE
8
BLACK
6
CONTINUOUS
10
3.87027
20
-2.34857
11
3.86679
21
-2.34508
0
LINE
8
BLACK
6
CONTINUOUS
10
3.86679
20
-2.34508
11
3.86458
21
-2.34075
0
LINE
8
BLACK
6
CONTINUOUS
10
3.86458
20
-2.34075
11
3.85929
21
-2.34075
0
LINE
8
BLACK
6
CONTINUOUS
10
3.85929
20
-2.34075
11
3.81909
21
-2.38095
0
LINE
8
BLACK
6
CONTINUOUS
10
3.81909
20
-2.38095
11
3.81909
21
-2.4418
0
LINE
8
BLACK
6
CONTINUOUS
10
3.81909
20
-2.4418
11
3.82299
21
-2.44278
0
CIRCLE
8
BLACK
10
3.87953
20
-2.33583
40
0.00787402
0
CIRCLE
8
BLACK
10
3.74291
20
-2.33858
40
0.00787402
0
CIRCLE
8
BLACK
10
3.74016
20
-2.3811
40
0.00787402
0
CIRCLE
8
BLACK
10
3.88071
20
-2.38071
40
0.00787402
  0
ENDSEC
  0
EOF
