  0
SECTION
  2
HEADER
  9
$ANGBASE
  50
0.0
  9
$ANGDIR
  70
1
  9
$MEASUREMENT
  70
0
  0
ENDSEC
  0
SECTION
  2
TABLES
  0
TABLE
  2
LTYPE
  70
4
  0
LTYPE
  5
40F
  2
CONTINUOUS
  70
0
  3
Solid line
  72
65
  73
0
  40
0.0
  0
LTYPE
  5
410
  2
DASHDOT
 70
0
  3
Dash Dot ____ _ ____ _
 72
65
 73
4
 40
2.0
 49
1.25
 49
-0.25
 49
0.25
 49
-0.25
  0
LTYPE
  5
411
  2
DASHED
 70
0
  3
Dashed __ __ __ __ __
 72
65
 73
2
 40
0.75
 49
0.5
 49
-0.25
  0
LTYPE
  5
43B
  2
DOTTED
 70
0
  3
Dotted .  .  .  .
 72
65
 73
2
 40
0.2
 49
0.0
 49
-0.2
  0
ENDTAB
  0
TABLE
  2
STYLE
  70
4
  0
STYLE
  2
KICAD
  70
0
  40
0
  41
1
  42
1
  50
0
  71
0
  3
isocp.shx
  0
STYLE
  2
KICADB
  70
0
  40
0
  41
1
  42
1
  50
0
  71
0
  3
isocp.shx
  0
STYLE
  2
KICADI
  70
0
  40
0
  41
1
  42
1
  50
15
  71
0
  3
isocp.shx
  0
STYLE
  2
KICADBI
  70
0
  40
0
  41
1
  42
1
  50
15
  71
0
  3
isocp.shx
  0
ENDTAB
  0
TABLE
  2
LAYER
  70
1
  0
LAYER
  2
BLACK
  70
0
  62
7
  6
CONTINUOUS
  0
ENDTAB
  0
ENDSEC
  0
SECTION
  2
ENTITIES
0
LINE
8
BLACK
6
CONTINUOUS
10
3.74054
20
-2.40903
11
3.74111
21
-2.40907
0
LINE
8
BLACK
6
CONTINUOUS
10
3.74111
20
-2.40907
11
3.74298
21
-2.41
0
LINE
8
BLACK
6
CONTINUOUS
10
3.74298
20
-2.41
11
3.74325
21
-2.41031
0
LINE
8
BLACK
6
CONTINUOUS
10
3.74325
20
-2.41031
11
3.74362
21
-2.41046
0
LINE
8
BLACK
6
CONTINUOUS
10
3.74362
20
-2.41046
11
3.74456
21
-2.4114
0
LINE
8
BLACK
6
CONTINUOUS
10
3.74456
20
-2.4114
11
3.74471
21
-2.41178
0
LINE
8
BLACK
6
CONTINUOUS
10
3.74471
20
-2.41178
11
3.74502
21
-2.41204
0
LINE
8
BLACK
6
CONTINUOUS
10
3.74502
20
-2.41204
11
3.74596
21
-2.41392
0
LINE
8
BLACK
6
CONTINUOUS
10
3.74596
20
-2.41392
11
3.746
21
-2.41449
0
LINE
8
BLACK
6
CONTINUOUS
10
3.746
20
-2.41449
11
3.74622
21
-2.41502
0
LINE
8
BLACK
6
CONTINUOUS
10
3.74622
20
-2.41502
11
3.74622
21
-2.41689
0
LINE
8
BLACK
6
CONTINUOUS
10
3.74622
20
-2.41689
11
3.746
21
-2.41742
0
LINE
8
BLACK
6
CONTINUOUS
10
3.746
20
-2.41742
11
3.74596
21
-2.41799
0
LINE
8
BLACK
6
CONTINUOUS
10
3.74596
20
-2.41799
11
3.74502
21
-2.41987
0
LINE
8
BLACK
6
CONTINUOUS
10
3.74502
20
-2.41987
11
3.74479
21
-2.42007
0
LINE
8
BLACK
6
CONTINUOUS
10
3.74479
20
-2.42007
11
3.7455
21
-2.42078
0
LINE
8
BLACK
6
CONTINUOUS
10
3.7455
20
-2.42078
11
3.74565
21
-2.42115
0
LINE
8
BLACK
6
CONTINUOUS
10
3.74565
20
-2.42115
11
3.74596
21
-2.42142
0
LINE
8
BLACK
6
CONTINUOUS
10
3.74596
20
-2.42142
11
3.7469
21
-2.42329
0
LINE
8
BLACK
6
CONTINUOUS
10
3.7469
20
-2.42329
11
3.74694
21
-2.42386
0
LINE
8
BLACK
6
CONTINUOUS
10
3.74694
20
-2.42386
11
3.74716
21
-2.42439
0
LINE
8
BLACK
6
CONTINUOUS
10
3.74716
20
-2.42439
11
3.74716
21
-2.4272
0
LINE
8
BLACK
6
CONTINUOUS
10
3.74716
20
-2.4272
11
3.74694
21
-2.42773
0
LINE
8
BLACK
6
CONTINUOUS
10
3.74694
20
-2.42773
11
3.7469
21
-2.4283
0
LINE
8
BLACK
6
CONTINUOUS
10
3.7469
20
-2.4283
11
3.74596
21
-2.43018
0
LINE
8
BLACK
6
CONTINUOUS
10
3.74596
20
-2.43018
11
3.74565
21
-2.43044
0
LINE
8
BLACK
6
CONTINUOUS
10
3.74565
20
-2.43044
11
3.7455
21
-2.43082
0
LINE
8
BLACK
6
CONTINUOUS
10
3.7455
20
-2.43082
11
3.74456
21
-2.43175
0
LINE
8
BLACK
6
CONTINUOUS
10
3.74456
20
-2.43175
11
3.74419
21
-2.43191
0
LINE
8
BLACK
6
CONTINUOUS
10
3.74419
20
-2.43191
11
3.74392
21
-2.43222
0
LINE
8
BLACK
6
CONTINUOUS
10
3.74392
20
-2.43222
11
3.74205
21
-2.43315
0
LINE
8
BLACK
6
CONTINUOUS
10
3.74205
20
-2.43315
11
3.74147
21
-2.43319
0
LINE
8
BLACK
6
CONTINUOUS
10
3.74147
20
-2.43319
11
3.74094
21
-2.43341
0
LINE
8
BLACK
6
CONTINUOUS
10
3.74094
20
-2.43341
11
3.73345
21
-2.43341
0
LINE
8
BLACK
6
CONTINUOUS
10
3.73345
20
-2.43341
11
3.73171
21
-2.43269
0
LINE
8
BLACK
6
CONTINUOUS
10
3.73171
20
-2.43269
11
3.73099
21
-2.43095
0
LINE
8
BLACK
6
CONTINUOUS
10
3.73099
20
-2.43095
11
3.73099
21
-2.41127
0
LINE
8
BLACK
6
CONTINUOUS
10
3.73099
20
-2.41127
11
3.73171
21
-2.40953
0
LINE
8
BLACK
6
CONTINUOUS
10
3.73171
20
-2.40953
11
3.73345
21
-2.40881
0
LINE
8
BLACK
6
CONTINUOUS
10
3.73345
20
-2.40881
11
3.74001
21
-2.40881
0
LINE
8
BLACK
6
CONTINUOUS
10
3.74001
20
-2.40881
11
3.74054
21
-2.40903
0
LINE
8
BLACK
6
CONTINUOUS
10
3.73591
20
-2.4231
11
3.73591
21
-2.42849
0
LINE
8
BLACK
6
CONTINUOUS
10
3.73591
20
-2.42849
11
3.74036
21
-2.42849
0
LINE
8
BLACK
6
CONTINUOUS
10
3.74036
20
-2.42849
11
3.74136
21
-2.42799
0
LINE
8
BLACK
6
CONTINUOUS
10
3.74136
20
-2.42799
11
3.74173
21
-2.42762
0
LINE
8
BLACK
6
CONTINUOUS
10
3.74173
20
-2.42762
11
3.74223
21
-2.42662
0
LINE
8
BLACK
6
CONTINUOUS
10
3.74223
20
-2.42662
11
3.74223
21
-2.42497
0
LINE
8
BLACK
6
CONTINUOUS
10
3.74223
20
-2.42497
11
3.74173
21
-2.42397
0
LINE
8
BLACK
6
CONTINUOUS
10
3.74173
20
-2.42397
11
3.74149
21
-2.42373
0
LINE
8
BLACK
6
CONTINUOUS
10
3.74149
20
-2.42373
11
3.73961
21
-2.4231
0
LINE
8
BLACK
6
CONTINUOUS
10
3.73961
20
-2.4231
11
3.73591
21
-2.4231
0
LINE
8
BLACK
6
CONTINUOUS
10
3.73591
20
-2.41373
11
3.73591
21
-2.41818
0
LINE
8
BLACK
6
CONTINUOUS
10
3.73591
20
-2.41818
11
3.73943
21
-2.41818
0
LINE
8
BLACK
6
CONTINUOUS
10
3.73943
20
-2.41818
11
3.74042
21
-2.41768
0
LINE
8
BLACK
6
CONTINUOUS
10
3.74042
20
-2.41768
11
3.7408
21
-2.41731
0
LINE
8
BLACK
6
CONTINUOUS
10
3.7408
20
-2.41731
11
3.7413
21
-2.41631
0
LINE
8
BLACK
6
CONTINUOUS
10
3.7413
20
-2.41631
11
3.7413
21
-2.4156
0
LINE
8
BLACK
6
CONTINUOUS
10
3.7413
20
-2.4156
11
3.7408
21
-2.4146
0
LINE
8
BLACK
6
CONTINUOUS
10
3.7408
20
-2.4146
11
3.74042
21
-2.41423
0
LINE
8
BLACK
6
CONTINUOUS
10
3.74042
20
-2.41423
11
3.73943
21
-2.41373
0
LINE
8
BLACK
6
CONTINUOUS
10
3.73943
20
-2.41373
11
3.73591
21
-2.41373
0
LINE
8
BLACK
6
CONTINUOUS
10
3.68141
20
-2.42252
11
3.68141
21
-2.42908
0
LINE
8
BLACK
6
CONTINUOUS
10
3.68141
20
-2.42908
11
3.68134
21
-2.42924
0
LINE
8
BLACK
6
CONTINUOUS
10
3.68134
20
-2.42924
11
3.68069
21
-2.43082
0
LINE
8
BLACK
6
CONTINUOUS
10
3.68069
20
-2.43082
11
3.68069
21
-2.43082
0
LINE
8
BLACK
6
CONTINUOUS
10
3.68069
20
-2.43082
11
3.68069
21
-2.43082
0
LINE
8
BLACK
6
CONTINUOUS
10
3.68069
20
-2.43082
11
3.67975
21
-2.43175
0
LINE
8
BLACK
6
CONTINUOUS
10
3.67975
20
-2.43175
11
3.67922
21
-2.43197
0
LINE
8
BLACK
6
CONTINUOUS
10
3.67922
20
-2.43197
11
3.67879
21
-2.43235
0
LINE
8
BLACK
6
CONTINUOUS
10
3.67879
20
-2.43235
11
3.67597
21
-2.43329
0
LINE
8
BLACK
6
CONTINUOUS
10
3.67597
20
-2.43329
11
3.67557
21
-2.43326
0
LINE
8
BLACK
6
CONTINUOUS
10
3.67557
20
-2.43326
11
3.6752
21
-2.43341
0
LINE
8
BLACK
6
CONTINUOUS
10
3.6752
20
-2.43341
11
3.67332
21
-2.43341
0
LINE
8
BLACK
6
CONTINUOUS
10
3.67332
20
-2.43341
11
3.67295
21
-2.43326
0
LINE
8
BLACK
6
CONTINUOUS
10
3.67295
20
-2.43326
11
3.67254
21
-2.43329
0
LINE
8
BLACK
6
CONTINUOUS
10
3.67254
20
-2.43329
11
3.66973
21
-2.43235
0
LINE
8
BLACK
6
CONTINUOUS
10
3.66973
20
-2.43235
11
3.6693
21
-2.43197
0
LINE
8
BLACK
6
CONTINUOUS
10
3.6693
20
-2.43197
11
3.66877
21
-2.43175
0
LINE
8
BLACK
6
CONTINUOUS
10
3.66877
20
-2.43175
11
3.6669
21
-2.42988
0
LINE
8
BLACK
6
CONTINUOUS
10
3.6669
20
-2.42988
11
3.66674
21
-2.42951
0
LINE
8
BLACK
6
CONTINUOUS
10
3.66674
20
-2.42951
11
3.66643
21
-2.42924
0
LINE
8
BLACK
6
CONTINUOUS
10
3.66643
20
-2.42924
11
3.6655
21
-2.42737
0
LINE
8
BLACK
6
CONTINUOUS
10
3.6655
20
-2.42737
11
3.66548
21
-2.42709
0
LINE
8
BLACK
6
CONTINUOUS
10
3.66548
20
-2.42709
11
3.66531
21
-2.42686
0
LINE
8
BLACK
6
CONTINUOUS
10
3.66531
20
-2.42686
11
3.66437
21
-2.42311
0
LINE
8
BLACK
6
CONTINUOUS
10
3.66437
20
-2.42311
11
3.66442
21
-2.4228
0
LINE
8
BLACK
6
CONTINUOUS
10
3.66442
20
-2.4228
11
3.6643
21
-2.42252
0
LINE
8
BLACK
6
CONTINUOUS
10
3.6643
20
-2.42252
11
3.6643
21
-2.4197
0
LINE
8
BLACK
6
CONTINUOUS
10
3.6643
20
-2.4197
11
3.66442
21
-2.41942
0
LINE
8
BLACK
6
CONTINUOUS
10
3.66442
20
-2.41942
11
3.66437
21
-2.41911
0
LINE
8
BLACK
6
CONTINUOUS
10
3.66437
20
-2.41911
11
3.66531
21
-2.41536
0
LINE
8
BLACK
6
CONTINUOUS
10
3.66531
20
-2.41536
11
3.66548
21
-2.41513
0
LINE
8
BLACK
6
CONTINUOUS
10
3.66548
20
-2.41513
11
3.6655
21
-2.41485
0
LINE
8
BLACK
6
CONTINUOUS
10
3.6655
20
-2.41485
11
3.66643
21
-2.41298
0
LINE
8
BLACK
6
CONTINUOUS
10
3.66643
20
-2.41298
11
3.66674
21
-2.41271
0
LINE
8
BLACK
6
CONTINUOUS
10
3.66674
20
-2.41271
11
3.6669
21
-2.41234
0
LINE
8
BLACK
6
CONTINUOUS
10
3.6669
20
-2.41234
11
3.66877
21
-2.41046
0
LINE
8
BLACK
6
CONTINUOUS
10
3.66877
20
-2.41046
11
3.6693
21
-2.41025
0
LINE
8
BLACK
6
CONTINUOUS
10
3.6693
20
-2.41025
11
3.66973
21
-2.40987
0
LINE
8
BLACK
6
CONTINUOUS
10
3.66973
20
-2.40987
11
3.67254
21
-2.40893
0
LINE
8
BLACK
6
CONTINUOUS
10
3.67254
20
-2.40893
11
3.67295
21
-2.40896
0
LINE
8
BLACK
6
CONTINUOUS
10
3.67295
20
-2.40896
11
3.67332
21
-2.40881
0
LINE
8
BLACK
6
CONTINUOUS
10
3.67332
20
-2.40881
11
3.67613
21
-2.40881
0
LINE
8
BLACK
6
CONTINUOUS
10
3.67613
20
-2.40881
11
3.67666
21
-2.40903
0
LINE
8
BLACK
6
CONTINUOUS
10
3.67666
20
-2.40903
11
3.67723
21
-2.40907
0
LINE
8
BLACK
6
CONTINUOUS
10
3.67723
20
-2.40907
11
3.67911
21
-2.41
0
LINE
8
BLACK
6
CONTINUOUS
10
3.67911
20
-2.41
11
3.68034
21
-2.41143
0
LINE
8
BLACK
6
CONTINUOUS
10
3.68034
20
-2.41143
11
3.68021
21
-2.41331
0
LINE
8
BLACK
6
CONTINUOUS
10
3.68021
20
-2.41331
11
3.67879
21
-2.41454
0
LINE
8
BLACK
6
CONTINUOUS
10
3.67879
20
-2.41454
11
3.67691
21
-2.41441
0
LINE
8
BLACK
6
CONTINUOUS
10
3.67691
20
-2.41441
11
3.67555
21
-2.41373
0
LINE
8
BLACK
6
CONTINUOUS
10
3.67555
20
-2.41373
11
3.67372
21
-2.41373
0
LINE
8
BLACK
6
CONTINUOUS
10
3.67372
20
-2.41373
11
3.67184
21
-2.41436
0
LINE
8
BLACK
6
CONTINUOUS
10
3.67184
20
-2.41436
11
3.67066
21
-2.41554
0
LINE
8
BLACK
6
CONTINUOUS
10
3.67066
20
-2.41554
11
3.67002
21
-2.41681
0
LINE
8
BLACK
6
CONTINUOUS
10
3.67002
20
-2.41681
11
3.66922
21
-2.42001
0
LINE
8
BLACK
6
CONTINUOUS
10
3.66922
20
-2.42001
11
3.66922
21
-2.42221
0
LINE
8
BLACK
6
CONTINUOUS
10
3.66922
20
-2.42221
11
3.67002
21
-2.42541
0
LINE
8
BLACK
6
CONTINUOUS
10
3.67002
20
-2.42541
11
3.67066
21
-2.42668
0
LINE
8
BLACK
6
CONTINUOUS
10
3.67066
20
-2.42668
11
3.67184
21
-2.42786
0
LINE
8
BLACK
6
CONTINUOUS
10
3.67184
20
-2.42786
11
3.67372
21
-2.42849
0
LINE
8
BLACK
6
CONTINUOUS
10
3.67372
20
-2.42849
11
3.6748
21
-2.42849
0
LINE
8
BLACK
6
CONTINUOUS
10
3.6748
20
-2.42849
11
3.67649
21
-2.42793
0
LINE
8
BLACK
6
CONTINUOUS
10
3.67649
20
-2.42793
11
3.67649
21
-2.42498
0
LINE
8
BLACK
6
CONTINUOUS
10
3.67649
20
-2.42498
11
3.6752
21
-2.42498
0
LINE
8
BLACK
6
CONTINUOUS
10
3.6752
20
-2.42498
11
3.67346
21
-2.42426
0
LINE
8
BLACK
6
CONTINUOUS
10
3.67346
20
-2.42426
11
3.67274
21
-2.42252
0
LINE
8
BLACK
6
CONTINUOUS
10
3.67274
20
-2.42252
11
3.67346
21
-2.42078
0
LINE
8
BLACK
6
CONTINUOUS
10
3.67346
20
-2.42078
11
3.6752
21
-2.42006
0
LINE
8
BLACK
6
CONTINUOUS
10
3.6752
20
-2.42006
11
3.67895
21
-2.42006
0
LINE
8
BLACK
6
CONTINUOUS
10
3.67895
20
-2.42006
11
3.68069
21
-2.42078
0
LINE
8
BLACK
6
CONTINUOUS
10
3.68069
20
-2.42078
11
3.68141
21
-2.42252
0
LINE
8
BLACK
6
CONTINUOUS
10
3.8897
20
-2.41421
11
3.89042
21
-2.41595
0
LINE
8
BLACK
6
CONTINUOUS
10
3.89042
20
-2.41595
11
3.89042
21
-2.42099
0
LINE
8
BLACK
6
CONTINUOUS
10
3.89042
20
-2.42099
11
3.89546
21
-2.42099
0
LINE
8
BLACK
6
CONTINUOUS
10
3.89546
20
-2.42099
11
3.8972
21
-2.42171
0
LINE
8
BLACK
6
CONTINUOUS
10
3.8972
20
-2.42171
11
3.89792
21
-2.42345
0
LINE
8
BLACK
6
CONTINUOUS
10
3.89792
20
-2.42345
11
3.8972
21
-2.42519
0
LINE
8
BLACK
6
CONTINUOUS
10
3.8972
20
-2.42519
11
3.89546
21
-2.42591
0
LINE
8
BLACK
6
CONTINUOUS
10
3.89546
20
-2.42591
11
3.89042
21
-2.42591
0
LINE
8
BLACK
6
CONTINUOUS
10
3.89042
20
-2.42591
11
3.89042
21
-2.43095
0
LINE
8
BLACK
6
CONTINUOUS
10
3.89042
20
-2.43095
11
3.8897
21
-2.43269
0
LINE
8
BLACK
6
CONTINUOUS
10
3.8897
20
-2.43269
11
3.88796
21
-2.43341
0
LINE
8
BLACK
6
CONTINUOUS
10
3.88796
20
-2.43341
11
3.88622
21
-2.43269
0
LINE
8
BLACK
6
CONTINUOUS
10
3.88622
20
-2.43269
11
3.8855
21
-2.43095
0
LINE
8
BLACK
6
CONTINUOUS
10
3.8855
20
-2.43095
11
3.8855
21
-2.42591
0
LINE
8
BLACK
6
CONTINUOUS
10
3.8855
20
-2.42591
11
3.88046
21
-2.42591
0
LINE
8
BLACK
6
CONTINUOUS
10
3.88046
20
-2.42591
11
3.87872
21
-2.42519
0
LINE
8
BLACK
6
CONTINUOUS
10
3.87872
20
-2.42519
11
3.878
21
-2.42345
0
LINE
8
BLACK
6
CONTINUOUS
10
3.878
20
-2.42345
11
3.87872
21
-2.42171
0
LINE
8
BLACK
6
CONTINUOUS
10
3.87872
20
-2.42171
11
3.88046
21
-2.42099
0
LINE
8
BLACK
6
CONTINUOUS
10
3.88046
20
-2.42099
11
3.8855
21
-2.42099
0
LINE
8
BLACK
6
CONTINUOUS
10
3.8855
20
-2.42099
11
3.8855
21
-2.41595
0
LINE
8
BLACK
6
CONTINUOUS
10
3.8855
20
-2.41595
11
3.88622
21
-2.41421
0
LINE
8
BLACK
6
CONTINUOUS
10
3.88622
20
-2.41421
11
3.88796
21
-2.41349
0
LINE
8
BLACK
6
CONTINUOUS
10
3.88796
20
-2.41349
11
3.8897
21
-2.41421
0
LINE
8
BLACK
6
CONTINUOUS
10
3.8761
20
-2.41017
11
3.87624
21
-2.41205
0
LINE
8
BLACK
6
CONTINUOUS
10
3.87624
20
-2.41205
11
3.86968
21
-2.43173
0
LINE
8
BLACK
6
CONTINUOUS
10
3.86968
20
-2.43173
11
3.86956
21
-2.43187
0
LINE
8
BLACK
6
CONTINUOUS
10
3.86956
20
-2.43187
11
3.86954
21
-2.43205
0
LINE
8
BLACK
6
CONTINUOUS
10
3.86954
20
-2.43205
11
3.86895
21
-2.43256
0
LINE
8
BLACK
6
CONTINUOUS
10
3.86895
20
-2.43256
11
3.86844
21
-2.43315
0
LINE
8
BLACK
6
CONTINUOUS
10
3.86844
20
-2.43315
11
3.86826
21
-2.43317
0
LINE
8
BLACK
6
CONTINUOUS
10
3.86826
20
-2.43317
11
3.86812
21
-2.43329
0
LINE
8
BLACK
6
CONTINUOUS
10
3.86812
20
-2.43329
11
3.86734
21
-2.43323
0
LINE
8
BLACK
6
CONTINUOUS
10
3.86734
20
-2.43323
11
3.86656
21
-2.43329
0
LINE
8
BLACK
6
CONTINUOUS
10
3.86656
20
-2.43329
11
3.86642
21
-2.43317
0
LINE
8
BLACK
6
CONTINUOUS
10
3.86642
20
-2.43317
11
3.86624
21
-2.43315
0
LINE
8
BLACK
6
CONTINUOUS
10
3.86624
20
-2.43315
11
3.86573
21
-2.43256
0
LINE
8
BLACK
6
CONTINUOUS
10
3.86573
20
-2.43256
11
3.86514
21
-2.43205
0
LINE
8
BLACK
6
CONTINUOUS
10
3.86514
20
-2.43205
11
3.86513
21
-2.43187
0
LINE
8
BLACK
6
CONTINUOUS
10
3.86513
20
-2.43187
11
3.86501
21
-2.43173
0
LINE
8
BLACK
6
CONTINUOUS
10
3.86501
20
-2.43173
11
3.85845
21
-2.41205
0
LINE
8
BLACK
6
CONTINUOUS
10
3.85845
20
-2.41205
11
3.85858
21
-2.41017
0
LINE
8
BLACK
6
CONTINUOUS
10
3.85858
20
-2.41017
11
3.86
21
-2.40893
0
LINE
8
BLACK
6
CONTINUOUS
10
3.86
20
-2.40893
11
3.86188
21
-2.40907
0
LINE
8
BLACK
6
CONTINUOUS
10
3.86188
20
-2.40907
11
3.86311
21
-2.41049
0
LINE
8
BLACK
6
CONTINUOUS
10
3.86311
20
-2.41049
11
3.86734
21
-2.42317
0
LINE
8
BLACK
6
CONTINUOUS
10
3.86734
20
-2.42317
11
3.87157
21
-2.41049
0
LINE
8
BLACK
6
CONTINUOUS
10
3.87157
20
-2.41049
11
3.8728
21
-2.40907
0
LINE
8
BLACK
6
CONTINUOUS
10
3.8728
20
-2.40907
11
3.87468
21
-2.40893
0
LINE
8
BLACK
6
CONTINUOUS
10
3.87468
20
-2.40893
11
3.8761
21
-2.41017
0
LINE
8
BLACK
6
CONTINUOUS
10
3.80565
20
-2.40824
11
3.80622
21
-2.40828
0
LINE
8
BLACK
6
CONTINUOUS
10
3.80622
20
-2.40828
11
3.80809
21
-2.40922
0
LINE
8
BLACK
6
CONTINUOUS
10
3.80809
20
-2.40922
11
3.80836
21
-2.40952
0
LINE
8
BLACK
6
CONTINUOUS
10
3.80836
20
-2.40952
11
3.80873
21
-2.40968
0
LINE
8
BLACK
6
CONTINUOUS
10
3.80873
20
-2.40968
11
3.80967
21
-2.41061
0
LINE
8
BLACK
6
CONTINUOUS
10
3.80967
20
-2.41061
11
3.80983
21
-2.41099
0
LINE
8
BLACK
6
CONTINUOUS
10
3.80983
20
-2.41099
11
3.81013
21
-2.41125
0
LINE
8
BLACK
6
CONTINUOUS
10
3.81013
20
-2.41125
11
3.81107
21
-2.41313
0
LINE
8
BLACK
6
CONTINUOUS
10
3.81107
20
-2.41313
11
3.81111
21
-2.4137
0
LINE
8
BLACK
6
CONTINUOUS
10
3.81111
20
-2.4137
11
3.81133
21
-2.41423
0
LINE
8
BLACK
6
CONTINUOUS
10
3.81133
20
-2.41423
11
3.81133
21
-2.41704
0
LINE
8
BLACK
6
CONTINUOUS
10
3.81133
20
-2.41704
11
3.81111
21
-2.41757
0
LINE
8
BLACK
6
CONTINUOUS
10
3.81111
20
-2.41757
11
3.81107
21
-2.41814
0
LINE
8
BLACK
6
CONTINUOUS
10
3.81107
20
-2.41814
11
3.81013
21
-2.42002
0
LINE
8
BLACK
6
CONTINUOUS
10
3.81013
20
-2.42002
11
3.80983
21
-2.42028
0
LINE
8
BLACK
6
CONTINUOUS
10
3.80983
20
-2.42028
11
3.80967
21
-2.42066
0
LINE
8
BLACK
6
CONTINUOUS
10
3.80967
20
-2.42066
11
3.80873
21
-2.42159
0
LINE
8
BLACK
6
CONTINUOUS
10
3.80873
20
-2.42159
11
3.80836
21
-2.42175
0
LINE
8
BLACK
6
CONTINUOUS
10
3.80836
20
-2.42175
11
3.80809
21
-2.42205
0
LINE
8
BLACK
6
CONTINUOUS
10
3.80809
20
-2.42205
11
3.80669
21
-2.42276
0
LINE
8
BLACK
6
CONTINUOUS
10
3.80669
20
-2.42276
11
3.81088
21
-2.42875
0
LINE
8
BLACK
6
CONTINUOUS
10
3.81088
20
-2.42875
11
3.81129
21
-2.43059
0
LINE
8
BLACK
6
CONTINUOUS
10
3.81129
20
-2.43059
11
3.81028
21
-2.43218
0
LINE
8
BLACK
6
CONTINUOUS
10
3.81028
20
-2.43218
11
3.80844
21
-2.43259
0
LINE
8
BLACK
6
CONTINUOUS
10
3.80844
20
-2.43259
11
3.80685
21
-2.43158
0
LINE
8
BLACK
6
CONTINUOUS
10
3.80685
20
-2.43158
11
3.80102
21
-2.42325
0
LINE
8
BLACK
6
CONTINUOUS
10
3.80102
20
-2.42325
11
3.80008
21
-2.42325
0
LINE
8
BLACK
6
CONTINUOUS
10
3.80008
20
-2.42325
11
3.80008
21
-2.43016
0
LINE
8
BLACK
6
CONTINUOUS
10
3.80008
20
-2.43016
11
3.79936
21
-2.4319
0
LINE
8
BLACK
6
CONTINUOUS
10
3.79936
20
-2.4319
11
3.79762
21
-2.43263
0
LINE
8
BLACK
6
CONTINUOUS
10
3.79762
20
-2.43263
11
3.79588
21
-2.4319
0
LINE
8
BLACK
6
CONTINUOUS
10
3.79588
20
-2.4319
11
3.79516
21
-2.43016
0
LINE
8
BLACK
6
CONTINUOUS
10
3.79516
20
-2.43016
11
3.79516
21
-2.41048
0
LINE
8
BLACK
6
CONTINUOUS
10
3.79516
20
-2.41048
11
3.79588
21
-2.40874
0
LINE
8
BLACK
6
CONTINUOUS
10
3.79588
20
-2.40874
11
3.79762
21
-2.40802
0
LINE
8
BLACK
6
CONTINUOUS
10
3.79762
20
-2.40802
11
3.80512
21
-2.40802
0
LINE
8
BLACK
6
CONTINUOUS
10
3.80512
20
-2.40802
11
3.80565
21
-2.40824
0
LINE
8
BLACK
6
CONTINUOUS
10
3.80008
20
-2.41294
11
3.80008
21
-2.41833
0
LINE
8
BLACK
6
CONTINUOUS
10
3.80008
20
-2.41833
11
3.80454
21
-2.41833
0
LINE
8
BLACK
6
CONTINUOUS
10
3.80454
20
-2.41833
11
3.80554
21
-2.41783
0
LINE
8
BLACK
6
CONTINUOUS
10
3.80554
20
-2.41783
11
3.80591
21
-2.41746
0
LINE
8
BLACK
6
CONTINUOUS
10
3.80591
20
-2.41746
11
3.80641
21
-2.41646
0
LINE
8
BLACK
6
CONTINUOUS
10
3.80641
20
-2.41646
11
3.80641
21
-2.41481
0
LINE
8
BLACK
6
CONTINUOUS
10
3.80641
20
-2.41481
11
3.80591
21
-2.41381
0
LINE
8
BLACK
6
CONTINUOUS
10
3.80591
20
-2.41381
11
3.80554
21
-2.41344
0
LINE
8
BLACK
6
CONTINUOUS
10
3.80554
20
-2.41344
11
3.80454
21
-2.41294
0
LINE
8
BLACK
6
CONTINUOUS
10
3.80454
20
-2.41294
11
3.80008
21
-2.41294
0
LINE
8
BLACK
6
CONTINUOUS
10
3.76987
20
-2.42171
11
3.77059
21
-2.42345
0
LINE
8
BLACK
6
CONTINUOUS
10
3.77059
20
-2.42345
11
3.76987
21
-2.42519
0
LINE
8
BLACK
6
CONTINUOUS
10
3.76987
20
-2.42519
11
3.76813
21
-2.42591
0
LINE
8
BLACK
6
CONTINUOUS
10
3.76813
20
-2.42591
11
3.75313
21
-2.42591
0
LINE
8
BLACK
6
CONTINUOUS
10
3.75313
20
-2.42591
11
3.75139
21
-2.42519
0
LINE
8
BLACK
6
CONTINUOUS
10
3.75139
20
-2.42519
11
3.75067
21
-2.42345
0
LINE
8
BLACK
6
CONTINUOUS
10
3.75067
20
-2.42345
11
3.75139
21
-2.42171
0
LINE
8
BLACK
6
CONTINUOUS
10
3.75139
20
-2.42171
11
3.75313
21
-2.42099
0
LINE
8
BLACK
6
CONTINUOUS
10
3.75313
20
-2.42099
11
3.76813
21
-2.42099
0
LINE
8
BLACK
6
CONTINUOUS
10
3.76813
20
-2.42099
11
3.76987
21
-2.42171
0
LINE
8
BLACK
6
CONTINUOUS
10
3.70412
20
-2.42171
11
3.70484
21
-2.42345
0
LINE
8
BLACK
6
CONTINUOUS
10
3.70484
20
-2.42345
11
3.70412
21
-2.42519
0
LINE
8
BLACK
6
CONTINUOUS
10
3.70412
20
-2.42519
11
3.70238
21
-2.42591
0
LINE
8
BLACK
6
CONTINUOUS
10
3.70238
20
-2.42591
11
3.68738
21
-2.42591
0
LINE
8
BLACK
6
CONTINUOUS
10
3.68738
20
-2.42591
11
3.68564
21
-2.42519
0
LINE
8
BLACK
6
CONTINUOUS
10
3.68564
20
-2.42519
11
3.68492
21
-2.42345
0
LINE
8
BLACK
6
CONTINUOUS
10
3.68492
20
-2.42345
11
3.68564
21
-2.42171
0
LINE
8
BLACK
6
CONTINUOUS
10
3.68564
20
-2.42171
11
3.68738
21
-2.42099
0
LINE
8
BLACK
6
CONTINUOUS
10
3.68738
20
-2.42099
11
3.70238
21
-2.42099
0
LINE
8
BLACK
6
CONTINUOUS
10
3.70238
20
-2.42099
11
3.70412
21
-2.42171
0
LINE
8
BLACK
6
CONTINUOUS
10
3.83404
20
-2.42093
11
3.83476
21
-2.42267
0
LINE
8
BLACK
6
CONTINUOUS
10
3.83476
20
-2.42267
11
3.83404
21
-2.42441
0
LINE
8
BLACK
6
CONTINUOUS
10
3.83404
20
-2.42441
11
3.8323
21
-2.42513
0
LINE
8
BLACK
6
CONTINUOUS
10
3.8323
20
-2.42513
11
3.8173
21
-2.42513
0
LINE
8
BLACK
6
CONTINUOUS
10
3.8173
20
-2.42513
11
3.81556
21
-2.42441
0
LINE
8
BLACK
6
CONTINUOUS
10
3.81556
20
-2.42441
11
3.81484
21
-2.42267
0
LINE
8
BLACK
6
CONTINUOUS
10
3.81484
20
-2.42267
11
3.81556
21
-2.42093
0
LINE
8
BLACK
6
CONTINUOUS
10
3.81556
20
-2.42093
11
3.8173
21
-2.42021
0
LINE
8
BLACK
6
CONTINUOUS
10
3.8173
20
-2.42021
11
3.8323
21
-2.42021
0
LINE
8
BLACK
6
CONTINUOUS
10
3.8323
20
-2.42021
11
3.83404
21
-2.42093
  0
ENDSEC
  0
EOF
