  0
SECTION
  2
HEADER
  9
$ANGBASE
  50
0.0
  9
$ANGDIR
  70
1
  9
$MEASUREMENT
  70
0
  0
ENDSEC
  0
SECTION
  2
TABLES
  0
TABLE
  2
LTYPE
  70
4
  0
LTYPE
  5
40F
  2
CONTINUOUS
  70
0
  3
Solid line
  72
65
  73
0
  40
0.0
  0
LTYPE
  5
410
  2
DASHDOT
 70
0
  3
Dash Dot ____ _ ____ _
 72
65
 73
4
 40
2.0
 49
1.25
 49
-0.25
 49
0.25
 49
-0.25
  0
LTYPE
  5
411
  2
DASHED
 70
0
  3
Dashed __ __ __ __ __
 72
65
 73
2
 40
0.75
 49
0.5
 49
-0.25
  0
LTYPE
  5
43B
  2
DOTTED
 70
0
  3
Dotted .  .  .  .
 72
65
 73
2
 40
0.2
 49
0.0
 49
-0.2
  0
ENDTAB
  0
TABLE
  2
STYLE
  70
4
  0
STYLE
  2
KICAD
  70
0
  40
0
  41
1
  42
1
  50
0
  71
0
  3
isocp.shx
  0
STYLE
  2
KICADB
  70
0
  40
0
  41
1
  42
1
  50
0
  71
0
  3
isocp.shx
  0
STYLE
  2
KICADI
  70
0
  40
0
  41
1
  42
1
  50
15
  71
0
  3
isocp.shx
  0
STYLE
  2
KICADBI
  70
0
  40
0
  41
1
  42
1
  50
15
  71
0
  3
isocp.shx
  0
ENDTAB
  0
TABLE
  2
LAYER
  70
1
  0
LAYER
  2
BLACK
  70
0
  62
7
  6
CONTINUOUS
  0
ENDTAB
  0
ENDSEC
  0
SECTION
  2
ENTITIES
0
LINE
8
BLACK
6
CONTINUOUS
10
3.74502
20
-2.36613
11
3.74941
21
-2.36836
0
LINE
8
BLACK
6
CONTINUOUS
10
3.74941
20
-2.36836
11
3.7529
21
-2.37185
0
LINE
8
BLACK
6
CONTINUOUS
10
3.7529
20
-2.37185
11
3.75513
21
-2.37624
0
LINE
8
BLACK
6
CONTINUOUS
10
3.75513
20
-2.37624
11
3.75591
21
-2.3811
0
LINE
8
BLACK
6
CONTINUOUS
10
3.75591
20
-2.3811
11
3.75513
21
-2.38597
0
LINE
8
BLACK
6
CONTINUOUS
10
3.75513
20
-2.38597
11
3.75407
21
-2.38806
0
LINE
8
BLACK
6
CONTINUOUS
10
3.75407
20
-2.38806
11
3.77448
21
-2.40846
0
LINE
8
BLACK
6
CONTINUOUS
10
3.77448
20
-2.40846
11
3.78051
21
-2.40846
0
LINE
8
BLACK
6
CONTINUOUS
10
3.78051
20
-2.40846
11
3.78051
21
-2.39665
0
LINE
8
BLACK
6
CONTINUOUS
10
3.78051
20
-2.39665
11
3.8061
21
-2.39665
0
LINE
8
BLACK
6
CONTINUOUS
10
3.8061
20
-2.39665
11
3.8061
21
-2.43012
0
LINE
8
BLACK
6
CONTINUOUS
10
3.8061
20
-2.43012
11
3.78051
21
-2.43012
0
LINE
8
BLACK
6
CONTINUOUS
10
3.78051
20
-2.43012
11
3.78051
21
-2.41831
0
LINE
8
BLACK
6
CONTINUOUS
10
3.78051
20
-2.41831
11
3.77244
21
-2.41831
0
LINE
8
BLACK
6
CONTINUOUS
10
3.77244
20
-2.41831
11
3.77157
21
-2.41818
0
LINE
8
BLACK
6
CONTINUOUS
10
3.77157
20
-2.41818
11
3.77139
21
-2.41819
0
LINE
8
BLACK
6
CONTINUOUS
10
3.77139
20
-2.41819
11
3.7713
21
-2.41814
0
LINE
8
BLACK
6
CONTINUOUS
10
3.7713
20
-2.41814
11
3.77104
21
-2.4181
0
LINE
8
BLACK
6
CONTINUOUS
10
3.77104
20
-2.4181
11
3.77002
21
-2.41745
0
LINE
8
BLACK
6
CONTINUOUS
10
3.77002
20
-2.41745
11
3.76896
21
-2.41687
0
LINE
8
BLACK
6
CONTINUOUS
10
3.76896
20
-2.41687
11
3.74711
21
-2.39502
0
LINE
8
BLACK
6
CONTINUOUS
10
3.74711
20
-2.39502
11
3.74502
21
-2.39608
0
LINE
8
BLACK
6
CONTINUOUS
10
3.74502
20
-2.39608
11
3.74016
21
-2.39685
0
LINE
8
BLACK
6
CONTINUOUS
10
3.74016
20
-2.39685
11
3.73529
21
-2.39608
0
LINE
8
BLACK
6
CONTINUOUS
10
3.73529
20
-2.39608
11
3.7309
21
-2.39384
0
LINE
8
BLACK
6
CONTINUOUS
10
3.7309
20
-2.39384
11
3.72742
21
-2.39036
0
LINE
8
BLACK
6
CONTINUOUS
10
3.72742
20
-2.39036
11
3.72518
21
-2.38597
0
LINE
8
BLACK
6
CONTINUOUS
10
3.72518
20
-2.38597
11
3.72441
21
-2.3811
0
LINE
8
BLACK
6
CONTINUOUS
10
3.72441
20
-2.3811
11
3.72518
21
-2.37624
0
LINE
8
BLACK
6
CONTINUOUS
10
3.72518
20
-2.37624
11
3.72742
21
-2.37185
0
LINE
8
BLACK
6
CONTINUOUS
10
3.72742
20
-2.37185
11
3.7309
21
-2.36836
0
LINE
8
BLACK
6
CONTINUOUS
10
3.7309
20
-2.36836
11
3.73529
21
-2.36613
0
LINE
8
BLACK
6
CONTINUOUS
10
3.73529
20
-2.36613
11
3.74016
21
-2.36535
0
LINE
8
BLACK
6
CONTINUOUS
10
3.74016
20
-2.36535
11
3.74502
21
-2.36613
0
LINE
8
BLACK
6
CONTINUOUS
10
3.88558
20
-2.36573
11
3.88997
21
-2.36797
0
LINE
8
BLACK
6
CONTINUOUS
10
3.88997
20
-2.36797
11
3.89345
21
-2.37145
0
LINE
8
BLACK
6
CONTINUOUS
10
3.89345
20
-2.37145
11
3.89569
21
-2.37584
0
LINE
8
BLACK
6
CONTINUOUS
10
3.89569
20
-2.37584
11
3.89646
21
-2.38071
0
LINE
8
BLACK
6
CONTINUOUS
10
3.89646
20
-2.38071
11
3.89569
21
-2.38558
0
LINE
8
BLACK
6
CONTINUOUS
10
3.89569
20
-2.38558
11
3.89345
21
-2.38997
0
LINE
8
BLACK
6
CONTINUOUS
10
3.89345
20
-2.38997
11
3.88997
21
-2.39345
0
LINE
8
BLACK
6
CONTINUOUS
10
3.88997
20
-2.39345
11
3.88558
21
-2.39569
0
LINE
8
BLACK
6
CONTINUOUS
10
3.88558
20
-2.39569
11
3.88071
21
-2.39646
0
LINE
8
BLACK
6
CONTINUOUS
10
3.88071
20
-2.39646
11
3.87584
21
-2.39569
0
LINE
8
BLACK
6
CONTINUOUS
10
3.87584
20
-2.39569
11
3.87375
21
-2.39462
0
LINE
8
BLACK
6
CONTINUOUS
10
3.87375
20
-2.39462
11
3.85151
21
-2.41687
0
LINE
8
BLACK
6
CONTINUOUS
10
3.85151
20
-2.41687
11
3.85081
21
-2.41739
0
LINE
8
BLACK
6
CONTINUOUS
10
3.85081
20
-2.41739
11
3.85069
21
-2.41753
0
LINE
8
BLACK
6
CONTINUOUS
10
3.85069
20
-2.41753
11
3.85058
21
-2.41756
0
LINE
8
BLACK
6
CONTINUOUS
10
3.85058
20
-2.41756
11
3.85038
21
-2.41771
0
LINE
8
BLACK
6
CONTINUOUS
10
3.85038
20
-2.41771
11
3.84919
21
-2.41797
0
LINE
8
BLACK
6
CONTINUOUS
10
3.84919
20
-2.41797
11
3.84803
21
-2.41831
0
LINE
8
BLACK
6
CONTINUOUS
10
3.84803
20
-2.41831
11
3.83996
21
-2.41831
0
LINE
8
BLACK
6
CONTINUOUS
10
3.83996
20
-2.41831
11
3.83996
21
-2.43012
0
LINE
8
BLACK
6
CONTINUOUS
10
3.83996
20
-2.43012
11
3.81437
21
-2.43012
0
LINE
8
BLACK
6
CONTINUOUS
10
3.81437
20
-2.43012
11
3.81437
21
-2.39665
0
LINE
8
BLACK
6
CONTINUOUS
10
3.81437
20
-2.39665
11
3.83996
21
-2.39665
0
LINE
8
BLACK
6
CONTINUOUS
10
3.83996
20
-2.39665
11
3.83996
21
-2.40846
0
LINE
8
BLACK
6
CONTINUOUS
10
3.83996
20
-2.40846
11
3.84599
21
-2.40846
0
LINE
8
BLACK
6
CONTINUOUS
10
3.84599
20
-2.40846
11
3.8668
21
-2.38766
0
LINE
8
BLACK
6
CONTINUOUS
10
3.8668
20
-2.38766
11
3.86573
21
-2.38558
0
LINE
8
BLACK
6
CONTINUOUS
10
3.86573
20
-2.38558
11
3.86496
21
-2.38071
0
LINE
8
BLACK
6
CONTINUOUS
10
3.86496
20
-2.38071
11
3.86573
21
-2.37584
0
LINE
8
BLACK
6
CONTINUOUS
10
3.86573
20
-2.37584
11
3.86797
21
-2.37145
0
LINE
8
BLACK
6
CONTINUOUS
10
3.86797
20
-2.37145
11
3.87145
21
-2.36797
0
LINE
8
BLACK
6
CONTINUOUS
10
3.87145
20
-2.36797
11
3.87584
21
-2.36573
0
LINE
8
BLACK
6
CONTINUOUS
10
3.87584
20
-2.36573
11
3.88071
21
-2.36496
0
LINE
8
BLACK
6
CONTINUOUS
10
3.88071
20
-2.36496
11
3.88558
21
-2.36573
0
LINE
8
BLACK
6
CONTINUOUS
10
3.88439
20
-2.32085
11
3.88878
21
-2.32309
0
LINE
8
BLACK
6
CONTINUOUS
10
3.88878
20
-2.32309
11
3.89227
21
-2.32657
0
LINE
8
BLACK
6
CONTINUOUS
10
3.89227
20
-2.32657
11
3.8945
21
-2.33096
0
LINE
8
BLACK
6
CONTINUOUS
10
3.8945
20
-2.33096
11
3.89528
21
-2.33583
0
LINE
8
BLACK
6
CONTINUOUS
10
3.89528
20
-2.33583
11
3.8945
21
-2.34069
0
LINE
8
BLACK
6
CONTINUOUS
10
3.8945
20
-2.34069
11
3.89227
21
-2.34508
0
LINE
8
BLACK
6
CONTINUOUS
10
3.89227
20
-2.34508
11
3.88878
21
-2.34857
0
LINE
8
BLACK
6
CONTINUOUS
10
3.88878
20
-2.34857
11
3.88439
21
-2.3508
0
LINE
8
BLACK
6
CONTINUOUS
10
3.88439
20
-2.3508
11
3.87953
21
-2.35157
0
LINE
8
BLACK
6
CONTINUOUS
10
3.87953
20
-2.35157
11
3.87466
21
-2.3508
0
LINE
8
BLACK
6
CONTINUOUS
10
3.87466
20
-2.3508
11
3.87257
21
-2.34974
0
LINE
8
BLACK
6
CONTINUOUS
10
3.87257
20
-2.34974
11
3.86293
21
-2.35939
0
LINE
8
BLACK
6
CONTINUOUS
10
3.86293
20
-2.35939
11
3.86223
21
-2.35991
0
LINE
8
BLACK
6
CONTINUOUS
10
3.86223
20
-2.35991
11
3.86211
21
-2.36005
0
LINE
8
BLACK
6
CONTINUOUS
10
3.86211
20
-2.36005
11
3.862
21
-2.36008
0
LINE
8
BLACK
6
CONTINUOUS
10
3.862
20
-2.36008
11
3.8618
21
-2.36023
0
LINE
8
BLACK
6
CONTINUOUS
10
3.8618
20
-2.36023
11
3.86061
21
-2.36049
0
LINE
8
BLACK
6
CONTINUOUS
10
3.86061
20
-2.36049
11
3.85945
21
-2.36083
0
LINE
8
BLACK
6
CONTINUOUS
10
3.85945
20
-2.36083
11
3.83996
21
-2.36083
0
LINE
8
BLACK
6
CONTINUOUS
10
3.83996
20
-2.36083
11
3.83996
21
-2.37264
0
LINE
8
BLACK
6
CONTINUOUS
10
3.83996
20
-2.37264
11
3.81437
21
-2.37264
0
LINE
8
BLACK
6
CONTINUOUS
10
3.81437
20
-2.37264
11
3.81437
21
-2.33917
0
LINE
8
BLACK
6
CONTINUOUS
10
3.81437
20
-2.33917
11
3.83996
21
-2.33917
0
LINE
8
BLACK
6
CONTINUOUS
10
3.83996
20
-2.33917
11
3.83996
21
-2.35098
0
LINE
8
BLACK
6
CONTINUOUS
10
3.83996
20
-2.35098
11
3.85741
21
-2.35098
0
LINE
8
BLACK
6
CONTINUOUS
10
3.85741
20
-2.35098
11
3.86561
21
-2.34278
0
LINE
8
BLACK
6
CONTINUOUS
10
3.86561
20
-2.34278
11
3.86455
21
-2.34069
0
LINE
8
BLACK
6
CONTINUOUS
10
3.86455
20
-2.34069
11
3.86378
21
-2.33583
0
LINE
8
BLACK
6
CONTINUOUS
10
3.86378
20
-2.33583
11
3.86455
21
-2.33096
0
LINE
8
BLACK
6
CONTINUOUS
10
3.86455
20
-2.33096
11
3.86679
21
-2.32657
0
LINE
8
BLACK
6
CONTINUOUS
10
3.86679
20
-2.32657
11
3.87027
21
-2.32309
0
LINE
8
BLACK
6
CONTINUOUS
10
3.87027
20
-2.32309
11
3.87466
21
-2.32085
0
LINE
8
BLACK
6
CONTINUOUS
10
3.87466
20
-2.32085
11
3.87953
21
-2.32008
0
LINE
8
BLACK
6
CONTINUOUS
10
3.87953
20
-2.32008
11
3.88439
21
-2.32085
0
LINE
8
BLACK
6
CONTINUOUS
10
3.74778
20
-2.32361
11
3.75217
21
-2.32584
0
LINE
8
BLACK
6
CONTINUOUS
10
3.75217
20
-2.32584
11
3.75565
21
-2.32933
0
LINE
8
BLACK
6
CONTINUOUS
10
3.75565
20
-2.32933
11
3.75789
21
-2.33372
0
LINE
8
BLACK
6
CONTINUOUS
10
3.75789
20
-2.33372
11
3.75866
21
-2.33858
0
LINE
8
BLACK
6
CONTINUOUS
10
3.75866
20
-2.33858
11
3.75789
21
-2.34345
0
LINE
8
BLACK
6
CONTINUOUS
10
3.75789
20
-2.34345
11
3.75683
21
-2.34554
0
LINE
8
BLACK
6
CONTINUOUS
10
3.75683
20
-2.34554
11
3.76227
21
-2.35098
0
LINE
8
BLACK
6
CONTINUOUS
10
3.76227
20
-2.35098
11
3.78051
21
-2.35098
0
LINE
8
BLACK
6
CONTINUOUS
10
3.78051
20
-2.35098
11
3.78051
21
-2.33917
0
LINE
8
BLACK
6
CONTINUOUS
10
3.78051
20
-2.33917
11
3.8061
21
-2.33917
0
LINE
8
BLACK
6
CONTINUOUS
10
3.8061
20
-2.33917
11
3.8061
21
-2.37264
0
LINE
8
BLACK
6
CONTINUOUS
10
3.8061
20
-2.37264
11
3.78051
21
-2.37264
0
LINE
8
BLACK
6
CONTINUOUS
10
3.78051
20
-2.37264
11
3.78051
21
-2.36083
0
LINE
8
BLACK
6
CONTINUOUS
10
3.78051
20
-2.36083
11
3.76024
21
-2.36083
0
LINE
8
BLACK
6
CONTINUOUS
10
3.76024
20
-2.36083
11
3.75937
21
-2.3607
0
LINE
8
BLACK
6
CONTINUOUS
10
3.75937
20
-2.3607
11
3.75919
21
-2.36071
0
LINE
8
BLACK
6
CONTINUOUS
10
3.75919
20
-2.36071
11
3.75909
21
-2.36066
0
LINE
8
BLACK
6
CONTINUOUS
10
3.75909
20
-2.36066
11
3.75884
21
-2.36062
0
LINE
8
BLACK
6
CONTINUOUS
10
3.75884
20
-2.36062
11
3.75782
21
-2.35997
0
LINE
8
BLACK
6
CONTINUOUS
10
3.75782
20
-2.35997
11
3.75676
21
-2.35939
0
LINE
8
BLACK
6
CONTINUOUS
10
3.75676
20
-2.35939
11
3.74987
21
-2.3525
0
LINE
8
BLACK
6
CONTINUOUS
10
3.74987
20
-2.3525
11
3.74778
21
-2.35356
0
LINE
8
BLACK
6
CONTINUOUS
10
3.74778
20
-2.35356
11
3.74291
21
-2.35433
0
LINE
8
BLACK
6
CONTINUOUS
10
3.74291
20
-2.35433
11
3.73805
21
-2.35356
0
LINE
8
BLACK
6
CONTINUOUS
10
3.73805
20
-2.35356
11
3.73366
21
-2.35132
0
LINE
8
BLACK
6
CONTINUOUS
10
3.73366
20
-2.35132
11
3.73017
21
-2.34784
0
LINE
8
BLACK
6
CONTINUOUS
10
3.73017
20
-2.34784
11
3.72794
21
-2.34345
0
LINE
8
BLACK
6
CONTINUOUS
10
3.72794
20
-2.34345
11
3.72717
21
-2.33858
0
LINE
8
BLACK
6
CONTINUOUS
10
3.72717
20
-2.33858
11
3.72794
21
-2.33372
0
LINE
8
BLACK
6
CONTINUOUS
10
3.72794
20
-2.33372
11
3.73017
21
-2.32933
0
LINE
8
BLACK
6
CONTINUOUS
10
3.73017
20
-2.32933
11
3.73366
21
-2.32584
0
LINE
8
BLACK
6
CONTINUOUS
10
3.73366
20
-2.32584
11
3.73805
21
-2.32361
0
LINE
8
BLACK
6
CONTINUOUS
10
3.73805
20
-2.32361
11
3.74291
21
-2.32283
0
LINE
8
BLACK
6
CONTINUOUS
10
3.74291
20
-2.32283
11
3.74778
21
-2.32361
0
CIRCLE
8
BLACK
10
3.87953
20
-2.33583
40
0.00787402
0
CIRCLE
8
BLACK
10
3.74291
20
-2.33858
40
0.00787402
0
CIRCLE
8
BLACK
10
3.74016
20
-2.3811
40
0.00787402
0
CIRCLE
8
BLACK
10
3.88071
20
-2.38071
40
0.00787402
  0
ENDSEC
  0
EOF
