  0
SECTION
  2
HEADER
  9
$ANGBASE
  50
0.0
  9
$ANGDIR
  70
1
  9
$MEASUREMENT
  70
0
  0
ENDSEC
  0
SECTION
  2
TABLES
  0
TABLE
  2
LTYPE
  70
4
  0
LTYPE
  5
40F
  2
CONTINUOUS
  70
0
  3
Solid line
  72
65
  73
0
  40
0.0
  0
LTYPE
  5
410
  2
DASHDOT
 70
0
  3
Dash Dot ____ _ ____ _
 72
65
 73
4
 40
2.0
 49
1.25
 49
-0.25
 49
0.25
 49
-0.25
  0
LTYPE
  5
411
  2
DASHED
 70
0
  3
Dashed __ __ __ __ __
 72
65
 73
2
 40
0.75
 49
0.5
 49
-0.25
  0
LTYPE
  5
43B
  2
DOTTED
 70
0
  3
Dotted .  .  .  .
 72
65
 73
2
 40
0.2
 49
0.0
 49
-0.2
  0
ENDTAB
  0
TABLE
  2
STYLE
  70
4
  0
STYLE
  2
KICAD
  70
0
  40
0
  41
1
  42
1
  50
0
  71
0
  3
isocp.shx
  0
STYLE
  2
KICADB
  70
0
  40
0
  41
1
  42
1
  50
0
  71
0
  3
isocp.shx
  0
STYLE
  2
KICADI
  70
0
  40
0
  41
1
  42
1
  50
15
  71
0
  3
isocp.shx
  0
STYLE
  2
KICADBI
  70
0
  40
0
  41
1
  42
1
  50
15
  71
0
  3
isocp.shx
  0
ENDTAB
  0
TABLE
  2
LAYER
  70
1
  0
LAYER
  2
BLACK
  70
0
  62
7
  6
CONTINUOUS
  0
ENDTAB
  0
ENDSEC
  0
SECTION
  2
ENTITIES
0
LINE
8
BLACK
6
CONTINUOUS
10
3.82737
20
-2.44063
11
3.82809
21
-2.44237
0
LINE
8
BLACK
6
CONTINUOUS
10
3.82809
20
-2.44237
11
3.82809
21
-2.45831
0
LINE
8
BLACK
6
CONTINUOUS
10
3.82809
20
-2.45831
11
3.82787
21
-2.45883
0
LINE
8
BLACK
6
CONTINUOUS
10
3.82787
20
-2.45883
11
3.82783
21
-2.45941
0
LINE
8
BLACK
6
CONTINUOUS
10
3.82783
20
-2.45941
11
3.82689
21
-2.46128
0
LINE
8
BLACK
6
CONTINUOUS
10
3.82689
20
-2.46128
11
3.82659
21
-2.46155
0
LINE
8
BLACK
6
CONTINUOUS
10
3.82659
20
-2.46155
11
3.82643
21
-2.46192
0
LINE
8
BLACK
6
CONTINUOUS
10
3.82643
20
-2.46192
11
3.82549
21
-2.46286
0
LINE
8
BLACK
6
CONTINUOUS
10
3.82549
20
-2.46286
11
3.82512
21
-2.46301
0
LINE
8
BLACK
6
CONTINUOUS
10
3.82512
20
-2.46301
11
3.82485
21
-2.46332
0
LINE
8
BLACK
6
CONTINUOUS
10
3.82485
20
-2.46332
11
3.82298
21
-2.46426
0
LINE
8
BLACK
6
CONTINUOUS
10
3.82298
20
-2.46426
11
3.82241
21
-2.4643
0
LINE
8
BLACK
6
CONTINUOUS
10
3.82241
20
-2.4643
11
3.82188
21
-2.46452
0
LINE
8
BLACK
6
CONTINUOUS
10
3.82188
20
-2.46452
11
3.81813
21
-2.46452
0
LINE
8
BLACK
6
CONTINUOUS
10
3.81813
20
-2.46452
11
3.8176
21
-2.4643
0
LINE
8
BLACK
6
CONTINUOUS
10
3.8176
20
-2.4643
11
3.81703
21
-2.46426
0
LINE
8
BLACK
6
CONTINUOUS
10
3.81703
20
-2.46426
11
3.81515
21
-2.46332
0
LINE
8
BLACK
6
CONTINUOUS
10
3.81515
20
-2.46332
11
3.81489
21
-2.46301
0
LINE
8
BLACK
6
CONTINUOUS
10
3.81489
20
-2.46301
11
3.81451
21
-2.46286
0
LINE
8
BLACK
6
CONTINUOUS
10
3.81451
20
-2.46286
11
3.81358
21
-2.46192
0
LINE
8
BLACK
6
CONTINUOUS
10
3.81358
20
-2.46192
11
3.81342
21
-2.46155
0
LINE
8
BLACK
6
CONTINUOUS
10
3.81342
20
-2.46155
11
3.81312
21
-2.46128
0
LINE
8
BLACK
6
CONTINUOUS
10
3.81312
20
-2.46128
11
3.81218
21
-2.45941
0
LINE
8
BLACK
6
CONTINUOUS
10
3.81218
20
-2.45941
11
3.81214
21
-2.45883
0
LINE
8
BLACK
6
CONTINUOUS
10
3.81214
20
-2.45883
11
3.81192
21
-2.45831
0
LINE
8
BLACK
6
CONTINUOUS
10
3.81192
20
-2.45831
11
3.81192
21
-2.44237
0
LINE
8
BLACK
6
CONTINUOUS
10
3.81192
20
-2.44237
11
3.81264
21
-2.44063
0
LINE
8
BLACK
6
CONTINUOUS
10
3.81264
20
-2.44063
11
3.81438
21
-2.43991
0
LINE
8
BLACK
6
CONTINUOUS
10
3.81438
20
-2.43991
11
3.81612
21
-2.44063
0
LINE
8
BLACK
6
CONTINUOUS
10
3.81612
20
-2.44063
11
3.81684
21
-2.44237
0
LINE
8
BLACK
6
CONTINUOUS
10
3.81684
20
-2.44237
11
3.81684
21
-2.45772
0
LINE
8
BLACK
6
CONTINUOUS
10
3.81684
20
-2.45772
11
3.81734
21
-2.45872
0
LINE
8
BLACK
6
CONTINUOUS
10
3.81734
20
-2.45872
11
3.81771
21
-2.4591
0
LINE
8
BLACK
6
CONTINUOUS
10
3.81771
20
-2.4591
11
3.81871
21
-2.45959
0
LINE
8
BLACK
6
CONTINUOUS
10
3.81871
20
-2.45959
11
3.8213
21
-2.45959
0
LINE
8
BLACK
6
CONTINUOUS
10
3.8213
20
-2.45959
11
3.8223
21
-2.4591
0
LINE
8
BLACK
6
CONTINUOUS
10
3.8223
20
-2.4591
11
3.82267
21
-2.45872
0
LINE
8
BLACK
6
CONTINUOUS
10
3.82267
20
-2.45872
11
3.82317
21
-2.45772
0
LINE
8
BLACK
6
CONTINUOUS
10
3.82317
20
-2.45772
11
3.82317
21
-2.44237
0
LINE
8
BLACK
6
CONTINUOUS
10
3.82317
20
-2.44237
11
3.82389
21
-2.44063
0
LINE
8
BLACK
6
CONTINUOUS
10
3.82389
20
-2.44063
11
3.82563
21
-2.43991
0
LINE
8
BLACK
6
CONTINUOUS
10
3.82563
20
-2.43991
11
3.82737
21
-2.44063
0
LINE
8
BLACK
6
CONTINUOUS
10
3.79295
20
-2.46379
11
3.79223
21
-2.46205
0
LINE
8
BLACK
6
CONTINUOUS
10
3.79223
20
-2.46205
11
3.79295
21
-2.46031
0
LINE
8
BLACK
6
CONTINUOUS
10
3.79295
20
-2.46031
11
3.79469
21
-2.45959
0
LINE
8
BLACK
6
CONTINUOUS
10
3.79469
20
-2.45959
11
3.79786
21
-2.45959
0
LINE
8
BLACK
6
CONTINUOUS
10
3.79786
20
-2.45959
11
3.79786
21
-2.44237
0
LINE
8
BLACK
6
CONTINUOUS
10
3.79786
20
-2.44237
11
3.79796
21
-2.44214
0
LINE
8
BLACK
6
CONTINUOUS
10
3.79796
20
-2.44214
11
3.79791
21
-2.44189
0
LINE
8
BLACK
6
CONTINUOUS
10
3.79791
20
-2.44189
11
3.7983
21
-2.44129
0
LINE
8
BLACK
6
CONTINUOUS
10
3.7983
20
-2.44129
11
3.79858
21
-2.44063
0
LINE
8
BLACK
6
CONTINUOUS
10
3.79858
20
-2.44063
11
3.79881
21
-2.44053
0
LINE
8
BLACK
6
CONTINUOUS
10
3.79881
20
-2.44053
11
3.79895
21
-2.44032
0
LINE
8
BLACK
6
CONTINUOUS
10
3.79895
20
-2.44032
11
3.79966
21
-2.44018
0
LINE
8
BLACK
6
CONTINUOUS
10
3.79966
20
-2.44018
11
3.80032
21
-2.43991
0
LINE
8
BLACK
6
CONTINUOUS
10
3.80032
20
-2.43991
11
3.80055
21
-2.44001
0
LINE
8
BLACK
6
CONTINUOUS
10
3.80055
20
-2.44001
11
3.8008
21
-2.43996
0
LINE
8
BLACK
6
CONTINUOUS
10
3.8008
20
-2.43996
11
3.8014
21
-2.44036
0
LINE
8
BLACK
6
CONTINUOUS
10
3.8014
20
-2.44036
11
3.80206
21
-2.44063
0
LINE
8
BLACK
6
CONTINUOUS
10
3.80206
20
-2.44063
11
3.80216
21
-2.44086
0
LINE
8
BLACK
6
CONTINUOUS
10
3.80216
20
-2.44086
11
3.80237
21
-2.441
0
LINE
8
BLACK
6
CONTINUOUS
10
3.80237
20
-2.441
11
3.80411
21
-2.44361
0
LINE
8
BLACK
6
CONTINUOUS
10
3.80411
20
-2.44361
11
3.80553
21
-2.44503
0
LINE
8
BLACK
6
CONTINUOUS
10
3.80553
20
-2.44503
11
3.80704
21
-2.44579
0
LINE
8
BLACK
6
CONTINUOUS
10
3.80704
20
-2.44579
11
3.80828
21
-2.44722
0
LINE
8
BLACK
6
CONTINUOUS
10
3.80828
20
-2.44722
11
3.80814
21
-2.44909
0
LINE
8
BLACK
6
CONTINUOUS
10
3.80814
20
-2.44909
11
3.80672
21
-2.45033
0
LINE
8
BLACK
6
CONTINUOUS
10
3.80672
20
-2.45033
11
3.80484
21
-2.45019
0
LINE
8
BLACK
6
CONTINUOUS
10
3.80484
20
-2.45019
11
3.80297
21
-2.44926
0
LINE
8
BLACK
6
CONTINUOUS
10
3.80297
20
-2.44926
11
3.80278
21
-2.44904
0
LINE
8
BLACK
6
CONTINUOUS
10
3.80278
20
-2.44904
11
3.80278
21
-2.45959
0
LINE
8
BLACK
6
CONTINUOUS
10
3.80278
20
-2.45959
11
3.80594
21
-2.45959
0
LINE
8
BLACK
6
CONTINUOUS
10
3.80594
20
-2.45959
11
3.80768
21
-2.46031
0
LINE
8
BLACK
6
CONTINUOUS
10
3.80768
20
-2.46031
11
3.8084
21
-2.46205
0
LINE
8
BLACK
6
CONTINUOUS
10
3.8084
20
-2.46205
11
3.80768
21
-2.46379
0
LINE
8
BLACK
6
CONTINUOUS
10
3.80768
20
-2.46379
11
3.80594
21
-2.46452
0
LINE
8
BLACK
6
CONTINUOUS
10
3.80594
20
-2.46452
11
3.79469
21
-2.46452
0
LINE
8
BLACK
6
CONTINUOUS
10
3.79469
20
-2.46452
11
3.79295
21
-2.46379
  0
ENDSEC
  0
EOF
