M48
; DRILL file {KiCad (6.0.5)} date Sun Jun 19 20:20:07 2022
; FORMAT={-:-/ absolute / inch / decimal}
; #@! TF.CreationDate,2022-06-19T20:20:07-05:00
; #@! TF.GenerationSoftware,Kicad,Pcbnew,(6.0.5)
; #@! TF.FileFunction,MixedPlating,1,2
FMAT,2
INCH
; #@! TA.AperFunction,Plated,PTH,ViaDrill
T1C0.0157
; #@! TA.AperFunction,NonPlated,NPTH,ComponentDrill
T2C0.0669
; #@! TA.AperFunction,NonPlated,NPTH,ComponentDrill
T3C0.0866
%
G90
G05
T1
X4.8459Y-7.4293
X4.8459Y-7.4982
X5.1193Y-7.7323
X5.1193Y-7.8504
X5.2016Y-7.1579
X5.2079Y-7.3976
X5.2705Y-7.2957
X5.3949Y-7.565
X5.4146Y-7.4961
X5.4244Y-7.3386
X5.5524Y-7.8406
X5.615Y-7.3386
X5.6825Y-7.4982
X5.6825Y-7.5671
X5.8553Y-7.8427
X5.8575Y-7.4272
T2
X4.6299Y-7.8307
X4.6299Y-8.1063
T3
X3.2126Y-7.6358
X4.3547Y-8.126
X4.9059Y-8.126
X5.0217Y-7.3219
X5.6555Y-7.9557
X5.8898Y-7.1024
X6.0472Y-7.6358
T0
M30
