%TF.GenerationSoftware,KiCad,Pcbnew,(6.0.5)*%
%TF.CreationDate,2022-06-19T20:20:05-05:00*%
%TF.ProjectId,GBOYAudioBreakout,47424f59-4175-4646-996f-427265616b6f,rev?*%
%TF.SameCoordinates,Original*%
%TF.FileFunction,Copper,L2,Bot*%
%TF.FilePolarity,Positive*%
%FSLAX46Y46*%
G04 Gerber Fmt 4.6, Leading zero omitted, Abs format (unit mm)*
G04 Created by KiCad (PCBNEW (6.0.5)) date 2022-06-19 20:20:05*
%MOMM*%
%LPD*%
G01*
G04 APERTURE LIST*
G04 Aperture macros list*
%AMRoundRect*
0 Rectangle with rounded corners*
0 $1 Rounding radius*
0 $2 $3 $4 $5 $6 $7 $8 $9 X,Y pos of 4 corners*
0 Add a 4 corners polygon primitive as box body*
4,1,4,$2,$3,$4,$5,$6,$7,$8,$9,$2,$3,0*
0 Add four circle primitives for the rounded corners*
1,1,$1+$1,$2,$3*
1,1,$1+$1,$4,$5*
1,1,$1+$1,$6,$7*
1,1,$1+$1,$8,$9*
0 Add four rect primitives between the rounded corners*
20,1,$1+$1,$2,$3,$4,$5,0*
20,1,$1+$1,$4,$5,$6,$7,0*
20,1,$1+$1,$6,$7,$8,$9,0*
20,1,$1+$1,$8,$9,$2,$3,0*%
G04 Aperture macros list end*
%TA.AperFunction,SMDPad,CuDef*%
%ADD10C,1.500000*%
%TD*%
%TA.AperFunction,SMDPad,CuDef*%
%ADD11RoundRect,0.312500X0.687500X0.312500X-0.687500X0.312500X-0.687500X-0.312500X0.687500X-0.312500X0*%
%TD*%
%TA.AperFunction,SMDPad,CuDef*%
%ADD12RoundRect,0.312500X-0.312500X0.687500X-0.312500X-0.687500X0.312500X-0.687500X0.312500X0.687500X0*%
%TD*%
%TA.AperFunction,SMDPad,CuDef*%
%ADD13RoundRect,0.312500X-0.687500X-0.312500X0.687500X-0.312500X0.687500X0.312500X-0.687500X0.312500X0*%
%TD*%
%TA.AperFunction,ViaPad*%
%ADD14C,0.800000*%
%TD*%
%TA.AperFunction,Conductor*%
%ADD15C,0.250000*%
%TD*%
G04 APERTURE END LIST*
D10*
%TO.P,D1,1,1*%
%TO.N,Net-(D1-Pad1)*%
X95100000Y-194400000D03*
%TD*%
%TO.P,MC1,1,1*%
%TO.N,Net-(MC1-Pad1)*%
X97600000Y-194400000D03*
%TD*%
%TO.P,WS1,1,1*%
%TO.N,Net-(U1-Pad11)*%
X100100000Y-194400000D03*
%TD*%
%TO.P,1.8V1,1,1*%
%TO.N,Net-(1.8V1-Pad1)*%
X102600000Y-194400000D03*
%TD*%
%TO.P,GND1,1,1*%
%TO.N,GND*%
X107600000Y-194400000D03*
%TD*%
%TO.P,SDA1,1,1*%
%TO.N,Net-(SDA1-Pad1)*%
X90100000Y-194400000D03*
%TD*%
%TO.P,C1,1,1*%
%TO.N,Net-(C1-Pad1)*%
X92600000Y-194400000D03*
%TD*%
D11*
%TO.P,U1,1,SDA*%
%TO.N,Net-(SDA1-Pad1)*%
X146150000Y-199205000D03*
%TO.P,U1,2,SCL*%
%TO.N,Net-(SCL1-Pad1)*%
X146150000Y-197455000D03*
%TO.P,U1,3,VOL-*%
%TO.N,unconnected-(U1-Pad3)*%
X146150000Y-195705000D03*
%TO.P,U1,4,VOL+*%
%TO.N,unconnected-(U1-Pad4)*%
X146150000Y-193955000D03*
%TO.P,U1,5,3V3*%
%TO.N,Net-(3.3V1-Pad1)*%
X146150000Y-192205000D03*
%TO.P,U1,6,DP*%
%TO.N,Net-(1.8V1-Pad1)*%
X146150000Y-190455000D03*
%TO.P,U1,7,GND*%
%TO.N,GND*%
X146150000Y-188705000D03*
D12*
X130370000Y-183475000D03*
%TO.P,U1,8,MC*%
%TO.N,Net-(MC1-Pad1)*%
X142620000Y-183475000D03*
%TO.P,U1,9,C*%
%TO.N,Net-(C1-Pad1)*%
X140870000Y-183475000D03*
%TO.P,U1,10,D*%
%TO.N,Net-(D1-Pad1)*%
X139120000Y-183475000D03*
%TO.P,U1,11,WS*%
%TO.N,Net-(U1-Pad11)*%
X137370000Y-183475000D03*
%TO.P,U1,12,HL*%
%TO.N,Net-(J1-PadT)*%
X135620000Y-183475000D03*
%TO.P,U1,13,HR*%
%TO.N,Net-(U1-Pad13)*%
X133870000Y-183475000D03*
%TO.P,U1,14,HS*%
%TO.N,Net-(J1-PadTN)*%
X132120000Y-183475000D03*
D13*
%TO.P,U1,15,R+*%
%TO.N,Net-(LS1-Pad1)*%
X125050000Y-188705000D03*
%TO.P,U1,16,R-*%
%TO.N,Net-(LS1-Pad2)*%
X125050000Y-190455000D03*
%TO.P,U1,17,L-*%
%TO.N,Net-(LS2-Pad1)*%
X125050000Y-192205000D03*
%TO.P,U1,18,L+*%
%TO.N,Net-(LS2-Pad2)*%
X125050000Y-193955000D03*
%TO.P,U1,19,IL*%
%TO.N,unconnected-(U1-Pad19)*%
X125050000Y-195705000D03*
%TO.P,U1,20,IR*%
%TO.N,unconnected-(U1-Pad20)*%
X125050000Y-197455000D03*
%TD*%
D10*
%TO.P,SCL1,1,1*%
%TO.N,Net-(SCL1-Pad1)*%
X87600000Y-194400000D03*
%TD*%
%TO.P,3.3V1,1,1*%
%TO.N,Net-(3.3V1-Pad1)*%
X105100000Y-194400000D03*
%TD*%
D14*
%TO.N,GND*%
X148780000Y-188650000D03*
%TO.N,Net-(1.8V1-Pad1)*%
X137530000Y-190400000D03*
X144335000Y-190455000D03*
%TO.N,Net-(3.3V1-Pad1)*%
X137030000Y-192150000D03*
X144335000Y-192205000D03*
%TO.N,Net-(LS1-Pad1)*%
X123085000Y-188705000D03*
%TO.N,Net-(LS1-Pad2)*%
X123085000Y-190455000D03*
%TO.N,Net-(LS2-Pad1)*%
X130030000Y-199400000D03*
%TO.N,Net-(LS2-Pad2)*%
X130030000Y-196400000D03*
%TO.N,Net-(MC1-Pad1)*%
X142620000Y-186400000D03*
X137780000Y-186400000D03*
%TO.N,Net-(SDA1-Pad1)*%
X141030000Y-199150000D03*
X148725000Y-199205000D03*
%TO.N,Net-(U1-Pad13)*%
X133870000Y-185310000D03*
%TO.N,Net-(J1-PadTN)*%
X132120000Y-181810000D03*
%TO.N,Net-(J1-PadT)*%
X132280000Y-187900000D03*
%TD*%
D15*
%TO.N,Net-(MC1-Pad1)*%
X137584327Y-203326919D02*
X99069791Y-203326919D01*
%TO.N,Net-(1.8V1-Pad1)*%
X98499040Y-198500960D02*
X98499040Y-201483322D01*
X99443597Y-202427879D02*
X137211931Y-202427879D01*
X137211931Y-202427879D02*
X138481920Y-201157890D01*
X146150000Y-190455000D02*
X144335000Y-190455000D01*
X98499040Y-201483322D02*
X99443597Y-202427879D01*
X138481920Y-201157890D02*
X138481920Y-191351920D01*
X138481920Y-191351920D02*
X137530000Y-190400000D01*
X102600000Y-194400000D02*
X98499040Y-198500960D01*
%TO.N,Net-(3.3V1-Pad1)*%
X98948560Y-201297124D02*
X99629795Y-201978359D01*
X105100000Y-194400000D02*
X98948560Y-200551440D01*
X137025733Y-201978359D02*
X138032400Y-200971692D01*
X99629795Y-201978359D02*
X137025733Y-201978359D01*
X138032400Y-193152400D02*
X137030000Y-192150000D01*
X98948560Y-200551440D02*
X98948560Y-201297124D01*
X138032400Y-200971692D02*
X138032400Y-193152400D01*
X146150000Y-192205000D02*
X144335000Y-192205000D01*
%TO.N,Net-(C1-Pad1)*%
X92600000Y-198128564D02*
X98697395Y-204225959D01*
X140280000Y-184065000D02*
X140870000Y-183475000D01*
X98697395Y-204225959D02*
X137956723Y-204225959D01*
X140280000Y-201902682D02*
X140280000Y-184065000D01*
X137956723Y-204225959D02*
X140280000Y-201902682D01*
X92600000Y-194400000D02*
X92600000Y-198128564D01*
%TO.N,Net-(D1-Pad1)*%
X98883593Y-203776439D02*
X137770525Y-203776439D01*
X95100000Y-194400000D02*
X95100000Y-199992846D01*
X137770525Y-203776439D02*
X139830480Y-201716484D01*
X139830480Y-201716484D02*
X139830480Y-184185480D01*
X139830480Y-184185480D02*
X139120000Y-183475000D01*
X95100000Y-199992846D02*
X98883593Y-203776439D01*
%TO.N,Net-(LS1-Pad1)*%
X125050000Y-188705000D02*
X123085000Y-188705000D01*
%TO.N,Net-(LS1-Pad2)*%
X125050000Y-190455000D02*
X123085000Y-190455000D01*
%TO.N,Net-(LS2-Pad1)*%
X127585000Y-192205000D02*
X130754511Y-195374511D01*
X130754511Y-195374511D02*
X130754511Y-198675489D01*
X130754511Y-198675489D02*
X130030000Y-199400000D01*
X125050000Y-192205000D02*
X127585000Y-192205000D01*
%TO.N,Net-(LS2-Pad2)*%
X125050000Y-193955000D02*
X127585000Y-193955000D01*
X127585000Y-193955000D02*
X130030000Y-196400000D01*
%TO.N,Net-(MC1-Pad1)*%
X139380960Y-201530286D02*
X137584327Y-203326919D01*
X99069791Y-203326919D02*
X97600000Y-201857128D01*
X142620000Y-183475000D02*
X142620000Y-186400000D01*
X139380960Y-187900000D02*
X139380960Y-201530286D01*
X137780000Y-186299040D02*
X139380960Y-187900000D01*
X97600000Y-201857128D02*
X97600000Y-194400000D01*
%TO.N,Net-(SCL1-Pad1)*%
X87600000Y-194400000D02*
X101100000Y-207900000D01*
X145999118Y-197455000D02*
X146150000Y-197455000D01*
X135554118Y-207900000D02*
X145999118Y-197455000D01*
X101100000Y-207900000D02*
X135554118Y-207900000D01*
%TO.N,Net-(SDA1-Pad1)*%
X98511197Y-204675479D02*
X138142921Y-204675479D01*
X146150000Y-199205000D02*
X148725000Y-199205000D01*
X90100000Y-196264282D02*
X98007859Y-204172141D01*
X141030000Y-201788400D02*
X141030000Y-199150000D01*
X98007859Y-204172141D02*
X98511197Y-204675479D01*
X90100000Y-194400000D02*
X90100000Y-196264282D01*
X138142921Y-204675479D02*
X141030000Y-201788400D01*
%TO.N,Net-(U1-Pad11)*%
X137055489Y-187024049D02*
X137055489Y-183789511D01*
X98049520Y-196450480D02*
X98049520Y-201669520D01*
X138931440Y-188900000D02*
X137055489Y-187024049D01*
X98049520Y-201669520D02*
X99257399Y-202877399D01*
X137398129Y-202877399D02*
X138931440Y-201344088D01*
X138931440Y-201344088D02*
X138931440Y-188900000D01*
X99257399Y-202877399D02*
X137398129Y-202877399D01*
X137055489Y-183789511D02*
X137370000Y-183475000D01*
X100100000Y-194400000D02*
X98049520Y-196450480D01*
%TO.N,Net-(U1-Pad13)*%
X133870000Y-183475000D02*
X133870000Y-185310000D01*
%TO.N,Net-(J1-PadTN)*%
X132120000Y-183475000D02*
X132120000Y-181810000D01*
%TO.N,Net-(J1-PadT)*%
X135620000Y-185310000D02*
X133030000Y-187900000D01*
X133030000Y-187900000D02*
X132280000Y-187900000D01*
X135620000Y-183475000D02*
X135620000Y-185310000D01*
%TD*%
%TA.AperFunction,Conductor*%
%TO.N,GND*%
G36*
X148596186Y-178928502D02*
G01*
X148642679Y-178982158D01*
X148652783Y-179052432D01*
X148623289Y-179117012D01*
X148609896Y-179130311D01*
X148459102Y-179259102D01*
X148294672Y-179451624D01*
X148162384Y-179667498D01*
X148065495Y-179901409D01*
X148006391Y-180147597D01*
X147986526Y-180400000D01*
X148006391Y-180652403D01*
X148065495Y-180898591D01*
X148067388Y-180903162D01*
X148067389Y-180903164D01*
X148116929Y-181022763D01*
X148162384Y-181132502D01*
X148294672Y-181348376D01*
X148459102Y-181540898D01*
X148651624Y-181705328D01*
X148867498Y-181837616D01*
X148872068Y-181839509D01*
X148872072Y-181839511D01*
X149096836Y-181932611D01*
X149101409Y-181934505D01*
X149186032Y-181954821D01*
X149342784Y-181992454D01*
X149342790Y-181992455D01*
X149347597Y-181993609D01*
X149447416Y-182001465D01*
X149534345Y-182008307D01*
X149534352Y-182008307D01*
X149536801Y-182008500D01*
X149663199Y-182008500D01*
X149665648Y-182008307D01*
X149665655Y-182008307D01*
X149752584Y-182001465D01*
X149852403Y-181993609D01*
X149857210Y-181992455D01*
X149857216Y-181992454D01*
X150013968Y-181954821D01*
X150098591Y-181934505D01*
X150103164Y-181932611D01*
X150327928Y-181839511D01*
X150327932Y-181839509D01*
X150332502Y-181837616D01*
X150548376Y-181705328D01*
X150740898Y-181540898D01*
X150815873Y-181453114D01*
X150869689Y-181390104D01*
X150929140Y-181351295D01*
X151000135Y-181350789D01*
X151060133Y-181388745D01*
X151090086Y-181453114D01*
X151091500Y-181471935D01*
X151091500Y-192391377D01*
X151091498Y-192392147D01*
X151091024Y-192469721D01*
X151093491Y-192478352D01*
X151099150Y-192498153D01*
X151102728Y-192514915D01*
X151106920Y-192544187D01*
X151110634Y-192552355D01*
X151110634Y-192552356D01*
X151117548Y-192567562D01*
X151123996Y-192585086D01*
X151131051Y-192609771D01*
X151135843Y-192617365D01*
X151135844Y-192617368D01*
X151146830Y-192634780D01*
X151154969Y-192649863D01*
X151167208Y-192676782D01*
X151173069Y-192683584D01*
X151183970Y-192696235D01*
X151195073Y-192711239D01*
X151208776Y-192732958D01*
X151215501Y-192738897D01*
X151215504Y-192738901D01*
X151230938Y-192752532D01*
X151242982Y-192764724D01*
X151256427Y-192780327D01*
X151256430Y-192780329D01*
X151262287Y-192787127D01*
X151269816Y-192792007D01*
X151269817Y-192792008D01*
X151283835Y-192801094D01*
X151298709Y-192812385D01*
X151311217Y-192823431D01*
X151317951Y-192829378D01*
X151337380Y-192838500D01*
X151344711Y-192841942D01*
X151359691Y-192850263D01*
X151376983Y-192861471D01*
X151376988Y-192861473D01*
X151384515Y-192866352D01*
X151393108Y-192868922D01*
X151393113Y-192868924D01*
X151409120Y-192873711D01*
X151426564Y-192880372D01*
X151441676Y-192887467D01*
X151441678Y-192887468D01*
X151449800Y-192891281D01*
X151458667Y-192892662D01*
X151458668Y-192892662D01*
X151461353Y-192893080D01*
X151479017Y-192895830D01*
X151495732Y-192899613D01*
X151515466Y-192905515D01*
X151515472Y-192905516D01*
X151524066Y-192908086D01*
X151533037Y-192908141D01*
X151533038Y-192908141D01*
X151543097Y-192908202D01*
X151558506Y-192908296D01*
X151559289Y-192908329D01*
X151560386Y-192908500D01*
X151591377Y-192908500D01*
X151592147Y-192908502D01*
X151665785Y-192908952D01*
X151665786Y-192908952D01*
X151669721Y-192908976D01*
X151671065Y-192908592D01*
X151672410Y-192908500D01*
X152126749Y-192908500D01*
X152194870Y-192928502D01*
X152241363Y-192982158D01*
X152251467Y-193052432D01*
X152234181Y-193100335D01*
X152164975Y-193213268D01*
X152164969Y-193213279D01*
X152162384Y-193217498D01*
X152160491Y-193222068D01*
X152160489Y-193222072D01*
X152102817Y-193361305D01*
X152065495Y-193451409D01*
X152006391Y-193697597D01*
X151986526Y-193950000D01*
X152006391Y-194202403D01*
X152065495Y-194448591D01*
X152067388Y-194453162D01*
X152067389Y-194453164D01*
X152138734Y-194625405D01*
X152162384Y-194682502D01*
X152294672Y-194898376D01*
X152459102Y-195090898D01*
X152651624Y-195255328D01*
X152867498Y-195387616D01*
X152872068Y-195389509D01*
X152872072Y-195389511D01*
X153096836Y-195482611D01*
X153101409Y-195484505D01*
X153150877Y-195496381D01*
X153342784Y-195542454D01*
X153342790Y-195542455D01*
X153347597Y-195543609D01*
X153447416Y-195551465D01*
X153534345Y-195558307D01*
X153534352Y-195558307D01*
X153536801Y-195558500D01*
X153663199Y-195558500D01*
X153665648Y-195558307D01*
X153665655Y-195558307D01*
X153752584Y-195551465D01*
X153852403Y-195543609D01*
X153857210Y-195542455D01*
X153857216Y-195542454D01*
X154049123Y-195496381D01*
X154098591Y-195484505D01*
X154103164Y-195482611D01*
X154327928Y-195389511D01*
X154327932Y-195389509D01*
X154332502Y-195387616D01*
X154548376Y-195255328D01*
X154740898Y-195090898D01*
X154755105Y-195074264D01*
X154869689Y-194940104D01*
X154929140Y-194901295D01*
X155000135Y-194900789D01*
X155060133Y-194938745D01*
X155090086Y-195003114D01*
X155091500Y-195021935D01*
X155091500Y-199033678D01*
X155071498Y-199101799D01*
X155028502Y-199142795D01*
X138757773Y-208536980D01*
X138172984Y-208874618D01*
X138109983Y-208891500D01*
X97090016Y-208891500D01*
X97027015Y-208874618D01*
X96440013Y-208535702D01*
X80171498Y-199142794D01*
X80122506Y-199091412D01*
X80108500Y-199033677D01*
X80108500Y-195021935D01*
X80128502Y-194953814D01*
X80182158Y-194907321D01*
X80252432Y-194897217D01*
X80317012Y-194926711D01*
X80330311Y-194940104D01*
X80444895Y-195074264D01*
X80459102Y-195090898D01*
X80651624Y-195255328D01*
X80867498Y-195387616D01*
X80872068Y-195389509D01*
X80872072Y-195389511D01*
X81096836Y-195482611D01*
X81101409Y-195484505D01*
X81150877Y-195496381D01*
X81342784Y-195542454D01*
X81342790Y-195542455D01*
X81347597Y-195543609D01*
X81447416Y-195551465D01*
X81534345Y-195558307D01*
X81534352Y-195558307D01*
X81536801Y-195558500D01*
X81663199Y-195558500D01*
X81665648Y-195558307D01*
X81665655Y-195558307D01*
X81752584Y-195551465D01*
X81852403Y-195543609D01*
X81857210Y-195542455D01*
X81857216Y-195542454D01*
X82049123Y-195496381D01*
X82098591Y-195484505D01*
X82103164Y-195482611D01*
X82327928Y-195389511D01*
X82327932Y-195389509D01*
X82332502Y-195387616D01*
X82548376Y-195255328D01*
X82740898Y-195090898D01*
X82905328Y-194898376D01*
X83037616Y-194682502D01*
X83061267Y-194625405D01*
X83132611Y-194453164D01*
X83132612Y-194453162D01*
X83134505Y-194448591D01*
X83193609Y-194202403D01*
X83213474Y-193950000D01*
X83193609Y-193697597D01*
X83134505Y-193451409D01*
X83097183Y-193361305D01*
X83039511Y-193222072D01*
X83039509Y-193222068D01*
X83037616Y-193217498D01*
X83035031Y-193213279D01*
X83035025Y-193213268D01*
X82965819Y-193100335D01*
X82947280Y-193031802D01*
X82968736Y-192964125D01*
X83023375Y-192918792D01*
X83073251Y-192908500D01*
X87346815Y-192908500D01*
X87414936Y-192928502D01*
X87461429Y-192982158D01*
X87471533Y-193052432D01*
X87442039Y-193117012D01*
X87379427Y-193156207D01*
X87167924Y-193212880D01*
X87087593Y-193250339D01*
X86973334Y-193303618D01*
X86973329Y-193303621D01*
X86968347Y-193305944D01*
X86963840Y-193309100D01*
X86963838Y-193309101D01*
X86792473Y-193429092D01*
X86792470Y-193429094D01*
X86787962Y-193432251D01*
X86632251Y-193587962D01*
X86629094Y-193592470D01*
X86629092Y-193592473D01*
X86552029Y-193702531D01*
X86505944Y-193768347D01*
X86503621Y-193773329D01*
X86503618Y-193773334D01*
X86464195Y-193857878D01*
X86412880Y-193967924D01*
X86355885Y-194180629D01*
X86336693Y-194400000D01*
X86355885Y-194619371D01*
X86412880Y-194832076D01*
X86438452Y-194886916D01*
X86503618Y-195026666D01*
X86503621Y-195026671D01*
X86505944Y-195031653D01*
X86509100Y-195036160D01*
X86509101Y-195036162D01*
X86602174Y-195169083D01*
X86632251Y-195212038D01*
X86787962Y-195367749D01*
X86792471Y-195370906D01*
X86792473Y-195370908D01*
X86816335Y-195387616D01*
X86968346Y-195494056D01*
X87167924Y-195587120D01*
X87380629Y-195644115D01*
X87600000Y-195663307D01*
X87819371Y-195644115D01*
X87824681Y-195642692D01*
X87824688Y-195642691D01*
X87850719Y-195635716D01*
X87921696Y-195637406D01*
X87972424Y-195668328D01*
X100596348Y-208292253D01*
X100603888Y-208300539D01*
X100608000Y-208307018D01*
X100613777Y-208312443D01*
X100657651Y-208353643D01*
X100660493Y-208356398D01*
X100680230Y-208376135D01*
X100683427Y-208378615D01*
X100692447Y-208386318D01*
X100724679Y-208416586D01*
X100731625Y-208420405D01*
X100731628Y-208420407D01*
X100742434Y-208426348D01*
X100758953Y-208437199D01*
X100774959Y-208449614D01*
X100782228Y-208452759D01*
X100782232Y-208452762D01*
X100815537Y-208467174D01*
X100826187Y-208472391D01*
X100864940Y-208493695D01*
X100872615Y-208495666D01*
X100872616Y-208495666D01*
X100884562Y-208498733D01*
X100903267Y-208505137D01*
X100921855Y-208513181D01*
X100929678Y-208514420D01*
X100929688Y-208514423D01*
X100965524Y-208520099D01*
X100977144Y-208522505D01*
X101008959Y-208530673D01*
X101019970Y-208533500D01*
X101040224Y-208533500D01*
X101059934Y-208535051D01*
X101079943Y-208538220D01*
X101087835Y-208537474D01*
X101106580Y-208535702D01*
X101123962Y-208534059D01*
X101135819Y-208533500D01*
X135475351Y-208533500D01*
X135486534Y-208534027D01*
X135494027Y-208535702D01*
X135501953Y-208535453D01*
X135501954Y-208535453D01*
X135562104Y-208533562D01*
X135566063Y-208533500D01*
X135593974Y-208533500D01*
X135597909Y-208533003D01*
X135597974Y-208532995D01*
X135609811Y-208532062D01*
X135642069Y-208531048D01*
X135646088Y-208530922D01*
X135654007Y-208530673D01*
X135673461Y-208525021D01*
X135692818Y-208521013D01*
X135705048Y-208519468D01*
X135705049Y-208519468D01*
X135712915Y-208518474D01*
X135720286Y-208515555D01*
X135720288Y-208515555D01*
X135754030Y-208502196D01*
X135765260Y-208498351D01*
X135800101Y-208488229D01*
X135800102Y-208488229D01*
X135807711Y-208486018D01*
X135814530Y-208481985D01*
X135814535Y-208481983D01*
X135825146Y-208475707D01*
X135842894Y-208467012D01*
X135861735Y-208459552D01*
X135897505Y-208433564D01*
X135907425Y-208427048D01*
X135938653Y-208408580D01*
X135938656Y-208408578D01*
X135945480Y-208404542D01*
X135959801Y-208390221D01*
X135974835Y-208377380D01*
X135984812Y-208370131D01*
X135991225Y-208365472D01*
X136019416Y-208331395D01*
X136027406Y-208322616D01*
X141890761Y-202459261D01*
X141953073Y-202425235D01*
X142023888Y-202430300D01*
X142080724Y-202472847D01*
X142102375Y-202518942D01*
X142115495Y-202573591D01*
X142212384Y-202807502D01*
X142344672Y-203023376D01*
X142509102Y-203215898D01*
X142701624Y-203380328D01*
X142917498Y-203512616D01*
X142922068Y-203514509D01*
X142922072Y-203514511D01*
X143146836Y-203607611D01*
X143151409Y-203609505D01*
X143236032Y-203629821D01*
X143392784Y-203667454D01*
X143392790Y-203667455D01*
X143397597Y-203668609D01*
X143497416Y-203676465D01*
X143584345Y-203683307D01*
X143584352Y-203683307D01*
X143586801Y-203683500D01*
X143713199Y-203683500D01*
X143715648Y-203683307D01*
X143715655Y-203683307D01*
X143802584Y-203676465D01*
X143902403Y-203668609D01*
X143907210Y-203667455D01*
X143907216Y-203667454D01*
X144063968Y-203629821D01*
X144148591Y-203609505D01*
X144153164Y-203607611D01*
X144377928Y-203514511D01*
X144377932Y-203514509D01*
X144382502Y-203512616D01*
X144598376Y-203380328D01*
X144790898Y-203215898D01*
X144955328Y-203023376D01*
X145087616Y-202807502D01*
X145184505Y-202573591D01*
X145243609Y-202327403D01*
X145263474Y-202075000D01*
X145243609Y-201822597D01*
X145184505Y-201576409D01*
X145087616Y-201342498D01*
X144955328Y-201126624D01*
X144790898Y-200934102D01*
X144598376Y-200769672D01*
X144382502Y-200637384D01*
X144377932Y-200635491D01*
X144377928Y-200635489D01*
X144153164Y-200542389D01*
X144153162Y-200542388D01*
X144148591Y-200540495D01*
X144093942Y-200527375D01*
X144032373Y-200492023D01*
X143999690Y-200428996D01*
X144006270Y-200358305D01*
X144034261Y-200315761D01*
X144517070Y-199832952D01*
X144579382Y-199798926D01*
X144650197Y-199803991D01*
X144707033Y-199846538D01*
X144719603Y-199867205D01*
X144763379Y-199957760D01*
X144878292Y-200101708D01*
X145022240Y-200216621D01*
X145188070Y-200296786D01*
X145194931Y-200298370D01*
X145362341Y-200337020D01*
X145362344Y-200337020D01*
X145367540Y-200338220D01*
X145372396Y-200338500D01*
X146927604Y-200338500D01*
X146932460Y-200338220D01*
X146937656Y-200337020D01*
X146937659Y-200337020D01*
X147105069Y-200298370D01*
X147111930Y-200296786D01*
X147277760Y-200216621D01*
X147421708Y-200101708D01*
X147536621Y-199957760D01*
X147559873Y-199909661D01*
X147607529Y-199857036D01*
X147673313Y-199838500D01*
X148016800Y-199838500D01*
X148084921Y-199858502D01*
X148104147Y-199874843D01*
X148104420Y-199874540D01*
X148109332Y-199878963D01*
X148113747Y-199883866D01*
X148135329Y-199899546D01*
X148193558Y-199941852D01*
X148268248Y-199996118D01*
X148274276Y-199998802D01*
X148274278Y-199998803D01*
X148436681Y-200071109D01*
X148442712Y-200073794D01*
X148535454Y-200093507D01*
X148623056Y-200112128D01*
X148623061Y-200112128D01*
X148629513Y-200113500D01*
X148820487Y-200113500D01*
X148826939Y-200112128D01*
X148826944Y-200112128D01*
X148914546Y-200093507D01*
X149007288Y-200073794D01*
X149013319Y-200071109D01*
X149175722Y-199998803D01*
X149175724Y-199998802D01*
X149181752Y-199996118D01*
X149336253Y-199883866D01*
X149340675Y-199878955D01*
X149459621Y-199746852D01*
X149459622Y-199746851D01*
X149464040Y-199741944D01*
X149559527Y-199576556D01*
X149618542Y-199394928D01*
X149625013Y-199333365D01*
X149637814Y-199211565D01*
X149638504Y-199205000D01*
X149634947Y-199171157D01*
X149619232Y-199021635D01*
X149619232Y-199021633D01*
X149618542Y-199015072D01*
X149559527Y-198833444D01*
X149524469Y-198772721D01*
X149509868Y-198747433D01*
X149464040Y-198668056D01*
X149409270Y-198607227D01*
X149340675Y-198531045D01*
X149340674Y-198531044D01*
X149336253Y-198526134D01*
X149181752Y-198413882D01*
X149175724Y-198411198D01*
X149175722Y-198411197D01*
X149013319Y-198338891D01*
X149013318Y-198338891D01*
X149007288Y-198336206D01*
X148913887Y-198316353D01*
X148826944Y-198297872D01*
X148826939Y-198297872D01*
X148820487Y-198296500D01*
X148629513Y-198296500D01*
X148623061Y-198297872D01*
X148623056Y-198297872D01*
X148536113Y-198316353D01*
X148442712Y-198336206D01*
X148436682Y-198338891D01*
X148436681Y-198338891D01*
X148274278Y-198411197D01*
X148274276Y-198411198D01*
X148268248Y-198413882D01*
X148262907Y-198417762D01*
X148262906Y-198417763D01*
X148206720Y-198458585D01*
X148113747Y-198526134D01*
X148109332Y-198531037D01*
X148104420Y-198535460D01*
X148103295Y-198534211D01*
X148049986Y-198567051D01*
X148016800Y-198571500D01*
X147673313Y-198571500D01*
X147605192Y-198551498D01*
X147559873Y-198500339D01*
X147545755Y-198471134D01*
X147536621Y-198452240D01*
X147501789Y-198408607D01*
X147474922Y-198342894D01*
X147487849Y-198273084D01*
X147501785Y-198251398D01*
X147536621Y-198207760D01*
X147616786Y-198041930D01*
X147645128Y-197919168D01*
X147657020Y-197867659D01*
X147657020Y-197867656D01*
X147658220Y-197862460D01*
X147658500Y-197857604D01*
X147658500Y-197052396D01*
X147658220Y-197047540D01*
X147646970Y-196998808D01*
X147618370Y-196874931D01*
X147616786Y-196868070D01*
X147566996Y-196765074D01*
X147539688Y-196708584D01*
X147539687Y-196708583D01*
X147536621Y-196702240D01*
X147501789Y-196658607D01*
X147474922Y-196592894D01*
X147487849Y-196523084D01*
X147501785Y-196501398D01*
X147536621Y-196457760D01*
X147552600Y-196424707D01*
X147613720Y-196298272D01*
X147616786Y-196291930D01*
X147658220Y-196112460D01*
X147658500Y-196107604D01*
X147658500Y-195302396D01*
X147658220Y-195297540D01*
X147637628Y-195208344D01*
X147618370Y-195124931D01*
X147616786Y-195118070D01*
X147554861Y-194989971D01*
X147539688Y-194958584D01*
X147539687Y-194958583D01*
X147536621Y-194952240D01*
X147501789Y-194908607D01*
X147474922Y-194842894D01*
X147487849Y-194773084D01*
X147501785Y-194751398D01*
X147536621Y-194707760D01*
X147616786Y-194541930D01*
X147658220Y-194362460D01*
X147658500Y-194357604D01*
X147658500Y-193552396D01*
X147658220Y-193547540D01*
X147639625Y-193466994D01*
X147618370Y-193374931D01*
X147616786Y-193368070D01*
X147543997Y-193217498D01*
X147539688Y-193208584D01*
X147539687Y-193208583D01*
X147536621Y-193202240D01*
X147501789Y-193158607D01*
X147474922Y-193092894D01*
X147487849Y-193023084D01*
X147501785Y-193001398D01*
X147536621Y-192957760D01*
X147567274Y-192894352D01*
X147598683Y-192829378D01*
X147616786Y-192791930D01*
X147630401Y-192732958D01*
X147657020Y-192617659D01*
X147657020Y-192617656D01*
X147658220Y-192612460D01*
X147658500Y-192607604D01*
X147658500Y-191802396D01*
X147658220Y-191797540D01*
X147655263Y-191784729D01*
X147618370Y-191624931D01*
X147616786Y-191618070D01*
X147572343Y-191526134D01*
X147539688Y-191458584D01*
X147539687Y-191458583D01*
X147536621Y-191452240D01*
X147501789Y-191408607D01*
X147474922Y-191342894D01*
X147487849Y-191273084D01*
X147501785Y-191251398D01*
X147536621Y-191207760D01*
X147570466Y-191137749D01*
X147579977Y-191118073D01*
X147616786Y-191041930D01*
X147658220Y-190862460D01*
X147658500Y-190857604D01*
X147658500Y-190052396D01*
X147658220Y-190047540D01*
X147655263Y-190034729D01*
X147618370Y-189874931D01*
X147616786Y-189868070D01*
X147572343Y-189776134D01*
X147539688Y-189708584D01*
X147539687Y-189708583D01*
X147536621Y-189702240D01*
X147421708Y-189558292D01*
X147277760Y-189443379D01*
X147230948Y-189420749D01*
X147118272Y-189366280D01*
X147118273Y-189366280D01*
X147111930Y-189363214D01*
X147105069Y-189361630D01*
X146937659Y-189322980D01*
X146937656Y-189322980D01*
X146932460Y-189321780D01*
X146927604Y-189321500D01*
X145372396Y-189321500D01*
X145367540Y-189321780D01*
X145362344Y-189322980D01*
X145362341Y-189322980D01*
X145194931Y-189361630D01*
X145188070Y-189363214D01*
X145181727Y-189366280D01*
X145181728Y-189366280D01*
X145069053Y-189420749D01*
X145022240Y-189443379D01*
X144878292Y-189558292D01*
X144854165Y-189588515D01*
X144796037Y-189629272D01*
X144725098Y-189632132D01*
X144704448Y-189625011D01*
X144623323Y-189588892D01*
X144623315Y-189588889D01*
X144617288Y-189586206D01*
X144511830Y-189563790D01*
X144436944Y-189547872D01*
X144436939Y-189547872D01*
X144430487Y-189546500D01*
X144239513Y-189546500D01*
X144233061Y-189547872D01*
X144233056Y-189547872D01*
X144158170Y-189563790D01*
X144052712Y-189586206D01*
X144046682Y-189588891D01*
X144046681Y-189588891D01*
X143884278Y-189661197D01*
X143884276Y-189661198D01*
X143878248Y-189663882D01*
X143723747Y-189776134D01*
X143719326Y-189781044D01*
X143719325Y-189781045D01*
X143600412Y-189913112D01*
X143595960Y-189918056D01*
X143592659Y-189923774D01*
X143517346Y-190054220D01*
X143500473Y-190083444D01*
X143441458Y-190265072D01*
X143421496Y-190455000D01*
X143422186Y-190461565D01*
X143434988Y-190583365D01*
X143441458Y-190644928D01*
X143500473Y-190826556D01*
X143503776Y-190832278D01*
X143503777Y-190832279D01*
X143518399Y-190857604D01*
X143595960Y-190991944D01*
X143600378Y-190996851D01*
X143600379Y-190996852D01*
X143646678Y-191048272D01*
X143723747Y-191133866D01*
X143729089Y-191137747D01*
X143729091Y-191137749D01*
X143853399Y-191228064D01*
X143896753Y-191284286D01*
X143902828Y-191355023D01*
X143869696Y-191417814D01*
X143853399Y-191431936D01*
X143759251Y-191500339D01*
X143723747Y-191526134D01*
X143719326Y-191531044D01*
X143719325Y-191531045D01*
X143610203Y-191652238D01*
X143595960Y-191668056D01*
X143581073Y-191693841D01*
X143517346Y-191804220D01*
X143500473Y-191833444D01*
X143441458Y-192015072D01*
X143440768Y-192021633D01*
X143440768Y-192021635D01*
X143427967Y-192143435D01*
X143421496Y-192205000D01*
X143422186Y-192211565D01*
X143437828Y-192360386D01*
X143441458Y-192394928D01*
X143500473Y-192576556D01*
X143503776Y-192582278D01*
X143503777Y-192582279D01*
X143517985Y-192606887D01*
X143595960Y-192741944D01*
X143600378Y-192746851D01*
X143600379Y-192746852D01*
X143688779Y-192845030D01*
X143723747Y-192883866D01*
X143878248Y-192996118D01*
X143884276Y-192998802D01*
X143884278Y-192998803D01*
X144015279Y-193057128D01*
X144052712Y-193073794D01*
X144142570Y-193092894D01*
X144233056Y-193112128D01*
X144233061Y-193112128D01*
X144239513Y-193113500D01*
X144430487Y-193113500D01*
X144436939Y-193112128D01*
X144436944Y-193112128D01*
X144597736Y-193077950D01*
X144668527Y-193083352D01*
X144725159Y-193126169D01*
X144749653Y-193192807D01*
X144737373Y-193256036D01*
X144683214Y-193368070D01*
X144681630Y-193374931D01*
X144660376Y-193466994D01*
X144641780Y-193547540D01*
X144641500Y-193552396D01*
X144641500Y-194357604D01*
X144641780Y-194362460D01*
X144683214Y-194541930D01*
X144763379Y-194707760D01*
X144798211Y-194751393D01*
X144825078Y-194817106D01*
X144812151Y-194886916D01*
X144798215Y-194908602D01*
X144763379Y-194952240D01*
X144760313Y-194958583D01*
X144760312Y-194958584D01*
X144745139Y-194989971D01*
X144683214Y-195118070D01*
X144681630Y-195124931D01*
X144662373Y-195208344D01*
X144641780Y-195297540D01*
X144641500Y-195302396D01*
X144641500Y-196107604D01*
X144641780Y-196112460D01*
X144683214Y-196291930D01*
X144686280Y-196298272D01*
X144747401Y-196424707D01*
X144763379Y-196457760D01*
X144798211Y-196501393D01*
X144825078Y-196567106D01*
X144812151Y-196636916D01*
X144798215Y-196658602D01*
X144763379Y-196702240D01*
X144760313Y-196708583D01*
X144760312Y-196708584D01*
X144733004Y-196765074D01*
X144683214Y-196868070D01*
X144681630Y-196874931D01*
X144653031Y-196998808D01*
X144641780Y-197047540D01*
X144641500Y-197052396D01*
X144641500Y-197857604D01*
X144641606Y-197859436D01*
X144641642Y-197860697D01*
X144623612Y-197929366D01*
X144604789Y-197953425D01*
X141878595Y-200679619D01*
X141816283Y-200713645D01*
X141745468Y-200708580D01*
X141688632Y-200666033D01*
X141663821Y-200599513D01*
X141663500Y-200590524D01*
X141663500Y-199852524D01*
X141683502Y-199784403D01*
X141695858Y-199768221D01*
X141769040Y-199686944D01*
X141828841Y-199583365D01*
X141861223Y-199527279D01*
X141861224Y-199527278D01*
X141864527Y-199521556D01*
X141923542Y-199339928D01*
X141928602Y-199291791D01*
X141942814Y-199156565D01*
X141943504Y-199150000D01*
X141938438Y-199101799D01*
X141924232Y-198966635D01*
X141924232Y-198966633D01*
X141923542Y-198960072D01*
X141864527Y-198778444D01*
X141846714Y-198747590D01*
X141812109Y-198687654D01*
X141769040Y-198613056D01*
X141674636Y-198508209D01*
X141645675Y-198476045D01*
X141645674Y-198476044D01*
X141641253Y-198471134D01*
X141525523Y-198387051D01*
X141492094Y-198362763D01*
X141492093Y-198362762D01*
X141486752Y-198358882D01*
X141480724Y-198356198D01*
X141480722Y-198356197D01*
X141318319Y-198283891D01*
X141318318Y-198283891D01*
X141312288Y-198281206D01*
X141218888Y-198261353D01*
X141131944Y-198242872D01*
X141131939Y-198242872D01*
X141125487Y-198241500D01*
X141039500Y-198241500D01*
X140971379Y-198221498D01*
X140924886Y-198167842D01*
X140913500Y-198115500D01*
X140913500Y-185109500D01*
X140933502Y-185041379D01*
X140987158Y-184994886D01*
X141039500Y-184983500D01*
X141272604Y-184983500D01*
X141277460Y-184983220D01*
X141282656Y-184982020D01*
X141282659Y-184982020D01*
X141450069Y-184943370D01*
X141456930Y-184941786D01*
X141579450Y-184882558D01*
X141616416Y-184864688D01*
X141616417Y-184864687D01*
X141622760Y-184861621D01*
X141666393Y-184826789D01*
X141732106Y-184799922D01*
X141801916Y-184812849D01*
X141823602Y-184826785D01*
X141867240Y-184861621D01*
X141886472Y-184870918D01*
X141915339Y-184884873D01*
X141967964Y-184932529D01*
X141986500Y-184998313D01*
X141986500Y-185697476D01*
X141966498Y-185765597D01*
X141954142Y-185781779D01*
X141880960Y-185863056D01*
X141877659Y-185868774D01*
X141806082Y-185992749D01*
X141785473Y-186028444D01*
X141726458Y-186210072D01*
X141725768Y-186216633D01*
X141725768Y-186216635D01*
X141712970Y-186338399D01*
X141706496Y-186400000D01*
X141726458Y-186589928D01*
X141785473Y-186771556D01*
X141880960Y-186936944D01*
X141885378Y-186941851D01*
X141885379Y-186941852D01*
X141899146Y-186957142D01*
X142008747Y-187078866D01*
X142070783Y-187123938D01*
X142151863Y-187182846D01*
X142163248Y-187191118D01*
X142169276Y-187193802D01*
X142169278Y-187193803D01*
X142262238Y-187235191D01*
X142337712Y-187268794D01*
X142411443Y-187284466D01*
X142518056Y-187307128D01*
X142518061Y-187307128D01*
X142524513Y-187308500D01*
X142715487Y-187308500D01*
X142721939Y-187307128D01*
X142721944Y-187307128D01*
X142828557Y-187284466D01*
X142902288Y-187268794D01*
X142977762Y-187235191D01*
X143070722Y-187193803D01*
X143070724Y-187193802D01*
X143076752Y-187191118D01*
X143088138Y-187182846D01*
X143169217Y-187123938D01*
X143231253Y-187078866D01*
X143340854Y-186957142D01*
X143354621Y-186941852D01*
X143354622Y-186941851D01*
X143359040Y-186936944D01*
X143454527Y-186771556D01*
X143513542Y-186589928D01*
X143533504Y-186400000D01*
X143527030Y-186338399D01*
X143514232Y-186216635D01*
X143514232Y-186216633D01*
X143513542Y-186210072D01*
X143454527Y-186028444D01*
X143433919Y-185992749D01*
X143362341Y-185868774D01*
X143359040Y-185863056D01*
X143285863Y-185781785D01*
X143255147Y-185717779D01*
X143253500Y-185697476D01*
X143253500Y-184998313D01*
X143273502Y-184930192D01*
X143324661Y-184884873D01*
X143353528Y-184870918D01*
X143372760Y-184861621D01*
X143516708Y-184746708D01*
X143631621Y-184602760D01*
X143711786Y-184436930D01*
X143753220Y-184257460D01*
X143753500Y-184252604D01*
X143753500Y-182697396D01*
X143753220Y-182692540D01*
X143711786Y-182513070D01*
X143631621Y-182347240D01*
X143516708Y-182203292D01*
X143372760Y-182088379D01*
X143287991Y-182047400D01*
X143213272Y-182011280D01*
X143213273Y-182011280D01*
X143206930Y-182008214D01*
X143198215Y-182006202D01*
X143032659Y-181967980D01*
X143032656Y-181967980D01*
X143027460Y-181966780D01*
X143022604Y-181966500D01*
X142217396Y-181966500D01*
X142212540Y-181966780D01*
X142207344Y-181967980D01*
X142207341Y-181967980D01*
X142041785Y-182006202D01*
X142033070Y-182008214D01*
X142026727Y-182011280D01*
X142026728Y-182011280D01*
X141952010Y-182047400D01*
X141867240Y-182088379D01*
X141823607Y-182123211D01*
X141757894Y-182150078D01*
X141688084Y-182137151D01*
X141666398Y-182123215D01*
X141622760Y-182088379D01*
X141537991Y-182047400D01*
X141463272Y-182011280D01*
X141463273Y-182011280D01*
X141456930Y-182008214D01*
X141448215Y-182006202D01*
X141282659Y-181967980D01*
X141282656Y-181967980D01*
X141277460Y-181966780D01*
X141272604Y-181966500D01*
X140467396Y-181966500D01*
X140462540Y-181966780D01*
X140457344Y-181967980D01*
X140457341Y-181967980D01*
X140291785Y-182006202D01*
X140283070Y-182008214D01*
X140276727Y-182011280D01*
X140276728Y-182011280D01*
X140202010Y-182047400D01*
X140117240Y-182088379D01*
X140073607Y-182123211D01*
X140007894Y-182150078D01*
X139938084Y-182137151D01*
X139916398Y-182123215D01*
X139872760Y-182088379D01*
X139787991Y-182047400D01*
X139713272Y-182011280D01*
X139713273Y-182011280D01*
X139706930Y-182008214D01*
X139698215Y-182006202D01*
X139532659Y-181967980D01*
X139532656Y-181967980D01*
X139527460Y-181966780D01*
X139522604Y-181966500D01*
X138717396Y-181966500D01*
X138712540Y-181966780D01*
X138707344Y-181967980D01*
X138707341Y-181967980D01*
X138541785Y-182006202D01*
X138533070Y-182008214D01*
X138526727Y-182011280D01*
X138526728Y-182011280D01*
X138452010Y-182047400D01*
X138367240Y-182088379D01*
X138323607Y-182123211D01*
X138257894Y-182150078D01*
X138188084Y-182137151D01*
X138166398Y-182123215D01*
X138122760Y-182088379D01*
X138037991Y-182047400D01*
X137963272Y-182011280D01*
X137963273Y-182011280D01*
X137956930Y-182008214D01*
X137948215Y-182006202D01*
X137782659Y-181967980D01*
X137782656Y-181967980D01*
X137777460Y-181966780D01*
X137772604Y-181966500D01*
X136967396Y-181966500D01*
X136962540Y-181966780D01*
X136957344Y-181967980D01*
X136957341Y-181967980D01*
X136791785Y-182006202D01*
X136783070Y-182008214D01*
X136776727Y-182011280D01*
X136776728Y-182011280D01*
X136702010Y-182047400D01*
X136617240Y-182088379D01*
X136573607Y-182123211D01*
X136507894Y-182150078D01*
X136438084Y-182137151D01*
X136416398Y-182123215D01*
X136372760Y-182088379D01*
X136287991Y-182047400D01*
X136213272Y-182011280D01*
X136213273Y-182011280D01*
X136206930Y-182008214D01*
X136198215Y-182006202D01*
X136032659Y-181967980D01*
X136032656Y-181967980D01*
X136027460Y-181966780D01*
X136022604Y-181966500D01*
X135217396Y-181966500D01*
X135212540Y-181966780D01*
X135207344Y-181967980D01*
X135207341Y-181967980D01*
X135041785Y-182006202D01*
X135033070Y-182008214D01*
X135026727Y-182011280D01*
X135026728Y-182011280D01*
X134952010Y-182047400D01*
X134867240Y-182088379D01*
X134823607Y-182123211D01*
X134757894Y-182150078D01*
X134688084Y-182137151D01*
X134666398Y-182123215D01*
X134622760Y-182088379D01*
X134537991Y-182047400D01*
X134463272Y-182011280D01*
X134463273Y-182011280D01*
X134456930Y-182008214D01*
X134448215Y-182006202D01*
X134282659Y-181967980D01*
X134282656Y-181967980D01*
X134277460Y-181966780D01*
X134272604Y-181966500D01*
X133467396Y-181966500D01*
X133462540Y-181966780D01*
X133457344Y-181967980D01*
X133457341Y-181967980D01*
X133291785Y-182006202D01*
X133283070Y-182008214D01*
X133276727Y-182011280D01*
X133276728Y-182011280D01*
X133202009Y-182047400D01*
X133131973Y-182059040D01*
X133066762Y-182030968D01*
X133027080Y-181972096D01*
X133021860Y-181920790D01*
X133032814Y-181816565D01*
X133033504Y-181810000D01*
X133013542Y-181620072D01*
X132954527Y-181438444D01*
X132859040Y-181273056D01*
X132736285Y-181136722D01*
X132735675Y-181136045D01*
X132735674Y-181136044D01*
X132731253Y-181131134D01*
X132576752Y-181018882D01*
X132570724Y-181016198D01*
X132570722Y-181016197D01*
X132408319Y-180943891D01*
X132408318Y-180943891D01*
X132402288Y-180941206D01*
X132308888Y-180921353D01*
X132221944Y-180902872D01*
X132221939Y-180902872D01*
X132215487Y-180901500D01*
X132024513Y-180901500D01*
X132018061Y-180902872D01*
X132018056Y-180902872D01*
X131931112Y-180921353D01*
X131837712Y-180941206D01*
X131831682Y-180943891D01*
X131831681Y-180943891D01*
X131669278Y-181016197D01*
X131669276Y-181016198D01*
X131663248Y-181018882D01*
X131508747Y-181131134D01*
X131504326Y-181136044D01*
X131504325Y-181136045D01*
X131503716Y-181136722D01*
X131380960Y-181273056D01*
X131285473Y-181438444D01*
X131226458Y-181620072D01*
X131206496Y-181810000D01*
X131207186Y-181816565D01*
X131222951Y-181966556D01*
X131226458Y-181999928D01*
X131251967Y-182078436D01*
X131253995Y-182149400D01*
X131223127Y-182203160D01*
X131223292Y-182203292D01*
X131108379Y-182347240D01*
X131028214Y-182513070D01*
X130986780Y-182692540D01*
X130986500Y-182697396D01*
X130986500Y-184252604D01*
X130986780Y-184257460D01*
X131028214Y-184436930D01*
X131108379Y-184602760D01*
X131223292Y-184746708D01*
X131367240Y-184861621D01*
X131373583Y-184864687D01*
X131373584Y-184864688D01*
X131410550Y-184882558D01*
X131533070Y-184941786D01*
X131539931Y-184943370D01*
X131707341Y-184982020D01*
X131707344Y-184982020D01*
X131712540Y-184983220D01*
X131717396Y-184983500D01*
X132522604Y-184983500D01*
X132527460Y-184983220D01*
X132532656Y-184982020D01*
X132532659Y-184982020D01*
X132700069Y-184943370D01*
X132706930Y-184941786D01*
X132829450Y-184882558D01*
X132899485Y-184870918D01*
X132964696Y-184898990D01*
X133004378Y-184957861D01*
X133004121Y-185034934D01*
X132976458Y-185120072D01*
X132956496Y-185310000D01*
X132957186Y-185316565D01*
X132975220Y-185488145D01*
X132976458Y-185499928D01*
X133035473Y-185681556D01*
X133038776Y-185687278D01*
X133038777Y-185687279D01*
X133056255Y-185717551D01*
X133130960Y-185846944D01*
X133135378Y-185851851D01*
X133135379Y-185851852D01*
X133145467Y-185863056D01*
X133258747Y-185988866D01*
X133413248Y-186101118D01*
X133419276Y-186103802D01*
X133419278Y-186103803D01*
X133581685Y-186176111D01*
X133581688Y-186176112D01*
X133587712Y-186178794D01*
X133594162Y-186180165D01*
X133594679Y-186180333D01*
X133653284Y-186220408D01*
X133680919Y-186285805D01*
X133668811Y-186355762D01*
X133644835Y-186389260D01*
X132922002Y-187112093D01*
X132859690Y-187146119D01*
X132788875Y-187141054D01*
X132758847Y-187124935D01*
X132746575Y-187116019D01*
X132736752Y-187108882D01*
X132730724Y-187106198D01*
X132730722Y-187106197D01*
X132568319Y-187033891D01*
X132568318Y-187033891D01*
X132562288Y-187031206D01*
X132468887Y-187011353D01*
X132381944Y-186992872D01*
X132381939Y-186992872D01*
X132375487Y-186991500D01*
X132184513Y-186991500D01*
X132178061Y-186992872D01*
X132178056Y-186992872D01*
X132091113Y-187011353D01*
X131997712Y-187031206D01*
X131991682Y-187033891D01*
X131991681Y-187033891D01*
X131829278Y-187106197D01*
X131829276Y-187106198D01*
X131823248Y-187108882D01*
X131668747Y-187221134D01*
X131664326Y-187226044D01*
X131664325Y-187226045D01*
X131569224Y-187331666D01*
X131540960Y-187363056D01*
X131510733Y-187415411D01*
X131455741Y-187510660D01*
X131445473Y-187528444D01*
X131386458Y-187710072D01*
X131385768Y-187716633D01*
X131385768Y-187716635D01*
X131376135Y-187808292D01*
X131366496Y-187900000D01*
X131367186Y-187906565D01*
X131375877Y-187989251D01*
X131386458Y-188089928D01*
X131445473Y-188271556D01*
X131448776Y-188277278D01*
X131448777Y-188277279D01*
X131464332Y-188304220D01*
X131540960Y-188436944D01*
X131545378Y-188441851D01*
X131545379Y-188441852D01*
X131627452Y-188533003D01*
X131668747Y-188578866D01*
X131823248Y-188691118D01*
X131829276Y-188693802D01*
X131829278Y-188693803D01*
X131991681Y-188766109D01*
X131997712Y-188768794D01*
X132091113Y-188788647D01*
X132178056Y-188807128D01*
X132178061Y-188807128D01*
X132184513Y-188808500D01*
X132375487Y-188808500D01*
X132381939Y-188807128D01*
X132381944Y-188807128D01*
X132468887Y-188788647D01*
X132562288Y-188768794D01*
X132568319Y-188766109D01*
X132730722Y-188693803D01*
X132730724Y-188693802D01*
X132736752Y-188691118D01*
X132891253Y-188578866D01*
X132895668Y-188573963D01*
X132900580Y-188569540D01*
X132902153Y-188571288D01*
X132953444Y-188539689D01*
X132982674Y-188535301D01*
X133033894Y-188533691D01*
X133037986Y-188533562D01*
X133041945Y-188533500D01*
X133069856Y-188533500D01*
X133073791Y-188533003D01*
X133073856Y-188532995D01*
X133085693Y-188532062D01*
X133117951Y-188531048D01*
X133121970Y-188530922D01*
X133129889Y-188530673D01*
X133149343Y-188525021D01*
X133168700Y-188521013D01*
X133180930Y-188519468D01*
X133180931Y-188519468D01*
X133188797Y-188518474D01*
X133196168Y-188515555D01*
X133196170Y-188515555D01*
X133229912Y-188502196D01*
X133241142Y-188498351D01*
X133275983Y-188488229D01*
X133275984Y-188488229D01*
X133283593Y-188486018D01*
X133290412Y-188481985D01*
X133290417Y-188481983D01*
X133301028Y-188475707D01*
X133318776Y-188467012D01*
X133337617Y-188459552D01*
X133373387Y-188433564D01*
X133383307Y-188427048D01*
X133414535Y-188408580D01*
X133414538Y-188408578D01*
X133421362Y-188404542D01*
X133435683Y-188390221D01*
X133450717Y-188377380D01*
X133460694Y-188370131D01*
X133467107Y-188365472D01*
X133495298Y-188331395D01*
X133503288Y-188322616D01*
X136012253Y-185813652D01*
X136020539Y-185806112D01*
X136027018Y-185802000D01*
X136073644Y-185752348D01*
X136076398Y-185749507D01*
X136096135Y-185729770D01*
X136098615Y-185726573D01*
X136106320Y-185717551D01*
X136131159Y-185691100D01*
X136136586Y-185685321D01*
X136140405Y-185678375D01*
X136140407Y-185678372D01*
X136146348Y-185667566D01*
X136157199Y-185651047D01*
X136164758Y-185641301D01*
X136169614Y-185635041D01*
X136180352Y-185610227D01*
X136225763Y-185555653D01*
X136293470Y-185534293D01*
X136361977Y-185552930D01*
X136409533Y-185605645D01*
X136421989Y-185660268D01*
X136421989Y-186945282D01*
X136421462Y-186956465D01*
X136419787Y-186963958D01*
X136420036Y-186971884D01*
X136420036Y-186971885D01*
X136421927Y-187032035D01*
X136421989Y-187035994D01*
X136421989Y-187063905D01*
X136422486Y-187067839D01*
X136422486Y-187067840D01*
X136422494Y-187067905D01*
X136423427Y-187079742D01*
X136424816Y-187123938D01*
X136429789Y-187141054D01*
X136430467Y-187143388D01*
X136434476Y-187162749D01*
X136437015Y-187182846D01*
X136439934Y-187190217D01*
X136439934Y-187190219D01*
X136453293Y-187223961D01*
X136457138Y-187235191D01*
X136469471Y-187277642D01*
X136473504Y-187284461D01*
X136473506Y-187284466D01*
X136479782Y-187295077D01*
X136488477Y-187312825D01*
X136495937Y-187331666D01*
X136500599Y-187338082D01*
X136500599Y-187338083D01*
X136521925Y-187367436D01*
X136528441Y-187377356D01*
X136550947Y-187415411D01*
X136565268Y-187429732D01*
X136578108Y-187444765D01*
X136590017Y-187461156D01*
X136596123Y-187466207D01*
X136624094Y-187489347D01*
X136632873Y-187497337D01*
X138261035Y-189125499D01*
X138295061Y-189187811D01*
X138297940Y-189214594D01*
X138297940Y-189587685D01*
X138277938Y-189655806D01*
X138224282Y-189702299D01*
X138154008Y-189712403D01*
X138097879Y-189689621D01*
X137992094Y-189612763D01*
X137992093Y-189612762D01*
X137986752Y-189608882D01*
X137980724Y-189606198D01*
X137980722Y-189606197D01*
X137818319Y-189533891D01*
X137818318Y-189533891D01*
X137812288Y-189531206D01*
X137718888Y-189511353D01*
X137631944Y-189492872D01*
X137631939Y-189492872D01*
X137625487Y-189491500D01*
X137434513Y-189491500D01*
X137428061Y-189492872D01*
X137428056Y-189492872D01*
X137341112Y-189511353D01*
X137247712Y-189531206D01*
X137241682Y-189533891D01*
X137241681Y-189533891D01*
X137079278Y-189606197D01*
X137079276Y-189606198D01*
X137073248Y-189608882D01*
X136918747Y-189721134D01*
X136790960Y-189863056D01*
X136695473Y-190028444D01*
X136636458Y-190210072D01*
X136635768Y-190216633D01*
X136635768Y-190216635D01*
X136617186Y-190393435D01*
X136616496Y-190400000D01*
X136636458Y-190589928D01*
X136695473Y-190771556D01*
X136698776Y-190777278D01*
X136698777Y-190777279D01*
X136732686Y-190836010D01*
X136790960Y-190936944D01*
X136795378Y-190941851D01*
X136795379Y-190941852D01*
X136898162Y-191056004D01*
X136928880Y-191120011D01*
X136920115Y-191190465D01*
X136874652Y-191244996D01*
X136830724Y-191263560D01*
X136754176Y-191279831D01*
X136754167Y-191279834D01*
X136747712Y-191281206D01*
X136741682Y-191283891D01*
X136741681Y-191283891D01*
X136579278Y-191356197D01*
X136579276Y-191356198D01*
X136573248Y-191358882D01*
X136418747Y-191471134D01*
X136414326Y-191476044D01*
X136414325Y-191476045D01*
X136326602Y-191573472D01*
X136290960Y-191613056D01*
X136255844Y-191673879D01*
X136224098Y-191728865D01*
X136195473Y-191778444D01*
X136136458Y-191960072D01*
X136135768Y-191966633D01*
X136135768Y-191966635D01*
X136128333Y-192037377D01*
X136116496Y-192150000D01*
X136136458Y-192339928D01*
X136195473Y-192521556D01*
X136198776Y-192527278D01*
X136198777Y-192527279D01*
X136232153Y-192585087D01*
X136290960Y-192686944D01*
X136295378Y-192691851D01*
X136295379Y-192691852D01*
X136360993Y-192764724D01*
X136418747Y-192828866D01*
X136517824Y-192900850D01*
X136555884Y-192928502D01*
X136573248Y-192941118D01*
X136579276Y-192943802D01*
X136579278Y-192943803D01*
X136709147Y-193001624D01*
X136747712Y-193018794D01*
X136841113Y-193038647D01*
X136928056Y-193057128D01*
X136928061Y-193057128D01*
X136934513Y-193058500D01*
X136990406Y-193058500D01*
X137058527Y-193078502D01*
X137079501Y-193095405D01*
X137361995Y-193377899D01*
X137396021Y-193440211D01*
X137398900Y-193466994D01*
X137398900Y-200657097D01*
X137378898Y-200725218D01*
X137361995Y-200746193D01*
X136800232Y-201307955D01*
X136737920Y-201341980D01*
X136711137Y-201344859D01*
X99944390Y-201344859D01*
X99876269Y-201324857D01*
X99855294Y-201307954D01*
X99618964Y-201071623D01*
X99584939Y-201009311D01*
X99582060Y-200982528D01*
X99582060Y-200866034D01*
X99602062Y-200797913D01*
X99618965Y-200776939D01*
X101560130Y-198835774D01*
X116238102Y-198835774D01*
X116238302Y-198841103D01*
X116238302Y-198841105D01*
X116239126Y-198863056D01*
X116246751Y-199066158D01*
X116294093Y-199291791D01*
X116296051Y-199296750D01*
X116296052Y-199296752D01*
X116365086Y-199471555D01*
X116378776Y-199506221D01*
X116381543Y-199510780D01*
X116381544Y-199510783D01*
X116433380Y-199596206D01*
X116498377Y-199703317D01*
X116501874Y-199707347D01*
X116642105Y-199868949D01*
X116649477Y-199877445D01*
X116653608Y-199880832D01*
X116823627Y-200020240D01*
X116823633Y-200020244D01*
X116827755Y-200023624D01*
X116832391Y-200026263D01*
X116832394Y-200026265D01*
X116964929Y-200101708D01*
X117028114Y-200137675D01*
X117244825Y-200216337D01*
X117250074Y-200217286D01*
X117250077Y-200217287D01*
X117467608Y-200256623D01*
X117467615Y-200256624D01*
X117471692Y-200257361D01*
X117489414Y-200258197D01*
X117494356Y-200258430D01*
X117494363Y-200258430D01*
X117495844Y-200258500D01*
X117657890Y-200258500D01*
X117724809Y-200252822D01*
X117824409Y-200244371D01*
X117824413Y-200244370D01*
X117829720Y-200243920D01*
X117834875Y-200242582D01*
X117834881Y-200242581D01*
X118047703Y-200187343D01*
X118047707Y-200187342D01*
X118052872Y-200186001D01*
X118057738Y-200183809D01*
X118057741Y-200183808D01*
X118230244Y-200106101D01*
X118263075Y-200091312D01*
X118454319Y-199962559D01*
X118476026Y-199941852D01*
X118555170Y-199866352D01*
X118621135Y-199803424D01*
X118640588Y-199777279D01*
X118755568Y-199622740D01*
X118758754Y-199618458D01*
X118770068Y-199596206D01*
X118833443Y-199471555D01*
X118863240Y-199412949D01*
X118865223Y-199406565D01*
X118930024Y-199197871D01*
X118931607Y-199192773D01*
X118941730Y-199116394D01*
X118961198Y-198969511D01*
X118961198Y-198969506D01*
X118961898Y-198964226D01*
X118959595Y-198902867D01*
X118955887Y-198804100D01*
X118953249Y-198733842D01*
X118905907Y-198508209D01*
X118887747Y-198462224D01*
X118823185Y-198298744D01*
X118823184Y-198298742D01*
X118821224Y-198293779D01*
X118792211Y-198245966D01*
X118704390Y-198101243D01*
X118701623Y-198096683D01*
X118614755Y-197996576D01*
X118554023Y-197926588D01*
X118554021Y-197926586D01*
X118550523Y-197922555D01*
X118469078Y-197855774D01*
X118376373Y-197779760D01*
X118376367Y-197779756D01*
X118372245Y-197776376D01*
X118367609Y-197773737D01*
X118367606Y-197773735D01*
X118176529Y-197664968D01*
X118171886Y-197662325D01*
X117955175Y-197583663D01*
X117949926Y-197582714D01*
X117949923Y-197582713D01*
X117732392Y-197543377D01*
X117732385Y-197543376D01*
X117728308Y-197542639D01*
X117710586Y-197541803D01*
X117705644Y-197541570D01*
X117705637Y-197541570D01*
X117704156Y-197541500D01*
X117542110Y-197541500D01*
X117475191Y-197547178D01*
X117375591Y-197555629D01*
X117375587Y-197555630D01*
X117370280Y-197556080D01*
X117365125Y-197557418D01*
X117365119Y-197557419D01*
X117152297Y-197612657D01*
X117152293Y-197612658D01*
X117147128Y-197613999D01*
X117142262Y-197616191D01*
X117142259Y-197616192D01*
X117033980Y-197664968D01*
X116936925Y-197708688D01*
X116745681Y-197837441D01*
X116741824Y-197841120D01*
X116741822Y-197841122D01*
X116721302Y-197860697D01*
X116578865Y-197996576D01*
X116441246Y-198181542D01*
X116438830Y-198186293D01*
X116438828Y-198186297D01*
X116394704Y-198273084D01*
X116336760Y-198387051D01*
X116335178Y-198392145D01*
X116335177Y-198392148D01*
X116294779Y-198522251D01*
X116268393Y-198607227D01*
X116267692Y-198612516D01*
X116240782Y-198815554D01*
X116238102Y-198835774D01*
X101560130Y-198835774D01*
X104727577Y-195668328D01*
X104789889Y-195634302D01*
X104849283Y-195635716D01*
X104865444Y-195640046D01*
X104880629Y-195644115D01*
X105100000Y-195663307D01*
X105319371Y-195644115D01*
X105532076Y-195587120D01*
X105731654Y-195494056D01*
X105883665Y-195387616D01*
X105907527Y-195370908D01*
X105907529Y-195370906D01*
X105912038Y-195367749D01*
X106067749Y-195212038D01*
X106097827Y-195169083D01*
X106190899Y-195036162D01*
X106190900Y-195036160D01*
X106194056Y-195031653D01*
X106196379Y-195026671D01*
X106196382Y-195026666D01*
X106261548Y-194886916D01*
X106287120Y-194832076D01*
X106344115Y-194619371D01*
X106363307Y-194400000D01*
X106344115Y-194180629D01*
X106287120Y-193967924D01*
X106235805Y-193857878D01*
X106196382Y-193773334D01*
X106196379Y-193773329D01*
X106194056Y-193768347D01*
X106147971Y-193702531D01*
X106070908Y-193592473D01*
X106070906Y-193592470D01*
X106067749Y-193587962D01*
X105912038Y-193432251D01*
X105887122Y-193414804D01*
X105800000Y-193353801D01*
X105731654Y-193305944D01*
X105532076Y-193212880D01*
X105320573Y-193156207D01*
X105259951Y-193119255D01*
X105228929Y-193055394D01*
X105237358Y-192984900D01*
X105282561Y-192930153D01*
X105353185Y-192908500D01*
X117591377Y-192908500D01*
X117592148Y-192908502D01*
X117669721Y-192908976D01*
X117698152Y-192900850D01*
X117714915Y-192897272D01*
X117715753Y-192897152D01*
X117744187Y-192893080D01*
X117767564Y-192882451D01*
X117785087Y-192876004D01*
X117787183Y-192875405D01*
X117809771Y-192868949D01*
X117817365Y-192864157D01*
X117817368Y-192864156D01*
X117834780Y-192853170D01*
X117849865Y-192845030D01*
X117876782Y-192832792D01*
X117896235Y-192816030D01*
X117911239Y-192804927D01*
X117932958Y-192791224D01*
X117938897Y-192784499D01*
X117938901Y-192784496D01*
X117952532Y-192769062D01*
X117964724Y-192757018D01*
X117980327Y-192743573D01*
X117980329Y-192743570D01*
X117987127Y-192737713D01*
X118001094Y-192716165D01*
X118012385Y-192701291D01*
X118023431Y-192688783D01*
X118023432Y-192688782D01*
X118029378Y-192682049D01*
X118041943Y-192655287D01*
X118050263Y-192640309D01*
X118061471Y-192623017D01*
X118061473Y-192623012D01*
X118066352Y-192615485D01*
X118068922Y-192606892D01*
X118068924Y-192606887D01*
X118073711Y-192590880D01*
X118080372Y-192573436D01*
X118087467Y-192558324D01*
X118087468Y-192558322D01*
X118091281Y-192550200D01*
X118095830Y-192520983D01*
X118099613Y-192504268D01*
X118105515Y-192484534D01*
X118105516Y-192484528D01*
X118108086Y-192475934D01*
X118108296Y-192441494D01*
X118108329Y-192440711D01*
X118108500Y-192439614D01*
X118108500Y-192408623D01*
X118108502Y-192407853D01*
X118108952Y-192334215D01*
X118108952Y-192334214D01*
X118108976Y-192330279D01*
X118108592Y-192328935D01*
X118108500Y-192327590D01*
X118108500Y-190455000D01*
X122171496Y-190455000D01*
X122172186Y-190461565D01*
X122184988Y-190583365D01*
X122191458Y-190644928D01*
X122250473Y-190826556D01*
X122253776Y-190832278D01*
X122253777Y-190832279D01*
X122268399Y-190857604D01*
X122345960Y-190991944D01*
X122350378Y-190996851D01*
X122350379Y-190996852D01*
X122396678Y-191048272D01*
X122473747Y-191133866D01*
X122628248Y-191246118D01*
X122634276Y-191248802D01*
X122634278Y-191248803D01*
X122713975Y-191284286D01*
X122802712Y-191323794D01*
X122892570Y-191342894D01*
X122983056Y-191362128D01*
X122983061Y-191362128D01*
X122989513Y-191363500D01*
X123180487Y-191363500D01*
X123186939Y-191362128D01*
X123186944Y-191362128D01*
X123277430Y-191342894D01*
X123367288Y-191323794D01*
X123513571Y-191258665D01*
X123583937Y-191249231D01*
X123648234Y-191279337D01*
X123686048Y-191339426D01*
X123685372Y-191410420D01*
X123671439Y-191440914D01*
X123667772Y-191446737D01*
X123663379Y-191452240D01*
X123583214Y-191618070D01*
X123581630Y-191624931D01*
X123544738Y-191784729D01*
X123541780Y-191797540D01*
X123541500Y-191802396D01*
X123541500Y-192607604D01*
X123541780Y-192612460D01*
X123542980Y-192617656D01*
X123542980Y-192617659D01*
X123569599Y-192732958D01*
X123583214Y-192791930D01*
X123601317Y-192829378D01*
X123632727Y-192894352D01*
X123663379Y-192957760D01*
X123698211Y-193001393D01*
X123725078Y-193067106D01*
X123712151Y-193136916D01*
X123698215Y-193158602D01*
X123663379Y-193202240D01*
X123660313Y-193208583D01*
X123660312Y-193208584D01*
X123656003Y-193217498D01*
X123583214Y-193368070D01*
X123581630Y-193374931D01*
X123560376Y-193466994D01*
X123541780Y-193547540D01*
X123541500Y-193552396D01*
X123541500Y-194357604D01*
X123541780Y-194362460D01*
X123583214Y-194541930D01*
X123663379Y-194707760D01*
X123698211Y-194751393D01*
X123725078Y-194817106D01*
X123712151Y-194886916D01*
X123698215Y-194908602D01*
X123663379Y-194952240D01*
X123660313Y-194958583D01*
X123660312Y-194958584D01*
X123645139Y-194989971D01*
X123583214Y-195118070D01*
X123581630Y-195124931D01*
X123562373Y-195208344D01*
X123541780Y-195297540D01*
X123541500Y-195302396D01*
X123541500Y-196107604D01*
X123541780Y-196112460D01*
X123583214Y-196291930D01*
X123586280Y-196298272D01*
X123647401Y-196424707D01*
X123663379Y-196457760D01*
X123698211Y-196501393D01*
X123725078Y-196567106D01*
X123712151Y-196636916D01*
X123698215Y-196658602D01*
X123663379Y-196702240D01*
X123660313Y-196708583D01*
X123660312Y-196708584D01*
X123633004Y-196765074D01*
X123583214Y-196868070D01*
X123581630Y-196874931D01*
X123553031Y-196998808D01*
X123541780Y-197047540D01*
X123541500Y-197052396D01*
X123541500Y-197857604D01*
X123541780Y-197862460D01*
X123542980Y-197867656D01*
X123542980Y-197867659D01*
X123554872Y-197919168D01*
X123583214Y-198041930D01*
X123663379Y-198207760D01*
X123778292Y-198351708D01*
X123922240Y-198466621D01*
X123928583Y-198469687D01*
X123928584Y-198469688D01*
X123967749Y-198488621D01*
X124088070Y-198546786D01*
X124094931Y-198548370D01*
X124262341Y-198587020D01*
X124262344Y-198587020D01*
X124267540Y-198588220D01*
X124272396Y-198588500D01*
X125827604Y-198588500D01*
X125832460Y-198588220D01*
X125837656Y-198587020D01*
X125837659Y-198587020D01*
X126005069Y-198548370D01*
X126011930Y-198546786D01*
X126132251Y-198488621D01*
X126171416Y-198469688D01*
X126171417Y-198469687D01*
X126177760Y-198466621D01*
X126321708Y-198351708D01*
X126436621Y-198207760D01*
X126516786Y-198041930D01*
X126545128Y-197919168D01*
X126557020Y-197867659D01*
X126557020Y-197867656D01*
X126558220Y-197862460D01*
X126558500Y-197857604D01*
X126558500Y-197052396D01*
X126558220Y-197047540D01*
X126546970Y-196998808D01*
X126518370Y-196874931D01*
X126516786Y-196868070D01*
X126466996Y-196765074D01*
X126439688Y-196708584D01*
X126439687Y-196708583D01*
X126436621Y-196702240D01*
X126401789Y-196658607D01*
X126374922Y-196592894D01*
X126387849Y-196523084D01*
X126401785Y-196501398D01*
X126436621Y-196457760D01*
X126452600Y-196424707D01*
X126513720Y-196298272D01*
X126516786Y-196291930D01*
X126558220Y-196112460D01*
X126558500Y-196107604D01*
X126558500Y-195302396D01*
X126558220Y-195297540D01*
X126537628Y-195208344D01*
X126518370Y-195124931D01*
X126516786Y-195118070D01*
X126454861Y-194989971D01*
X126439688Y-194958584D01*
X126439687Y-194958583D01*
X126436621Y-194952240D01*
X126401789Y-194908607D01*
X126374922Y-194842894D01*
X126387849Y-194773084D01*
X126401785Y-194751398D01*
X126436621Y-194707760D01*
X126459873Y-194659661D01*
X126507529Y-194607036D01*
X126573313Y-194588500D01*
X127270406Y-194588500D01*
X127338527Y-194608502D01*
X127359501Y-194625405D01*
X129082878Y-196348782D01*
X129116904Y-196411094D01*
X129119093Y-196424707D01*
X129135415Y-196580000D01*
X129136458Y-196589928D01*
X129195473Y-196771556D01*
X129290960Y-196936944D01*
X129295378Y-196941851D01*
X129295379Y-196941852D01*
X129371066Y-197025911D01*
X129418747Y-197078866D01*
X129573248Y-197191118D01*
X129579276Y-197193802D01*
X129579278Y-197193803D01*
X129741681Y-197266109D01*
X129747712Y-197268794D01*
X129841112Y-197288647D01*
X129928056Y-197307128D01*
X129928061Y-197307128D01*
X129934513Y-197308500D01*
X129995011Y-197308500D01*
X130063132Y-197328502D01*
X130109625Y-197382158D01*
X130121011Y-197434500D01*
X130121011Y-198360894D01*
X130101009Y-198429015D01*
X130084106Y-198449989D01*
X130079500Y-198454595D01*
X130017188Y-198488621D01*
X129990405Y-198491500D01*
X129934513Y-198491500D01*
X129928061Y-198492872D01*
X129928056Y-198492872D01*
X129841113Y-198511353D01*
X129747712Y-198531206D01*
X129741682Y-198533891D01*
X129741681Y-198533891D01*
X129579278Y-198606197D01*
X129579276Y-198606198D01*
X129573248Y-198608882D01*
X129418747Y-198721134D01*
X129414326Y-198726044D01*
X129414325Y-198726045D01*
X129299444Y-198853634D01*
X129290960Y-198863056D01*
X129195473Y-199028444D01*
X129136458Y-199210072D01*
X129135768Y-199216633D01*
X129135768Y-199216635D01*
X129123100Y-199337169D01*
X129116496Y-199400000D01*
X129117186Y-199406565D01*
X129135053Y-199576556D01*
X129136458Y-199589928D01*
X129195473Y-199771556D01*
X129290960Y-199936944D01*
X129295378Y-199941851D01*
X129295379Y-199941852D01*
X129414180Y-200073794D01*
X129418747Y-200078866D01*
X129496053Y-200135032D01*
X129563187Y-200183808D01*
X129573248Y-200191118D01*
X129579276Y-200193802D01*
X129579278Y-200193803D01*
X129724434Y-200258430D01*
X129747712Y-200268794D01*
X129841112Y-200288647D01*
X129928056Y-200307128D01*
X129928061Y-200307128D01*
X129934513Y-200308500D01*
X130125487Y-200308500D01*
X130131939Y-200307128D01*
X130131944Y-200307128D01*
X130218888Y-200288647D01*
X130312288Y-200268794D01*
X130335566Y-200258430D01*
X130480722Y-200193803D01*
X130480724Y-200193802D01*
X130486752Y-200191118D01*
X130496814Y-200183808D01*
X130563947Y-200135032D01*
X130641253Y-200078866D01*
X130645820Y-200073794D01*
X130764621Y-199941852D01*
X130764622Y-199941851D01*
X130769040Y-199936944D01*
X130864527Y-199771556D01*
X130923542Y-199589928D01*
X130924948Y-199576556D01*
X130940907Y-199424707D01*
X130967920Y-199359050D01*
X130977122Y-199348782D01*
X131146758Y-199179146D01*
X131155048Y-199171602D01*
X131161529Y-199167489D01*
X131208170Y-199117821D01*
X131210924Y-199114980D01*
X131230645Y-199095259D01*
X131233123Y-199092064D01*
X131240829Y-199083042D01*
X131265669Y-199056590D01*
X131271097Y-199050810D01*
X131279938Y-199034729D01*
X131280857Y-199033057D01*
X131291710Y-199016534D01*
X131292867Y-199015042D01*
X131304124Y-199000530D01*
X131321687Y-198959946D01*
X131326894Y-198949316D01*
X131348206Y-198910549D01*
X131350177Y-198902872D01*
X131350179Y-198902867D01*
X131353243Y-198890931D01*
X131359649Y-198872219D01*
X131363615Y-198863056D01*
X131367692Y-198853634D01*
X131368932Y-198845806D01*
X131368934Y-198845799D01*
X131374610Y-198809965D01*
X131377016Y-198798345D01*
X131386039Y-198763200D01*
X131386039Y-198763199D01*
X131388011Y-198755519D01*
X131388011Y-198735265D01*
X131389562Y-198715554D01*
X131391491Y-198703375D01*
X131392731Y-198695546D01*
X131388570Y-198651527D01*
X131388011Y-198639670D01*
X131388011Y-195453274D01*
X131388538Y-195442090D01*
X131390212Y-195434602D01*
X131388073Y-195366543D01*
X131388011Y-195362586D01*
X131388011Y-195334655D01*
X131387505Y-195330649D01*
X131386572Y-195318803D01*
X131385433Y-195282548D01*
X131385184Y-195274621D01*
X131379533Y-195255169D01*
X131375525Y-195235817D01*
X131373979Y-195223579D01*
X131373978Y-195223577D01*
X131372985Y-195215714D01*
X131356705Y-195174597D01*
X131352870Y-195163396D01*
X131340529Y-195120917D01*
X131336496Y-195114098D01*
X131336494Y-195114093D01*
X131330218Y-195103482D01*
X131321521Y-195085732D01*
X131314063Y-195066894D01*
X131288082Y-195031134D01*
X131281564Y-195021212D01*
X131263089Y-194989971D01*
X131263085Y-194989966D01*
X131259053Y-194983148D01*
X131244729Y-194968824D01*
X131231887Y-194953789D01*
X131230762Y-194952240D01*
X131219983Y-194937404D01*
X131185917Y-194909222D01*
X131177138Y-194901233D01*
X128088652Y-191812747D01*
X128081112Y-191804461D01*
X128077000Y-191797982D01*
X128027348Y-191751356D01*
X128024507Y-191748602D01*
X128004770Y-191728865D01*
X128001573Y-191726385D01*
X127992551Y-191718680D01*
X127966100Y-191693841D01*
X127960321Y-191688414D01*
X127953375Y-191684595D01*
X127953372Y-191684593D01*
X127942566Y-191678652D01*
X127926047Y-191667801D01*
X127920048Y-191663148D01*
X127910041Y-191655386D01*
X127902772Y-191652241D01*
X127902768Y-191652238D01*
X127869463Y-191637826D01*
X127858813Y-191632609D01*
X127820060Y-191611305D01*
X127807765Y-191608148D01*
X127800438Y-191606267D01*
X127781734Y-191599863D01*
X127770420Y-191594967D01*
X127770419Y-191594967D01*
X127763145Y-191591819D01*
X127755322Y-191590580D01*
X127755312Y-191590577D01*
X127719476Y-191584901D01*
X127707856Y-191582495D01*
X127672711Y-191573472D01*
X127672710Y-191573472D01*
X127665030Y-191571500D01*
X127644776Y-191571500D01*
X127625065Y-191569949D01*
X127612886Y-191568020D01*
X127605057Y-191566780D01*
X127597165Y-191567526D01*
X127561039Y-191570941D01*
X127549181Y-191571500D01*
X126573313Y-191571500D01*
X126505192Y-191551498D01*
X126459873Y-191500339D01*
X126445755Y-191471134D01*
X126436621Y-191452240D01*
X126401789Y-191408607D01*
X126374922Y-191342894D01*
X126387849Y-191273084D01*
X126401785Y-191251398D01*
X126436621Y-191207760D01*
X126470466Y-191137749D01*
X126479977Y-191118073D01*
X126516786Y-191041930D01*
X126558220Y-190862460D01*
X126558500Y-190857604D01*
X126558500Y-190052396D01*
X126558220Y-190047540D01*
X126555263Y-190034729D01*
X126518370Y-189874931D01*
X126516786Y-189868070D01*
X126472343Y-189776134D01*
X126439688Y-189708584D01*
X126439687Y-189708583D01*
X126436621Y-189702240D01*
X126401789Y-189658607D01*
X126374922Y-189592894D01*
X126387849Y-189523084D01*
X126401785Y-189501398D01*
X126436621Y-189457760D01*
X126441448Y-189447776D01*
X126513720Y-189298272D01*
X126516786Y-189291930D01*
X126529646Y-189236226D01*
X126557020Y-189117659D01*
X126557020Y-189117656D01*
X126558220Y-189112460D01*
X126558500Y-189107604D01*
X126558500Y-188302396D01*
X126558220Y-188297540D01*
X126553543Y-188277279D01*
X126518370Y-188124931D01*
X126516786Y-188118070D01*
X126472343Y-188026134D01*
X126439688Y-187958584D01*
X126439687Y-187958583D01*
X126436621Y-187952240D01*
X126321708Y-187808292D01*
X126177760Y-187693379D01*
X126011930Y-187613214D01*
X126005069Y-187611630D01*
X125837659Y-187572980D01*
X125837656Y-187572980D01*
X125832460Y-187571780D01*
X125827604Y-187571500D01*
X124272396Y-187571500D01*
X124267540Y-187571780D01*
X124262344Y-187572980D01*
X124262341Y-187572980D01*
X124094931Y-187611630D01*
X124088070Y-187613214D01*
X123922240Y-187693379D01*
X123778292Y-187808292D01*
X123713144Y-187889901D01*
X123655017Y-187930657D01*
X123584078Y-187933517D01*
X123551676Y-187920408D01*
X123547089Y-187917760D01*
X123541752Y-187913882D01*
X123535722Y-187911197D01*
X123373319Y-187838891D01*
X123373318Y-187838891D01*
X123367288Y-187836206D01*
X123261830Y-187813790D01*
X123186944Y-187797872D01*
X123186939Y-187797872D01*
X123180487Y-187796500D01*
X122989513Y-187796500D01*
X122983061Y-187797872D01*
X122983056Y-187797872D01*
X122908170Y-187813790D01*
X122802712Y-187836206D01*
X122796682Y-187838891D01*
X122796681Y-187838891D01*
X122634278Y-187911197D01*
X122634276Y-187911198D01*
X122628248Y-187913882D01*
X122473747Y-188026134D01*
X122469326Y-188031044D01*
X122469325Y-188031045D01*
X122390968Y-188118070D01*
X122345960Y-188168056D01*
X122342659Y-188173774D01*
X122256725Y-188322616D01*
X122250473Y-188333444D01*
X122191458Y-188515072D01*
X122190768Y-188521633D01*
X122190768Y-188521635D01*
X122185269Y-188573955D01*
X122171496Y-188705000D01*
X122191458Y-188894928D01*
X122250473Y-189076556D01*
X122253776Y-189082278D01*
X122253777Y-189082279D01*
X122268399Y-189107604D01*
X122345960Y-189241944D01*
X122350378Y-189246851D01*
X122350379Y-189246852D01*
X122469325Y-189378955D01*
X122473747Y-189383866D01*
X122479089Y-189387747D01*
X122479091Y-189387749D01*
X122603399Y-189478064D01*
X122646753Y-189534286D01*
X122652828Y-189605023D01*
X122619696Y-189667814D01*
X122603400Y-189681936D01*
X122473747Y-189776134D01*
X122469326Y-189781044D01*
X122469325Y-189781045D01*
X122350412Y-189913112D01*
X122345960Y-189918056D01*
X122342659Y-189923774D01*
X122267346Y-190054220D01*
X122250473Y-190083444D01*
X122191458Y-190265072D01*
X122171496Y-190455000D01*
X118108500Y-190455000D01*
X118108500Y-185975000D01*
X125936526Y-185975000D01*
X125956391Y-186227403D01*
X125957545Y-186232210D01*
X125957546Y-186232216D01*
X125987207Y-186355762D01*
X126015495Y-186473591D01*
X126017388Y-186478162D01*
X126017389Y-186478164D01*
X126069935Y-186605020D01*
X126112384Y-186707502D01*
X126244672Y-186923376D01*
X126373279Y-187073955D01*
X126400817Y-187106197D01*
X126409102Y-187115898D01*
X126601624Y-187280328D01*
X126817498Y-187412616D01*
X126822068Y-187414509D01*
X126822072Y-187414511D01*
X127046836Y-187507611D01*
X127051409Y-187509505D01*
X127106458Y-187522721D01*
X127292784Y-187567454D01*
X127292790Y-187567455D01*
X127297597Y-187568609D01*
X127397416Y-187576465D01*
X127484345Y-187583307D01*
X127484352Y-187583307D01*
X127486801Y-187583500D01*
X127613199Y-187583500D01*
X127615648Y-187583307D01*
X127615655Y-187583307D01*
X127702584Y-187576465D01*
X127802403Y-187568609D01*
X127807210Y-187567455D01*
X127807216Y-187567454D01*
X127993542Y-187522721D01*
X128048591Y-187509505D01*
X128053164Y-187507611D01*
X128277928Y-187414511D01*
X128277932Y-187414509D01*
X128282502Y-187412616D01*
X128498376Y-187280328D01*
X128690898Y-187115898D01*
X128699184Y-187106197D01*
X128726721Y-187073955D01*
X128855328Y-186923376D01*
X128987616Y-186707502D01*
X129030066Y-186605020D01*
X129082611Y-186478164D01*
X129082612Y-186478162D01*
X129084505Y-186473591D01*
X129112793Y-186355762D01*
X129142454Y-186232216D01*
X129142455Y-186232210D01*
X129143609Y-186227403D01*
X129163474Y-185975000D01*
X129143609Y-185722597D01*
X129142453Y-185717779D01*
X129102876Y-185552930D01*
X129084505Y-185476409D01*
X129018296Y-185316565D01*
X128989511Y-185247072D01*
X128989509Y-185247068D01*
X128987616Y-185242498D01*
X128855328Y-185026624D01*
X128690898Y-184834102D01*
X128498376Y-184669672D01*
X128282502Y-184537384D01*
X128277932Y-184535491D01*
X128277928Y-184535489D01*
X128053164Y-184442389D01*
X128053162Y-184442388D01*
X128048591Y-184440495D01*
X127963968Y-184420179D01*
X127807216Y-184382546D01*
X127807210Y-184382545D01*
X127802403Y-184381391D01*
X127702584Y-184373535D01*
X127615655Y-184366693D01*
X127615648Y-184366693D01*
X127613199Y-184366500D01*
X127486801Y-184366500D01*
X127484352Y-184366693D01*
X127484345Y-184366693D01*
X127397416Y-184373535D01*
X127297597Y-184381391D01*
X127292790Y-184382545D01*
X127292784Y-184382546D01*
X127136032Y-184420179D01*
X127051409Y-184440495D01*
X127046838Y-184442388D01*
X127046836Y-184442389D01*
X126822072Y-184535489D01*
X126822068Y-184535491D01*
X126817498Y-184537384D01*
X126601624Y-184669672D01*
X126409102Y-184834102D01*
X126244672Y-185026624D01*
X126112384Y-185242498D01*
X126110491Y-185247068D01*
X126110489Y-185247072D01*
X126081704Y-185316565D01*
X126015495Y-185476409D01*
X125997124Y-185552930D01*
X125957548Y-185717779D01*
X125956391Y-185722597D01*
X125936526Y-185975000D01*
X118108500Y-185975000D01*
X118108500Y-179034500D01*
X118128502Y-178966379D01*
X118182158Y-178919886D01*
X118234500Y-178908500D01*
X148528065Y-178908500D01*
X148596186Y-178928502D01*
G37*
%TD.AperFunction*%
%TD*%
M02*
