%TF.GenerationSoftware,KiCad,Pcbnew,(6.0.5)*%
%TF.CreationDate,2022-06-19T20:20:05-05:00*%
%TF.ProjectId,GBOYAudioBreakout,47424f59-4175-4646-996f-427265616b6f,rev?*%
%TF.SameCoordinates,Original*%
%TF.FileFunction,Legend,Top*%
%TF.FilePolarity,Positive*%
%FSLAX46Y46*%
G04 Gerber Fmt 4.6, Leading zero omitted, Abs format (unit mm)*
G04 Created by KiCad (PCBNEW (6.0.5)) date 2022-06-19 20:20:05*
%MOMM*%
%LPD*%
G01*
G04 APERTURE LIST*
%ADD10C,0.120000*%
G04 APERTURE END LIST*
D10*
%TO.C,LS2*%
X148326191Y-189970848D02*
X154326191Y-200363153D01*
X154326191Y-200363153D02*
X141335810Y-207863153D01*
X135335810Y-197470848D02*
X148326191Y-189970848D01*
X141335810Y-207863153D02*
X135335810Y-197470848D01*
%TO.C,LS1*%
X86778810Y-190065848D02*
X99769191Y-197565848D01*
X93769191Y-207958153D02*
X80778810Y-200458153D01*
X80778810Y-200458153D02*
X86778810Y-190065848D01*
X99769191Y-197565848D02*
X93769191Y-207958153D01*
%TO.C,J1*%
X120700000Y-209500000D02*
X120200000Y-209500000D01*
X120200000Y-212000000D02*
X115000000Y-212000000D01*
X120700000Y-208300000D02*
X120700000Y-209500000D01*
X120700000Y-208300000D02*
X122700000Y-208300000D01*
X114500000Y-203700000D02*
X114500000Y-194800000D01*
X115000000Y-209500000D02*
X114500000Y-209500000D01*
X118450000Y-194800000D02*
X120700000Y-194800000D01*
X120700000Y-194800000D02*
X120700000Y-196000000D01*
X114500000Y-209500000D02*
X114500000Y-206300000D01*
X120200000Y-209500000D02*
X120200000Y-212000000D01*
X120700000Y-205700000D02*
X122700000Y-205700000D01*
X120700000Y-199200000D02*
X120700000Y-205700000D01*
X114500000Y-194800000D02*
X115250000Y-194800000D01*
X115000000Y-212000000D02*
X115000000Y-209500000D01*
%TD*%
M02*
