%TF.GenerationSoftware,KiCad,Pcbnew,(6.0.6)*%
%TF.CreationDate,2022-08-03T19:41:37-05:00*%
%TF.ProjectId,GBOYAudioBreakout,47424f59-4175-4646-996f-427265616b6f,rev?*%
%TF.SameCoordinates,Original*%
%TF.FileFunction,Copper,L2,Bot*%
%TF.FilePolarity,Positive*%
%FSLAX46Y46*%
G04 Gerber Fmt 4.6, Leading zero omitted, Abs format (unit mm)*
G04 Created by KiCad (PCBNEW (6.0.6)) date 2022-08-03 19:41:37*
%MOMM*%
%LPD*%
G01*
G04 APERTURE LIST*
G04 Aperture macros list*
%AMRotRect*
0 Rectangle, with rotation*
0 The origin of the aperture is its center*
0 $1 length*
0 $2 width*
0 $3 Rotation angle, in degrees counterclockwise*
0 Add horizontal line*
21,1,$1,$2,0,0,$3*%
G04 Aperture macros list end*
%TA.AperFunction,SMDPad,CuDef*%
%ADD10RotRect,3.000000X2.000000X30.000000*%
%TD*%
%TA.AperFunction,SMDPad,CuDef*%
%ADD11RotRect,3.000000X2.000000X150.000000*%
%TD*%
%TA.AperFunction,SMDPad,CuDef*%
%ADD12R,2.800000X2.200000*%
%TD*%
%TA.AperFunction,SMDPad,CuDef*%
%ADD13R,2.800000X2.800000*%
%TD*%
%TA.AperFunction,SMDPad,CuDef*%
%ADD14R,2.800000X2.600000*%
%TD*%
%TA.AperFunction,ViaPad*%
%ADD15C,0.800000*%
%TD*%
%TA.AperFunction,Conductor*%
%ADD16C,0.250000*%
%TD*%
G04 APERTURE END LIST*
D10*
%TO.P,LS2,1,1*%
%TO.N,Net-(LS2-Pad1)*%
X164204848Y-105247128D03*
%TO.P,LS2,2,2*%
%TO.N,Net-(LS2-Pad2)*%
X159204848Y-96586874D03*
%TD*%
D11*
%TO.P,LS1,1,1*%
%TO.N,Net-(LS1-Pad1)*%
X120040153Y-96681873D03*
%TO.P,LS1,2,2*%
%TO.N,Net-(LS1-Pad2)*%
X115040153Y-105342127D03*
%TD*%
D12*
%TO.P,J1,R,ring*%
%TO.N,Net-(U1-Pad13)*%
X143370000Y-104000000D03*
%TO.P,J1,S,sleeve*%
%TO.N,GND*%
X135970000Y-106000000D03*
D13*
%TO.P,J1,T,tip*%
%TO.N,Net-(J1-PadT)*%
X135970000Y-96600000D03*
D14*
%TO.P,J1,TN,tip_sense*%
%TO.N,Net-(J1-PadTN)*%
X140420000Y-92600000D03*
%TD*%
D15*
%TO.N,Net-(1.8V1-Pad1)*%
X142170000Y-86400000D03*
X150670000Y-86400000D03*
%TO.N,Net-(3.3V1-Pad1)*%
X142170000Y-88400000D03*
X150670000Y-88400000D03*
%TO.N,Net-(C1-Pad1)*%
X153170000Y-81900000D03*
X142170000Y-97900000D03*
%TO.N,Net-(D1-Pad1)*%
X152170000Y-83400000D03*
X141170000Y-97900000D03*
%TO.N,GND*%
X143170000Y-85400000D03*
X140670000Y-103400000D03*
X147670000Y-81400000D03*
X161670000Y-82900000D03*
%TO.N,Net-(LS1-Pad1)*%
X157670000Y-84900000D03*
X150670000Y-84900000D03*
X167170000Y-84900000D03*
%TO.N,Net-(LS1-Pad2)*%
X171670000Y-86400000D03*
%TO.N,Net-(LS2-Pad1)*%
X171670000Y-88400000D03*
%TO.N,Net-(LS2-Pad2)*%
X167170000Y-89900000D03*
%TO.N,Net-(SCL1-Pad1)*%
X152170000Y-93400000D03*
X128670000Y-105400000D03*
%TO.N,Net-(U1-Pad13)*%
X160170000Y-93400000D03*
%TO.N,Net-(J1-PadTN)*%
X162170000Y-77900000D03*
%TO.N,Net-(J1-PadT)*%
X150670000Y-100400000D03*
%TD*%
D16*
%TO.N,Net-(1.8V1-Pad1)*%
X142170000Y-86400000D02*
X150670000Y-86400000D01*
%TO.N,Net-(3.3V1-Pad1)*%
X142170000Y-88400000D02*
X150670000Y-88400000D01*
%TO.N,Net-(C1-Pad1)*%
X151445000Y-93400000D02*
X151445000Y-93099695D01*
X151445000Y-93625000D02*
X151445000Y-93400000D01*
X153144695Y-91400000D02*
X153170000Y-91400000D01*
X142170000Y-97900000D02*
X147170000Y-97900000D01*
X151445000Y-93099695D02*
X153144695Y-91400000D01*
X153170000Y-91400000D02*
X153170000Y-81900000D01*
X147170000Y-97900000D02*
X151445000Y-93625000D01*
%TO.N,Net-(D1-Pad1)*%
X150851802Y-93581802D02*
X150995000Y-93438604D01*
X143351802Y-97081802D02*
X143720000Y-97450000D01*
X146983604Y-97450000D02*
X150851802Y-93581802D01*
X143720000Y-97450000D02*
X146983604Y-97450000D01*
X143170000Y-96900000D02*
X143351802Y-97081802D01*
X152720000Y-83900000D02*
X152220000Y-83400000D01*
X141670000Y-96900000D02*
X143170000Y-96900000D01*
X150995000Y-93400000D02*
X150995000Y-92913299D01*
X152589150Y-91319149D02*
X152720000Y-91188299D01*
X141170000Y-97400000D02*
X141670000Y-96900000D01*
X150995000Y-93438604D02*
X150995000Y-93400000D01*
X152220000Y-83400000D02*
X152170000Y-83400000D01*
X150995000Y-92913299D02*
X152589150Y-91319149D01*
X141170000Y-97900000D02*
X141170000Y-97400000D01*
X152720000Y-91188299D02*
X152720000Y-83900000D01*
%TO.N,GND*%
X161670000Y-82900000D02*
X158170000Y-82900000D01*
X148170000Y-82400000D02*
X145170000Y-85400000D01*
X145170000Y-85400000D02*
X143170000Y-85400000D01*
X149670000Y-80900000D02*
X148170000Y-80900000D01*
X158170000Y-82900000D02*
X156170000Y-80900000D01*
X149670000Y-80900000D02*
X148170000Y-82400000D01*
X156170000Y-80900000D02*
X149670000Y-80900000D01*
X148170000Y-80900000D02*
X147670000Y-81400000D01*
%TO.N,Net-(LS1-Pad1)*%
X121847026Y-94875000D02*
X145220305Y-94875000D01*
X145220305Y-94875000D02*
X151670000Y-88425305D01*
X120040153Y-96681873D02*
X121847026Y-94875000D01*
X157670000Y-84900000D02*
X167170000Y-84900000D01*
X151670000Y-88425305D02*
X151670000Y-85900000D01*
X151670000Y-85900000D02*
X150670000Y-84900000D01*
%TO.N,Net-(LS1-Pad2)*%
X115040153Y-105342127D02*
X127586822Y-105342127D01*
X150670000Y-107900000D02*
X171670000Y-86900000D01*
X130144695Y-107900000D02*
X150670000Y-107900000D01*
X127586822Y-105342127D02*
X130144695Y-107900000D01*
X171670000Y-86900000D02*
X171670000Y-86400000D01*
%TO.N,Net-(LS2-Pad1)*%
X164204848Y-105247128D02*
X171670000Y-97781976D01*
X171670000Y-97781976D02*
X171670000Y-88400000D01*
%TO.N,Net-(LS2-Pad2)*%
X159204848Y-96586874D02*
X165891722Y-89900000D01*
X165891722Y-89900000D02*
X167170000Y-89900000D01*
%TO.N,Net-(SCL1-Pad1)*%
X128670000Y-105400000D02*
X131495000Y-102575000D01*
X150670000Y-102400000D02*
X152170000Y-100900000D01*
X152170000Y-100900000D02*
X152170000Y-93400000D01*
X131495000Y-102575000D02*
X150495000Y-102575000D01*
X150495000Y-102575000D02*
X150670000Y-102400000D01*
%TO.N,Net-(U1-Pad13)*%
X156670000Y-96400000D02*
X159670000Y-93400000D01*
X144345000Y-103025000D02*
X150681396Y-103025000D01*
X150681396Y-103025000D02*
X156670000Y-97036396D01*
X159670000Y-93400000D02*
X160170000Y-93400000D01*
X156670000Y-97036396D02*
X156670000Y-96400000D01*
X143370000Y-104000000D02*
X144345000Y-103025000D01*
%TO.N,Net-(J1-PadTN)*%
X140420000Y-87124695D02*
X149644695Y-77900000D01*
X149644695Y-77900000D02*
X162170000Y-77900000D01*
X140420000Y-92600000D02*
X140420000Y-87124695D01*
%TO.N,Net-(J1-PadT)*%
X135970000Y-96600000D02*
X135970000Y-96875003D01*
X138494997Y-99400000D02*
X147170000Y-99400000D01*
X135970000Y-96875003D02*
X138494997Y-99400000D01*
X149670000Y-99400000D02*
X150670000Y-100400000D01*
X147170000Y-99400000D02*
X149670000Y-99400000D01*
%TD*%
%TA.AperFunction,Conductor*%
%TO.N,GND*%
G36*
X157311137Y-97386683D02*
G01*
X157369281Y-97427423D01*
X157379954Y-97443064D01*
X157987798Y-98495883D01*
X157987804Y-98495892D01*
X157989503Y-98498835D01*
X157991509Y-98501576D01*
X157991513Y-98501582D01*
X158021777Y-98542932D01*
X158026444Y-98549308D01*
X158032547Y-98554330D01*
X158032548Y-98554331D01*
X158086341Y-98598596D01*
X158138918Y-98641860D01*
X158272847Y-98699123D01*
X158281756Y-98700193D01*
X158281759Y-98700194D01*
X158372465Y-98711090D01*
X158417465Y-98716496D01*
X158426320Y-98715022D01*
X158426323Y-98715022D01*
X158553355Y-98693878D01*
X158553357Y-98693877D01*
X158561146Y-98692581D01*
X158618375Y-98667340D01*
X158708452Y-98615334D01*
X158777447Y-98598596D01*
X158844539Y-98621816D01*
X158888426Y-98677624D01*
X158895175Y-98748299D01*
X158860547Y-98813548D01*
X150444500Y-107229595D01*
X150382188Y-107263621D01*
X150355405Y-107266500D01*
X130459289Y-107266500D01*
X130391168Y-107246498D01*
X130370194Y-107229595D01*
X129336526Y-106195927D01*
X129302500Y-106133615D01*
X129307565Y-106062800D01*
X129331983Y-106022525D01*
X129409040Y-105936944D01*
X129504527Y-105771556D01*
X129563542Y-105589928D01*
X129564596Y-105579906D01*
X129573402Y-105496116D01*
X129580907Y-105424706D01*
X129591072Y-105400000D01*
X131066526Y-105400000D01*
X131086391Y-105652403D01*
X131087545Y-105657210D01*
X131087546Y-105657216D01*
X131103830Y-105725044D01*
X131145495Y-105898591D01*
X131147388Y-105903162D01*
X131147389Y-105903164D01*
X131226232Y-106093507D01*
X131242384Y-106132502D01*
X131374672Y-106348376D01*
X131539102Y-106540898D01*
X131731624Y-106705328D01*
X131947498Y-106837616D01*
X131952068Y-106839509D01*
X131952072Y-106839511D01*
X132176836Y-106932611D01*
X132181409Y-106934505D01*
X132266032Y-106954821D01*
X132422784Y-106992454D01*
X132422790Y-106992455D01*
X132427597Y-106993609D01*
X132527416Y-107001465D01*
X132614345Y-107008307D01*
X132614352Y-107008307D01*
X132616801Y-107008500D01*
X132743199Y-107008500D01*
X132745648Y-107008307D01*
X132745655Y-107008307D01*
X132832584Y-107001465D01*
X132932403Y-106993609D01*
X132937210Y-106992455D01*
X132937216Y-106992454D01*
X133093968Y-106954821D01*
X133178591Y-106934505D01*
X133183164Y-106932611D01*
X133407928Y-106839511D01*
X133407932Y-106839509D01*
X133412502Y-106837616D01*
X133628376Y-106705328D01*
X133820898Y-106540898D01*
X133985328Y-106348376D01*
X134117616Y-106132502D01*
X134133769Y-106093507D01*
X134212611Y-105903164D01*
X134212612Y-105903162D01*
X134214505Y-105898591D01*
X134256170Y-105725044D01*
X134272454Y-105657216D01*
X134272455Y-105657210D01*
X134273609Y-105652403D01*
X134293474Y-105400000D01*
X134273609Y-105147597D01*
X134272448Y-105142757D01*
X134215660Y-104906221D01*
X134214505Y-104901409D01*
X134212611Y-104896836D01*
X134187318Y-104835774D01*
X138308102Y-104835774D01*
X138308302Y-104841103D01*
X138308302Y-104841105D01*
X138309479Y-104872466D01*
X138316751Y-105066158D01*
X138364093Y-105291791D01*
X138366051Y-105296750D01*
X138366052Y-105296752D01*
X138428975Y-105456081D01*
X138448776Y-105506221D01*
X138451543Y-105510780D01*
X138451544Y-105510783D01*
X138513998Y-105613703D01*
X138568377Y-105703317D01*
X138571874Y-105707347D01*
X138658438Y-105807103D01*
X138719477Y-105877445D01*
X138723608Y-105880832D01*
X138893627Y-106020240D01*
X138893633Y-106020244D01*
X138897755Y-106023624D01*
X138902391Y-106026263D01*
X138902394Y-106026265D01*
X139068076Y-106120577D01*
X139098114Y-106137675D01*
X139314825Y-106216337D01*
X139320074Y-106217286D01*
X139320077Y-106217287D01*
X139537608Y-106256623D01*
X139537615Y-106256624D01*
X139541692Y-106257361D01*
X139559414Y-106258197D01*
X139564356Y-106258430D01*
X139564363Y-106258430D01*
X139565844Y-106258500D01*
X139727890Y-106258500D01*
X139794809Y-106252822D01*
X139894409Y-106244371D01*
X139894413Y-106244370D01*
X139899720Y-106243920D01*
X139904875Y-106242582D01*
X139904881Y-106242581D01*
X140117703Y-106187343D01*
X140117707Y-106187342D01*
X140122872Y-106186001D01*
X140127738Y-106183809D01*
X140127741Y-106183808D01*
X140328202Y-106093507D01*
X140333075Y-106091312D01*
X140524319Y-105962559D01*
X140551171Y-105936944D01*
X140687278Y-105807103D01*
X140691135Y-105803424D01*
X140710588Y-105777279D01*
X140825568Y-105622740D01*
X140828754Y-105618458D01*
X140837252Y-105601745D01*
X140907660Y-105463261D01*
X140933240Y-105412949D01*
X140953810Y-105346705D01*
X141000024Y-105197871D01*
X141001607Y-105192773D01*
X141007976Y-105144717D01*
X141031198Y-104969511D01*
X141031198Y-104969506D01*
X141031898Y-104964226D01*
X141023249Y-104733842D01*
X141020576Y-104721100D01*
X140977002Y-104513428D01*
X140975907Y-104508209D01*
X140973948Y-104503248D01*
X140893185Y-104298744D01*
X140893184Y-104298742D01*
X140891224Y-104293779D01*
X140870182Y-104259102D01*
X140774390Y-104101243D01*
X140771623Y-104096683D01*
X140684755Y-103996576D01*
X140624023Y-103926588D01*
X140624021Y-103926586D01*
X140620523Y-103922555D01*
X140553243Y-103867389D01*
X140446373Y-103779760D01*
X140446367Y-103779756D01*
X140442245Y-103776376D01*
X140437609Y-103773737D01*
X140437606Y-103773735D01*
X140246529Y-103664968D01*
X140241886Y-103662325D01*
X140025175Y-103583663D01*
X140019926Y-103582714D01*
X140019923Y-103582713D01*
X139802392Y-103543377D01*
X139802385Y-103543376D01*
X139798308Y-103542639D01*
X139780586Y-103541803D01*
X139775644Y-103541570D01*
X139775637Y-103541570D01*
X139774156Y-103541500D01*
X139612110Y-103541500D01*
X139545191Y-103547178D01*
X139445591Y-103555629D01*
X139445587Y-103555630D01*
X139440280Y-103556080D01*
X139435125Y-103557418D01*
X139435119Y-103557419D01*
X139222297Y-103612657D01*
X139222293Y-103612658D01*
X139217128Y-103613999D01*
X139212262Y-103616191D01*
X139212259Y-103616192D01*
X139103980Y-103664968D01*
X139006925Y-103708688D01*
X138815681Y-103837441D01*
X138811824Y-103841120D01*
X138811822Y-103841122D01*
X138784287Y-103867389D01*
X138648865Y-103996576D01*
X138511246Y-104181542D01*
X138508830Y-104186293D01*
X138508828Y-104186297D01*
X138469903Y-104262858D01*
X138406760Y-104387051D01*
X138405178Y-104392145D01*
X138405177Y-104392148D01*
X138362424Y-104529834D01*
X138338393Y-104607227D01*
X138337692Y-104612516D01*
X138311385Y-104811006D01*
X138308102Y-104835774D01*
X134187318Y-104835774D01*
X134119511Y-104672072D01*
X134119509Y-104672068D01*
X134117616Y-104667498D01*
X133985328Y-104451624D01*
X133820898Y-104259102D01*
X133800301Y-104241510D01*
X133778264Y-104222689D01*
X133628376Y-104094672D01*
X133412502Y-103962384D01*
X133407932Y-103960491D01*
X133407928Y-103960489D01*
X133183164Y-103867389D01*
X133183162Y-103867388D01*
X133178591Y-103865495D01*
X133061737Y-103837441D01*
X132937216Y-103807546D01*
X132937210Y-103807545D01*
X132932403Y-103806391D01*
X132832584Y-103798535D01*
X132745655Y-103791693D01*
X132745648Y-103791693D01*
X132743199Y-103791500D01*
X132616801Y-103791500D01*
X132614352Y-103791693D01*
X132614345Y-103791693D01*
X132527416Y-103798535D01*
X132427597Y-103806391D01*
X132422790Y-103807545D01*
X132422784Y-103807546D01*
X132298263Y-103837441D01*
X132181409Y-103865495D01*
X132176838Y-103867388D01*
X132176836Y-103867389D01*
X131952072Y-103960489D01*
X131952068Y-103960491D01*
X131947498Y-103962384D01*
X131731624Y-104094672D01*
X131581736Y-104222689D01*
X131559700Y-104241510D01*
X131539102Y-104259102D01*
X131374672Y-104451624D01*
X131242384Y-104667498D01*
X131240491Y-104672068D01*
X131240489Y-104672072D01*
X131147389Y-104896836D01*
X131145495Y-104901409D01*
X131144340Y-104906221D01*
X131087553Y-105142757D01*
X131086391Y-105147597D01*
X131066526Y-105400000D01*
X129591072Y-105400000D01*
X129607920Y-105359050D01*
X129617122Y-105348782D01*
X131720499Y-103245405D01*
X131782811Y-103211379D01*
X131809594Y-103208500D01*
X141335500Y-103208500D01*
X141403621Y-103228502D01*
X141450114Y-103282158D01*
X141461500Y-103334500D01*
X141461500Y-105148134D01*
X141468255Y-105210316D01*
X141519385Y-105346705D01*
X141606739Y-105463261D01*
X141723295Y-105550615D01*
X141859684Y-105601745D01*
X141921866Y-105608500D01*
X144818134Y-105608500D01*
X144880316Y-105601745D01*
X144924746Y-105585089D01*
X144995552Y-105579906D01*
X145057921Y-105613826D01*
X145091493Y-105673656D01*
X145145495Y-105898591D01*
X145147388Y-105903162D01*
X145147389Y-105903164D01*
X145226232Y-106093507D01*
X145242384Y-106132502D01*
X145374672Y-106348376D01*
X145539102Y-106540898D01*
X145731624Y-106705328D01*
X145947498Y-106837616D01*
X145952068Y-106839509D01*
X145952072Y-106839511D01*
X146176836Y-106932611D01*
X146181409Y-106934505D01*
X146266032Y-106954821D01*
X146422784Y-106992454D01*
X146422790Y-106992455D01*
X146427597Y-106993609D01*
X146527416Y-107001465D01*
X146614345Y-107008307D01*
X146614352Y-107008307D01*
X146616801Y-107008500D01*
X146743199Y-107008500D01*
X146745648Y-107008307D01*
X146745655Y-107008307D01*
X146832584Y-107001465D01*
X146932403Y-106993609D01*
X146937210Y-106992455D01*
X146937216Y-106992454D01*
X147093968Y-106954821D01*
X147178591Y-106934505D01*
X147183164Y-106932611D01*
X147407928Y-106839511D01*
X147407932Y-106839509D01*
X147412502Y-106837616D01*
X147628376Y-106705328D01*
X147820898Y-106540898D01*
X147985328Y-106348376D01*
X148117616Y-106132502D01*
X148133769Y-106093507D01*
X148212611Y-105903164D01*
X148212612Y-105903162D01*
X148214505Y-105898591D01*
X148256170Y-105725044D01*
X148272454Y-105657216D01*
X148272455Y-105657210D01*
X148273609Y-105652403D01*
X148293474Y-105400000D01*
X148273609Y-105147597D01*
X148272448Y-105142757D01*
X148215660Y-104906221D01*
X148214505Y-104901409D01*
X148212611Y-104896836D01*
X148119511Y-104672072D01*
X148119509Y-104672068D01*
X148117616Y-104667498D01*
X147985328Y-104451624D01*
X147820898Y-104259102D01*
X147800301Y-104241510D01*
X147778264Y-104222689D01*
X147628376Y-104094672D01*
X147412502Y-103962384D01*
X147407932Y-103960491D01*
X147407928Y-103960489D01*
X147264088Y-103900909D01*
X147208807Y-103856361D01*
X147186386Y-103788997D01*
X147203944Y-103720206D01*
X147255906Y-103671828D01*
X147312306Y-103658500D01*
X150602629Y-103658500D01*
X150613812Y-103659027D01*
X150621305Y-103660702D01*
X150629231Y-103660453D01*
X150629232Y-103660453D01*
X150689382Y-103658562D01*
X150693341Y-103658500D01*
X150721252Y-103658500D01*
X150725187Y-103658003D01*
X150725252Y-103657995D01*
X150737089Y-103657062D01*
X150769347Y-103656048D01*
X150773366Y-103655922D01*
X150781285Y-103655673D01*
X150800739Y-103650021D01*
X150820096Y-103646013D01*
X150832326Y-103644468D01*
X150832327Y-103644468D01*
X150840193Y-103643474D01*
X150847564Y-103640555D01*
X150847566Y-103640555D01*
X150881308Y-103627196D01*
X150892538Y-103623351D01*
X150927379Y-103613229D01*
X150927380Y-103613229D01*
X150934989Y-103611018D01*
X150941808Y-103606985D01*
X150941813Y-103606983D01*
X150952424Y-103600707D01*
X150970172Y-103592012D01*
X150989013Y-103584552D01*
X151024783Y-103558564D01*
X151034703Y-103552048D01*
X151065931Y-103533580D01*
X151065934Y-103533578D01*
X151072758Y-103529542D01*
X151087079Y-103515221D01*
X151102113Y-103502380D01*
X151112090Y-103495131D01*
X151118503Y-103490472D01*
X151146694Y-103456395D01*
X151154684Y-103447616D01*
X157062253Y-97540048D01*
X157070539Y-97532508D01*
X157077018Y-97528396D01*
X157123644Y-97478744D01*
X157126398Y-97475903D01*
X157146135Y-97456166D01*
X157148615Y-97452969D01*
X157156320Y-97443947D01*
X157178985Y-97419811D01*
X157240197Y-97383846D01*
X157311137Y-97386683D01*
G37*
%TD.AperFunction*%
%TA.AperFunction,Conductor*%
G36*
X170666186Y-77928502D02*
G01*
X170712679Y-77982158D01*
X170722783Y-78052432D01*
X170693289Y-78117012D01*
X170679896Y-78130311D01*
X170529102Y-78259102D01*
X170364672Y-78451624D01*
X170232384Y-78667498D01*
X170230491Y-78672068D01*
X170230489Y-78672072D01*
X170178500Y-78797586D01*
X170135495Y-78901409D01*
X170076391Y-79147597D01*
X170056526Y-79400000D01*
X170076391Y-79652403D01*
X170135495Y-79898591D01*
X170232384Y-80132502D01*
X170364672Y-80348376D01*
X170529102Y-80540898D01*
X170721624Y-80705328D01*
X170937498Y-80837616D01*
X170942068Y-80839509D01*
X170942072Y-80839511D01*
X171166836Y-80932611D01*
X171171409Y-80934505D01*
X171256032Y-80954821D01*
X171412784Y-80992454D01*
X171412790Y-80992455D01*
X171417597Y-80993609D01*
X171517416Y-81001465D01*
X171604345Y-81008307D01*
X171604352Y-81008307D01*
X171606801Y-81008500D01*
X171733199Y-81008500D01*
X171735648Y-81008307D01*
X171735655Y-81008307D01*
X171822584Y-81001465D01*
X171922403Y-80993609D01*
X171927210Y-80992455D01*
X171927216Y-80992454D01*
X172083968Y-80954821D01*
X172168591Y-80934505D01*
X172173164Y-80932611D01*
X172397928Y-80839511D01*
X172397932Y-80839509D01*
X172402502Y-80837616D01*
X172618376Y-80705328D01*
X172810898Y-80540898D01*
X172939688Y-80390104D01*
X172999140Y-80351295D01*
X173070135Y-80350789D01*
X173130133Y-80388745D01*
X173160086Y-80453114D01*
X173161500Y-80471935D01*
X173161500Y-91391377D01*
X173161498Y-91392147D01*
X173161024Y-91469721D01*
X173166165Y-91487707D01*
X173169150Y-91498153D01*
X173172728Y-91514915D01*
X173176920Y-91544187D01*
X173180634Y-91552355D01*
X173180634Y-91552356D01*
X173187548Y-91567562D01*
X173193996Y-91585086D01*
X173201051Y-91609771D01*
X173205843Y-91617365D01*
X173205844Y-91617368D01*
X173216830Y-91634780D01*
X173224969Y-91649863D01*
X173237208Y-91676782D01*
X173243069Y-91683584D01*
X173253970Y-91696235D01*
X173265073Y-91711239D01*
X173278776Y-91732958D01*
X173285501Y-91738897D01*
X173285504Y-91738901D01*
X173300938Y-91752532D01*
X173312982Y-91764724D01*
X173326427Y-91780327D01*
X173326430Y-91780329D01*
X173332287Y-91787127D01*
X173339816Y-91792007D01*
X173339817Y-91792008D01*
X173353835Y-91801094D01*
X173368709Y-91812385D01*
X173376372Y-91819152D01*
X173387951Y-91829378D01*
X173414711Y-91841942D01*
X173429691Y-91850263D01*
X173446983Y-91861471D01*
X173446988Y-91861473D01*
X173454515Y-91866352D01*
X173463108Y-91868922D01*
X173463113Y-91868924D01*
X173479120Y-91873711D01*
X173496564Y-91880372D01*
X173511676Y-91887467D01*
X173511678Y-91887468D01*
X173519800Y-91891281D01*
X173528667Y-91892662D01*
X173528668Y-91892662D01*
X173538310Y-91894163D01*
X173549017Y-91895830D01*
X173565732Y-91899613D01*
X173585466Y-91905515D01*
X173585472Y-91905516D01*
X173594066Y-91908086D01*
X173603037Y-91908141D01*
X173603038Y-91908141D01*
X173613097Y-91908202D01*
X173628506Y-91908296D01*
X173629289Y-91908329D01*
X173630386Y-91908500D01*
X173661377Y-91908500D01*
X173662147Y-91908502D01*
X173735785Y-91908952D01*
X173735786Y-91908952D01*
X173739721Y-91908976D01*
X173741065Y-91908592D01*
X173742410Y-91908500D01*
X174196749Y-91908500D01*
X174264870Y-91928502D01*
X174311363Y-91982158D01*
X174321467Y-92052432D01*
X174304181Y-92100335D01*
X174234975Y-92213268D01*
X174234969Y-92213279D01*
X174232384Y-92217498D01*
X174230491Y-92222068D01*
X174230489Y-92222072D01*
X174149484Y-92417636D01*
X174135495Y-92451409D01*
X174116667Y-92529834D01*
X174079196Y-92685915D01*
X174076391Y-92697597D01*
X174056526Y-92950000D01*
X174076391Y-93202403D01*
X174077545Y-93207210D01*
X174077546Y-93207216D01*
X174115179Y-93363968D01*
X174135495Y-93448591D01*
X174137388Y-93453162D01*
X174137389Y-93453164D01*
X174194039Y-93589928D01*
X174232384Y-93682502D01*
X174364672Y-93898376D01*
X174529102Y-94090898D01*
X174532858Y-94094106D01*
X174542714Y-94102524D01*
X174721624Y-94255328D01*
X174937498Y-94387616D01*
X174942068Y-94389509D01*
X174942072Y-94389511D01*
X175163350Y-94481167D01*
X175171409Y-94484505D01*
X175256032Y-94504821D01*
X175412784Y-94542454D01*
X175412790Y-94542455D01*
X175417597Y-94543609D01*
X175517416Y-94551465D01*
X175604345Y-94558307D01*
X175604352Y-94558307D01*
X175606801Y-94558500D01*
X175733199Y-94558500D01*
X175735648Y-94558307D01*
X175735655Y-94558307D01*
X175822584Y-94551465D01*
X175922403Y-94543609D01*
X175927210Y-94542455D01*
X175927216Y-94542454D01*
X176083968Y-94504821D01*
X176168591Y-94484505D01*
X176176650Y-94481167D01*
X176397928Y-94389511D01*
X176397932Y-94389509D01*
X176402502Y-94387616D01*
X176618376Y-94255328D01*
X176797286Y-94102524D01*
X176807142Y-94094106D01*
X176810898Y-94090898D01*
X176842277Y-94054158D01*
X176939689Y-93940104D01*
X176999140Y-93901295D01*
X177070135Y-93900789D01*
X177130133Y-93938745D01*
X177160086Y-94003114D01*
X177161500Y-94021935D01*
X177161500Y-98033678D01*
X177141498Y-98101799D01*
X177098502Y-98142795D01*
X166424041Y-104305879D01*
X166348962Y-104349227D01*
X166279967Y-104365966D01*
X166212875Y-104342746D01*
X166168987Y-104286940D01*
X166162238Y-104216265D01*
X166196866Y-104151014D01*
X172062247Y-98285633D01*
X172070537Y-98278089D01*
X172077018Y-98273976D01*
X172123659Y-98224308D01*
X172126413Y-98221467D01*
X172146134Y-98201746D01*
X172148612Y-98198551D01*
X172156318Y-98189529D01*
X172181158Y-98163077D01*
X172186586Y-98157297D01*
X172194558Y-98142796D01*
X172196346Y-98139544D01*
X172207199Y-98123021D01*
X172214753Y-98113282D01*
X172219613Y-98107017D01*
X172237176Y-98066433D01*
X172242383Y-98055803D01*
X172263695Y-98017036D01*
X172265666Y-98009359D01*
X172265668Y-98009354D01*
X172268732Y-97997418D01*
X172275138Y-97978706D01*
X172280033Y-97967395D01*
X172283181Y-97960121D01*
X172284421Y-97952293D01*
X172284423Y-97952286D01*
X172290099Y-97916452D01*
X172292505Y-97904832D01*
X172301528Y-97869687D01*
X172301528Y-97869686D01*
X172303500Y-97862006D01*
X172303500Y-97841752D01*
X172305051Y-97822041D01*
X172306980Y-97809862D01*
X172308220Y-97802033D01*
X172304059Y-97758014D01*
X172303500Y-97746157D01*
X172303500Y-89102524D01*
X172323502Y-89034403D01*
X172335858Y-89018221D01*
X172409040Y-88936944D01*
X172504527Y-88771556D01*
X172563542Y-88589928D01*
X172583504Y-88400000D01*
X172563542Y-88210072D01*
X172504527Y-88028444D01*
X172409040Y-87863056D01*
X172281253Y-87721134D01*
X172126752Y-87608882D01*
X172118729Y-87605310D01*
X172108618Y-87600808D01*
X172054522Y-87554829D01*
X172033872Y-87486902D01*
X172053224Y-87418594D01*
X172076023Y-87392631D01*
X172077018Y-87392000D01*
X172123644Y-87342348D01*
X172126398Y-87339507D01*
X172146135Y-87319770D01*
X172148615Y-87316573D01*
X172156320Y-87307551D01*
X172181159Y-87281100D01*
X172186586Y-87275321D01*
X172190405Y-87268375D01*
X172190407Y-87268372D01*
X172196348Y-87257566D01*
X172207199Y-87241047D01*
X172214758Y-87231301D01*
X172219614Y-87225041D01*
X172222759Y-87217772D01*
X172222762Y-87217768D01*
X172237174Y-87184463D01*
X172242391Y-87173813D01*
X172263695Y-87135060D01*
X172268733Y-87115437D01*
X172275138Y-87096731D01*
X172276171Y-87094344D01*
X172298171Y-87060077D01*
X172404621Y-86941852D01*
X172404622Y-86941851D01*
X172409040Y-86936944D01*
X172504527Y-86771556D01*
X172563542Y-86589928D01*
X172583504Y-86400000D01*
X172571861Y-86289221D01*
X172564232Y-86216635D01*
X172564232Y-86216633D01*
X172563542Y-86210072D01*
X172504527Y-86028444D01*
X172409040Y-85863056D01*
X172281253Y-85721134D01*
X172126752Y-85608882D01*
X172120724Y-85606198D01*
X172120722Y-85606197D01*
X171958319Y-85533891D01*
X171958318Y-85533891D01*
X171952288Y-85531206D01*
X171858887Y-85511353D01*
X171771944Y-85492872D01*
X171771939Y-85492872D01*
X171765487Y-85491500D01*
X171574513Y-85491500D01*
X171568061Y-85492872D01*
X171568056Y-85492872D01*
X171481113Y-85511353D01*
X171387712Y-85531206D01*
X171381682Y-85533891D01*
X171381681Y-85533891D01*
X171219278Y-85606197D01*
X171219276Y-85606198D01*
X171213248Y-85608882D01*
X171058747Y-85721134D01*
X170930960Y-85863056D01*
X170835473Y-86028444D01*
X170776458Y-86210072D01*
X170775768Y-86216633D01*
X170775768Y-86216635D01*
X170768139Y-86289221D01*
X170756496Y-86400000D01*
X170776458Y-86589928D01*
X170778498Y-86596206D01*
X170828060Y-86748743D01*
X170830087Y-86819711D01*
X170797322Y-86876774D01*
X168172294Y-89501802D01*
X168109982Y-89535828D01*
X168039167Y-89530763D01*
X167982331Y-89488216D01*
X167974080Y-89475708D01*
X167950304Y-89434528D01*
X167909040Y-89363056D01*
X167892882Y-89345110D01*
X167785675Y-89226045D01*
X167785674Y-89226044D01*
X167781253Y-89221134D01*
X167626752Y-89108882D01*
X167620724Y-89106198D01*
X167620722Y-89106197D01*
X167458319Y-89033891D01*
X167458318Y-89033891D01*
X167452288Y-89031206D01*
X167358888Y-89011353D01*
X167271944Y-88992872D01*
X167271939Y-88992872D01*
X167265487Y-88991500D01*
X167074513Y-88991500D01*
X167068061Y-88992872D01*
X167068056Y-88992872D01*
X166981113Y-89011353D01*
X166887712Y-89031206D01*
X166881682Y-89033891D01*
X166881681Y-89033891D01*
X166719278Y-89106197D01*
X166719276Y-89106198D01*
X166713248Y-89108882D01*
X166558747Y-89221134D01*
X166554332Y-89226037D01*
X166549420Y-89230460D01*
X166548295Y-89229211D01*
X166494986Y-89262051D01*
X166461800Y-89266500D01*
X165970489Y-89266500D01*
X165959306Y-89265973D01*
X165951813Y-89264298D01*
X165943887Y-89264547D01*
X165943886Y-89264547D01*
X165883723Y-89266438D01*
X165879765Y-89266500D01*
X165851866Y-89266500D01*
X165847876Y-89267004D01*
X165836042Y-89267936D01*
X165791833Y-89269326D01*
X165784219Y-89271538D01*
X165784214Y-89271539D01*
X165772381Y-89274977D01*
X165753018Y-89278988D01*
X165732925Y-89281526D01*
X165725558Y-89284443D01*
X165725553Y-89284444D01*
X165691814Y-89297802D01*
X165680587Y-89301646D01*
X165638129Y-89313982D01*
X165631303Y-89318019D01*
X165620694Y-89324293D01*
X165602946Y-89332988D01*
X165584105Y-89340448D01*
X165577689Y-89345110D01*
X165577688Y-89345110D01*
X165548335Y-89366436D01*
X165538415Y-89372952D01*
X165507187Y-89391420D01*
X165507184Y-89391422D01*
X165500360Y-89395458D01*
X165486039Y-89409779D01*
X165471006Y-89422619D01*
X165454615Y-89434528D01*
X165449564Y-89440634D01*
X165426424Y-89468605D01*
X165418434Y-89477384D01*
X161286676Y-93609141D01*
X161224364Y-93643167D01*
X161153548Y-93638102D01*
X161096713Y-93595555D01*
X161071902Y-93529035D01*
X161072271Y-93506876D01*
X161082814Y-93406565D01*
X161083504Y-93400000D01*
X161063542Y-93210072D01*
X161004527Y-93028444D01*
X160909040Y-92863056D01*
X160900457Y-92853523D01*
X160785675Y-92726045D01*
X160785674Y-92726044D01*
X160781253Y-92721134D01*
X160626752Y-92608882D01*
X160620724Y-92606198D01*
X160620722Y-92606197D01*
X160458319Y-92533891D01*
X160458318Y-92533891D01*
X160452288Y-92531206D01*
X160358888Y-92511353D01*
X160271944Y-92492872D01*
X160271939Y-92492872D01*
X160265487Y-92491500D01*
X160074513Y-92491500D01*
X160068061Y-92492872D01*
X160068056Y-92492872D01*
X159981112Y-92511353D01*
X159887712Y-92531206D01*
X159881682Y-92533891D01*
X159881681Y-92533891D01*
X159719278Y-92606197D01*
X159719276Y-92606198D01*
X159713248Y-92608882D01*
X159558747Y-92721134D01*
X159554333Y-92726036D01*
X159554332Y-92726037D01*
X159520357Y-92763770D01*
X159473101Y-92796612D01*
X159470094Y-92797802D01*
X159458872Y-92801644D01*
X159416407Y-92813981D01*
X159409584Y-92818016D01*
X159398966Y-92824295D01*
X159381213Y-92832992D01*
X159373568Y-92836019D01*
X159362383Y-92840448D01*
X159355968Y-92845109D01*
X159326612Y-92866437D01*
X159316695Y-92872951D01*
X159278638Y-92895458D01*
X159264317Y-92909779D01*
X159249284Y-92922619D01*
X159232893Y-92934528D01*
X159216015Y-92954930D01*
X159204702Y-92968605D01*
X159196712Y-92977384D01*
X156277747Y-95896348D01*
X156269461Y-95903888D01*
X156262982Y-95908000D01*
X156257557Y-95913777D01*
X156216357Y-95957651D01*
X156213602Y-95960493D01*
X156193865Y-95980230D01*
X156191385Y-95983427D01*
X156183682Y-95992447D01*
X156153414Y-96024679D01*
X156149595Y-96031625D01*
X156149593Y-96031628D01*
X156143652Y-96042434D01*
X156132801Y-96058953D01*
X156120386Y-96074959D01*
X156117241Y-96082228D01*
X156117238Y-96082232D01*
X156102826Y-96115537D01*
X156097609Y-96126187D01*
X156076305Y-96164940D01*
X156074334Y-96172615D01*
X156074334Y-96172616D01*
X156071267Y-96184562D01*
X156064863Y-96203266D01*
X156056819Y-96221855D01*
X156055580Y-96229678D01*
X156055577Y-96229688D01*
X156049901Y-96265524D01*
X156047495Y-96277144D01*
X156039029Y-96310121D01*
X156036500Y-96319970D01*
X156036500Y-96340224D01*
X156034949Y-96359934D01*
X156031780Y-96379943D01*
X156032526Y-96387835D01*
X156035941Y-96423961D01*
X156036500Y-96435819D01*
X156036500Y-96721802D01*
X156016498Y-96789923D01*
X155999595Y-96810897D01*
X153018595Y-99791896D01*
X152956283Y-99825922D01*
X152885467Y-99820857D01*
X152828632Y-99778310D01*
X152803821Y-99711790D01*
X152803500Y-99702801D01*
X152803500Y-94102524D01*
X152823502Y-94034403D01*
X152835858Y-94018221D01*
X152909040Y-93936944D01*
X153004527Y-93771556D01*
X153063542Y-93589928D01*
X153083504Y-93400000D01*
X153063542Y-93210072D01*
X153004527Y-93028444D01*
X152909040Y-92863056D01*
X152831984Y-92777476D01*
X152801268Y-92713471D01*
X152810032Y-92643017D01*
X152836526Y-92604073D01*
X153483147Y-91957452D01*
X153498180Y-91944612D01*
X153523045Y-91926546D01*
X153529573Y-91922109D01*
X153577018Y-91892000D01*
X153582659Y-91885993D01*
X153600446Y-91870312D01*
X153600691Y-91870134D01*
X153600693Y-91870132D01*
X153607107Y-91865472D01*
X153612162Y-91859362D01*
X153642903Y-91822204D01*
X153648134Y-91816270D01*
X153681158Y-91781102D01*
X153681160Y-91781099D01*
X153686586Y-91775321D01*
X153690558Y-91768097D01*
X153703881Y-91748494D01*
X153704080Y-91748254D01*
X153704084Y-91748247D01*
X153709133Y-91742144D01*
X153733047Y-91691324D01*
X153736629Y-91684292D01*
X153763695Y-91635060D01*
X153765665Y-91627385D01*
X153765668Y-91627379D01*
X153765744Y-91627081D01*
X153773776Y-91604772D01*
X153773906Y-91604497D01*
X153773909Y-91604489D01*
X153777283Y-91597318D01*
X153787806Y-91542151D01*
X153789532Y-91534429D01*
X153801529Y-91487707D01*
X153801529Y-91487706D01*
X153803500Y-91480030D01*
X153803500Y-91471793D01*
X153805732Y-91448184D01*
X153805790Y-91447881D01*
X153805790Y-91447877D01*
X153807275Y-91440094D01*
X153803749Y-91384049D01*
X153803500Y-91376138D01*
X153803500Y-84900000D01*
X156756496Y-84900000D01*
X156776458Y-85089928D01*
X156835473Y-85271556D01*
X156930960Y-85436944D01*
X157058747Y-85578866D01*
X157213248Y-85691118D01*
X157219276Y-85693802D01*
X157219278Y-85693803D01*
X157334678Y-85745182D01*
X157387712Y-85768794D01*
X157481112Y-85788647D01*
X157568056Y-85807128D01*
X157568061Y-85807128D01*
X157574513Y-85808500D01*
X157765487Y-85808500D01*
X157771939Y-85807128D01*
X157771944Y-85807128D01*
X157858888Y-85788647D01*
X157952288Y-85768794D01*
X158005322Y-85745182D01*
X158120722Y-85693803D01*
X158120724Y-85693802D01*
X158126752Y-85691118D01*
X158281253Y-85578866D01*
X158285668Y-85573963D01*
X158290580Y-85569540D01*
X158291705Y-85570789D01*
X158345014Y-85537949D01*
X158378200Y-85533500D01*
X166461800Y-85533500D01*
X166529921Y-85553502D01*
X166549147Y-85569843D01*
X166549420Y-85569540D01*
X166554332Y-85573963D01*
X166558747Y-85578866D01*
X166713248Y-85691118D01*
X166719276Y-85693802D01*
X166719278Y-85693803D01*
X166834678Y-85745182D01*
X166887712Y-85768794D01*
X166981112Y-85788647D01*
X167068056Y-85807128D01*
X167068061Y-85807128D01*
X167074513Y-85808500D01*
X167265487Y-85808500D01*
X167271939Y-85807128D01*
X167271944Y-85807128D01*
X167358888Y-85788647D01*
X167452288Y-85768794D01*
X167505322Y-85745182D01*
X167620722Y-85693803D01*
X167620724Y-85693802D01*
X167626752Y-85691118D01*
X167781253Y-85578866D01*
X167909040Y-85436944D01*
X168004527Y-85271556D01*
X168063542Y-85089928D01*
X168083504Y-84900000D01*
X168063542Y-84710072D01*
X168004527Y-84528444D01*
X167909040Y-84363056D01*
X167873481Y-84323563D01*
X167785675Y-84226045D01*
X167785674Y-84226044D01*
X167781253Y-84221134D01*
X167626752Y-84108882D01*
X167620724Y-84106198D01*
X167620722Y-84106197D01*
X167458319Y-84033891D01*
X167458318Y-84033891D01*
X167452288Y-84031206D01*
X167358887Y-84011353D01*
X167271944Y-83992872D01*
X167271939Y-83992872D01*
X167265487Y-83991500D01*
X167074513Y-83991500D01*
X167068061Y-83992872D01*
X167068056Y-83992872D01*
X166981113Y-84011353D01*
X166887712Y-84031206D01*
X166881682Y-84033891D01*
X166881681Y-84033891D01*
X166719278Y-84106197D01*
X166719276Y-84106198D01*
X166713248Y-84108882D01*
X166558747Y-84221134D01*
X166554332Y-84226037D01*
X166549420Y-84230460D01*
X166548295Y-84229211D01*
X166494986Y-84262051D01*
X166461800Y-84266500D01*
X158378200Y-84266500D01*
X158310079Y-84246498D01*
X158290853Y-84230157D01*
X158290580Y-84230460D01*
X158285668Y-84226037D01*
X158281253Y-84221134D01*
X158126752Y-84108882D01*
X158120724Y-84106198D01*
X158120722Y-84106197D01*
X157958319Y-84033891D01*
X157958318Y-84033891D01*
X157952288Y-84031206D01*
X157858887Y-84011353D01*
X157771944Y-83992872D01*
X157771939Y-83992872D01*
X157765487Y-83991500D01*
X157574513Y-83991500D01*
X157568061Y-83992872D01*
X157568056Y-83992872D01*
X157481113Y-84011353D01*
X157387712Y-84031206D01*
X157381682Y-84033891D01*
X157381681Y-84033891D01*
X157219278Y-84106197D01*
X157219276Y-84106198D01*
X157213248Y-84108882D01*
X157058747Y-84221134D01*
X157054326Y-84226044D01*
X157054325Y-84226045D01*
X156966520Y-84323563D01*
X156930960Y-84363056D01*
X156835473Y-84528444D01*
X156776458Y-84710072D01*
X156756496Y-84900000D01*
X153803500Y-84900000D01*
X153803500Y-82602524D01*
X153823502Y-82534403D01*
X153835858Y-82518221D01*
X153909040Y-82436944D01*
X154004527Y-82271556D01*
X154063542Y-82089928D01*
X154075622Y-81975000D01*
X165106526Y-81975000D01*
X165126391Y-82227403D01*
X165127545Y-82232210D01*
X165127546Y-82232216D01*
X165144420Y-82302499D01*
X165185495Y-82473591D01*
X165187388Y-82478162D01*
X165187389Y-82478164D01*
X165238901Y-82602524D01*
X165282384Y-82707502D01*
X165414672Y-82923376D01*
X165579102Y-83115898D01*
X165771624Y-83280328D01*
X165987498Y-83412616D01*
X165992068Y-83414509D01*
X165992072Y-83414511D01*
X166216836Y-83507611D01*
X166221409Y-83509505D01*
X166306032Y-83529821D01*
X166462784Y-83567454D01*
X166462790Y-83567455D01*
X166467597Y-83568609D01*
X166567416Y-83576465D01*
X166654345Y-83583307D01*
X166654352Y-83583307D01*
X166656801Y-83583500D01*
X166783199Y-83583500D01*
X166785648Y-83583307D01*
X166785655Y-83583307D01*
X166872584Y-83576465D01*
X166972403Y-83568609D01*
X166977210Y-83567455D01*
X166977216Y-83567454D01*
X167133968Y-83529821D01*
X167218591Y-83509505D01*
X167223164Y-83507611D01*
X167447928Y-83414511D01*
X167447932Y-83414509D01*
X167452502Y-83412616D01*
X167668376Y-83280328D01*
X167860898Y-83115898D01*
X168025328Y-82923376D01*
X168157616Y-82707502D01*
X168201100Y-82602524D01*
X168252611Y-82478164D01*
X168252612Y-82478162D01*
X168254505Y-82473591D01*
X168295580Y-82302499D01*
X168312454Y-82232216D01*
X168312455Y-82232210D01*
X168313609Y-82227403D01*
X168333474Y-81975000D01*
X168313609Y-81722597D01*
X168310603Y-81710072D01*
X168255660Y-81481221D01*
X168254505Y-81476409D01*
X168157616Y-81242498D01*
X168025328Y-81026624D01*
X167860898Y-80834102D01*
X167668376Y-80669672D01*
X167452502Y-80537384D01*
X167447932Y-80535491D01*
X167447928Y-80535489D01*
X167223164Y-80442389D01*
X167223162Y-80442388D01*
X167218591Y-80440495D01*
X167133968Y-80420179D01*
X166977216Y-80382546D01*
X166977210Y-80382545D01*
X166972403Y-80381391D01*
X166872584Y-80373535D01*
X166785655Y-80366693D01*
X166785648Y-80366693D01*
X166783199Y-80366500D01*
X166656801Y-80366500D01*
X166654352Y-80366693D01*
X166654345Y-80366693D01*
X166567416Y-80373535D01*
X166467597Y-80381391D01*
X166462790Y-80382545D01*
X166462784Y-80382546D01*
X166306032Y-80420179D01*
X166221409Y-80440495D01*
X166216838Y-80442388D01*
X166216836Y-80442389D01*
X165992072Y-80535489D01*
X165992068Y-80535491D01*
X165987498Y-80537384D01*
X165771624Y-80669672D01*
X165579102Y-80834102D01*
X165414672Y-81026624D01*
X165282384Y-81242498D01*
X165185495Y-81476409D01*
X165184340Y-81481221D01*
X165129398Y-81710072D01*
X165126391Y-81722597D01*
X165106526Y-81975000D01*
X154075622Y-81975000D01*
X154076140Y-81970070D01*
X154082814Y-81906565D01*
X154083504Y-81900000D01*
X154065377Y-81727531D01*
X154064232Y-81716635D01*
X154064232Y-81716633D01*
X154063542Y-81710072D01*
X154004527Y-81528444D01*
X153909040Y-81363056D01*
X153781253Y-81221134D01*
X153626752Y-81108882D01*
X153620724Y-81106198D01*
X153620722Y-81106197D01*
X153458319Y-81033891D01*
X153458318Y-81033891D01*
X153452288Y-81031206D01*
X153358888Y-81011353D01*
X153271944Y-80992872D01*
X153271939Y-80992872D01*
X153265487Y-80991500D01*
X153074513Y-80991500D01*
X153068061Y-80992872D01*
X153068056Y-80992872D01*
X152981112Y-81011353D01*
X152887712Y-81031206D01*
X152881682Y-81033891D01*
X152881681Y-81033891D01*
X152719278Y-81106197D01*
X152719276Y-81106198D01*
X152713248Y-81108882D01*
X152558747Y-81221134D01*
X152430960Y-81363056D01*
X152335473Y-81528444D01*
X152276458Y-81710072D01*
X152275768Y-81716633D01*
X152275768Y-81716635D01*
X152274623Y-81727531D01*
X152256496Y-81900000D01*
X152257186Y-81906565D01*
X152263861Y-81970070D01*
X152276458Y-82089928D01*
X152335473Y-82271556D01*
X152338777Y-82277278D01*
X152338778Y-82277281D01*
X152353338Y-82302499D01*
X152370077Y-82371494D01*
X152346857Y-82438586D01*
X152291051Y-82482474D01*
X152244220Y-82491500D01*
X152074513Y-82491500D01*
X152068061Y-82492872D01*
X152068056Y-82492872D01*
X151981112Y-82511353D01*
X151887712Y-82531206D01*
X151881682Y-82533891D01*
X151881681Y-82533891D01*
X151719278Y-82606197D01*
X151719276Y-82606198D01*
X151713248Y-82608882D01*
X151558747Y-82721134D01*
X151430960Y-82863056D01*
X151335473Y-83028444D01*
X151276458Y-83210072D01*
X151275768Y-83216633D01*
X151275768Y-83216635D01*
X151257186Y-83393435D01*
X151256496Y-83400000D01*
X151276458Y-83589928D01*
X151335473Y-83771556D01*
X151430960Y-83936944D01*
X151558747Y-84078866D01*
X151713248Y-84191118D01*
X151719276Y-84193802D01*
X151719278Y-84193803D01*
X151800931Y-84230157D01*
X151887712Y-84268794D01*
X151986697Y-84289834D01*
X152049170Y-84323563D01*
X152083492Y-84385712D01*
X152086500Y-84413081D01*
X152086500Y-85116406D01*
X152066498Y-85184527D01*
X152012842Y-85231020D01*
X151942568Y-85241124D01*
X151877988Y-85211630D01*
X151871405Y-85205501D01*
X151617122Y-84951218D01*
X151583096Y-84888906D01*
X151580907Y-84875293D01*
X151564232Y-84716635D01*
X151564232Y-84716633D01*
X151563542Y-84710072D01*
X151504527Y-84528444D01*
X151409040Y-84363056D01*
X151373481Y-84323563D01*
X151285675Y-84226045D01*
X151285674Y-84226044D01*
X151281253Y-84221134D01*
X151126752Y-84108882D01*
X151120724Y-84106198D01*
X151120722Y-84106197D01*
X150958319Y-84033891D01*
X150958318Y-84033891D01*
X150952288Y-84031206D01*
X150858887Y-84011353D01*
X150771944Y-83992872D01*
X150771939Y-83992872D01*
X150765487Y-83991500D01*
X150574513Y-83991500D01*
X150568061Y-83992872D01*
X150568056Y-83992872D01*
X150481113Y-84011353D01*
X150387712Y-84031206D01*
X150381682Y-84033891D01*
X150381681Y-84033891D01*
X150219278Y-84106197D01*
X150219276Y-84106198D01*
X150213248Y-84108882D01*
X150058747Y-84221134D01*
X150054326Y-84226044D01*
X150054325Y-84226045D01*
X149966520Y-84323563D01*
X149930960Y-84363056D01*
X149835473Y-84528444D01*
X149776458Y-84710072D01*
X149756496Y-84900000D01*
X149776458Y-85089928D01*
X149835473Y-85271556D01*
X149930960Y-85436944D01*
X149935378Y-85441851D01*
X149935379Y-85441852D01*
X150038329Y-85556190D01*
X150069047Y-85620197D01*
X150060282Y-85690651D01*
X150014819Y-85745182D01*
X149944693Y-85766500D01*
X142978289Y-85766500D01*
X142910168Y-85746498D01*
X142863675Y-85692842D01*
X142853571Y-85622568D01*
X142883065Y-85557988D01*
X142889194Y-85551405D01*
X146344394Y-82096206D01*
X149870195Y-78570405D01*
X149932507Y-78536379D01*
X149959290Y-78533500D01*
X161461800Y-78533500D01*
X161529921Y-78553502D01*
X161549147Y-78569843D01*
X161549420Y-78569540D01*
X161554332Y-78573963D01*
X161558747Y-78578866D01*
X161580329Y-78594546D01*
X161687034Y-78672072D01*
X161713248Y-78691118D01*
X161719276Y-78693802D01*
X161719278Y-78693803D01*
X161881681Y-78766109D01*
X161887712Y-78768794D01*
X161981112Y-78788647D01*
X162068056Y-78807128D01*
X162068061Y-78807128D01*
X162074513Y-78808500D01*
X162265487Y-78808500D01*
X162271939Y-78807128D01*
X162271944Y-78807128D01*
X162358888Y-78788647D01*
X162452288Y-78768794D01*
X162458319Y-78766109D01*
X162620722Y-78693803D01*
X162620724Y-78693802D01*
X162626752Y-78691118D01*
X162652967Y-78672072D01*
X162682157Y-78650864D01*
X162781253Y-78578866D01*
X162804091Y-78553502D01*
X162904621Y-78441852D01*
X162904622Y-78441851D01*
X162909040Y-78436944D01*
X163004527Y-78271556D01*
X163063542Y-78089928D01*
X163070752Y-78021329D01*
X163097765Y-77955673D01*
X163155987Y-77915043D01*
X163196062Y-77908500D01*
X170598065Y-77908500D01*
X170666186Y-77928502D01*
G37*
%TD.AperFunction*%
%TD*%
M02*
