%TF.GenerationSoftware,KiCad,Pcbnew,(6.0.6)*%
%TF.CreationDate,2022-08-03T19:41:37-05:00*%
%TF.ProjectId,GBOYAudioBreakout,47424f59-4175-4646-996f-427265616b6f,rev?*%
%TF.SameCoordinates,Original*%
%TF.FileFunction,Legend,Top*%
%TF.FilePolarity,Positive*%
%FSLAX46Y46*%
G04 Gerber Fmt 4.6, Leading zero omitted, Abs format (unit mm)*
G04 Created by KiCad (PCBNEW (6.0.6)) date 2022-08-03 19:41:37*
%MOMM*%
%LPD*%
G01*
G04 APERTURE LIST*
%ADD10C,0.100000*%
%ADD11C,0.150000*%
%ADD12C,0.120000*%
G04 APERTURE END LIST*
D10*
X147615952Y-100900000D02*
X147568333Y-100852380D01*
X147496904Y-100852380D01*
X147425476Y-100900000D01*
X147377857Y-100995238D01*
X147354047Y-101090476D01*
X147330238Y-101280952D01*
X147330238Y-101423809D01*
X147354047Y-101614285D01*
X147377857Y-101709523D01*
X147425476Y-101804761D01*
X147496904Y-101852380D01*
X147544523Y-101852380D01*
X147615952Y-101804761D01*
X147639761Y-101757142D01*
X147639761Y-101423809D01*
X147544523Y-101423809D01*
X148020714Y-101328571D02*
X148092142Y-101376190D01*
X148115952Y-101423809D01*
X148139761Y-101519047D01*
X148139761Y-101661904D01*
X148115952Y-101757142D01*
X148092142Y-101804761D01*
X148044523Y-101852380D01*
X147854047Y-101852380D01*
X147854047Y-100852380D01*
X148020714Y-100852380D01*
X148068333Y-100900000D01*
X148092142Y-100947619D01*
X148115952Y-101042857D01*
X148115952Y-101138095D01*
X148092142Y-101233333D01*
X148068333Y-101280952D01*
X148020714Y-101328571D01*
X147854047Y-101328571D01*
X148449285Y-100852380D02*
X148544523Y-100852380D01*
X148592142Y-100900000D01*
X148639761Y-100995238D01*
X148663571Y-101185714D01*
X148663571Y-101519047D01*
X148639761Y-101709523D01*
X148592142Y-101804761D01*
X148544523Y-101852380D01*
X148449285Y-101852380D01*
X148401666Y-101804761D01*
X148354047Y-101709523D01*
X148330238Y-101519047D01*
X148330238Y-101185714D01*
X148354047Y-100995238D01*
X148401666Y-100900000D01*
X148449285Y-100852380D01*
X148973095Y-101376190D02*
X148973095Y-101852380D01*
X148806428Y-100852380D02*
X148973095Y-101376190D01*
X149139761Y-100852380D01*
X149901666Y-101804761D02*
X149854047Y-101852380D01*
X149758809Y-101852380D01*
X149711190Y-101804761D01*
X149687380Y-101757142D01*
X149663571Y-101661904D01*
X149663571Y-101376190D01*
X149687380Y-101280952D01*
X149711190Y-101233333D01*
X149758809Y-101185714D01*
X149854047Y-101185714D01*
X149901666Y-101233333D01*
X150187380Y-101852380D02*
X150139761Y-101804761D01*
X150115952Y-101709523D01*
X150115952Y-100852380D01*
X150449285Y-101852380D02*
X150401666Y-101804761D01*
X150377857Y-101757142D01*
X150354047Y-101661904D01*
X150354047Y-101376190D01*
X150377857Y-101280952D01*
X150401666Y-101233333D01*
X150449285Y-101185714D01*
X150520714Y-101185714D01*
X150568333Y-101233333D01*
X150592142Y-101280952D01*
X150615952Y-101376190D01*
X150615952Y-101661904D01*
X150592142Y-101757142D01*
X150568333Y-101804761D01*
X150520714Y-101852380D01*
X150449285Y-101852380D01*
X150830238Y-101185714D02*
X150830238Y-101852380D01*
X150830238Y-101280952D02*
X150854047Y-101233333D01*
X150901666Y-101185714D01*
X150973095Y-101185714D01*
X151020714Y-101233333D01*
X151044523Y-101328571D01*
X151044523Y-101852380D01*
X151473095Y-101804761D02*
X151425476Y-101852380D01*
X151330238Y-101852380D01*
X151282619Y-101804761D01*
X151258809Y-101709523D01*
X151258809Y-101328571D01*
X151282619Y-101233333D01*
X151330238Y-101185714D01*
X151425476Y-101185714D01*
X151473095Y-101233333D01*
X151496904Y-101328571D01*
X151496904Y-101423809D01*
X151258809Y-101519047D01*
X152092142Y-101185714D02*
X152092142Y-102185714D01*
X152092142Y-101233333D02*
X152139761Y-101185714D01*
X152235000Y-101185714D01*
X152282619Y-101233333D01*
X152306428Y-101280952D01*
X152330238Y-101376190D01*
X152330238Y-101661904D01*
X152306428Y-101757142D01*
X152282619Y-101804761D01*
X152235000Y-101852380D01*
X152139761Y-101852380D01*
X152092142Y-101804761D01*
X152758809Y-101852380D02*
X152758809Y-101328571D01*
X152735000Y-101233333D01*
X152687380Y-101185714D01*
X152592142Y-101185714D01*
X152544523Y-101233333D01*
X152758809Y-101804761D02*
X152711190Y-101852380D01*
X152592142Y-101852380D01*
X152544523Y-101804761D01*
X152520714Y-101709523D01*
X152520714Y-101614285D01*
X152544523Y-101519047D01*
X152592142Y-101471428D01*
X152711190Y-101471428D01*
X152758809Y-101423809D01*
X152996904Y-101852380D02*
X152996904Y-101185714D01*
X152996904Y-101376190D02*
X153020714Y-101280952D01*
X153044523Y-101233333D01*
X153092142Y-101185714D01*
X153139761Y-101185714D01*
X153235000Y-101185714D02*
X153425476Y-101185714D01*
X153306428Y-100852380D02*
X153306428Y-101709523D01*
X153330238Y-101804761D01*
X153377857Y-101852380D01*
X153425476Y-101852380D01*
X153568333Y-101804761D02*
X153615952Y-101852380D01*
X153711190Y-101852380D01*
X153758809Y-101804761D01*
X153782619Y-101709523D01*
X153782619Y-101661904D01*
X153758809Y-101566666D01*
X153711190Y-101519047D01*
X153639761Y-101519047D01*
X153592142Y-101471428D01*
X153568333Y-101376190D01*
X153568333Y-101328571D01*
X153592142Y-101233333D01*
X153639761Y-101185714D01*
X153711190Y-101185714D01*
X153758809Y-101233333D01*
X154377857Y-101471428D02*
X154758809Y-101471428D01*
X155354047Y-101566666D02*
X155592142Y-101566666D01*
X155306428Y-101852380D02*
X155473095Y-100852380D01*
X155639761Y-101852380D01*
X156020714Y-101185714D02*
X156020714Y-101852380D01*
X155806428Y-101185714D02*
X155806428Y-101709523D01*
X155830238Y-101804761D01*
X155877857Y-101852380D01*
X155949285Y-101852380D01*
X155996904Y-101804761D01*
X156020714Y-101757142D01*
X156473095Y-101852380D02*
X156473095Y-100852380D01*
X156473095Y-101804761D02*
X156425476Y-101852380D01*
X156330238Y-101852380D01*
X156282619Y-101804761D01*
X156258809Y-101757142D01*
X156235000Y-101661904D01*
X156235000Y-101376190D01*
X156258809Y-101280952D01*
X156282619Y-101233333D01*
X156330238Y-101185714D01*
X156425476Y-101185714D01*
X156473095Y-101233333D01*
X156711190Y-101852380D02*
X156711190Y-101185714D01*
X156711190Y-100852380D02*
X156687380Y-100900000D01*
X156711190Y-100947619D01*
X156735000Y-100900000D01*
X156711190Y-100852380D01*
X156711190Y-100947619D01*
X157020714Y-101852380D02*
X156973095Y-101804761D01*
X156949285Y-101757142D01*
X156925476Y-101661904D01*
X156925476Y-101376190D01*
X156949285Y-101280952D01*
X156973095Y-101233333D01*
X157020714Y-101185714D01*
X157092142Y-101185714D01*
X157139761Y-101233333D01*
X157163571Y-101280952D01*
X157187380Y-101376190D01*
X157187380Y-101661904D01*
X157163571Y-101757142D01*
X157139761Y-101804761D01*
X157092142Y-101852380D01*
X157020714Y-101852380D01*
X157996904Y-101804761D02*
X157949285Y-101852380D01*
X157854047Y-101852380D01*
X157806428Y-101804761D01*
X157782619Y-101757142D01*
X157758809Y-101661904D01*
X157758809Y-101376190D01*
X157782619Y-101280952D01*
X157806428Y-101233333D01*
X157854047Y-101185714D01*
X157949285Y-101185714D01*
X157996904Y-101233333D01*
X158282619Y-101852380D02*
X158235000Y-101804761D01*
X158211190Y-101757142D01*
X158187380Y-101661904D01*
X158187380Y-101376190D01*
X158211190Y-101280952D01*
X158235000Y-101233333D01*
X158282619Y-101185714D01*
X158354047Y-101185714D01*
X158401666Y-101233333D01*
X158425476Y-101280952D01*
X158449285Y-101376190D01*
X158449285Y-101661904D01*
X158425476Y-101757142D01*
X158401666Y-101804761D01*
X158354047Y-101852380D01*
X158282619Y-101852380D01*
X158663571Y-101185714D02*
X158663571Y-101852380D01*
X158663571Y-101280952D02*
X158687380Y-101233333D01*
X158735000Y-101185714D01*
X158806428Y-101185714D01*
X158854047Y-101233333D01*
X158877857Y-101328571D01*
X158877857Y-101852380D01*
X159044523Y-101185714D02*
X159235000Y-101185714D01*
X159115952Y-100852380D02*
X159115952Y-101709523D01*
X159139761Y-101804761D01*
X159187380Y-101852380D01*
X159235000Y-101852380D01*
X159401666Y-101852380D02*
X159401666Y-101185714D01*
X159401666Y-101376190D02*
X159425476Y-101280952D01*
X159449285Y-101233333D01*
X159496904Y-101185714D01*
X159544523Y-101185714D01*
X159782619Y-101852380D02*
X159735000Y-101804761D01*
X159711190Y-101757142D01*
X159687380Y-101661904D01*
X159687380Y-101376190D01*
X159711190Y-101280952D01*
X159735000Y-101233333D01*
X159782619Y-101185714D01*
X159854047Y-101185714D01*
X159901666Y-101233333D01*
X159925476Y-101280952D01*
X159949285Y-101376190D01*
X159949285Y-101661904D01*
X159925476Y-101757142D01*
X159901666Y-101804761D01*
X159854047Y-101852380D01*
X159782619Y-101852380D01*
X160235000Y-101852380D02*
X160187380Y-101804761D01*
X160163571Y-101709523D01*
X160163571Y-100852380D01*
X160496904Y-101852380D02*
X160449285Y-101804761D01*
X160425476Y-101709523D01*
X160425476Y-100852380D01*
X160877857Y-101804761D02*
X160830238Y-101852380D01*
X160735000Y-101852380D01*
X160687380Y-101804761D01*
X160663571Y-101709523D01*
X160663571Y-101328571D01*
X160687380Y-101233333D01*
X160735000Y-101185714D01*
X160830238Y-101185714D01*
X160877857Y-101233333D01*
X160901666Y-101328571D01*
X160901666Y-101423809D01*
X160663571Y-101519047D01*
X161115952Y-101852380D02*
X161115952Y-101185714D01*
X161115952Y-101376190D02*
X161139761Y-101280952D01*
X161163571Y-101233333D01*
X161211190Y-101185714D01*
X161258809Y-101185714D01*
X161758809Y-101185714D02*
X161877857Y-101852380D01*
X161996904Y-101185714D01*
X162163571Y-100947619D02*
X162187380Y-100900000D01*
X162235000Y-100852380D01*
X162354047Y-100852380D01*
X162401666Y-100900000D01*
X162425476Y-100947619D01*
X162449285Y-101042857D01*
X162449285Y-101138095D01*
X162425476Y-101280952D01*
X162139761Y-101852380D01*
X162449285Y-101852380D01*
X163044523Y-101471428D02*
X163425476Y-101471428D01*
X164282619Y-101852380D02*
X164044523Y-101852380D01*
X164044523Y-100852380D01*
X164449285Y-101852380D02*
X164449285Y-101185714D01*
X164449285Y-100852380D02*
X164425476Y-100900000D01*
X164449285Y-100947619D01*
X164473095Y-100900000D01*
X164449285Y-100852380D01*
X164449285Y-100947619D01*
X164615952Y-101185714D02*
X164806428Y-101185714D01*
X164687380Y-100852380D02*
X164687380Y-101709523D01*
X164711190Y-101804761D01*
X164758809Y-101852380D01*
X164806428Y-101852380D01*
X164901666Y-101185714D02*
X165092142Y-101185714D01*
X164973095Y-100852380D02*
X164973095Y-101709523D01*
X164996904Y-101804761D01*
X165044523Y-101852380D01*
X165092142Y-101852380D01*
X165330238Y-101852380D02*
X165282619Y-101804761D01*
X165258809Y-101709523D01*
X165258809Y-100852380D01*
X165711190Y-101804761D02*
X165663571Y-101852380D01*
X165568333Y-101852380D01*
X165520714Y-101804761D01*
X165496904Y-101709523D01*
X165496904Y-101328571D01*
X165520714Y-101233333D01*
X165568333Y-101185714D01*
X165663571Y-101185714D01*
X165711190Y-101233333D01*
X165735000Y-101328571D01*
X165735000Y-101423809D01*
X165496904Y-101519047D01*
X165949285Y-101852380D02*
X165949285Y-100852380D01*
X166163571Y-101852380D02*
X166163571Y-101328571D01*
X166139761Y-101233333D01*
X166092142Y-101185714D01*
X166020714Y-101185714D01*
X165973095Y-101233333D01*
X165949285Y-101280952D01*
X166615952Y-101852380D02*
X166615952Y-101328571D01*
X166592142Y-101233333D01*
X166544523Y-101185714D01*
X166449285Y-101185714D01*
X166401666Y-101233333D01*
X166615952Y-101804761D02*
X166568333Y-101852380D01*
X166449285Y-101852380D01*
X166401666Y-101804761D01*
X166377857Y-101709523D01*
X166377857Y-101614285D01*
X166401666Y-101519047D01*
X166449285Y-101471428D01*
X166568333Y-101471428D01*
X166615952Y-101423809D01*
X166782619Y-101185714D02*
X166973095Y-101185714D01*
X166854047Y-100852380D02*
X166854047Y-101709523D01*
X166877857Y-101804761D01*
X166925476Y-101852380D01*
X166973095Y-101852380D01*
X167115952Y-100947619D02*
X167139761Y-100900000D01*
X167187380Y-100852380D01*
X167306428Y-100852380D01*
X167354047Y-100900000D01*
X167377857Y-100947619D01*
X167401666Y-101042857D01*
X167401666Y-101138095D01*
X167377857Y-101280952D01*
X167092142Y-101852380D01*
X167401666Y-101852380D01*
X167592142Y-100947619D02*
X167615952Y-100900000D01*
X167663571Y-100852380D01*
X167782619Y-100852380D01*
X167830238Y-100900000D01*
X167854047Y-100947619D01*
X167877857Y-101042857D01*
X167877857Y-101138095D01*
X167854047Y-101280952D01*
X167568333Y-101852380D01*
X167877857Y-101852380D01*
X168354047Y-101852380D02*
X168068333Y-101852380D01*
X168211190Y-101852380D02*
X168211190Y-100852380D01*
X168163571Y-100995238D01*
X168115952Y-101090476D01*
X168068333Y-101138095D01*
D11*
%TO.C,D1*%
X117622380Y-98064404D02*
X116622380Y-98064404D01*
X116622380Y-97826309D01*
X116670000Y-97683452D01*
X116765238Y-97588214D01*
X116860476Y-97540595D01*
X117050952Y-97492976D01*
X117193809Y-97492976D01*
X117384285Y-97540595D01*
X117479523Y-97588214D01*
X117574761Y-97683452D01*
X117622380Y-97826309D01*
X117622380Y-98064404D01*
%TO.C,MC1*%
X120122380Y-98064404D02*
X119122380Y-98064404D01*
X119836666Y-97731071D01*
X119122380Y-97397738D01*
X120122380Y-97397738D01*
X120027142Y-96350119D02*
X120074761Y-96397738D01*
X120122380Y-96540595D01*
X120122380Y-96635833D01*
X120074761Y-96778690D01*
X119979523Y-96873928D01*
X119884285Y-96921547D01*
X119693809Y-96969166D01*
X119550952Y-96969166D01*
X119360476Y-96921547D01*
X119265238Y-96873928D01*
X119170000Y-96778690D01*
X119122380Y-96635833D01*
X119122380Y-96540595D01*
X119170000Y-96397738D01*
X119217619Y-96350119D01*
%TO.C,WS1*%
X121622380Y-98159642D02*
X122622380Y-97921547D01*
X121908095Y-97731071D01*
X122622380Y-97540595D01*
X121622380Y-97302500D01*
X122574761Y-96969166D02*
X122622380Y-96826309D01*
X122622380Y-96588214D01*
X122574761Y-96492976D01*
X122527142Y-96445357D01*
X122431904Y-96397738D01*
X122336666Y-96397738D01*
X122241428Y-96445357D01*
X122193809Y-96492976D01*
X122146190Y-96588214D01*
X122098571Y-96778690D01*
X122050952Y-96873928D01*
X122003333Y-96921547D01*
X121908095Y-96969166D01*
X121812857Y-96969166D01*
X121717619Y-96921547D01*
X121670000Y-96873928D01*
X121622380Y-96778690D01*
X121622380Y-96540595D01*
X121670000Y-96397738D01*
%TO.C,1.8V1*%
X125122380Y-97540595D02*
X125122380Y-98112023D01*
X125122380Y-97826309D02*
X124122380Y-97826309D01*
X124265238Y-97921547D01*
X124360476Y-98016785D01*
X124408095Y-98112023D01*
X125027142Y-97112023D02*
X125074761Y-97064404D01*
X125122380Y-97112023D01*
X125074761Y-97159642D01*
X125027142Y-97112023D01*
X125122380Y-97112023D01*
X124550952Y-96492976D02*
X124503333Y-96588214D01*
X124455714Y-96635833D01*
X124360476Y-96683452D01*
X124312857Y-96683452D01*
X124217619Y-96635833D01*
X124170000Y-96588214D01*
X124122380Y-96492976D01*
X124122380Y-96302500D01*
X124170000Y-96207261D01*
X124217619Y-96159642D01*
X124312857Y-96112023D01*
X124360476Y-96112023D01*
X124455714Y-96159642D01*
X124503333Y-96207261D01*
X124550952Y-96302500D01*
X124550952Y-96492976D01*
X124598571Y-96588214D01*
X124646190Y-96635833D01*
X124741428Y-96683452D01*
X124931904Y-96683452D01*
X125027142Y-96635833D01*
X125074761Y-96588214D01*
X125122380Y-96492976D01*
X125122380Y-96302500D01*
X125074761Y-96207261D01*
X125027142Y-96159642D01*
X124931904Y-96112023D01*
X124741428Y-96112023D01*
X124646190Y-96159642D01*
X124598571Y-96207261D01*
X124550952Y-96302500D01*
X124122380Y-95826309D02*
X125122380Y-95492976D01*
X124122380Y-95159642D01*
%TO.C,GND1*%
X129170000Y-97540595D02*
X129122380Y-97635833D01*
X129122380Y-97778690D01*
X129170000Y-97921547D01*
X129265238Y-98016785D01*
X129360476Y-98064404D01*
X129550952Y-98112023D01*
X129693809Y-98112023D01*
X129884285Y-98064404D01*
X129979523Y-98016785D01*
X130074761Y-97921547D01*
X130122380Y-97778690D01*
X130122380Y-97683452D01*
X130074761Y-97540595D01*
X130027142Y-97492976D01*
X129693809Y-97492976D01*
X129693809Y-97683452D01*
X130122380Y-97064404D02*
X129122380Y-97064404D01*
X130122380Y-96492976D01*
X129122380Y-96492976D01*
X130122380Y-96016785D02*
X129122380Y-96016785D01*
X129122380Y-95778690D01*
X129170000Y-95635833D01*
X129265238Y-95540595D01*
X129360476Y-95492976D01*
X129550952Y-95445357D01*
X129693809Y-95445357D01*
X129884285Y-95492976D01*
X129979523Y-95540595D01*
X130074761Y-95635833D01*
X130122380Y-95778690D01*
X130122380Y-96016785D01*
%TO.C,SDA1*%
X112574761Y-98112023D02*
X112622380Y-97969166D01*
X112622380Y-97731071D01*
X112574761Y-97635833D01*
X112527142Y-97588214D01*
X112431904Y-97540595D01*
X112336666Y-97540595D01*
X112241428Y-97588214D01*
X112193809Y-97635833D01*
X112146190Y-97731071D01*
X112098571Y-97921547D01*
X112050952Y-98016785D01*
X112003333Y-98064404D01*
X111908095Y-98112023D01*
X111812857Y-98112023D01*
X111717619Y-98064404D01*
X111670000Y-98016785D01*
X111622380Y-97921547D01*
X111622380Y-97683452D01*
X111670000Y-97540595D01*
X112622380Y-97112023D02*
X111622380Y-97112023D01*
X111622380Y-96873928D01*
X111670000Y-96731071D01*
X111765238Y-96635833D01*
X111860476Y-96588214D01*
X112050952Y-96540595D01*
X112193809Y-96540595D01*
X112384285Y-96588214D01*
X112479523Y-96635833D01*
X112574761Y-96731071D01*
X112622380Y-96873928D01*
X112622380Y-97112023D01*
X112336666Y-96159642D02*
X112336666Y-95683452D01*
X112622380Y-96254880D02*
X111622380Y-95921547D01*
X112622380Y-95588214D01*
%TO.C,C1*%
X115027142Y-97492976D02*
X115074761Y-97540595D01*
X115122380Y-97683452D01*
X115122380Y-97778690D01*
X115074761Y-97921547D01*
X114979523Y-98016785D01*
X114884285Y-98064404D01*
X114693809Y-98112023D01*
X114550952Y-98112023D01*
X114360476Y-98064404D01*
X114265238Y-98016785D01*
X114170000Y-97921547D01*
X114122380Y-97778690D01*
X114122380Y-97683452D01*
X114170000Y-97540595D01*
X114217619Y-97492976D01*
%TO.C,SCL1*%
X110074761Y-98112023D02*
X110122380Y-97969166D01*
X110122380Y-97731071D01*
X110074761Y-97635833D01*
X110027142Y-97588214D01*
X109931904Y-97540595D01*
X109836666Y-97540595D01*
X109741428Y-97588214D01*
X109693809Y-97635833D01*
X109646190Y-97731071D01*
X109598571Y-97921547D01*
X109550952Y-98016785D01*
X109503333Y-98064404D01*
X109408095Y-98112023D01*
X109312857Y-98112023D01*
X109217619Y-98064404D01*
X109170000Y-98016785D01*
X109122380Y-97921547D01*
X109122380Y-97683452D01*
X109170000Y-97540595D01*
X110027142Y-96540595D02*
X110074761Y-96588214D01*
X110122380Y-96731071D01*
X110122380Y-96826309D01*
X110074761Y-96969166D01*
X109979523Y-97064404D01*
X109884285Y-97112023D01*
X109693809Y-97159642D01*
X109550952Y-97159642D01*
X109360476Y-97112023D01*
X109265238Y-97064404D01*
X109170000Y-96969166D01*
X109122380Y-96826309D01*
X109122380Y-96731071D01*
X109170000Y-96588214D01*
X109217619Y-96540595D01*
X110122380Y-95635833D02*
X110122380Y-96112023D01*
X109122380Y-96112023D01*
%TO.C,3.3V1*%
X126622380Y-98159642D02*
X126622380Y-97540595D01*
X127003333Y-97873928D01*
X127003333Y-97731071D01*
X127050952Y-97635833D01*
X127098571Y-97588214D01*
X127193809Y-97540595D01*
X127431904Y-97540595D01*
X127527142Y-97588214D01*
X127574761Y-97635833D01*
X127622380Y-97731071D01*
X127622380Y-98016785D01*
X127574761Y-98112023D01*
X127527142Y-98159642D01*
X127527142Y-97112023D02*
X127574761Y-97064404D01*
X127622380Y-97112023D01*
X127574761Y-97159642D01*
X127527142Y-97112023D01*
X127622380Y-97112023D01*
X126622380Y-96731071D02*
X126622380Y-96112023D01*
X127003333Y-96445357D01*
X127003333Y-96302500D01*
X127050952Y-96207261D01*
X127098571Y-96159642D01*
X127193809Y-96112023D01*
X127431904Y-96112023D01*
X127527142Y-96159642D01*
X127574761Y-96207261D01*
X127622380Y-96302500D01*
X127622380Y-96588214D01*
X127574761Y-96683452D01*
X127527142Y-96731071D01*
X126622380Y-95826309D02*
X127622380Y-95492976D01*
X126622380Y-95159642D01*
D12*
%TO.C,D1*%
X118120000Y-93400000D02*
G75*
G03*
X118120000Y-93400000I-950000J0D01*
G01*
%TO.C,MC1*%
X120620000Y-93400000D02*
G75*
G03*
X120620000Y-93400000I-950000J0D01*
G01*
%TO.C,WS1*%
X123120000Y-93400000D02*
G75*
G03*
X123120000Y-93400000I-950000J0D01*
G01*
%TO.C,1.8V1*%
X125620000Y-93400000D02*
G75*
G03*
X125620000Y-93400000I-950000J0D01*
G01*
%TO.C,GND1*%
X130620000Y-93400000D02*
G75*
G03*
X130620000Y-93400000I-950000J0D01*
G01*
%TO.C,SDA1*%
X113120000Y-93400000D02*
G75*
G03*
X113120000Y-93400000I-950000J0D01*
G01*
%TO.C,C1*%
X115620000Y-93400000D02*
G75*
G03*
X115620000Y-93400000I-950000J0D01*
G01*
%TO.C,U1*%
X148620000Y-79975000D02*
X148620000Y-100075000D01*
X148620000Y-100075000D02*
X168720000Y-100075000D01*
X168720000Y-100075000D02*
X168720000Y-79975000D01*
X168720000Y-79975000D02*
X148620000Y-79975000D01*
%TO.C,SCL1*%
X110620000Y-93400000D02*
G75*
G03*
X110620000Y-93400000I-950000J0D01*
G01*
%TO.C,3.3V1*%
X128120000Y-93400000D02*
G75*
G03*
X128120000Y-93400000I-950000J0D01*
G01*
%TD*%
M02*
