%TF.GenerationSoftware,KiCad,Pcbnew,(6.0.5)*%
%TF.CreationDate,2022-06-19T20:20:05-05:00*%
%TF.ProjectId,GBOYAudioBreakout,47424f59-4175-4646-996f-427265616b6f,rev?*%
%TF.SameCoordinates,Original*%
%TF.FileFunction,Legend,Bot*%
%TF.FilePolarity,Positive*%
%FSLAX46Y46*%
G04 Gerber Fmt 4.6, Leading zero omitted, Abs format (unit mm)*
G04 Created by KiCad (PCBNEW (6.0.5)) date 2022-06-19 20:20:05*
%MOMM*%
%LPD*%
G01*
G04 APERTURE LIST*
%ADD10C,0.100000*%
%ADD11C,0.150000*%
%ADD12C,0.120000*%
G04 APERTURE END LIST*
D10*
X146637142Y-179150000D02*
X146684761Y-179102380D01*
X146756190Y-179102380D01*
X146827619Y-179150000D01*
X146875238Y-179245238D01*
X146899047Y-179340476D01*
X146922857Y-179530952D01*
X146922857Y-179673809D01*
X146899047Y-179864285D01*
X146875238Y-179959523D01*
X146827619Y-180054761D01*
X146756190Y-180102380D01*
X146708571Y-180102380D01*
X146637142Y-180054761D01*
X146613333Y-180007142D01*
X146613333Y-179673809D01*
X146708571Y-179673809D01*
X146232380Y-179578571D02*
X146160952Y-179626190D01*
X146137142Y-179673809D01*
X146113333Y-179769047D01*
X146113333Y-179911904D01*
X146137142Y-180007142D01*
X146160952Y-180054761D01*
X146208571Y-180102380D01*
X146399047Y-180102380D01*
X146399047Y-179102380D01*
X146232380Y-179102380D01*
X146184761Y-179150000D01*
X146160952Y-179197619D01*
X146137142Y-179292857D01*
X146137142Y-179388095D01*
X146160952Y-179483333D01*
X146184761Y-179530952D01*
X146232380Y-179578571D01*
X146399047Y-179578571D01*
X145803809Y-179102380D02*
X145708571Y-179102380D01*
X145660952Y-179150000D01*
X145613333Y-179245238D01*
X145589523Y-179435714D01*
X145589523Y-179769047D01*
X145613333Y-179959523D01*
X145660952Y-180054761D01*
X145708571Y-180102380D01*
X145803809Y-180102380D01*
X145851428Y-180054761D01*
X145899047Y-179959523D01*
X145922857Y-179769047D01*
X145922857Y-179435714D01*
X145899047Y-179245238D01*
X145851428Y-179150000D01*
X145803809Y-179102380D01*
X145280000Y-179626190D02*
X145280000Y-180102380D01*
X145446666Y-179102380D02*
X145280000Y-179626190D01*
X145113333Y-179102380D01*
X144351428Y-180054761D02*
X144399047Y-180102380D01*
X144494285Y-180102380D01*
X144541904Y-180054761D01*
X144565714Y-180007142D01*
X144589523Y-179911904D01*
X144589523Y-179626190D01*
X144565714Y-179530952D01*
X144541904Y-179483333D01*
X144494285Y-179435714D01*
X144399047Y-179435714D01*
X144351428Y-179483333D01*
X144065714Y-180102380D02*
X144113333Y-180054761D01*
X144137142Y-179959523D01*
X144137142Y-179102380D01*
X143803809Y-180102380D02*
X143851428Y-180054761D01*
X143875238Y-180007142D01*
X143899047Y-179911904D01*
X143899047Y-179626190D01*
X143875238Y-179530952D01*
X143851428Y-179483333D01*
X143803809Y-179435714D01*
X143732380Y-179435714D01*
X143684761Y-179483333D01*
X143660952Y-179530952D01*
X143637142Y-179626190D01*
X143637142Y-179911904D01*
X143660952Y-180007142D01*
X143684761Y-180054761D01*
X143732380Y-180102380D01*
X143803809Y-180102380D01*
X143422857Y-179435714D02*
X143422857Y-180102380D01*
X143422857Y-179530952D02*
X143399047Y-179483333D01*
X143351428Y-179435714D01*
X143280000Y-179435714D01*
X143232380Y-179483333D01*
X143208571Y-179578571D01*
X143208571Y-180102380D01*
X142780000Y-180054761D02*
X142827619Y-180102380D01*
X142922857Y-180102380D01*
X142970476Y-180054761D01*
X142994285Y-179959523D01*
X142994285Y-179578571D01*
X142970476Y-179483333D01*
X142922857Y-179435714D01*
X142827619Y-179435714D01*
X142780000Y-179483333D01*
X142756190Y-179578571D01*
X142756190Y-179673809D01*
X142994285Y-179769047D01*
X142160952Y-179435714D02*
X142160952Y-180435714D01*
X142160952Y-179483333D02*
X142113333Y-179435714D01*
X142018095Y-179435714D01*
X141970476Y-179483333D01*
X141946666Y-179530952D01*
X141922857Y-179626190D01*
X141922857Y-179911904D01*
X141946666Y-180007142D01*
X141970476Y-180054761D01*
X142018095Y-180102380D01*
X142113333Y-180102380D01*
X142160952Y-180054761D01*
X141494285Y-180102380D02*
X141494285Y-179578571D01*
X141518095Y-179483333D01*
X141565714Y-179435714D01*
X141660952Y-179435714D01*
X141708571Y-179483333D01*
X141494285Y-180054761D02*
X141541904Y-180102380D01*
X141660952Y-180102380D01*
X141708571Y-180054761D01*
X141732380Y-179959523D01*
X141732380Y-179864285D01*
X141708571Y-179769047D01*
X141660952Y-179721428D01*
X141541904Y-179721428D01*
X141494285Y-179673809D01*
X141256190Y-180102380D02*
X141256190Y-179435714D01*
X141256190Y-179626190D02*
X141232380Y-179530952D01*
X141208571Y-179483333D01*
X141160952Y-179435714D01*
X141113333Y-179435714D01*
X141018095Y-179435714D02*
X140827619Y-179435714D01*
X140946666Y-179102380D02*
X140946666Y-179959523D01*
X140922857Y-180054761D01*
X140875238Y-180102380D01*
X140827619Y-180102380D01*
X140684761Y-180054761D02*
X140637142Y-180102380D01*
X140541904Y-180102380D01*
X140494285Y-180054761D01*
X140470476Y-179959523D01*
X140470476Y-179911904D01*
X140494285Y-179816666D01*
X140541904Y-179769047D01*
X140613333Y-179769047D01*
X140660952Y-179721428D01*
X140684761Y-179626190D01*
X140684761Y-179578571D01*
X140660952Y-179483333D01*
X140613333Y-179435714D01*
X140541904Y-179435714D01*
X140494285Y-179483333D01*
X139875238Y-179721428D02*
X139494285Y-179721428D01*
X138899047Y-179816666D02*
X138660952Y-179816666D01*
X138946666Y-180102380D02*
X138780000Y-179102380D01*
X138613333Y-180102380D01*
X138232380Y-179435714D02*
X138232380Y-180102380D01*
X138446666Y-179435714D02*
X138446666Y-179959523D01*
X138422857Y-180054761D01*
X138375238Y-180102380D01*
X138303809Y-180102380D01*
X138256190Y-180054761D01*
X138232380Y-180007142D01*
X137780000Y-180102380D02*
X137780000Y-179102380D01*
X137780000Y-180054761D02*
X137827619Y-180102380D01*
X137922857Y-180102380D01*
X137970476Y-180054761D01*
X137994285Y-180007142D01*
X138018095Y-179911904D01*
X138018095Y-179626190D01*
X137994285Y-179530952D01*
X137970476Y-179483333D01*
X137922857Y-179435714D01*
X137827619Y-179435714D01*
X137780000Y-179483333D01*
X137541904Y-180102380D02*
X137541904Y-179435714D01*
X137541904Y-179102380D02*
X137565714Y-179150000D01*
X137541904Y-179197619D01*
X137518095Y-179150000D01*
X137541904Y-179102380D01*
X137541904Y-179197619D01*
X137232380Y-180102380D02*
X137280000Y-180054761D01*
X137303809Y-180007142D01*
X137327619Y-179911904D01*
X137327619Y-179626190D01*
X137303809Y-179530952D01*
X137280000Y-179483333D01*
X137232380Y-179435714D01*
X137160952Y-179435714D01*
X137113333Y-179483333D01*
X137089523Y-179530952D01*
X137065714Y-179626190D01*
X137065714Y-179911904D01*
X137089523Y-180007142D01*
X137113333Y-180054761D01*
X137160952Y-180102380D01*
X137232380Y-180102380D01*
X136256190Y-180054761D02*
X136303809Y-180102380D01*
X136399047Y-180102380D01*
X136446666Y-180054761D01*
X136470476Y-180007142D01*
X136494285Y-179911904D01*
X136494285Y-179626190D01*
X136470476Y-179530952D01*
X136446666Y-179483333D01*
X136399047Y-179435714D01*
X136303809Y-179435714D01*
X136256190Y-179483333D01*
X135970476Y-180102380D02*
X136018095Y-180054761D01*
X136041904Y-180007142D01*
X136065714Y-179911904D01*
X136065714Y-179626190D01*
X136041904Y-179530952D01*
X136018095Y-179483333D01*
X135970476Y-179435714D01*
X135899047Y-179435714D01*
X135851428Y-179483333D01*
X135827619Y-179530952D01*
X135803809Y-179626190D01*
X135803809Y-179911904D01*
X135827619Y-180007142D01*
X135851428Y-180054761D01*
X135899047Y-180102380D01*
X135970476Y-180102380D01*
X135589523Y-179435714D02*
X135589523Y-180102380D01*
X135589523Y-179530952D02*
X135565714Y-179483333D01*
X135518095Y-179435714D01*
X135446666Y-179435714D01*
X135399047Y-179483333D01*
X135375238Y-179578571D01*
X135375238Y-180102380D01*
X135208571Y-179435714D02*
X135018095Y-179435714D01*
X135137142Y-179102380D02*
X135137142Y-179959523D01*
X135113333Y-180054761D01*
X135065714Y-180102380D01*
X135018095Y-180102380D01*
X134851428Y-180102380D02*
X134851428Y-179435714D01*
X134851428Y-179626190D02*
X134827619Y-179530952D01*
X134803809Y-179483333D01*
X134756190Y-179435714D01*
X134708571Y-179435714D01*
X134470476Y-180102380D02*
X134518095Y-180054761D01*
X134541904Y-180007142D01*
X134565714Y-179911904D01*
X134565714Y-179626190D01*
X134541904Y-179530952D01*
X134518095Y-179483333D01*
X134470476Y-179435714D01*
X134399047Y-179435714D01*
X134351428Y-179483333D01*
X134327619Y-179530952D01*
X134303809Y-179626190D01*
X134303809Y-179911904D01*
X134327619Y-180007142D01*
X134351428Y-180054761D01*
X134399047Y-180102380D01*
X134470476Y-180102380D01*
X134018095Y-180102380D02*
X134065714Y-180054761D01*
X134089523Y-179959523D01*
X134089523Y-179102380D01*
X133756190Y-180102380D02*
X133803809Y-180054761D01*
X133827619Y-179959523D01*
X133827619Y-179102380D01*
X133375238Y-180054761D02*
X133422857Y-180102380D01*
X133518095Y-180102380D01*
X133565714Y-180054761D01*
X133589523Y-179959523D01*
X133589523Y-179578571D01*
X133565714Y-179483333D01*
X133518095Y-179435714D01*
X133422857Y-179435714D01*
X133375238Y-179483333D01*
X133351428Y-179578571D01*
X133351428Y-179673809D01*
X133589523Y-179769047D01*
X133137142Y-180102380D02*
X133137142Y-179435714D01*
X133137142Y-179626190D02*
X133113333Y-179530952D01*
X133089523Y-179483333D01*
X133041904Y-179435714D01*
X132994285Y-179435714D01*
X132446666Y-179721428D02*
X132065714Y-179721428D01*
X131208571Y-180102380D02*
X131446666Y-180102380D01*
X131446666Y-179102380D01*
X131041904Y-180102380D02*
X131041904Y-179435714D01*
X131041904Y-179102380D02*
X131065714Y-179150000D01*
X131041904Y-179197619D01*
X131018095Y-179150000D01*
X131041904Y-179102380D01*
X131041904Y-179197619D01*
X130875238Y-179435714D02*
X130684761Y-179435714D01*
X130803809Y-179102380D02*
X130803809Y-179959523D01*
X130780000Y-180054761D01*
X130732380Y-180102380D01*
X130684761Y-180102380D01*
X130589523Y-179435714D02*
X130399047Y-179435714D01*
X130518095Y-179102380D02*
X130518095Y-179959523D01*
X130494285Y-180054761D01*
X130446666Y-180102380D01*
X130399047Y-180102380D01*
X130160952Y-180102380D02*
X130208571Y-180054761D01*
X130232380Y-179959523D01*
X130232380Y-179102380D01*
X129780000Y-180054761D02*
X129827619Y-180102380D01*
X129922857Y-180102380D01*
X129970476Y-180054761D01*
X129994285Y-179959523D01*
X129994285Y-179578571D01*
X129970476Y-179483333D01*
X129922857Y-179435714D01*
X129827619Y-179435714D01*
X129780000Y-179483333D01*
X129756190Y-179578571D01*
X129756190Y-179673809D01*
X129994285Y-179769047D01*
X129541904Y-180102380D02*
X129541904Y-179102380D01*
X129327619Y-180102380D02*
X129327619Y-179578571D01*
X129351428Y-179483333D01*
X129399047Y-179435714D01*
X129470476Y-179435714D01*
X129518095Y-179483333D01*
X129541904Y-179530952D01*
X128875238Y-180102380D02*
X128875238Y-179578571D01*
X128899047Y-179483333D01*
X128946666Y-179435714D01*
X129041904Y-179435714D01*
X129089523Y-179483333D01*
X128875238Y-180054761D02*
X128922857Y-180102380D01*
X129041904Y-180102380D01*
X129089523Y-180054761D01*
X129113333Y-179959523D01*
X129113333Y-179864285D01*
X129089523Y-179769047D01*
X129041904Y-179721428D01*
X128922857Y-179721428D01*
X128875238Y-179673809D01*
X128708571Y-179435714D02*
X128518095Y-179435714D01*
X128637142Y-179102380D02*
X128637142Y-179959523D01*
X128613333Y-180054761D01*
X128565714Y-180102380D01*
X128518095Y-180102380D01*
X128375238Y-179197619D02*
X128351428Y-179150000D01*
X128303809Y-179102380D01*
X128184761Y-179102380D01*
X128137142Y-179150000D01*
X128113333Y-179197619D01*
X128089523Y-179292857D01*
X128089523Y-179388095D01*
X128113333Y-179530952D01*
X128399047Y-180102380D01*
X128089523Y-180102380D01*
X127899047Y-179197619D02*
X127875238Y-179150000D01*
X127827619Y-179102380D01*
X127708571Y-179102380D01*
X127660952Y-179150000D01*
X127637142Y-179197619D01*
X127613333Y-179292857D01*
X127613333Y-179388095D01*
X127637142Y-179530952D01*
X127922857Y-180102380D01*
X127613333Y-180102380D01*
X127137142Y-180102380D02*
X127422857Y-180102380D01*
X127280000Y-180102380D02*
X127280000Y-179102380D01*
X127327619Y-179245238D01*
X127375238Y-179340476D01*
X127422857Y-179388095D01*
D11*
%TO.C,D1*%
X95552380Y-196485595D02*
X94552380Y-196485595D01*
X94552380Y-196723690D01*
X94600000Y-196866547D01*
X94695238Y-196961785D01*
X94790476Y-197009404D01*
X94980952Y-197057023D01*
X95123809Y-197057023D01*
X95314285Y-197009404D01*
X95409523Y-196961785D01*
X95504761Y-196866547D01*
X95552380Y-196723690D01*
X95552380Y-196485595D01*
%TO.C,MC1*%
X98052380Y-196485595D02*
X97052380Y-196485595D01*
X97766666Y-196818928D01*
X97052380Y-197152261D01*
X98052380Y-197152261D01*
X97957142Y-198199880D02*
X98004761Y-198152261D01*
X98052380Y-198009404D01*
X98052380Y-197914166D01*
X98004761Y-197771309D01*
X97909523Y-197676071D01*
X97814285Y-197628452D01*
X97623809Y-197580833D01*
X97480952Y-197580833D01*
X97290476Y-197628452D01*
X97195238Y-197676071D01*
X97100000Y-197771309D01*
X97052380Y-197914166D01*
X97052380Y-198009404D01*
X97100000Y-198152261D01*
X97147619Y-198199880D01*
%TO.C,WS1*%
X99552380Y-196390357D02*
X100552380Y-196628452D01*
X99838095Y-196818928D01*
X100552380Y-197009404D01*
X99552380Y-197247500D01*
X100504761Y-197580833D02*
X100552380Y-197723690D01*
X100552380Y-197961785D01*
X100504761Y-198057023D01*
X100457142Y-198104642D01*
X100361904Y-198152261D01*
X100266666Y-198152261D01*
X100171428Y-198104642D01*
X100123809Y-198057023D01*
X100076190Y-197961785D01*
X100028571Y-197771309D01*
X99980952Y-197676071D01*
X99933333Y-197628452D01*
X99838095Y-197580833D01*
X99742857Y-197580833D01*
X99647619Y-197628452D01*
X99600000Y-197676071D01*
X99552380Y-197771309D01*
X99552380Y-198009404D01*
X99600000Y-198152261D01*
%TO.C,1.8V1*%
X103052380Y-197009404D02*
X103052380Y-196437976D01*
X103052380Y-196723690D02*
X102052380Y-196723690D01*
X102195238Y-196628452D01*
X102290476Y-196533214D01*
X102338095Y-196437976D01*
X102957142Y-197437976D02*
X103004761Y-197485595D01*
X103052380Y-197437976D01*
X103004761Y-197390357D01*
X102957142Y-197437976D01*
X103052380Y-197437976D01*
X102480952Y-198057023D02*
X102433333Y-197961785D01*
X102385714Y-197914166D01*
X102290476Y-197866547D01*
X102242857Y-197866547D01*
X102147619Y-197914166D01*
X102100000Y-197961785D01*
X102052380Y-198057023D01*
X102052380Y-198247500D01*
X102100000Y-198342738D01*
X102147619Y-198390357D01*
X102242857Y-198437976D01*
X102290476Y-198437976D01*
X102385714Y-198390357D01*
X102433333Y-198342738D01*
X102480952Y-198247500D01*
X102480952Y-198057023D01*
X102528571Y-197961785D01*
X102576190Y-197914166D01*
X102671428Y-197866547D01*
X102861904Y-197866547D01*
X102957142Y-197914166D01*
X103004761Y-197961785D01*
X103052380Y-198057023D01*
X103052380Y-198247500D01*
X103004761Y-198342738D01*
X102957142Y-198390357D01*
X102861904Y-198437976D01*
X102671428Y-198437976D01*
X102576190Y-198390357D01*
X102528571Y-198342738D01*
X102480952Y-198247500D01*
X102052380Y-198723690D02*
X103052380Y-199057023D01*
X102052380Y-199390357D01*
%TO.C,GND1*%
X107100000Y-197009404D02*
X107052380Y-196914166D01*
X107052380Y-196771309D01*
X107100000Y-196628452D01*
X107195238Y-196533214D01*
X107290476Y-196485595D01*
X107480952Y-196437976D01*
X107623809Y-196437976D01*
X107814285Y-196485595D01*
X107909523Y-196533214D01*
X108004761Y-196628452D01*
X108052380Y-196771309D01*
X108052380Y-196866547D01*
X108004761Y-197009404D01*
X107957142Y-197057023D01*
X107623809Y-197057023D01*
X107623809Y-196866547D01*
X108052380Y-197485595D02*
X107052380Y-197485595D01*
X108052380Y-198057023D01*
X107052380Y-198057023D01*
X108052380Y-198533214D02*
X107052380Y-198533214D01*
X107052380Y-198771309D01*
X107100000Y-198914166D01*
X107195238Y-199009404D01*
X107290476Y-199057023D01*
X107480952Y-199104642D01*
X107623809Y-199104642D01*
X107814285Y-199057023D01*
X107909523Y-199009404D01*
X108004761Y-198914166D01*
X108052380Y-198771309D01*
X108052380Y-198533214D01*
%TO.C,SDA1*%
X90504761Y-196437976D02*
X90552380Y-196580833D01*
X90552380Y-196818928D01*
X90504761Y-196914166D01*
X90457142Y-196961785D01*
X90361904Y-197009404D01*
X90266666Y-197009404D01*
X90171428Y-196961785D01*
X90123809Y-196914166D01*
X90076190Y-196818928D01*
X90028571Y-196628452D01*
X89980952Y-196533214D01*
X89933333Y-196485595D01*
X89838095Y-196437976D01*
X89742857Y-196437976D01*
X89647619Y-196485595D01*
X89600000Y-196533214D01*
X89552380Y-196628452D01*
X89552380Y-196866547D01*
X89600000Y-197009404D01*
X90552380Y-197437976D02*
X89552380Y-197437976D01*
X89552380Y-197676071D01*
X89600000Y-197818928D01*
X89695238Y-197914166D01*
X89790476Y-197961785D01*
X89980952Y-198009404D01*
X90123809Y-198009404D01*
X90314285Y-197961785D01*
X90409523Y-197914166D01*
X90504761Y-197818928D01*
X90552380Y-197676071D01*
X90552380Y-197437976D01*
X90266666Y-198390357D02*
X90266666Y-198866547D01*
X90552380Y-198295119D02*
X89552380Y-198628452D01*
X90552380Y-198961785D01*
%TO.C,C1*%
X92957142Y-197057023D02*
X93004761Y-197009404D01*
X93052380Y-196866547D01*
X93052380Y-196771309D01*
X93004761Y-196628452D01*
X92909523Y-196533214D01*
X92814285Y-196485595D01*
X92623809Y-196437976D01*
X92480952Y-196437976D01*
X92290476Y-196485595D01*
X92195238Y-196533214D01*
X92100000Y-196628452D01*
X92052380Y-196771309D01*
X92052380Y-196866547D01*
X92100000Y-197009404D01*
X92147619Y-197057023D01*
%TO.C,SCL1*%
X88004761Y-196437976D02*
X88052380Y-196580833D01*
X88052380Y-196818928D01*
X88004761Y-196914166D01*
X87957142Y-196961785D01*
X87861904Y-197009404D01*
X87766666Y-197009404D01*
X87671428Y-196961785D01*
X87623809Y-196914166D01*
X87576190Y-196818928D01*
X87528571Y-196628452D01*
X87480952Y-196533214D01*
X87433333Y-196485595D01*
X87338095Y-196437976D01*
X87242857Y-196437976D01*
X87147619Y-196485595D01*
X87100000Y-196533214D01*
X87052380Y-196628452D01*
X87052380Y-196866547D01*
X87100000Y-197009404D01*
X87957142Y-198009404D02*
X88004761Y-197961785D01*
X88052380Y-197818928D01*
X88052380Y-197723690D01*
X88004761Y-197580833D01*
X87909523Y-197485595D01*
X87814285Y-197437976D01*
X87623809Y-197390357D01*
X87480952Y-197390357D01*
X87290476Y-197437976D01*
X87195238Y-197485595D01*
X87100000Y-197580833D01*
X87052380Y-197723690D01*
X87052380Y-197818928D01*
X87100000Y-197961785D01*
X87147619Y-198009404D01*
X88052380Y-198914166D02*
X88052380Y-198437976D01*
X87052380Y-198437976D01*
%TO.C,3.3V1*%
X104552380Y-196390357D02*
X104552380Y-197009404D01*
X104933333Y-196676071D01*
X104933333Y-196818928D01*
X104980952Y-196914166D01*
X105028571Y-196961785D01*
X105123809Y-197009404D01*
X105361904Y-197009404D01*
X105457142Y-196961785D01*
X105504761Y-196914166D01*
X105552380Y-196818928D01*
X105552380Y-196533214D01*
X105504761Y-196437976D01*
X105457142Y-196390357D01*
X105457142Y-197437976D02*
X105504761Y-197485595D01*
X105552380Y-197437976D01*
X105504761Y-197390357D01*
X105457142Y-197437976D01*
X105552380Y-197437976D01*
X104552380Y-197818928D02*
X104552380Y-198437976D01*
X104933333Y-198104642D01*
X104933333Y-198247500D01*
X104980952Y-198342738D01*
X105028571Y-198390357D01*
X105123809Y-198437976D01*
X105361904Y-198437976D01*
X105457142Y-198390357D01*
X105504761Y-198342738D01*
X105552380Y-198247500D01*
X105552380Y-197961785D01*
X105504761Y-197866547D01*
X105457142Y-197818928D01*
X104552380Y-198723690D02*
X105552380Y-199057023D01*
X104552380Y-199390357D01*
D12*
%TO.C,D1*%
X96050000Y-194400000D02*
G75*
G03*
X96050000Y-194400000I-950000J0D01*
G01*
%TO.C,MC1*%
X98550000Y-194400000D02*
G75*
G03*
X98550000Y-194400000I-950000J0D01*
G01*
%TO.C,WS1*%
X101050000Y-194400000D02*
G75*
G03*
X101050000Y-194400000I-950000J0D01*
G01*
%TO.C,1.8V1*%
X103550000Y-194400000D02*
G75*
G03*
X103550000Y-194400000I-950000J0D01*
G01*
%TO.C,GND1*%
X108550000Y-194400000D02*
G75*
G03*
X108550000Y-194400000I-950000J0D01*
G01*
%TO.C,SDA1*%
X91050000Y-194400000D02*
G75*
G03*
X91050000Y-194400000I-950000J0D01*
G01*
%TO.C,C1*%
X93550000Y-194400000D02*
G75*
G03*
X93550000Y-194400000I-950000J0D01*
G01*
%TO.C,U1*%
X145650000Y-183975000D02*
X145650000Y-204075000D01*
X145650000Y-204075000D02*
X125550000Y-204075000D01*
X125550000Y-204075000D02*
X125550000Y-183975000D01*
X125550000Y-183975000D02*
X145650000Y-183975000D01*
%TO.C,SCL1*%
X88550000Y-194400000D02*
G75*
G03*
X88550000Y-194400000I-950000J0D01*
G01*
%TO.C,3.3V1*%
X106050000Y-194400000D02*
G75*
G03*
X106050000Y-194400000I-950000J0D01*
G01*
%TD*%
M02*
