M48
; DRILL file {KiCad (6.0.6)} date Wed Aug  3 19:41:40 2022
; FORMAT={-:-/ absolute / inch / decimal}
; #@! TF.CreationDate,2022-08-03T19:41:40-05:00
; #@! TF.GenerationSoftware,Kicad,Pcbnew,(6.0.6)
; #@! TF.FileFunction,Plated,1,2,PTH
FMAT,2
INCH
; #@! TA.AperFunction,Plated,PTH,ViaDrill
T1C0.0157
%
G90
G05
T1
X5.0657Y-4.1496
X5.5382Y-4.0709
X5.5579Y-3.8543
X5.5972Y-3.4016
X5.5972Y-3.4803
X5.5972Y-3.8543
X5.6366Y-3.3622
X5.8138Y-3.2047
X5.9319Y-3.3425
X5.9319Y-3.4016
X5.9319Y-3.4803
X5.9319Y-3.9528
X5.9909Y-3.2835
X5.9909Y-3.6772
X6.0303Y-3.2244
X6.2075Y-3.3425
X6.3059Y-3.6772
X6.365Y-3.2638
X6.3846Y-3.0669
X6.5815Y-3.3425
X6.5815Y-3.5394
X6.7587Y-3.4016
X6.7587Y-3.4803
T0
M30
