%TF.GenerationSoftware,KiCad,Pcbnew,(6.0.6)*%
%TF.CreationDate,2022-08-03T19:41:37-05:00*%
%TF.ProjectId,GBOYAudioBreakout,47424f59-4175-4646-996f-427265616b6f,rev?*%
%TF.SameCoordinates,Original*%
%TF.FileFunction,Copper,L1,Top*%
%TF.FilePolarity,Positive*%
%FSLAX46Y46*%
G04 Gerber Fmt 4.6, Leading zero omitted, Abs format (unit mm)*
G04 Created by KiCad (PCBNEW (6.0.6)) date 2022-08-03 19:41:37*
%MOMM*%
%LPD*%
G01*
G04 APERTURE LIST*
G04 Aperture macros list*
%AMRoundRect*
0 Rectangle with rounded corners*
0 $1 Rounding radius*
0 $2 $3 $4 $5 $6 $7 $8 $9 X,Y pos of 4 corners*
0 Add a 4 corners polygon primitive as box body*
4,1,4,$2,$3,$4,$5,$6,$7,$8,$9,$2,$3,0*
0 Add four circle primitives for the rounded corners*
1,1,$1+$1,$2,$3*
1,1,$1+$1,$4,$5*
1,1,$1+$1,$6,$7*
1,1,$1+$1,$8,$9*
0 Add four rect primitives between the rounded corners*
20,1,$1+$1,$2,$3,$4,$5,0*
20,1,$1+$1,$4,$5,$6,$7,0*
20,1,$1+$1,$6,$7,$8,$9,0*
20,1,$1+$1,$8,$9,$2,$3,0*%
G04 Aperture macros list end*
%TA.AperFunction,SMDPad,CuDef*%
%ADD10C,1.500000*%
%TD*%
%TA.AperFunction,SMDPad,CuDef*%
%ADD11RoundRect,0.312500X-0.687500X-0.312500X0.687500X-0.312500X0.687500X0.312500X-0.687500X0.312500X0*%
%TD*%
%TA.AperFunction,SMDPad,CuDef*%
%ADD12RoundRect,0.312500X-0.312500X0.687500X-0.312500X-0.687500X0.312500X-0.687500X0.312500X0.687500X0*%
%TD*%
%TA.AperFunction,SMDPad,CuDef*%
%ADD13RoundRect,0.312500X0.687500X0.312500X-0.687500X0.312500X-0.687500X-0.312500X0.687500X-0.312500X0*%
%TD*%
%TA.AperFunction,ViaPad*%
%ADD14C,0.800000*%
%TD*%
%TA.AperFunction,Conductor*%
%ADD15C,0.250000*%
%TD*%
G04 APERTURE END LIST*
D10*
%TO.P,D1,1,1*%
%TO.N,Net-(D1-Pad1)*%
X117170000Y-93400000D03*
%TD*%
%TO.P,MC1,1,1*%
%TO.N,Net-(MC1-Pad1)*%
X119670000Y-93400000D03*
%TD*%
%TO.P,WS1,1,1*%
%TO.N,Net-(U1-Pad11)*%
X122170000Y-93400000D03*
%TD*%
%TO.P,1.8V1,1,1*%
%TO.N,Net-(1.8V1-Pad1)*%
X124670000Y-93400000D03*
%TD*%
%TO.P,GND1,1,1*%
%TO.N,GND*%
X129670000Y-93400000D03*
%TD*%
%TO.P,SDA1,1,1*%
%TO.N,Net-(SDA1-Pad1)*%
X112170000Y-93400000D03*
%TD*%
%TO.P,C1,1,1*%
%TO.N,Net-(C1-Pad1)*%
X114670000Y-93400000D03*
%TD*%
D11*
%TO.P,U1,1,SDA*%
%TO.N,Net-(SDA1-Pad1)*%
X148120000Y-95205000D03*
%TO.P,U1,2,SCL*%
%TO.N,Net-(SCL1-Pad1)*%
X148120000Y-93455000D03*
%TO.P,U1,3,VOL-*%
%TO.N,unconnected-(U1-Pad3)*%
X148120000Y-91705000D03*
%TO.P,U1,4,VOL+*%
%TO.N,unconnected-(U1-Pad4)*%
X148120000Y-89955000D03*
%TO.P,U1,5,3V3*%
%TO.N,Net-(3.3V1-Pad1)*%
X148120000Y-88205000D03*
%TO.P,U1,6,DP*%
%TO.N,Net-(1.8V1-Pad1)*%
X148120000Y-86455000D03*
%TO.P,U1,7,GND*%
%TO.N,GND*%
X148120000Y-84705000D03*
D12*
X163900000Y-79475000D03*
%TO.P,U1,8,MC*%
%TO.N,Net-(MC1-Pad1)*%
X151650000Y-79475000D03*
%TO.P,U1,9,C*%
%TO.N,Net-(C1-Pad1)*%
X153400000Y-79475000D03*
%TO.P,U1,10,D*%
%TO.N,Net-(D1-Pad1)*%
X155150000Y-79475000D03*
%TO.P,U1,11,WS*%
%TO.N,Net-(U1-Pad11)*%
X156900000Y-79475000D03*
%TO.P,U1,12,HL*%
%TO.N,Net-(J1-PadT)*%
X158650000Y-79475000D03*
%TO.P,U1,13,HR*%
%TO.N,Net-(U1-Pad13)*%
X160400000Y-79475000D03*
%TO.P,U1,14,HS*%
%TO.N,Net-(J1-PadTN)*%
X162150000Y-79475000D03*
D13*
%TO.P,U1,15,R+*%
%TO.N,Net-(LS1-Pad1)*%
X169220000Y-84705000D03*
%TO.P,U1,16,R-*%
%TO.N,Net-(LS1-Pad2)*%
X169220000Y-86455000D03*
%TO.P,U1,17,L-*%
%TO.N,Net-(LS2-Pad1)*%
X169220000Y-88205000D03*
%TO.P,U1,18,L+*%
%TO.N,Net-(LS2-Pad2)*%
X169220000Y-89955000D03*
%TO.P,U1,19,IL*%
%TO.N,unconnected-(U1-Pad19)*%
X169220000Y-91705000D03*
%TO.P,U1,20,IR*%
%TO.N,unconnected-(U1-Pad20)*%
X169220000Y-93455000D03*
%TD*%
D10*
%TO.P,SCL1,1,1*%
%TO.N,Net-(SCL1-Pad1)*%
X109670000Y-93400000D03*
%TD*%
%TO.P,3.3V1,1,1*%
%TO.N,Net-(3.3V1-Pad1)*%
X127170000Y-93400000D03*
%TD*%
D14*
%TO.N,Net-(1.8V1-Pad1)*%
X142170000Y-86400000D03*
X150670000Y-86400000D03*
%TO.N,Net-(3.3V1-Pad1)*%
X142170000Y-88400000D03*
X150670000Y-88400000D03*
%TO.N,Net-(C1-Pad1)*%
X153170000Y-81900000D03*
X142170000Y-97900000D03*
%TO.N,Net-(D1-Pad1)*%
X152170000Y-83400000D03*
X141170000Y-97900000D03*
%TO.N,GND*%
X143170000Y-85400000D03*
X140670000Y-103400000D03*
X147670000Y-81400000D03*
X161670000Y-82900000D03*
%TO.N,Net-(LS1-Pad1)*%
X157670000Y-84900000D03*
X150670000Y-84900000D03*
X167170000Y-84900000D03*
%TO.N,Net-(LS1-Pad2)*%
X171670000Y-86400000D03*
%TO.N,Net-(LS2-Pad1)*%
X171670000Y-88400000D03*
%TO.N,Net-(LS2-Pad2)*%
X167170000Y-89900000D03*
%TO.N,Net-(SCL1-Pad1)*%
X152170000Y-93400000D03*
X128670000Y-105400000D03*
%TO.N,Net-(U1-Pad13)*%
X160170000Y-93400000D03*
%TO.N,Net-(J1-PadTN)*%
X162170000Y-77900000D03*
%TO.N,Net-(J1-PadT)*%
X150670000Y-100400000D03*
%TD*%
D15*
%TO.N,Net-(1.8V1-Pad1)*%
X124670000Y-101400000D02*
X124933604Y-101663604D01*
X143720000Y-87900000D02*
X142220000Y-86400000D01*
X150615000Y-86455000D02*
X150670000Y-86400000D01*
X124933604Y-101663604D02*
X132633604Y-101663604D01*
X142933604Y-94500000D02*
X143720000Y-93713604D01*
X140170000Y-94500000D02*
X142933604Y-94500000D01*
X132633604Y-101663604D02*
X139797208Y-94500000D01*
X142220000Y-86400000D02*
X142170000Y-86400000D01*
X139797208Y-94500000D02*
X140170000Y-94500000D01*
X143720000Y-93713604D02*
X143720000Y-87900000D01*
X124670000Y-93400000D02*
X124670000Y-101400000D01*
X148120000Y-86455000D02*
X150615000Y-86455000D01*
%TO.N,Net-(3.3V1-Pad1)*%
X148120000Y-88205000D02*
X148315000Y-88400000D01*
X148315000Y-88400000D02*
X150670000Y-88400000D01*
X132447208Y-101213604D02*
X132465406Y-101195406D01*
X143270000Y-90900000D02*
X143270000Y-89500000D01*
X143270000Y-89500000D02*
X142170000Y-88400000D01*
X142670000Y-94050000D02*
X143270000Y-93450000D01*
X127170000Y-93400000D02*
X127170000Y-100713604D01*
X139610812Y-94050000D02*
X142670000Y-94050000D01*
X143270000Y-93450000D02*
X143270000Y-90900000D01*
X127170000Y-100713604D02*
X127670000Y-101213604D01*
X132465406Y-101195406D02*
X139610812Y-94050000D01*
X127670000Y-101213604D02*
X132447208Y-101213604D01*
%TO.N,Net-(C1-Pad1)*%
X153170000Y-81900000D02*
X153170000Y-79705000D01*
X137700887Y-103474999D02*
X142170000Y-99005886D01*
X142170000Y-99005886D02*
X142170000Y-97900000D01*
X122881395Y-103474999D02*
X137700887Y-103474999D01*
X122238198Y-102831802D02*
X122881395Y-103474999D01*
X114670000Y-95263604D02*
X122238198Y-102831802D01*
X153170000Y-79705000D02*
X153400000Y-79475000D01*
X114670000Y-93400000D02*
X114670000Y-95263604D01*
%TO.N,Net-(D1-Pad1)*%
X152170000Y-83400000D02*
X153670000Y-83400000D01*
X155150000Y-79475000D02*
X155150000Y-81880000D01*
X141154745Y-99384745D02*
X141170000Y-99369490D01*
X153670000Y-83400000D02*
X155170000Y-81900000D01*
X137525886Y-103013604D02*
X141154745Y-99384745D01*
X117170000Y-97127208D02*
X123056396Y-103013604D01*
X117170000Y-93400000D02*
X117170000Y-97127208D01*
X141170000Y-99369490D02*
X141170000Y-97900000D01*
X123056396Y-103013604D02*
X137525886Y-103013604D01*
X155150000Y-81880000D02*
X155170000Y-81900000D01*
%TO.N,GND*%
X163900000Y-79475000D02*
X163900000Y-79670000D01*
X163900000Y-79670000D02*
X161670000Y-81900000D01*
X161670000Y-81900000D02*
X161670000Y-82900000D01*
%TO.N,Net-(LS1-Pad1)*%
X169025000Y-84900000D02*
X169220000Y-84705000D01*
X167170000Y-84900000D02*
X169025000Y-84900000D01*
X150670000Y-84900000D02*
X157670000Y-84900000D01*
%TO.N,Net-(LS1-Pad2)*%
X171670000Y-86400000D02*
X169275000Y-86400000D01*
X169275000Y-86400000D02*
X169220000Y-86455000D01*
%TO.N,Net-(LS2-Pad1)*%
X171475000Y-88205000D02*
X171670000Y-88400000D01*
X169220000Y-88205000D02*
X171475000Y-88205000D01*
%TO.N,Net-(LS2-Pad2)*%
X167170000Y-89900000D02*
X169165000Y-89900000D01*
X169165000Y-89900000D02*
X169220000Y-89955000D01*
%TO.N,Net-(MC1-Pad1)*%
X148170000Y-79400000D02*
X151575000Y-79400000D01*
X123242792Y-102563604D02*
X133006396Y-102563604D01*
X151575000Y-79400000D02*
X151650000Y-79475000D01*
X119670000Y-98990812D02*
X123242792Y-102563604D01*
X145670000Y-94400000D02*
X145670000Y-81900000D01*
X140170000Y-95400000D02*
X144670000Y-95400000D01*
X119670000Y-93400000D02*
X119670000Y-98990812D01*
X133006396Y-102563604D02*
X140170000Y-95400000D01*
X145670000Y-81900000D02*
X148170000Y-79400000D01*
X144670000Y-95400000D02*
X145670000Y-94400000D01*
%TO.N,Net-(SCL1-Pad1)*%
X152115000Y-93455000D02*
X152170000Y-93400000D01*
X113101802Y-94968198D02*
X122533604Y-104400000D01*
X111238198Y-94968198D02*
X113101802Y-94968198D01*
X148120000Y-93455000D02*
X152115000Y-93455000D01*
X109670000Y-93400000D02*
X111238198Y-94968198D01*
X127670000Y-104400000D02*
X128670000Y-105400000D01*
X122533604Y-104400000D02*
X127670000Y-104400000D01*
%TO.N,Net-(SDA1-Pad1)*%
X122694999Y-103924999D02*
X137887283Y-103924999D01*
X112170000Y-93400000D02*
X122694999Y-103924999D01*
X146607282Y-95205000D02*
X148120000Y-95205000D01*
X137887283Y-103924999D02*
X146607282Y-95205000D01*
%TO.N,Net-(U1-Pad11)*%
X139983604Y-94950000D02*
X143120000Y-94950000D01*
X144170000Y-82763604D02*
X148783604Y-78150000D01*
X156900000Y-78630000D02*
X156900000Y-79475000D01*
X123429188Y-102113604D02*
X132820000Y-102113604D01*
X144170000Y-93900000D02*
X144170000Y-82763604D01*
X156420000Y-78150000D02*
X156900000Y-78630000D01*
X143120000Y-94950000D02*
X144170000Y-93900000D01*
X122170000Y-93400000D02*
X122170000Y-100854416D01*
X132820000Y-102113604D02*
X139983604Y-94950000D01*
X148783604Y-78150000D02*
X156420000Y-78150000D01*
X122170000Y-100854416D02*
X123429188Y-102113604D01*
%TO.N,Net-(U1-Pad13)*%
X160170000Y-79705000D02*
X160400000Y-79475000D01*
X160170000Y-93400000D02*
X160170000Y-79705000D01*
%TO.N,Net-(J1-PadTN)*%
X162170000Y-77900000D02*
X162170000Y-79455000D01*
X162170000Y-79455000D02*
X162150000Y-79475000D01*
%TO.N,Net-(J1-PadT)*%
X150670000Y-100400000D02*
X158650000Y-92420000D01*
X158650000Y-92420000D02*
X158650000Y-79475000D01*
%TD*%
%TA.AperFunction,Conductor*%
%TO.N,GND*%
G36*
X170666186Y-77928502D02*
G01*
X170712679Y-77982158D01*
X170722783Y-78052432D01*
X170693289Y-78117012D01*
X170679896Y-78130311D01*
X170532858Y-78255894D01*
X170529102Y-78259102D01*
X170364672Y-78451624D01*
X170232384Y-78667498D01*
X170230491Y-78672068D01*
X170230489Y-78672072D01*
X170219244Y-78699220D01*
X170135495Y-78901409D01*
X170076391Y-79147597D01*
X170056526Y-79400000D01*
X170076391Y-79652403D01*
X170135495Y-79898591D01*
X170137388Y-79903162D01*
X170137389Y-79903164D01*
X170206663Y-80070405D01*
X170232384Y-80132502D01*
X170364672Y-80348376D01*
X170529102Y-80540898D01*
X170721624Y-80705328D01*
X170937498Y-80837616D01*
X170942068Y-80839509D01*
X170942072Y-80839511D01*
X171166836Y-80932611D01*
X171171409Y-80934505D01*
X171256032Y-80954821D01*
X171412784Y-80992454D01*
X171412790Y-80992455D01*
X171417597Y-80993609D01*
X171517416Y-81001465D01*
X171604345Y-81008307D01*
X171604352Y-81008307D01*
X171606801Y-81008500D01*
X171733199Y-81008500D01*
X171735648Y-81008307D01*
X171735655Y-81008307D01*
X171822584Y-81001465D01*
X171922403Y-80993609D01*
X171927210Y-80992455D01*
X171927216Y-80992454D01*
X172083968Y-80954821D01*
X172168591Y-80934505D01*
X172173164Y-80932611D01*
X172397928Y-80839511D01*
X172397932Y-80839509D01*
X172402502Y-80837616D01*
X172618376Y-80705328D01*
X172810898Y-80540898D01*
X172897637Y-80439340D01*
X172939689Y-80390104D01*
X172999140Y-80351295D01*
X173070135Y-80350789D01*
X173130133Y-80388745D01*
X173160086Y-80453114D01*
X173161500Y-80471935D01*
X173161500Y-91391377D01*
X173161498Y-91392147D01*
X173161024Y-91469721D01*
X173163491Y-91478352D01*
X173169150Y-91498153D01*
X173172728Y-91514915D01*
X173176920Y-91544187D01*
X173180634Y-91552355D01*
X173180634Y-91552356D01*
X173187548Y-91567562D01*
X173193996Y-91585086D01*
X173201051Y-91609771D01*
X173205843Y-91617365D01*
X173205844Y-91617368D01*
X173216830Y-91634780D01*
X173224969Y-91649863D01*
X173237208Y-91676782D01*
X173243069Y-91683584D01*
X173253970Y-91696235D01*
X173265073Y-91711239D01*
X173278776Y-91732958D01*
X173285501Y-91738897D01*
X173285504Y-91738901D01*
X173300938Y-91752532D01*
X173312982Y-91764724D01*
X173326427Y-91780327D01*
X173326430Y-91780329D01*
X173332287Y-91787127D01*
X173339816Y-91792007D01*
X173339817Y-91792008D01*
X173353835Y-91801094D01*
X173368709Y-91812385D01*
X173381217Y-91823431D01*
X173387951Y-91829378D01*
X173414711Y-91841942D01*
X173429691Y-91850263D01*
X173446983Y-91861471D01*
X173446988Y-91861473D01*
X173454515Y-91866352D01*
X173463108Y-91868922D01*
X173463113Y-91868924D01*
X173479120Y-91873711D01*
X173496564Y-91880372D01*
X173511676Y-91887467D01*
X173511678Y-91887468D01*
X173519800Y-91891281D01*
X173528667Y-91892662D01*
X173528668Y-91892662D01*
X173531353Y-91893080D01*
X173549017Y-91895830D01*
X173565732Y-91899613D01*
X173585466Y-91905515D01*
X173585472Y-91905516D01*
X173594066Y-91908086D01*
X173603037Y-91908141D01*
X173603038Y-91908141D01*
X173613097Y-91908202D01*
X173628506Y-91908296D01*
X173629289Y-91908329D01*
X173630386Y-91908500D01*
X173661377Y-91908500D01*
X173662147Y-91908502D01*
X173735785Y-91908952D01*
X173735786Y-91908952D01*
X173739721Y-91908976D01*
X173741065Y-91908592D01*
X173742410Y-91908500D01*
X174196749Y-91908500D01*
X174264870Y-91928502D01*
X174311363Y-91982158D01*
X174321467Y-92052432D01*
X174304181Y-92100335D01*
X174234975Y-92213268D01*
X174234969Y-92213279D01*
X174232384Y-92217498D01*
X174230491Y-92222068D01*
X174230489Y-92222072D01*
X174154048Y-92406618D01*
X174135495Y-92451409D01*
X174128685Y-92479776D01*
X174084936Y-92662005D01*
X174076391Y-92697597D01*
X174056526Y-92950000D01*
X174076391Y-93202403D01*
X174077545Y-93207210D01*
X174077546Y-93207216D01*
X174081696Y-93224501D01*
X174135495Y-93448591D01*
X174137388Y-93453162D01*
X174137389Y-93453164D01*
X174208434Y-93624681D01*
X174232384Y-93682502D01*
X174364672Y-93898376D01*
X174529102Y-94090898D01*
X174721624Y-94255328D01*
X174937498Y-94387616D01*
X174942068Y-94389509D01*
X174942072Y-94389511D01*
X175150837Y-94475984D01*
X175171409Y-94484505D01*
X175220877Y-94496381D01*
X175412784Y-94542454D01*
X175412790Y-94542455D01*
X175417597Y-94543609D01*
X175517416Y-94551465D01*
X175604345Y-94558307D01*
X175604352Y-94558307D01*
X175606801Y-94558500D01*
X175733199Y-94558500D01*
X175735648Y-94558307D01*
X175735655Y-94558307D01*
X175822584Y-94551465D01*
X175922403Y-94543609D01*
X175927210Y-94542455D01*
X175927216Y-94542454D01*
X176119123Y-94496381D01*
X176168591Y-94484505D01*
X176189163Y-94475984D01*
X176397928Y-94389511D01*
X176397932Y-94389509D01*
X176402502Y-94387616D01*
X176618376Y-94255328D01*
X176810898Y-94090898D01*
X176939688Y-93940104D01*
X176999140Y-93901295D01*
X177070135Y-93900789D01*
X177130133Y-93938745D01*
X177160086Y-94003114D01*
X177161500Y-94021935D01*
X177161500Y-98033678D01*
X177141498Y-98101799D01*
X177098502Y-98142795D01*
X161743100Y-107008500D01*
X160242984Y-107874618D01*
X160179983Y-107891500D01*
X119160016Y-107891500D01*
X119097015Y-107874618D01*
X117596899Y-107008500D01*
X102241498Y-98142794D01*
X102192506Y-98091412D01*
X102178500Y-98033677D01*
X102178500Y-94021935D01*
X102198502Y-93953814D01*
X102252158Y-93907321D01*
X102322432Y-93897217D01*
X102387012Y-93926711D01*
X102400311Y-93940104D01*
X102529102Y-94090898D01*
X102721624Y-94255328D01*
X102937498Y-94387616D01*
X102942068Y-94389509D01*
X102942072Y-94389511D01*
X103150837Y-94475984D01*
X103171409Y-94484505D01*
X103220877Y-94496381D01*
X103412784Y-94542454D01*
X103412790Y-94542455D01*
X103417597Y-94543609D01*
X103517416Y-94551465D01*
X103604345Y-94558307D01*
X103604352Y-94558307D01*
X103606801Y-94558500D01*
X103733199Y-94558500D01*
X103735648Y-94558307D01*
X103735655Y-94558307D01*
X103822584Y-94551465D01*
X103922403Y-94543609D01*
X103927210Y-94542455D01*
X103927216Y-94542454D01*
X104119123Y-94496381D01*
X104168591Y-94484505D01*
X104189163Y-94475984D01*
X104397928Y-94389511D01*
X104397932Y-94389509D01*
X104402502Y-94387616D01*
X104618376Y-94255328D01*
X104810898Y-94090898D01*
X104975328Y-93898376D01*
X105107616Y-93682502D01*
X105131567Y-93624681D01*
X105202611Y-93453164D01*
X105202612Y-93453162D01*
X105204505Y-93448591D01*
X105258304Y-93224501D01*
X105262454Y-93207216D01*
X105262455Y-93207210D01*
X105263609Y-93202403D01*
X105283474Y-92950000D01*
X105263609Y-92697597D01*
X105255065Y-92662005D01*
X105211315Y-92479776D01*
X105204505Y-92451409D01*
X105185952Y-92406618D01*
X105109511Y-92222072D01*
X105109509Y-92222068D01*
X105107616Y-92217498D01*
X105105031Y-92213279D01*
X105105025Y-92213268D01*
X105035819Y-92100335D01*
X105017280Y-92031802D01*
X105038736Y-91964125D01*
X105093375Y-91918792D01*
X105143251Y-91908500D01*
X109416815Y-91908500D01*
X109484936Y-91928502D01*
X109531429Y-91982158D01*
X109541533Y-92052432D01*
X109512039Y-92117012D01*
X109449427Y-92156207D01*
X109237924Y-92212880D01*
X109218212Y-92222072D01*
X109043334Y-92303618D01*
X109043329Y-92303621D01*
X109038347Y-92305944D01*
X109033840Y-92309100D01*
X109033838Y-92309101D01*
X108862473Y-92429092D01*
X108862470Y-92429094D01*
X108857962Y-92432251D01*
X108702251Y-92587962D01*
X108699094Y-92592470D01*
X108699092Y-92592473D01*
X108617790Y-92708585D01*
X108575944Y-92768347D01*
X108573621Y-92773329D01*
X108573618Y-92773334D01*
X108560485Y-92801498D01*
X108482880Y-92967924D01*
X108425885Y-93180629D01*
X108406693Y-93400000D01*
X108425885Y-93619371D01*
X108482880Y-93832076D01*
X108509348Y-93888837D01*
X108573618Y-94026666D01*
X108573621Y-94026671D01*
X108575944Y-94031653D01*
X108579100Y-94036160D01*
X108579101Y-94036162D01*
X108694813Y-94201415D01*
X108702251Y-94212038D01*
X108857962Y-94367749D01*
X108862471Y-94370906D01*
X108862473Y-94370908D01*
X108916317Y-94408610D01*
X109038346Y-94494056D01*
X109237924Y-94587120D01*
X109450629Y-94644115D01*
X109670000Y-94663307D01*
X109889371Y-94644115D01*
X109904556Y-94640046D01*
X109920717Y-94635716D01*
X109991694Y-94637406D01*
X110042423Y-94668328D01*
X110734546Y-95360451D01*
X110742086Y-95368737D01*
X110746198Y-95375216D01*
X110751975Y-95380641D01*
X110795849Y-95421841D01*
X110798691Y-95424596D01*
X110818428Y-95444333D01*
X110821625Y-95446813D01*
X110830645Y-95454516D01*
X110862877Y-95484784D01*
X110869823Y-95488603D01*
X110869826Y-95488605D01*
X110880632Y-95494546D01*
X110897151Y-95505397D01*
X110913157Y-95517812D01*
X110920426Y-95520957D01*
X110920430Y-95520960D01*
X110953735Y-95535372D01*
X110964385Y-95540589D01*
X111003138Y-95561893D01*
X111010813Y-95563864D01*
X111010814Y-95563864D01*
X111022760Y-95566931D01*
X111041465Y-95573335D01*
X111060053Y-95581379D01*
X111067876Y-95582618D01*
X111067886Y-95582621D01*
X111103722Y-95588297D01*
X111115342Y-95590703D01*
X111150487Y-95599726D01*
X111158168Y-95601698D01*
X111178422Y-95601698D01*
X111198132Y-95603249D01*
X111218141Y-95606418D01*
X111226033Y-95605672D01*
X111262159Y-95602257D01*
X111274017Y-95601698D01*
X112787208Y-95601698D01*
X112855329Y-95621700D01*
X112876303Y-95638603D01*
X122029947Y-104792247D01*
X122037491Y-104800537D01*
X122041604Y-104807018D01*
X122047381Y-104812443D01*
X122091271Y-104853658D01*
X122094113Y-104856413D01*
X122113834Y-104876134D01*
X122117029Y-104878612D01*
X122126051Y-104886318D01*
X122158283Y-104916586D01*
X122165232Y-104920406D01*
X122176036Y-104926346D01*
X122192560Y-104937199D01*
X122208563Y-104949613D01*
X122249147Y-104967176D01*
X122259777Y-104972383D01*
X122298544Y-104993695D01*
X122306221Y-104995666D01*
X122306226Y-104995668D01*
X122318162Y-104998732D01*
X122336870Y-105005137D01*
X122355459Y-105013181D01*
X122363287Y-105014421D01*
X122363294Y-105014423D01*
X122399128Y-105020099D01*
X122410748Y-105022505D01*
X122433881Y-105028444D01*
X122453574Y-105033500D01*
X122473828Y-105033500D01*
X122493538Y-105035051D01*
X122513547Y-105038220D01*
X122521439Y-105037474D01*
X122547071Y-105035051D01*
X122557566Y-105034059D01*
X122569423Y-105033500D01*
X127355406Y-105033500D01*
X127423527Y-105053502D01*
X127444501Y-105070405D01*
X127722878Y-105348782D01*
X127756904Y-105411094D01*
X127759092Y-105424703D01*
X127776458Y-105589928D01*
X127835473Y-105771556D01*
X127930960Y-105936944D01*
X128058747Y-106078866D01*
X128078899Y-106093507D01*
X128203187Y-106183808D01*
X128213248Y-106191118D01*
X128219276Y-106193802D01*
X128219278Y-106193803D01*
X128364434Y-106258430D01*
X128387712Y-106268794D01*
X128481112Y-106288647D01*
X128568056Y-106307128D01*
X128568061Y-106307128D01*
X128574513Y-106308500D01*
X128765487Y-106308500D01*
X128771939Y-106307128D01*
X128771944Y-106307128D01*
X128858888Y-106288647D01*
X128952288Y-106268794D01*
X128975566Y-106258430D01*
X129120722Y-106193803D01*
X129120724Y-106193802D01*
X129126752Y-106191118D01*
X129136814Y-106183808D01*
X129261101Y-106093507D01*
X129281253Y-106078866D01*
X129409040Y-105936944D01*
X129504527Y-105771556D01*
X129563542Y-105589928D01*
X129583504Y-105400000D01*
X129572131Y-105291791D01*
X129564232Y-105216635D01*
X129564232Y-105216633D01*
X129563542Y-105210072D01*
X129504527Y-105028444D01*
X129493898Y-105010033D01*
X129456208Y-104944753D01*
X129409040Y-104863056D01*
X129403059Y-104856413D01*
X129324180Y-104768809D01*
X129293462Y-104704802D01*
X129302227Y-104634348D01*
X129347690Y-104579817D01*
X129417816Y-104558499D01*
X131098960Y-104558499D01*
X131167081Y-104578501D01*
X131213574Y-104632157D01*
X131223678Y-104702431D01*
X131215369Y-104732717D01*
X131164133Y-104856413D01*
X131145495Y-104901409D01*
X131136903Y-104937199D01*
X131104690Y-105071377D01*
X131086391Y-105147597D01*
X131066526Y-105400000D01*
X131086391Y-105652403D01*
X131087545Y-105657210D01*
X131087546Y-105657216D01*
X131113488Y-105765271D01*
X131145495Y-105898591D01*
X131147388Y-105903162D01*
X131147389Y-105903164D01*
X131226232Y-106093507D01*
X131242384Y-106132502D01*
X131374672Y-106348376D01*
X131539102Y-106540898D01*
X131731624Y-106705328D01*
X131947498Y-106837616D01*
X131952068Y-106839509D01*
X131952072Y-106839511D01*
X132176836Y-106932611D01*
X132181409Y-106934505D01*
X132266032Y-106954821D01*
X132422784Y-106992454D01*
X132422790Y-106992455D01*
X132427597Y-106993609D01*
X132527416Y-107001465D01*
X132614345Y-107008307D01*
X132614352Y-107008307D01*
X132616801Y-107008500D01*
X132743199Y-107008500D01*
X132745648Y-107008307D01*
X132745655Y-107008307D01*
X132832584Y-107001465D01*
X132932403Y-106993609D01*
X132937210Y-106992455D01*
X132937216Y-106992454D01*
X133093968Y-106954821D01*
X133178591Y-106934505D01*
X133183164Y-106932611D01*
X133407928Y-106839511D01*
X133407932Y-106839509D01*
X133412502Y-106837616D01*
X133628376Y-106705328D01*
X133820898Y-106540898D01*
X133985328Y-106348376D01*
X134117616Y-106132502D01*
X134133769Y-106093507D01*
X134212611Y-105903164D01*
X134212612Y-105903162D01*
X134214505Y-105898591D01*
X134246512Y-105765271D01*
X134272454Y-105657216D01*
X134272455Y-105657210D01*
X134273609Y-105652403D01*
X134293474Y-105400000D01*
X134273609Y-105147597D01*
X134255311Y-105071377D01*
X134223097Y-104937199D01*
X134214505Y-104901409D01*
X134195867Y-104856413D01*
X134144631Y-104732717D01*
X134137042Y-104662127D01*
X134168822Y-104598640D01*
X134229880Y-104562413D01*
X134261040Y-104558499D01*
X137808516Y-104558499D01*
X137819699Y-104559026D01*
X137827192Y-104560701D01*
X137835118Y-104560452D01*
X137835119Y-104560452D01*
X137895269Y-104558561D01*
X137899228Y-104558499D01*
X137927139Y-104558499D01*
X137931074Y-104558002D01*
X137931139Y-104557994D01*
X137942976Y-104557061D01*
X137975234Y-104556047D01*
X137979253Y-104555921D01*
X137987172Y-104555672D01*
X138006626Y-104550020D01*
X138025983Y-104546012D01*
X138038213Y-104544467D01*
X138038214Y-104544467D01*
X138046080Y-104543473D01*
X138053451Y-104540554D01*
X138053453Y-104540554D01*
X138087195Y-104527195D01*
X138098425Y-104523350D01*
X138133266Y-104513228D01*
X138133267Y-104513228D01*
X138140876Y-104511017D01*
X138147697Y-104506983D01*
X138154976Y-104503833D01*
X138155717Y-104505546D01*
X138214748Y-104490572D01*
X138282078Y-104513093D01*
X138326544Y-104568440D01*
X138334972Y-104633039D01*
X138331117Y-104662127D01*
X138322304Y-104728623D01*
X138308102Y-104835774D01*
X138308302Y-104841103D01*
X138308302Y-104841105D01*
X138310394Y-104896836D01*
X138316751Y-105066158D01*
X138364093Y-105291791D01*
X138366051Y-105296750D01*
X138366052Y-105296752D01*
X138400538Y-105384074D01*
X138448776Y-105506221D01*
X138568377Y-105703317D01*
X138571874Y-105707347D01*
X138658438Y-105807103D01*
X138719477Y-105877445D01*
X138723608Y-105880832D01*
X138893627Y-106020240D01*
X138893633Y-106020244D01*
X138897755Y-106023624D01*
X138902391Y-106026263D01*
X138902394Y-106026265D01*
X138986174Y-106073955D01*
X139098114Y-106137675D01*
X139314825Y-106216337D01*
X139320074Y-106217286D01*
X139320077Y-106217287D01*
X139537608Y-106256623D01*
X139537615Y-106256624D01*
X139541692Y-106257361D01*
X139559414Y-106258197D01*
X139564356Y-106258430D01*
X139564363Y-106258430D01*
X139565844Y-106258500D01*
X139727890Y-106258500D01*
X139794809Y-106252822D01*
X139894409Y-106244371D01*
X139894413Y-106244370D01*
X139899720Y-106243920D01*
X139904875Y-106242582D01*
X139904881Y-106242581D01*
X140117703Y-106187343D01*
X140117707Y-106187342D01*
X140122872Y-106186001D01*
X140127738Y-106183809D01*
X140127741Y-106183808D01*
X140328202Y-106093507D01*
X140333075Y-106091312D01*
X140524319Y-105962559D01*
X140546026Y-105941852D01*
X140687278Y-105807103D01*
X140691135Y-105803424D01*
X140710588Y-105777279D01*
X140825568Y-105622740D01*
X140828754Y-105618458D01*
X140840068Y-105596206D01*
X140930822Y-105417704D01*
X140933240Y-105412949D01*
X140935223Y-105406565D01*
X140937261Y-105400000D01*
X145066526Y-105400000D01*
X145086391Y-105652403D01*
X145087545Y-105657210D01*
X145087546Y-105657216D01*
X145113488Y-105765271D01*
X145145495Y-105898591D01*
X145147388Y-105903162D01*
X145147389Y-105903164D01*
X145226232Y-106093507D01*
X145242384Y-106132502D01*
X145374672Y-106348376D01*
X145539102Y-106540898D01*
X145731624Y-106705328D01*
X145947498Y-106837616D01*
X145952068Y-106839509D01*
X145952072Y-106839511D01*
X146176836Y-106932611D01*
X146181409Y-106934505D01*
X146266032Y-106954821D01*
X146422784Y-106992454D01*
X146422790Y-106992455D01*
X146427597Y-106993609D01*
X146527416Y-107001465D01*
X146614345Y-107008307D01*
X146614352Y-107008307D01*
X146616801Y-107008500D01*
X146743199Y-107008500D01*
X146745648Y-107008307D01*
X146745655Y-107008307D01*
X146832584Y-107001465D01*
X146932403Y-106993609D01*
X146937210Y-106992455D01*
X146937216Y-106992454D01*
X147093968Y-106954821D01*
X147178591Y-106934505D01*
X147183164Y-106932611D01*
X147407928Y-106839511D01*
X147407932Y-106839509D01*
X147412502Y-106837616D01*
X147628376Y-106705328D01*
X147820898Y-106540898D01*
X147985328Y-106348376D01*
X148117616Y-106132502D01*
X148133769Y-106093507D01*
X148212611Y-105903164D01*
X148212612Y-105903162D01*
X148214505Y-105898591D01*
X148246512Y-105765271D01*
X148272454Y-105657216D01*
X148272455Y-105657210D01*
X148273609Y-105652403D01*
X148293474Y-105400000D01*
X148273609Y-105147597D01*
X148255311Y-105071377D01*
X148223097Y-104937199D01*
X148214505Y-104901409D01*
X148195867Y-104856413D01*
X148119511Y-104672072D01*
X148119509Y-104672068D01*
X148117616Y-104667498D01*
X147985328Y-104451624D01*
X147820898Y-104259102D01*
X147628376Y-104094672D01*
X147412502Y-103962384D01*
X147407932Y-103960491D01*
X147407928Y-103960489D01*
X147183164Y-103867389D01*
X147183162Y-103867388D01*
X147178591Y-103865495D01*
X147093968Y-103845179D01*
X146937216Y-103807546D01*
X146937210Y-103807545D01*
X146932403Y-103806391D01*
X146832584Y-103798535D01*
X146745655Y-103791693D01*
X146745648Y-103791693D01*
X146743199Y-103791500D01*
X146616801Y-103791500D01*
X146614352Y-103791693D01*
X146614345Y-103791693D01*
X146527416Y-103798535D01*
X146427597Y-103806391D01*
X146422790Y-103807545D01*
X146422784Y-103807546D01*
X146266032Y-103845179D01*
X146181409Y-103865495D01*
X146176838Y-103867388D01*
X146176836Y-103867389D01*
X145952072Y-103960489D01*
X145952068Y-103960491D01*
X145947498Y-103962384D01*
X145731624Y-104094672D01*
X145539102Y-104259102D01*
X145374672Y-104451624D01*
X145242384Y-104667498D01*
X145240491Y-104672068D01*
X145240489Y-104672072D01*
X145164133Y-104856413D01*
X145145495Y-104901409D01*
X145136903Y-104937199D01*
X145104690Y-105071377D01*
X145086391Y-105147597D01*
X145066526Y-105400000D01*
X140937261Y-105400000D01*
X141000024Y-105197871D01*
X141001607Y-105192773D01*
X141007595Y-105147597D01*
X141031198Y-104969511D01*
X141031198Y-104969506D01*
X141031898Y-104964226D01*
X141031350Y-104949613D01*
X141023449Y-104739173D01*
X141023249Y-104733842D01*
X140975907Y-104508209D01*
X140973948Y-104503248D01*
X140893185Y-104298744D01*
X140893184Y-104298742D01*
X140891224Y-104293779D01*
X140870182Y-104259102D01*
X140774390Y-104101243D01*
X140771623Y-104096683D01*
X140655085Y-103962384D01*
X140624023Y-103926588D01*
X140624021Y-103926586D01*
X140620523Y-103922555D01*
X140553243Y-103867389D01*
X140446373Y-103779760D01*
X140446367Y-103779756D01*
X140442245Y-103776376D01*
X140437609Y-103773737D01*
X140437606Y-103773735D01*
X140246529Y-103664968D01*
X140241886Y-103662325D01*
X140025175Y-103583663D01*
X140019926Y-103582714D01*
X140019923Y-103582713D01*
X139802392Y-103543377D01*
X139802385Y-103543376D01*
X139798308Y-103542639D01*
X139780586Y-103541803D01*
X139775644Y-103541570D01*
X139775637Y-103541570D01*
X139774156Y-103541500D01*
X139612110Y-103541500D01*
X139510124Y-103550154D01*
X139468929Y-103553649D01*
X139399361Y-103539478D01*
X139348498Y-103489945D01*
X139332489Y-103420777D01*
X139356416Y-103353934D01*
X139369181Y-103339005D01*
X142926252Y-99781935D01*
X146641300Y-96066887D01*
X146703612Y-96032861D01*
X146774427Y-96037926D01*
X146828865Y-96077373D01*
X146848292Y-96101708D01*
X146992240Y-96216621D01*
X147158070Y-96296786D01*
X147164931Y-96298370D01*
X147332341Y-96337020D01*
X147332344Y-96337020D01*
X147337540Y-96338220D01*
X147342396Y-96338500D01*
X148897604Y-96338500D01*
X148902460Y-96338220D01*
X148907656Y-96337020D01*
X148907659Y-96337020D01*
X149075069Y-96298370D01*
X149081930Y-96296786D01*
X149247760Y-96216621D01*
X149391708Y-96101708D01*
X149506621Y-95957760D01*
X149586786Y-95791930D01*
X149588370Y-95785069D01*
X149627020Y-95617659D01*
X149627020Y-95617656D01*
X149628220Y-95612460D01*
X149628500Y-95607604D01*
X149628500Y-94802396D01*
X149628220Y-94797540D01*
X149599913Y-94674927D01*
X149588370Y-94624931D01*
X149586786Y-94618070D01*
X149529852Y-94500296D01*
X149509688Y-94458584D01*
X149509687Y-94458583D01*
X149506621Y-94452240D01*
X149471789Y-94408607D01*
X149444922Y-94342894D01*
X149457849Y-94273084D01*
X149471785Y-94251398D01*
X149506621Y-94207760D01*
X149529873Y-94159661D01*
X149577529Y-94107036D01*
X149643313Y-94088500D01*
X151531067Y-94088500D01*
X151599188Y-94108502D01*
X151605128Y-94112564D01*
X151639582Y-94137596D01*
X151713248Y-94191118D01*
X151719276Y-94193802D01*
X151719278Y-94193803D01*
X151863266Y-94257910D01*
X151887712Y-94268794D01*
X151981113Y-94288647D01*
X152068056Y-94307128D01*
X152068061Y-94307128D01*
X152074513Y-94308500D01*
X152265487Y-94308500D01*
X152271939Y-94307128D01*
X152271944Y-94307128D01*
X152358888Y-94288647D01*
X152452288Y-94268794D01*
X152476734Y-94257910D01*
X152620722Y-94193803D01*
X152620724Y-94193802D01*
X152626752Y-94191118D01*
X152781253Y-94078866D01*
X152909040Y-93936944D01*
X153004527Y-93771556D01*
X153063542Y-93589928D01*
X153070582Y-93522952D01*
X153082814Y-93406565D01*
X153083504Y-93400000D01*
X153063542Y-93210072D01*
X153004527Y-93028444D01*
X152909040Y-92863056D01*
X152880975Y-92831886D01*
X152785675Y-92726045D01*
X152785674Y-92726044D01*
X152781253Y-92721134D01*
X152626752Y-92608882D01*
X152620724Y-92606198D01*
X152620722Y-92606197D01*
X152458319Y-92533891D01*
X152458318Y-92533891D01*
X152452288Y-92531206D01*
X152358888Y-92511353D01*
X152271944Y-92492872D01*
X152271939Y-92492872D01*
X152265487Y-92491500D01*
X152074513Y-92491500D01*
X152068061Y-92492872D01*
X152068056Y-92492872D01*
X151981112Y-92511353D01*
X151887712Y-92531206D01*
X151881682Y-92533891D01*
X151881681Y-92533891D01*
X151719278Y-92606197D01*
X151719276Y-92606198D01*
X151713248Y-92608882D01*
X151558747Y-92721134D01*
X151554326Y-92726044D01*
X151554325Y-92726045D01*
X151505915Y-92779810D01*
X151445469Y-92817050D01*
X151412279Y-92821500D01*
X149643313Y-92821500D01*
X149575192Y-92801498D01*
X149529873Y-92750339D01*
X149514133Y-92717779D01*
X149506621Y-92702240D01*
X149471789Y-92658607D01*
X149444922Y-92592894D01*
X149457849Y-92523084D01*
X149471785Y-92501398D01*
X149506621Y-92457760D01*
X149518953Y-92432251D01*
X149583720Y-92298272D01*
X149586786Y-92291930D01*
X149603970Y-92217498D01*
X149627020Y-92117659D01*
X149627020Y-92117656D01*
X149628220Y-92112460D01*
X149628500Y-92107604D01*
X149628500Y-91302396D01*
X149628220Y-91297540D01*
X149617199Y-91249800D01*
X149588370Y-91124931D01*
X149586786Y-91118070D01*
X149535932Y-91012873D01*
X149509688Y-90958584D01*
X149509687Y-90958583D01*
X149506621Y-90952240D01*
X149471789Y-90908607D01*
X149444922Y-90842894D01*
X149457849Y-90773084D01*
X149471785Y-90751398D01*
X149506621Y-90707760D01*
X149527657Y-90664246D01*
X149567053Y-90582749D01*
X149586786Y-90541930D01*
X149628220Y-90362460D01*
X149628500Y-90357604D01*
X149628500Y-89552396D01*
X149628220Y-89547540D01*
X149625263Y-89534729D01*
X149588370Y-89374931D01*
X149586786Y-89368070D01*
X149537496Y-89266109D01*
X149512470Y-89214339D01*
X149500830Y-89144303D01*
X149528902Y-89079092D01*
X149587774Y-89039410D01*
X149625910Y-89033500D01*
X149961800Y-89033500D01*
X150029921Y-89053502D01*
X150049147Y-89069843D01*
X150049420Y-89069540D01*
X150054332Y-89073963D01*
X150058747Y-89078866D01*
X150213248Y-89191118D01*
X150219276Y-89193802D01*
X150219278Y-89193803D01*
X150381681Y-89266109D01*
X150387712Y-89268794D01*
X150481113Y-89288647D01*
X150568056Y-89307128D01*
X150568061Y-89307128D01*
X150574513Y-89308500D01*
X150765487Y-89308500D01*
X150771939Y-89307128D01*
X150771944Y-89307128D01*
X150858888Y-89288647D01*
X150952288Y-89268794D01*
X150958319Y-89266109D01*
X151120722Y-89193803D01*
X151120724Y-89193802D01*
X151126752Y-89191118D01*
X151281253Y-89078866D01*
X151390297Y-88957760D01*
X151404621Y-88941852D01*
X151404622Y-88941851D01*
X151409040Y-88936944D01*
X151467314Y-88836010D01*
X151501223Y-88777279D01*
X151501224Y-88777278D01*
X151504527Y-88771556D01*
X151563542Y-88589928D01*
X151583504Y-88400000D01*
X151563542Y-88210072D01*
X151504527Y-88028444D01*
X151409040Y-87863056D01*
X151281253Y-87721134D01*
X151182157Y-87649136D01*
X151132094Y-87612763D01*
X151132093Y-87612762D01*
X151126752Y-87608882D01*
X151120724Y-87606198D01*
X151120722Y-87606197D01*
X150958319Y-87533891D01*
X150958318Y-87533891D01*
X150952288Y-87531206D01*
X150914844Y-87523247D01*
X150852371Y-87489518D01*
X150818049Y-87427369D01*
X150822777Y-87356530D01*
X150865053Y-87299492D01*
X150914844Y-87276753D01*
X150952288Y-87268794D01*
X150958319Y-87266109D01*
X151120722Y-87193803D01*
X151120724Y-87193802D01*
X151126752Y-87191118D01*
X151281253Y-87078866D01*
X151409040Y-86936944D01*
X151504527Y-86771556D01*
X151563542Y-86589928D01*
X151571270Y-86516405D01*
X151582814Y-86406565D01*
X151583504Y-86400000D01*
X151563542Y-86210072D01*
X151504527Y-86028444D01*
X151409040Y-85863056D01*
X151359918Y-85808500D01*
X151301671Y-85743810D01*
X151270953Y-85679803D01*
X151279718Y-85609349D01*
X151325181Y-85554818D01*
X151395307Y-85533500D01*
X156961800Y-85533500D01*
X157029921Y-85553502D01*
X157049147Y-85569843D01*
X157049420Y-85569540D01*
X157054332Y-85573963D01*
X157058747Y-85578866D01*
X157078055Y-85592894D01*
X157128710Y-85629697D01*
X157213248Y-85691118D01*
X157219276Y-85693802D01*
X157219278Y-85693803D01*
X157337634Y-85746498D01*
X157387712Y-85768794D01*
X157475698Y-85787496D01*
X157568056Y-85807128D01*
X157568061Y-85807128D01*
X157574513Y-85808500D01*
X157765487Y-85808500D01*
X157771939Y-85807128D01*
X157771944Y-85807128D01*
X157864303Y-85787496D01*
X157935094Y-85792898D01*
X157991726Y-85835715D01*
X158016220Y-85902353D01*
X158016500Y-85910743D01*
X158016500Y-92105405D01*
X157996498Y-92173526D01*
X157979595Y-92194500D01*
X152399396Y-97774699D01*
X152337084Y-97808725D01*
X152266269Y-97803660D01*
X152209433Y-97761113D01*
X152187782Y-97715018D01*
X152173080Y-97653782D01*
X152154505Y-97576409D01*
X152137241Y-97534729D01*
X152059511Y-97347072D01*
X152059509Y-97347068D01*
X152057616Y-97342498D01*
X151925328Y-97126624D01*
X151760898Y-96934102D01*
X151568376Y-96769672D01*
X151352502Y-96637384D01*
X151347932Y-96635491D01*
X151347928Y-96635489D01*
X151123164Y-96542389D01*
X151123162Y-96542388D01*
X151118591Y-96540495D01*
X150969914Y-96504801D01*
X150877216Y-96482546D01*
X150877210Y-96482545D01*
X150872403Y-96481391D01*
X150772584Y-96473535D01*
X150685655Y-96466693D01*
X150685648Y-96466693D01*
X150683199Y-96466500D01*
X150556801Y-96466500D01*
X150554352Y-96466693D01*
X150554345Y-96466693D01*
X150467416Y-96473535D01*
X150367597Y-96481391D01*
X150362790Y-96482545D01*
X150362784Y-96482546D01*
X150270086Y-96504801D01*
X150121409Y-96540495D01*
X150116838Y-96542388D01*
X150116836Y-96542389D01*
X149892072Y-96635489D01*
X149892068Y-96635491D01*
X149887498Y-96637384D01*
X149671624Y-96769672D01*
X149479102Y-96934102D01*
X149314672Y-97126624D01*
X149182384Y-97342498D01*
X149180491Y-97347068D01*
X149180489Y-97347072D01*
X149102759Y-97534729D01*
X149085495Y-97576409D01*
X149065703Y-97658849D01*
X149053406Y-97710072D01*
X149026391Y-97822597D01*
X149006526Y-98075000D01*
X149026391Y-98327403D01*
X149027545Y-98332210D01*
X149027546Y-98332216D01*
X149065179Y-98488968D01*
X149085495Y-98573591D01*
X149087388Y-98578162D01*
X149087389Y-98578164D01*
X149165613Y-98767012D01*
X149182384Y-98807502D01*
X149314672Y-99023376D01*
X149479102Y-99215898D01*
X149671624Y-99380328D01*
X149887498Y-99512616D01*
X149892068Y-99514509D01*
X149892072Y-99514511D01*
X149984262Y-99552697D01*
X150039543Y-99597245D01*
X150061964Y-99664609D01*
X150044406Y-99733400D01*
X150029680Y-99753416D01*
X149935379Y-99858148D01*
X149930960Y-99863056D01*
X149835473Y-100028444D01*
X149776458Y-100210072D01*
X149756496Y-100400000D01*
X149757186Y-100406565D01*
X149771547Y-100543199D01*
X149776458Y-100589928D01*
X149835473Y-100771556D01*
X149930960Y-100936944D01*
X149935378Y-100941851D01*
X149935379Y-100941852D01*
X150054325Y-101073955D01*
X150058747Y-101078866D01*
X150213248Y-101191118D01*
X150219276Y-101193802D01*
X150219278Y-101193803D01*
X150381681Y-101266109D01*
X150387712Y-101268794D01*
X150481113Y-101288647D01*
X150568056Y-101307128D01*
X150568061Y-101307128D01*
X150574513Y-101308500D01*
X150765487Y-101308500D01*
X150771939Y-101307128D01*
X150771944Y-101307128D01*
X150858887Y-101288647D01*
X150952288Y-101268794D01*
X150958319Y-101266109D01*
X151120722Y-101193803D01*
X151120724Y-101193802D01*
X151126752Y-101191118D01*
X151281253Y-101078866D01*
X151285675Y-101073955D01*
X151404621Y-100941852D01*
X151404622Y-100941851D01*
X151409040Y-100936944D01*
X151504527Y-100771556D01*
X151563542Y-100589928D01*
X151580907Y-100424706D01*
X151607920Y-100359050D01*
X151617122Y-100348782D01*
X159042247Y-92923657D01*
X159050537Y-92916113D01*
X159057018Y-92912000D01*
X159103659Y-92862332D01*
X159106413Y-92859491D01*
X159126134Y-92839770D01*
X159128612Y-92836575D01*
X159136318Y-92827553D01*
X159161158Y-92801101D01*
X159166586Y-92795321D01*
X159176346Y-92777568D01*
X159187199Y-92761045D01*
X159194753Y-92751306D01*
X159199613Y-92745041D01*
X159217176Y-92704457D01*
X159222383Y-92693827D01*
X159243695Y-92655060D01*
X159245666Y-92647383D01*
X159245668Y-92647378D01*
X159248732Y-92635442D01*
X159255138Y-92616730D01*
X159258535Y-92608882D01*
X159263181Y-92598145D01*
X159264421Y-92590317D01*
X159264423Y-92590310D01*
X159270099Y-92554476D01*
X159272505Y-92542856D01*
X159281528Y-92507711D01*
X159281528Y-92507710D01*
X159283500Y-92500030D01*
X159283500Y-92479776D01*
X159285052Y-92460063D01*
X159286052Y-92453750D01*
X159293969Y-92437049D01*
X159289604Y-92430257D01*
X159285059Y-92406618D01*
X159284059Y-92396040D01*
X159283500Y-92384181D01*
X159283500Y-80998313D01*
X159303502Y-80930192D01*
X159354607Y-80884899D01*
X159354858Y-80884778D01*
X159355608Y-80884415D01*
X159425638Y-80872742D01*
X159490862Y-80900783D01*
X159530572Y-80959636D01*
X159536500Y-80997829D01*
X159536500Y-92394759D01*
X159525072Y-92433679D01*
X159535461Y-92457316D01*
X159536500Y-92473463D01*
X159536500Y-92697476D01*
X159516498Y-92765597D01*
X159504142Y-92781779D01*
X159430960Y-92863056D01*
X159335473Y-93028444D01*
X159276458Y-93210072D01*
X159256496Y-93400000D01*
X159257186Y-93406565D01*
X159269419Y-93522952D01*
X159276458Y-93589928D01*
X159335473Y-93771556D01*
X159430960Y-93936944D01*
X159558747Y-94078866D01*
X159713248Y-94191118D01*
X159719276Y-94193802D01*
X159719278Y-94193803D01*
X159863266Y-94257910D01*
X159887712Y-94268794D01*
X159981113Y-94288647D01*
X160068056Y-94307128D01*
X160068061Y-94307128D01*
X160074513Y-94308500D01*
X160265487Y-94308500D01*
X160271939Y-94307128D01*
X160271944Y-94307128D01*
X160358888Y-94288647D01*
X160452288Y-94268794D01*
X160476734Y-94257910D01*
X160620722Y-94193803D01*
X160620724Y-94193802D01*
X160626752Y-94191118D01*
X160781253Y-94078866D01*
X160909040Y-93936944D01*
X161004527Y-93771556D01*
X161063542Y-93589928D01*
X161070582Y-93522952D01*
X161082814Y-93406565D01*
X161083504Y-93400000D01*
X161063542Y-93210072D01*
X161004527Y-93028444D01*
X160909040Y-92863056D01*
X160835863Y-92781785D01*
X160805147Y-92717779D01*
X160803500Y-92697476D01*
X160803500Y-89900000D01*
X166256496Y-89900000D01*
X166276458Y-90089928D01*
X166335473Y-90271556D01*
X166430960Y-90436944D01*
X166558747Y-90578866D01*
X166713248Y-90691118D01*
X166719276Y-90693802D01*
X166719278Y-90693803D01*
X166881681Y-90766109D01*
X166887712Y-90768794D01*
X166981112Y-90788647D01*
X167068056Y-90807128D01*
X167068061Y-90807128D01*
X167074513Y-90808500D01*
X167265487Y-90808500D01*
X167271939Y-90807128D01*
X167271944Y-90807128D01*
X167358888Y-90788647D01*
X167452288Y-90768794D01*
X167458319Y-90766109D01*
X167620722Y-90693803D01*
X167620724Y-90693802D01*
X167626752Y-90691118D01*
X167653034Y-90672023D01*
X167719902Y-90648165D01*
X167789053Y-90664246D01*
X167832248Y-90705421D01*
X167833379Y-90707760D01*
X167868211Y-90751393D01*
X167895078Y-90817106D01*
X167882151Y-90886916D01*
X167868215Y-90908602D01*
X167833379Y-90952240D01*
X167830313Y-90958583D01*
X167830312Y-90958584D01*
X167804068Y-91012873D01*
X167753214Y-91118070D01*
X167751630Y-91124931D01*
X167722802Y-91249800D01*
X167711780Y-91297540D01*
X167711500Y-91302396D01*
X167711500Y-92107604D01*
X167711780Y-92112460D01*
X167712980Y-92117656D01*
X167712980Y-92117659D01*
X167736030Y-92217498D01*
X167753214Y-92291930D01*
X167756280Y-92298272D01*
X167821048Y-92432251D01*
X167833379Y-92457760D01*
X167868211Y-92501393D01*
X167895078Y-92567106D01*
X167882151Y-92636916D01*
X167868215Y-92658602D01*
X167833379Y-92702240D01*
X167830313Y-92708583D01*
X167830312Y-92708584D01*
X167812688Y-92745041D01*
X167753214Y-92868070D01*
X167751630Y-92874931D01*
X167714738Y-93034729D01*
X167711780Y-93047540D01*
X167711500Y-93052396D01*
X167711500Y-93857604D01*
X167711780Y-93862460D01*
X167712980Y-93867656D01*
X167712980Y-93867659D01*
X167730109Y-93941852D01*
X167753214Y-94041930D01*
X167772947Y-94082749D01*
X167799461Y-94137596D01*
X167833379Y-94207760D01*
X167948292Y-94351708D01*
X167953795Y-94356101D01*
X168071242Y-94449858D01*
X168092240Y-94466621D01*
X168098583Y-94469687D01*
X168098584Y-94469688D01*
X168148992Y-94494056D01*
X168258070Y-94546786D01*
X168264931Y-94548370D01*
X168432341Y-94587020D01*
X168432344Y-94587020D01*
X168437540Y-94588220D01*
X168442396Y-94588500D01*
X169997604Y-94588500D01*
X170002460Y-94588220D01*
X170007656Y-94587020D01*
X170007659Y-94587020D01*
X170175069Y-94548370D01*
X170181930Y-94546786D01*
X170291008Y-94494056D01*
X170341416Y-94469688D01*
X170341417Y-94469687D01*
X170347760Y-94466621D01*
X170368759Y-94449858D01*
X170486205Y-94356101D01*
X170491708Y-94351708D01*
X170606621Y-94207760D01*
X170640540Y-94137596D01*
X170667053Y-94082749D01*
X170686786Y-94041930D01*
X170709891Y-93941852D01*
X170727020Y-93867659D01*
X170727020Y-93867656D01*
X170728220Y-93862460D01*
X170728500Y-93857604D01*
X170728500Y-93052396D01*
X170728220Y-93047540D01*
X170725263Y-93034729D01*
X170688370Y-92874931D01*
X170686786Y-92868070D01*
X170627312Y-92745041D01*
X170609688Y-92708584D01*
X170609687Y-92708583D01*
X170606621Y-92702240D01*
X170571789Y-92658607D01*
X170544922Y-92592894D01*
X170557849Y-92523084D01*
X170571785Y-92501398D01*
X170606621Y-92457760D01*
X170618953Y-92432251D01*
X170683720Y-92298272D01*
X170686786Y-92291930D01*
X170703970Y-92217498D01*
X170727020Y-92117659D01*
X170727020Y-92117656D01*
X170728220Y-92112460D01*
X170728500Y-92107604D01*
X170728500Y-91302396D01*
X170728220Y-91297540D01*
X170717199Y-91249800D01*
X170688370Y-91124931D01*
X170686786Y-91118070D01*
X170635932Y-91012873D01*
X170609688Y-90958584D01*
X170609687Y-90958583D01*
X170606621Y-90952240D01*
X170571789Y-90908607D01*
X170544922Y-90842894D01*
X170557849Y-90773084D01*
X170571785Y-90751398D01*
X170606621Y-90707760D01*
X170627657Y-90664246D01*
X170667053Y-90582749D01*
X170686786Y-90541930D01*
X170728220Y-90362460D01*
X170728500Y-90357604D01*
X170728500Y-89552396D01*
X170728220Y-89547540D01*
X170725263Y-89534729D01*
X170688370Y-89374931D01*
X170686786Y-89368070D01*
X170637496Y-89266109D01*
X170609688Y-89208584D01*
X170609687Y-89208583D01*
X170606621Y-89202240D01*
X170571789Y-89158607D01*
X170544922Y-89092894D01*
X170557849Y-89023084D01*
X170571785Y-89001398D01*
X170606621Y-88957760D01*
X170629873Y-88909661D01*
X170677529Y-88857036D01*
X170743313Y-88838500D01*
X170801377Y-88838500D01*
X170869498Y-88858502D01*
X170910495Y-88901498D01*
X170930960Y-88936944D01*
X170935378Y-88941851D01*
X170935379Y-88941852D01*
X170949703Y-88957760D01*
X171058747Y-89078866D01*
X171213248Y-89191118D01*
X171219276Y-89193802D01*
X171219278Y-89193803D01*
X171381681Y-89266109D01*
X171387712Y-89268794D01*
X171481113Y-89288647D01*
X171568056Y-89307128D01*
X171568061Y-89307128D01*
X171574513Y-89308500D01*
X171765487Y-89308500D01*
X171771939Y-89307128D01*
X171771944Y-89307128D01*
X171858888Y-89288647D01*
X171952288Y-89268794D01*
X171958319Y-89266109D01*
X172120722Y-89193803D01*
X172120724Y-89193802D01*
X172126752Y-89191118D01*
X172281253Y-89078866D01*
X172390297Y-88957760D01*
X172404621Y-88941852D01*
X172404622Y-88941851D01*
X172409040Y-88936944D01*
X172467314Y-88836010D01*
X172501223Y-88777279D01*
X172501224Y-88777278D01*
X172504527Y-88771556D01*
X172563542Y-88589928D01*
X172583504Y-88400000D01*
X172563542Y-88210072D01*
X172504527Y-88028444D01*
X172409040Y-87863056D01*
X172281253Y-87721134D01*
X172182157Y-87649136D01*
X172132094Y-87612763D01*
X172132093Y-87612762D01*
X172126752Y-87608882D01*
X172120724Y-87606198D01*
X172120722Y-87606197D01*
X171958319Y-87533891D01*
X171958318Y-87533891D01*
X171952288Y-87531206D01*
X171914844Y-87523247D01*
X171852371Y-87489518D01*
X171818049Y-87427369D01*
X171822777Y-87356530D01*
X171865053Y-87299492D01*
X171914844Y-87276753D01*
X171952288Y-87268794D01*
X171958319Y-87266109D01*
X172120722Y-87193803D01*
X172120724Y-87193802D01*
X172126752Y-87191118D01*
X172281253Y-87078866D01*
X172409040Y-86936944D01*
X172504527Y-86771556D01*
X172563542Y-86589928D01*
X172571270Y-86516405D01*
X172582814Y-86406565D01*
X172583504Y-86400000D01*
X172563542Y-86210072D01*
X172504527Y-86028444D01*
X172409040Y-85863056D01*
X172281253Y-85721134D01*
X172126752Y-85608882D01*
X172120724Y-85606198D01*
X172120722Y-85606197D01*
X171958319Y-85533891D01*
X171958318Y-85533891D01*
X171952288Y-85531206D01*
X171858887Y-85511353D01*
X171771944Y-85492872D01*
X171771939Y-85492872D01*
X171765487Y-85491500D01*
X171574513Y-85491500D01*
X171568061Y-85492872D01*
X171568056Y-85492872D01*
X171481113Y-85511353D01*
X171387712Y-85531206D01*
X171381682Y-85533891D01*
X171381681Y-85533891D01*
X171219278Y-85606197D01*
X171219276Y-85606198D01*
X171213248Y-85608882D01*
X171207907Y-85612762D01*
X171207906Y-85612763D01*
X171087056Y-85700566D01*
X171058747Y-85721134D01*
X171054332Y-85726037D01*
X171049420Y-85730460D01*
X171048295Y-85729211D01*
X170994986Y-85762051D01*
X170961800Y-85766500D01*
X170715715Y-85766500D01*
X170647594Y-85746498D01*
X170609364Y-85707915D01*
X170606621Y-85702240D01*
X170571789Y-85658607D01*
X170544922Y-85592894D01*
X170557849Y-85523084D01*
X170571785Y-85501398D01*
X170606621Y-85457760D01*
X170611448Y-85447776D01*
X170683720Y-85298272D01*
X170686786Y-85291930D01*
X170728220Y-85112460D01*
X170728500Y-85107604D01*
X170728500Y-84302396D01*
X170728220Y-84297540D01*
X170712734Y-84230460D01*
X170688370Y-84124931D01*
X170686786Y-84118070D01*
X170645299Y-84032249D01*
X170609688Y-83958584D01*
X170609687Y-83958583D01*
X170606621Y-83952240D01*
X170491708Y-83808292D01*
X170347760Y-83693379D01*
X170181930Y-83613214D01*
X170175069Y-83611630D01*
X170007659Y-83572980D01*
X170007656Y-83572980D01*
X170002460Y-83571780D01*
X169997604Y-83571500D01*
X168442396Y-83571500D01*
X168437540Y-83571780D01*
X168432344Y-83572980D01*
X168432341Y-83572980D01*
X168264931Y-83611630D01*
X168258070Y-83613214D01*
X168092240Y-83693379D01*
X167948292Y-83808292D01*
X167833379Y-83952240D01*
X167830313Y-83958583D01*
X167830312Y-83958584D01*
X167787614Y-84046910D01*
X167739958Y-84099535D01*
X167671416Y-84118041D01*
X167622925Y-84107178D01*
X167458319Y-84033891D01*
X167458318Y-84033891D01*
X167452288Y-84031206D01*
X167358887Y-84011353D01*
X167271944Y-83992872D01*
X167271939Y-83992872D01*
X167265487Y-83991500D01*
X167074513Y-83991500D01*
X167068061Y-83992872D01*
X167068056Y-83992872D01*
X166981113Y-84011353D01*
X166887712Y-84031206D01*
X166881682Y-84033891D01*
X166881681Y-84033891D01*
X166719278Y-84106197D01*
X166719276Y-84106198D01*
X166713248Y-84108882D01*
X166707907Y-84112762D01*
X166707906Y-84112763D01*
X166657843Y-84149136D01*
X166558747Y-84221134D01*
X166430960Y-84363056D01*
X166335473Y-84528444D01*
X166276458Y-84710072D01*
X166256496Y-84900000D01*
X166276458Y-85089928D01*
X166335473Y-85271556D01*
X166338776Y-85277278D01*
X166338777Y-85277279D01*
X166364308Y-85321500D01*
X166430960Y-85436944D01*
X166435378Y-85441851D01*
X166435379Y-85441852D01*
X166449703Y-85457760D01*
X166558747Y-85578866D01*
X166713248Y-85691118D01*
X166719276Y-85693802D01*
X166719278Y-85693803D01*
X166837634Y-85746498D01*
X166887712Y-85768794D01*
X166975698Y-85787496D01*
X167068056Y-85807128D01*
X167068061Y-85807128D01*
X167074513Y-85808500D01*
X167265487Y-85808500D01*
X167271939Y-85807128D01*
X167271944Y-85807128D01*
X167364302Y-85787496D01*
X167452288Y-85768794D01*
X167458315Y-85766111D01*
X167458323Y-85766108D01*
X167584344Y-85710000D01*
X167654711Y-85700566D01*
X167719008Y-85730673D01*
X167756821Y-85790762D01*
X167754484Y-85865444D01*
X167753214Y-85868070D01*
X167751630Y-85874933D01*
X167714738Y-86034729D01*
X167711780Y-86047540D01*
X167711500Y-86052396D01*
X167711500Y-86857604D01*
X167711780Y-86862460D01*
X167753214Y-87041930D01*
X167833379Y-87207760D01*
X167868211Y-87251393D01*
X167895078Y-87317106D01*
X167882151Y-87386916D01*
X167868215Y-87408602D01*
X167833379Y-87452240D01*
X167830313Y-87458583D01*
X167830312Y-87458584D01*
X167794036Y-87533625D01*
X167753214Y-87618070D01*
X167751630Y-87624931D01*
X167727267Y-87730460D01*
X167711780Y-87797540D01*
X167711500Y-87802396D01*
X167711500Y-88607604D01*
X167711780Y-88612460D01*
X167753214Y-88791930D01*
X167833379Y-88957760D01*
X167836371Y-88961508D01*
X167855503Y-89028952D01*
X167834875Y-89096886D01*
X167780794Y-89142884D01*
X167710431Y-89152341D01*
X167655447Y-89129730D01*
X167632094Y-89112763D01*
X167632093Y-89112762D01*
X167626752Y-89108882D01*
X167620724Y-89106198D01*
X167620722Y-89106197D01*
X167458319Y-89033891D01*
X167458318Y-89033891D01*
X167452288Y-89031206D01*
X167358888Y-89011353D01*
X167271944Y-88992872D01*
X167271939Y-88992872D01*
X167265487Y-88991500D01*
X167074513Y-88991500D01*
X167068061Y-88992872D01*
X167068056Y-88992872D01*
X166981113Y-89011353D01*
X166887712Y-89031206D01*
X166881682Y-89033891D01*
X166881681Y-89033891D01*
X166719278Y-89106197D01*
X166719276Y-89106198D01*
X166713248Y-89108882D01*
X166558747Y-89221134D01*
X166554326Y-89226044D01*
X166554325Y-89226045D01*
X166462073Y-89328502D01*
X166430960Y-89363056D01*
X166335473Y-89528444D01*
X166276458Y-89710072D01*
X166275768Y-89716633D01*
X166275768Y-89716635D01*
X166268287Y-89787813D01*
X166256496Y-89900000D01*
X160803500Y-89900000D01*
X160803500Y-81975000D01*
X165106526Y-81975000D01*
X165126391Y-82227403D01*
X165127545Y-82232210D01*
X165127546Y-82232216D01*
X165157277Y-82356053D01*
X165185495Y-82473591D01*
X165187388Y-82478162D01*
X165187389Y-82478164D01*
X165272473Y-82683574D01*
X165282384Y-82707502D01*
X165414672Y-82923376D01*
X165579102Y-83115898D01*
X165771624Y-83280328D01*
X165987498Y-83412616D01*
X165992068Y-83414509D01*
X165992072Y-83414511D01*
X166216836Y-83507611D01*
X166221409Y-83509505D01*
X166306032Y-83529821D01*
X166462784Y-83567454D01*
X166462790Y-83567455D01*
X166467597Y-83568609D01*
X166567416Y-83576465D01*
X166654345Y-83583307D01*
X166654352Y-83583307D01*
X166656801Y-83583500D01*
X166783199Y-83583500D01*
X166785648Y-83583307D01*
X166785655Y-83583307D01*
X166872584Y-83576465D01*
X166972403Y-83568609D01*
X166977210Y-83567455D01*
X166977216Y-83567454D01*
X167133968Y-83529821D01*
X167218591Y-83509505D01*
X167223164Y-83507611D01*
X167447928Y-83414511D01*
X167447932Y-83414509D01*
X167452502Y-83412616D01*
X167668376Y-83280328D01*
X167860898Y-83115898D01*
X168025328Y-82923376D01*
X168157616Y-82707502D01*
X168167528Y-82683574D01*
X168252611Y-82478164D01*
X168252612Y-82478162D01*
X168254505Y-82473591D01*
X168282723Y-82356053D01*
X168312454Y-82232216D01*
X168312455Y-82232210D01*
X168313609Y-82227403D01*
X168333474Y-81975000D01*
X168313609Y-81722597D01*
X168311040Y-81711894D01*
X168255660Y-81481221D01*
X168254505Y-81476409D01*
X168157616Y-81242498D01*
X168025328Y-81026624D01*
X167860898Y-80834102D01*
X167668376Y-80669672D01*
X167452502Y-80537384D01*
X167447932Y-80535491D01*
X167447928Y-80535489D01*
X167223164Y-80442389D01*
X167223162Y-80442388D01*
X167218591Y-80440495D01*
X167133968Y-80420179D01*
X166977216Y-80382546D01*
X166977210Y-80382545D01*
X166972403Y-80381391D01*
X166872584Y-80373535D01*
X166785655Y-80366693D01*
X166785648Y-80366693D01*
X166783199Y-80366500D01*
X166656801Y-80366500D01*
X166654352Y-80366693D01*
X166654345Y-80366693D01*
X166567416Y-80373535D01*
X166467597Y-80381391D01*
X166462790Y-80382545D01*
X166462784Y-80382546D01*
X166306032Y-80420179D01*
X166221409Y-80440495D01*
X166216838Y-80442388D01*
X166216836Y-80442389D01*
X165992072Y-80535489D01*
X165992068Y-80535491D01*
X165987498Y-80537384D01*
X165771624Y-80669672D01*
X165579102Y-80834102D01*
X165414672Y-81026624D01*
X165282384Y-81242498D01*
X165185495Y-81476409D01*
X165184340Y-81481221D01*
X165128961Y-81711894D01*
X165126391Y-81722597D01*
X165106526Y-81975000D01*
X160803500Y-81975000D01*
X160803500Y-81084360D01*
X160823502Y-81016239D01*
X160877158Y-80969746D01*
X160901155Y-80961590D01*
X160980062Y-80943372D01*
X160980065Y-80943371D01*
X160986930Y-80941786D01*
X161152760Y-80861621D01*
X161196393Y-80826789D01*
X161262106Y-80799922D01*
X161331916Y-80812849D01*
X161353602Y-80826785D01*
X161397240Y-80861621D01*
X161563070Y-80941786D01*
X161569931Y-80943370D01*
X161737341Y-80982020D01*
X161737344Y-80982020D01*
X161742540Y-80983220D01*
X161747396Y-80983500D01*
X162552604Y-80983500D01*
X162557460Y-80983220D01*
X162562656Y-80982020D01*
X162562659Y-80982020D01*
X162730069Y-80943370D01*
X162736930Y-80941786D01*
X162902760Y-80861621D01*
X163046708Y-80746708D01*
X163161621Y-80602760D01*
X163241786Y-80436930D01*
X163261363Y-80352135D01*
X163282020Y-80262659D01*
X163282020Y-80262656D01*
X163283220Y-80257460D01*
X163283500Y-80252604D01*
X163283500Y-78697396D01*
X163283220Y-78692540D01*
X163276465Y-78663278D01*
X163243370Y-78519931D01*
X163241786Y-78513070D01*
X163161621Y-78347240D01*
X163074820Y-78238507D01*
X163047952Y-78172791D01*
X163053457Y-78120965D01*
X163063542Y-78089928D01*
X163070752Y-78021329D01*
X163097765Y-77955673D01*
X163155987Y-77915043D01*
X163196062Y-77908500D01*
X170598065Y-77908500D01*
X170666186Y-77928502D01*
G37*
%TD.AperFunction*%
%TA.AperFunction,Conductor*%
G36*
X147893130Y-77928502D02*
G01*
X147939623Y-77982158D01*
X147949727Y-78052432D01*
X147920233Y-78117012D01*
X147914104Y-78123595D01*
X143777747Y-82259952D01*
X143769461Y-82267492D01*
X143762982Y-82271604D01*
X143757557Y-82277381D01*
X143716357Y-82321255D01*
X143713602Y-82324097D01*
X143693865Y-82343834D01*
X143691385Y-82347031D01*
X143683682Y-82356051D01*
X143653414Y-82388283D01*
X143649595Y-82395229D01*
X143649593Y-82395232D01*
X143643652Y-82406038D01*
X143632801Y-82422557D01*
X143620386Y-82438563D01*
X143617241Y-82445832D01*
X143617238Y-82445836D01*
X143602826Y-82479141D01*
X143597609Y-82489791D01*
X143576305Y-82528544D01*
X143574334Y-82536219D01*
X143574334Y-82536220D01*
X143571267Y-82548166D01*
X143564863Y-82566870D01*
X143556819Y-82585459D01*
X143555580Y-82593282D01*
X143555577Y-82593292D01*
X143549901Y-82629128D01*
X143547495Y-82640748D01*
X143536500Y-82683574D01*
X143536500Y-82703828D01*
X143534949Y-82723538D01*
X143531780Y-82743547D01*
X143532526Y-82751439D01*
X143535941Y-82787565D01*
X143536500Y-82799423D01*
X143536500Y-86516405D01*
X143516498Y-86584526D01*
X143462842Y-86631019D01*
X143392568Y-86641123D01*
X143327988Y-86611629D01*
X143321405Y-86605500D01*
X143111250Y-86395345D01*
X143077224Y-86333033D01*
X143075035Y-86319421D01*
X143064232Y-86216636D01*
X143064232Y-86216635D01*
X143063542Y-86210072D01*
X143004527Y-86028444D01*
X142909040Y-85863056D01*
X142781253Y-85721134D01*
X142626752Y-85608882D01*
X142620724Y-85606198D01*
X142620722Y-85606197D01*
X142458319Y-85533891D01*
X142458318Y-85533891D01*
X142452288Y-85531206D01*
X142358887Y-85511353D01*
X142271944Y-85492872D01*
X142271939Y-85492872D01*
X142265487Y-85491500D01*
X142074513Y-85491500D01*
X142068061Y-85492872D01*
X142068056Y-85492872D01*
X141981113Y-85511353D01*
X141887712Y-85531206D01*
X141881682Y-85533891D01*
X141881681Y-85533891D01*
X141719278Y-85606197D01*
X141719276Y-85606198D01*
X141713248Y-85608882D01*
X141558747Y-85721134D01*
X141430960Y-85863056D01*
X141335473Y-86028444D01*
X141276458Y-86210072D01*
X141256496Y-86400000D01*
X141257186Y-86406565D01*
X141268731Y-86516405D01*
X141276458Y-86589928D01*
X141335473Y-86771556D01*
X141430960Y-86936944D01*
X141558747Y-87078866D01*
X141713248Y-87191118D01*
X141719276Y-87193802D01*
X141719278Y-87193803D01*
X141881681Y-87266109D01*
X141887712Y-87268794D01*
X141925156Y-87276753D01*
X141987629Y-87310482D01*
X142021951Y-87372631D01*
X142017223Y-87443470D01*
X141974947Y-87500508D01*
X141925156Y-87523247D01*
X141887712Y-87531206D01*
X141881682Y-87533891D01*
X141881681Y-87533891D01*
X141719278Y-87606197D01*
X141719276Y-87606198D01*
X141713248Y-87608882D01*
X141707907Y-87612762D01*
X141707906Y-87612763D01*
X141657843Y-87649136D01*
X141558747Y-87721134D01*
X141430960Y-87863056D01*
X141335473Y-88028444D01*
X141276458Y-88210072D01*
X141256496Y-88400000D01*
X141276458Y-88589928D01*
X141335473Y-88771556D01*
X141338776Y-88777278D01*
X141338777Y-88777279D01*
X141372686Y-88836010D01*
X141430960Y-88936944D01*
X141435378Y-88941851D01*
X141435379Y-88941852D01*
X141449703Y-88957760D01*
X141558747Y-89078866D01*
X141713248Y-89191118D01*
X141719276Y-89193802D01*
X141719278Y-89193803D01*
X141881681Y-89266109D01*
X141887712Y-89268794D01*
X141981113Y-89288647D01*
X142068056Y-89307128D01*
X142068061Y-89307128D01*
X142074513Y-89308500D01*
X142130405Y-89308500D01*
X142198526Y-89328502D01*
X142219501Y-89345405D01*
X142599596Y-89725501D01*
X142633621Y-89787813D01*
X142636500Y-89814596D01*
X142636500Y-93135405D01*
X142616498Y-93203526D01*
X142599595Y-93224501D01*
X142444499Y-93379596D01*
X142382187Y-93413621D01*
X142355404Y-93416500D01*
X139689579Y-93416500D01*
X139678396Y-93415973D01*
X139670903Y-93414298D01*
X139662977Y-93414547D01*
X139662976Y-93414547D01*
X139602826Y-93416438D01*
X139598867Y-93416500D01*
X139570956Y-93416500D01*
X139567022Y-93416997D01*
X139567021Y-93416997D01*
X139566956Y-93417005D01*
X139555119Y-93417938D01*
X139522861Y-93418952D01*
X139518842Y-93419078D01*
X139510923Y-93419327D01*
X139491469Y-93424979D01*
X139472112Y-93428987D01*
X139459882Y-93430532D01*
X139459881Y-93430532D01*
X139452015Y-93431526D01*
X139444644Y-93434445D01*
X139444642Y-93434445D01*
X139410900Y-93447804D01*
X139399670Y-93451649D01*
X139364829Y-93461771D01*
X139364828Y-93461771D01*
X139357219Y-93463982D01*
X139350400Y-93468015D01*
X139350395Y-93468017D01*
X139339784Y-93474293D01*
X139322036Y-93482988D01*
X139303195Y-93490448D01*
X139296779Y-93495110D01*
X139296778Y-93495110D01*
X139267425Y-93516436D01*
X139257505Y-93522952D01*
X139226277Y-93541420D01*
X139226274Y-93541422D01*
X139219450Y-93545458D01*
X139205129Y-93559779D01*
X139190096Y-93572619D01*
X139173705Y-93584528D01*
X139168654Y-93590634D01*
X139145514Y-93618605D01*
X139137524Y-93627384D01*
X132221708Y-100543199D01*
X132159396Y-100577225D01*
X132132613Y-100580104D01*
X127984595Y-100580104D01*
X127916474Y-100560102D01*
X127895499Y-100543199D01*
X127840404Y-100488103D01*
X127806379Y-100425790D01*
X127803500Y-100399008D01*
X127803500Y-94558354D01*
X127823502Y-94490233D01*
X127857228Y-94455142D01*
X127954665Y-94386916D01*
X127977527Y-94370908D01*
X127977530Y-94370906D01*
X127982038Y-94367749D01*
X128137749Y-94212038D01*
X128145188Y-94201415D01*
X128260899Y-94036162D01*
X128260900Y-94036160D01*
X128264056Y-94031653D01*
X128266379Y-94026671D01*
X128266382Y-94026666D01*
X128330652Y-93888837D01*
X128357120Y-93832076D01*
X128414115Y-93619371D01*
X128433307Y-93400000D01*
X128414115Y-93180629D01*
X128357120Y-92967924D01*
X128279515Y-92801498D01*
X128266382Y-92773334D01*
X128266379Y-92773329D01*
X128264056Y-92768347D01*
X128222210Y-92708585D01*
X128140908Y-92592473D01*
X128140906Y-92592470D01*
X128137749Y-92587962D01*
X127982038Y-92432251D01*
X127801654Y-92305944D01*
X127602076Y-92212880D01*
X127390573Y-92156207D01*
X127329951Y-92119255D01*
X127298929Y-92055394D01*
X127307358Y-91984900D01*
X127352561Y-91930153D01*
X127423185Y-91908500D01*
X139661377Y-91908500D01*
X139662148Y-91908502D01*
X139739721Y-91908976D01*
X139768152Y-91900850D01*
X139784915Y-91897272D01*
X139785753Y-91897152D01*
X139814187Y-91893080D01*
X139837564Y-91882451D01*
X139855087Y-91876004D01*
X139879771Y-91868949D01*
X139887365Y-91864157D01*
X139887368Y-91864156D01*
X139904780Y-91853170D01*
X139919865Y-91845030D01*
X139946782Y-91832792D01*
X139966235Y-91816030D01*
X139981239Y-91804927D01*
X140002958Y-91791224D01*
X140008897Y-91784499D01*
X140008901Y-91784496D01*
X140022532Y-91769062D01*
X140034724Y-91757018D01*
X140050327Y-91743573D01*
X140050329Y-91743570D01*
X140057127Y-91737713D01*
X140071094Y-91716165D01*
X140082385Y-91701291D01*
X140093431Y-91688783D01*
X140093432Y-91688782D01*
X140099378Y-91682049D01*
X140111943Y-91655287D01*
X140120263Y-91640309D01*
X140131471Y-91623017D01*
X140131473Y-91623012D01*
X140136352Y-91615485D01*
X140138922Y-91606892D01*
X140138924Y-91606887D01*
X140143711Y-91590880D01*
X140150372Y-91573436D01*
X140157467Y-91558324D01*
X140157468Y-91558322D01*
X140161281Y-91550200D01*
X140165830Y-91520983D01*
X140169613Y-91504268D01*
X140175515Y-91484534D01*
X140175516Y-91484528D01*
X140178086Y-91475934D01*
X140178296Y-91441494D01*
X140178329Y-91440711D01*
X140178500Y-91439614D01*
X140178500Y-91408623D01*
X140178502Y-91407853D01*
X140178952Y-91334215D01*
X140178952Y-91334214D01*
X140178976Y-91330279D01*
X140178592Y-91328935D01*
X140178500Y-91327590D01*
X140178500Y-78034500D01*
X140198502Y-77966379D01*
X140252158Y-77919886D01*
X140304500Y-77908500D01*
X147825009Y-77908500D01*
X147893130Y-77928502D01*
G37*
%TD.AperFunction*%
%TA.AperFunction,Conductor*%
G36*
X150458621Y-80053502D02*
G01*
X150505114Y-80107158D01*
X150516500Y-80159500D01*
X150516500Y-80252604D01*
X150516780Y-80257460D01*
X150517980Y-80262656D01*
X150517980Y-80262659D01*
X150538637Y-80352135D01*
X150558214Y-80436930D01*
X150638379Y-80602760D01*
X150753292Y-80746708D01*
X150897240Y-80861621D01*
X151063070Y-80941786D01*
X151069931Y-80943370D01*
X151237341Y-80982020D01*
X151237344Y-80982020D01*
X151242540Y-80983220D01*
X151247396Y-80983500D01*
X152052604Y-80983500D01*
X152057460Y-80983220D01*
X152062656Y-80982020D01*
X152062659Y-80982020D01*
X152230069Y-80943370D01*
X152236930Y-80941786D01*
X152355662Y-80884389D01*
X152425697Y-80872749D01*
X152490908Y-80900821D01*
X152530590Y-80959692D01*
X152536500Y-80997829D01*
X152536500Y-81197476D01*
X152516498Y-81265597D01*
X152504142Y-81281779D01*
X152430960Y-81363056D01*
X152335473Y-81528444D01*
X152276458Y-81710072D01*
X152275768Y-81716633D01*
X152275768Y-81716635D01*
X152274623Y-81727531D01*
X152256496Y-81900000D01*
X152257186Y-81906565D01*
X152275220Y-82078145D01*
X152276458Y-82089928D01*
X152335473Y-82271556D01*
X152338777Y-82277278D01*
X152338778Y-82277281D01*
X152353338Y-82302499D01*
X152370077Y-82371494D01*
X152346857Y-82438586D01*
X152291051Y-82482474D01*
X152244220Y-82491500D01*
X152074513Y-82491500D01*
X152068061Y-82492872D01*
X152068056Y-82492872D01*
X151981112Y-82511353D01*
X151887712Y-82531206D01*
X151881682Y-82533891D01*
X151881681Y-82533891D01*
X151719278Y-82606197D01*
X151719276Y-82606198D01*
X151713248Y-82608882D01*
X151558747Y-82721134D01*
X151554326Y-82726044D01*
X151554325Y-82726045D01*
X151545616Y-82735718D01*
X151430960Y-82863056D01*
X151335473Y-83028444D01*
X151276458Y-83210072D01*
X151275768Y-83216633D01*
X151275768Y-83216635D01*
X151257186Y-83393435D01*
X151256496Y-83400000D01*
X151257186Y-83406565D01*
X151274551Y-83571780D01*
X151276458Y-83589928D01*
X151335473Y-83771556D01*
X151338776Y-83777278D01*
X151338777Y-83777279D01*
X151359860Y-83813795D01*
X151430960Y-83936944D01*
X151435378Y-83941851D01*
X151435379Y-83941852D01*
X151538329Y-84056190D01*
X151569047Y-84120197D01*
X151560282Y-84190651D01*
X151514819Y-84245182D01*
X151444693Y-84266500D01*
X151378200Y-84266500D01*
X151310079Y-84246498D01*
X151290853Y-84230157D01*
X151290580Y-84230460D01*
X151285668Y-84226037D01*
X151281253Y-84221134D01*
X151236865Y-84188884D01*
X151132094Y-84112763D01*
X151132093Y-84112762D01*
X151126752Y-84108882D01*
X151120724Y-84106198D01*
X151120722Y-84106197D01*
X150958319Y-84033891D01*
X150958318Y-84033891D01*
X150952288Y-84031206D01*
X150858887Y-84011353D01*
X150771944Y-83992872D01*
X150771939Y-83992872D01*
X150765487Y-83991500D01*
X150574513Y-83991500D01*
X150568061Y-83992872D01*
X150568056Y-83992872D01*
X150481113Y-84011353D01*
X150387712Y-84031206D01*
X150381682Y-84033891D01*
X150381681Y-84033891D01*
X150219278Y-84106197D01*
X150219276Y-84106198D01*
X150213248Y-84108882D01*
X150207907Y-84112762D01*
X150207906Y-84112763D01*
X150157843Y-84149136D01*
X150058747Y-84221134D01*
X149930960Y-84363056D01*
X149835473Y-84528444D01*
X149776458Y-84710072D01*
X149756496Y-84900000D01*
X149776458Y-85089928D01*
X149835473Y-85271556D01*
X149838776Y-85277278D01*
X149838777Y-85277279D01*
X149864308Y-85321500D01*
X149930960Y-85436944D01*
X149935378Y-85441851D01*
X149935379Y-85441852D01*
X150046883Y-85565690D01*
X150077601Y-85629697D01*
X150068836Y-85700151D01*
X150046886Y-85734307D01*
X150005913Y-85779812D01*
X149945470Y-85817050D01*
X149912279Y-85821500D01*
X149643313Y-85821500D01*
X149575192Y-85801498D01*
X149529873Y-85750339D01*
X149513879Y-85717255D01*
X149506621Y-85702240D01*
X149391708Y-85558292D01*
X149247760Y-85443379D01*
X149222621Y-85431226D01*
X149088272Y-85366280D01*
X149088273Y-85366280D01*
X149081930Y-85363214D01*
X149075069Y-85361630D01*
X148907659Y-85322980D01*
X148907656Y-85322980D01*
X148902460Y-85321780D01*
X148897604Y-85321500D01*
X147342396Y-85321500D01*
X147337540Y-85321780D01*
X147332344Y-85322980D01*
X147332341Y-85322980D01*
X147164931Y-85361630D01*
X147158070Y-85363214D01*
X147151727Y-85366280D01*
X147151728Y-85366280D01*
X147017380Y-85431226D01*
X146992240Y-85443379D01*
X146848292Y-85558292D01*
X146733379Y-85702240D01*
X146730313Y-85708583D01*
X146730312Y-85708584D01*
X146726122Y-85717251D01*
X146653214Y-85868070D01*
X146651630Y-85874931D01*
X146614738Y-86034729D01*
X146611780Y-86047540D01*
X146611500Y-86052396D01*
X146611500Y-86857604D01*
X146611780Y-86862460D01*
X146653214Y-87041930D01*
X146733379Y-87207760D01*
X146768211Y-87251393D01*
X146795078Y-87317106D01*
X146782151Y-87386916D01*
X146768215Y-87408602D01*
X146733379Y-87452240D01*
X146730313Y-87458583D01*
X146730312Y-87458584D01*
X146694036Y-87533625D01*
X146653214Y-87618070D01*
X146651630Y-87624931D01*
X146627267Y-87730460D01*
X146611780Y-87797540D01*
X146611500Y-87802396D01*
X146611500Y-88607604D01*
X146611780Y-88612460D01*
X146653214Y-88791930D01*
X146733379Y-88957760D01*
X146768211Y-89001393D01*
X146795078Y-89067106D01*
X146782151Y-89136916D01*
X146768215Y-89158602D01*
X146733379Y-89202240D01*
X146730313Y-89208583D01*
X146730312Y-89208584D01*
X146702504Y-89266109D01*
X146653214Y-89368070D01*
X146651630Y-89374931D01*
X146614738Y-89534729D01*
X146611780Y-89547540D01*
X146611500Y-89552396D01*
X146611500Y-90357604D01*
X146611780Y-90362460D01*
X146653214Y-90541930D01*
X146672947Y-90582749D01*
X146712344Y-90664246D01*
X146733379Y-90707760D01*
X146768211Y-90751393D01*
X146795078Y-90817106D01*
X146782151Y-90886916D01*
X146768215Y-90908602D01*
X146733379Y-90952240D01*
X146730313Y-90958583D01*
X146730312Y-90958584D01*
X146704068Y-91012873D01*
X146653214Y-91118070D01*
X146651630Y-91124931D01*
X146622802Y-91249800D01*
X146611780Y-91297540D01*
X146611500Y-91302396D01*
X146611500Y-92107604D01*
X146611780Y-92112460D01*
X146612980Y-92117656D01*
X146612980Y-92117659D01*
X146636030Y-92217498D01*
X146653214Y-92291930D01*
X146656280Y-92298272D01*
X146721048Y-92432251D01*
X146733379Y-92457760D01*
X146768211Y-92501393D01*
X146795078Y-92567106D01*
X146782151Y-92636916D01*
X146768215Y-92658602D01*
X146733379Y-92702240D01*
X146730313Y-92708583D01*
X146730312Y-92708584D01*
X146712688Y-92745041D01*
X146653214Y-92868070D01*
X146651630Y-92874931D01*
X146614738Y-93034729D01*
X146611780Y-93047540D01*
X146611500Y-93052396D01*
X146611500Y-93857604D01*
X146611780Y-93862460D01*
X146612980Y-93867656D01*
X146612980Y-93867659D01*
X146630109Y-93941852D01*
X146653214Y-94041930D01*
X146672947Y-94082749D01*
X146699461Y-94137596D01*
X146733379Y-94207760D01*
X146768211Y-94251393D01*
X146795078Y-94317106D01*
X146782151Y-94386916D01*
X146768215Y-94408602D01*
X146733379Y-94452240D01*
X146730313Y-94458582D01*
X146730312Y-94458584D01*
X146710148Y-94500296D01*
X146662492Y-94552921D01*
X146600625Y-94571396D01*
X146600163Y-94571410D01*
X146599241Y-94571439D01*
X146595325Y-94571500D01*
X146567426Y-94571500D01*
X146563436Y-94572004D01*
X146551602Y-94572936D01*
X146507393Y-94574326D01*
X146499779Y-94576538D01*
X146499774Y-94576539D01*
X146487941Y-94579977D01*
X146468578Y-94583988D01*
X146448485Y-94586526D01*
X146448159Y-94583946D01*
X146389877Y-94581947D01*
X146331502Y-94541538D01*
X146304241Y-94475984D01*
X146303500Y-94462339D01*
X146303500Y-94459776D01*
X146305051Y-94440065D01*
X146306980Y-94427886D01*
X146308220Y-94420057D01*
X146304059Y-94376038D01*
X146303500Y-94364181D01*
X146303500Y-82214594D01*
X146323502Y-82146473D01*
X146340405Y-82125499D01*
X148395500Y-80070405D01*
X148457812Y-80036379D01*
X148484595Y-80033500D01*
X150390500Y-80033500D01*
X150458621Y-80053502D01*
G37*
%TD.AperFunction*%
%TD*%
M02*
